<?xml version="1.0" standalone="no"?>
<!DOCTYPE svg PUBLIC "-//W3C//DTD SVG 1.1//EN" "http://www.w3.org/Graphics/SVG/1.1/DTD/svg11.dtd">
<svg xmlns="http://www.w3.org/2000/svg">
<metadata>Generated by Fontastic.me</metadata>
<defs>
<font id="cgfont" horiz-adv-x="512">
<font-face font-family="cgfont" units-per-em="512" ascent="480" descent="-32"/>
<missing-glyph horiz-adv-x="512" />

<glyph glyph-name="cg-quality" unicode="&#113;" d="M171 433l-81-55-26 0c-14 0-27 0-29 0-10-1-17-8-19-17-1-4-1-276 0-281 1-4 3-8 6-11 3-3 7-5 11-6 2 0 56-1 224 0l220 0 3 1c6 2 11 7 13 12 0 2 1 3 1 3 1 2 1 282 0 282 0 0 0 0 0 1 0 2-3 7-6 10-3 3-8 5-13 6-2 0-15 0-29 0l-26 0-81 55c-81 54-82 54-84 54-3 0-3 0-84-54z m76 24c0-9 1-11 5-13 3-1 7 0 9 2 2 2 2 4 2 11 0 3 0 6 0 6 0 0 29-19 64-42 35-23 64-43 64-43-21 0-271 0-271 1 0 0 126 84 126 84 1 0 1-3 1-6z m228-96c4-1 3 11 3-141 0-149 0-138-3-140-1-1-17-1-220-1-198 0-220 0-221 1-2 2-2-8-2 140 0 152-1 140 3 141 2 1 437 1 440 0z m-386-53c-3-7-5-14-5-14-1-1-4-1-15-1-8 0-14 0-14 0 0 0 5-4 11-8 8-6 12-9 12-10 0 0-2-6-4-13-4-12-5-14-4-14 0 0 5 4 11 9 7 4 12 8 12 8 1 0 6-4 12-8 6-5 12-9 12-9 0 1-2 6-4 14-3 7-4 13-4 13 0 1 5 5 11 10 6 4 12 8 11 8 0 0-6 0-14 0-11 0-14 0-14 1-1 1-7 20-9 26 0 1-1 1-1 1 0 0-2-6-4-13z m82 12c0-1-2-7-4-14-2-6-4-12-5-12 0 0-7-1-14-1-8 0-14 0-14 0 0 0 5-4 11-9 7-4 12-8 12-8 0-1-8-25-9-27 0 0 0-1 0-1 1 0 6 4 12 9 6 4 12 8 12 8 0 0 5-3 10-7 13-10 13-10 13-10 1 1-1 7-4 14-3 11-4 14-3 14 0 1 5 4 11 9 6 4 11 8 11 8 0 0-5 1-14 0-8 0-14 1-15 1 0 0-8 25-8 26 0 2-1 1-2 0z m78-12c-2-7-5-14-5-14 0-1-4-1-14-1-8 0-15 0-15 0 0 0 3-2 6-4 13-9 18-13 17-13 0-1-2-7-7-25-1-1-1-2-1-2 0-1 5 3 12 7 6 5 11 9 11 9 1 0 6-4 12-8 7-5 12-9 12-9 0 1-2 6-4 14-2 7-4 13-4 13 0 1 5 5 11 10 7 4 12 8 12 8 0 0-7 0-15 0-10 0-14 0-14 1-1 1-3 9-8 24-1 1-1 3-1 3-1 0-3-6-5-13z m86 12c-1-1-6-16-7-21-2-4-2-5-3-5-1-1-7-1-15-1-7 1-13 0-13 0 0 0 3-3 15-11 4-3 8-6 8-6 0 0-3-8-7-21-1-4-2-6-1-7 0 0 2 2 15 11 4 3 8 6 8 6 0 0 4-3 9-6 12-9 14-11 15-11 0 1-6 18-8 26-1 2-1 2 0 2 0 1 3 3 6 5 3 2 8 6 11 8 3 2 5 4 5 4 0 0-6 1-13 0-8 0-14 0-15 1-1 0-1 0-6 16-3 10-4 12-4 10z m81 0c-1-5-8-25-9-26 0-1-3-1-14-1-8 0-14 0-14 0-1 0 5-4 11-8 11-9 11-9 11-10 0-2-7-24-8-26 0 0 0-1 0-1 0 0 6 4 12 9 6 4 11 8 12 8 0 0 5-4 12-8 6-5 11-9 11-9 1 0 0 2-4 15-2 7-4 13-4 13 0 0 5 4 12 9 6 4 11 8 11 8 0 0-7 0-14 0-11 0-14 0-15 1 0 0-2 7-5 14-2 7-4 13-4 13 0 0-1 0-1-1z m-272-133c-7-1-8-10-2-14l2-1 222 0 2 1c6 4 4 13-3 14-2 1-218 1-221 0z m39-41c-2-2-4-5-4-7 0-2 1-6 3-7l2-1 142 0 2 1c2 1 3 5 3 7 0 2-2 5-4 7l-3 1-139 0z"/>
<glyph glyph-name="cg-location" unicode="&#114;" d="M368 494c-26-3-49-20-61-44-2-3-3-6-3-6 0-1 0-1 0-1 0 0-4 2-9 4-23 12-44 16-69 16-16-1-27-3-41-7-44-15-79-51-93-95-3-13-5-23-5-38-1-20 3-38 10-57 4-8 6-12 26-47 25-43 34-59 50-88 4-6 8-13 10-17 2-3 6-10 9-15 6-11 17-29 25-45 9-14 9-14 11-15 2-1 3 0 5 1 1 1 4 6 8 12 9 17 24 43 41 72 10 17 16 27 19 33 1 2 7 11 12 20 16 27 28 49 35 62 10 17 10 17 13 24 4 10 8 22 10 35 1 6 1 8 1 22l0 16 9 0c9 0 12 1 18 2 14 4 29 14 39 25 13 15 20 33 20 52 0 33-20 62-51 74-4 2-7 3-14 4-3 1-21 2-25 1z m19-10c9-2 14-3 22-7 9-4 16-10 22-17 8-10 13-21 15-33 1-6 1-17 0-23-4-23-19-43-41-52-10-4-23-7-33-5-17 1-32 8-43 21-23 23-26 58-8 85 4 7 13 15 19 20 14 9 30 13 47 11z m-149-32c20-1 37-6 54-15 6-4 8-5 8-6-1-12-2-15-1-22 1-11 3-19 8-29 10-20 28-35 49-41 2-1 4-2 5-2 0 0 1-4 1-9 2-21-3-44-12-64-2-4-9-17-41-72-5-7-12-21-18-31-11-19-15-26-23-41-4-5-8-13-10-17-2-3-6-9-8-13-9-15-18-31-19-33-1-2-2-2-3 0 0 1-11 20-17 30-1 3-5 10-8 15-3 5-11 18-18 30-13 23-30 51-34 59-11 19-13 23-18 31-2 4-7 12-9 16-3 5-5 9-6 10-9 17-13 25-16 38-4 13-4 18-4 34 0 15 0 18 2 29 2 6 2 6 4 13 7 20 20 42 37 56 23 21 52 33 84 34 2 0 4 0 4 1 1 0 4-1 9-1z m137 10c-2-2-2-2-2-26 0-18 0-22 1-23 1-3 1-3 23-3l20 0 2 2c2 2 2 5 0 7l-1 1-17 0-17 1 0 19-1 20-1 1c-1 1-2 2-3 2-2 0-3-1-4-1z m-155-79c-20-4-38-16-47-35-4-6-5-12-6-20-3-19 4-40 19-54 22-21 54-24 79-7 5 3 14 12 17 17 15 22 15 49 0 71-4 8-14 16-22 21-12 6-27 9-40 7z m19-11c8-2 14-4 21-8 3-3 11-11 14-14 12-19 12-42 0-60-3-4-11-12-14-14-25-16-56-11-73 12-15 21-14 49 4 69 6 5 13 10 20 13 9 3 20 4 28 2z"/>
<glyph glyph-name="cg-fair" unicode="&#115;" d="M243 469c-4-1-18-2-19-2 0-1 1-8 1-9 0 0 3 1 7 1 3 1 11 1 16 1l10 1 0 4 0 4-6 0c-4 0-8 0-9 0z m32-4c-1-6-2-5 6-6 6-1 19-3 25-5 0 0 1 1 1 3 1 2 1 4 1 5 0 1-20 5-30 6l-3 0z m-75-3c-11-4-25-9-25-10 0 0 1-2 2-4 1-3 1-3 2-3 6 3 17 6 22 8 4 1 7 2 8 2 0 1-2 8-2 8 0 0-3 0-7-1z m123-9c0-2-1-4-1-4 0 0 2-1 4-2 5-1 12-5 19-8l7-4 2 4c1 2 2 4 1 4-1 2-28 14-30 14 0 0-1-2-2-4z m-81-1c-46-5-87-23-118-55-30-30-48-67-54-110-2-11-2-34 0-46 6-43 24-79 54-109 29-30 66-48 109-54 12-1 34-1 46 0 10 2 19 3 28 6 3 1 6 2 7 1 7-14 15-25 28-34 10-7 22-12 35-14 5-1 18-1 23 0 33 5 60 29 68 61 1 6 3 15 3 20 0 5-2 14-3 20-4 15-11 27-22 38l-3 3 3 7c2 6 5 14 7 20l1 3-3 1c-5 1-6 1-6 0 0-2-8-24-9-25 0 0-5 3-7 4-1 0 0 1 0 3 7 17 11 31 13 49 2 12 2 35 0 46-4 34-16 63-35 90-31 41-76 67-127 74-9 1-30 1-38 1z m37-10c42-6 77-23 106-53 28-29 44-62 49-104 1-6 1-35 0-41-2-17-5-30-11-44-1-3-2-6-2-6 0 0-4 0-7 2-19 6-38 5-56-2-19-8-34-22-43-41-6-11-8-22-8-35 0-8 1-13 2-20 1-2 1-4 1-4-1-2-21-6-33-8-7 0-35 0-41 0-28 4-50 12-71 24-21 13-40 30-54 50-18 25-28 51-33 84-1 6-1 35 0 41 4 27 11 49 24 71 13 21 30 40 50 54 25 18 54 29 84 32 2 1 5 1 6 1 5 1 32 0 37-1z m126-257c9-2 17-6 25-12 13-9 22-23 26-40 1-5 1-6 1-15 0-10 0-14-3-22-5-16-17-30-32-39-5-3-13-6-20-7-7-2-20-2-27 0-6 1-13 4-18 6-8 4-18 13-24 21-4 5-8 14-10 19-3 8-3 12-3 22 0 9 0 10 1 15 4 16 12 28 23 38 10 8 20 13 33 15 3 1 7 1 13 1 8 0 10-1 15-2z m-219 214c0 0-1-1-1-1-1 0-1-1-1-6l0-6 2 1c6 1 9 1 17 1 9 0 15-1 23-3 11-4 20-9 27-17 8-7 13-15 16-24 2-3 3-10 3-11 0 0-19 0-43 0l-43 0 0-10 87 0 0-5c-1-7-3-15-6-21-9-18-27-31-49-36-6-2-20-2-27-1-3 0-6 1-6 1-1 0-1-1-1-6l0-6 2 0c3 0 6-3 49-50 26-27 49-51 51-53l5-5 3 4 4 3-47 50-47 50 2 0c34 1 63 21 74 51 2 5 4 13 4 19l0 5 54 0 0 10-54 0-1 4c-3 16-12 31-24 42-4 3-13 10-15 11-1 0 17 0 46 0l48 0 0 10-76 0c-65 0-76 0-76-1z m238-250c-1-1-12-11-25-24l-23-23-11 11c-11 11-13 12-16 11-1 0-4-3-4-4-1-4-1-4 14-19l15-15 2 1 3 0 26 26c14 14 27 27 27 27 2 3 0 7-3 9-2 1-3 1-5 0z m-271 293c-6-4-18-12-21-14l-1-1 2-3c3-3 3-4 4-3 4 3 18 12 22 14l4 3-2 3c-1 2-2 4-2 4 0 0-3-2-6-3z m215-11c-1-2-2-4-2-4 0 0 2-2 5-4 6-4 12-10 17-14 1-1 3-2 3-2 0 0 2 1 3 3l3 3-4 3c-7 6-10 9-16 13-7 5-6 5-9 2z m-259-24c-5-4-10-10-12-12l-3-4 3-2c2-2 4-3 4-3 0 0 2 2 4 5 2 2 7 7 11 11 4 4 7 8 7 8 0 0-5 6-6 6 0 0-4-4-8-9z m296-10l-3-3 5-5c3-4 7-9 9-12 7-10 6-9 10-6 2 1 3 2 3 2 0 1-6 10-10 15-4 5-10 12-10 12-1 0-2-1-4-3z m-325-26c-2-3-6-10-8-15-4-7-4-8-4-9 1 0 3-1 4-2l3-1 4 8c3 6 8 14 11 19l1 2-3 2c-1 1-3 2-3 2-1 0-2-2-5-6z m354-15l-4-2 2-4c3-6 7-15 9-21 1-2 2-4 2-4 0-1 2 0 4 0l4 2-2 5c-4 11-10 25-11 26-1 0-3-1-4-2z m-373-25c-1-2-8-29-8-32 0-1 7-2 8-1 0 0 1 2 1 4 1 5 3 13 5 20 1 4 2 7 2 7-1 1-8 3-8 2z m391-22c-2 0-4-1-4-1 0 0 0-3 1-7 1-8 3-18 3-22 0-3 0-3 4-3l4 1 0 4c-1 9-4 29-5 29 0 0-2 0-3-1z m-402-28c0-1 0-22 0-28l0-5 2 0c1 0 3 0 4 0l3 0 0 33-3 0c-4 1-5 1-6 0z m402-25c0-5-1-14-2-22-1-4-1-7-1-7 0 0 8-1 8-1 1 1 4 24 4 31l0 3-9 0z m-397-25c-1 0-3 0-3 0 0-1 4-21 7-29l1-4 4 1 4 1-1 4c-1 6-5 19-6 24 0 4 0 4-6 3z m15-48c-1 0-3-1-3-1-1-1 14-29 15-30 1 0 7 3 7 4 0 0-1 3-3 6-2 3-5 10-7 14-3 5-5 9-5 9 0 0-2-1-4-2z m27-42c-1 0-2-1-3-2l-1-1 4-5c2-3 7-9 11-13l7-7 3 3 3 3-5 5c-5 6-14 16-16 18-1 1-1 1-3-1z m36-34c-1-1-2-2-3-3l-1-3 4-3c7-5 23-15 24-15 0 0 4 6 4 7 0 0-2 1-4 2-4 3-15 10-19 13-2 2-4 3-4 3 0 0-1 0-1-1z m41-28c-1-2-1-3-1-4 1-1 25-10 30-10l2-1 1 4c0 2 0 4 0 4 0 0-3 1-7 2-5 2-17 6-23 9 0 0-1-2-2-4z m134-5c-5-2-21-5-24-5l-1 0 0-4c1-3 1-5 1-5 1-1 33 6 33 8 0 0-1 2-1 4-1 2-1 3-2 3-1 0-3-1-6-1z m-86-6c0-4-1-7 0-7 1-2 39-4 44-3 1 0 1 1 1 4l0 4-15 1c-12 0-23 1-28 2-1 0-1 0-2-1z"/>
<glyph glyph-name="air-conditioner" unicode="&#97;" d="M507 355c-32 33-70 58-113 76-43 19-90 28-138 28-48 0-95-9-138-28-43-18-81-43-113-76-5-5-6-13-3-19l121-204c3-5 8-8 14-8l15 0c2-7 4-14 7-21 2-6 5-12 6-18 2-6 3-11 3-16 0-9 7-16 15-16 9 0 16 7 16 16 0 7-1 15-3 24-2 7-5 14-8 21-1 4-2 7-3 10l48 0c2-7 4-14 7-21 2-6 5-12 6-18 2-6 3-11 3-17 0-8 7-15 15-15 9 0 16 7 16 15 0 8-1 16-3 25-2 7-5 14-8 21-1 4-2 7-3 10l48 0c2-7 4-14 7-21 2-6 5-12 6-18 2-6 2-11 2-17 0-8 7-15 16-15 9 0 16 7 16 15 0 8-1 16-3 25-2 7-5 14-8 21-1 4-2 7-3 10l28 0c6 0 11 3 14 8l121 204c3 6 2 14-3 19z m-165-199c1 3 1 6 2 9 2 6 4 12 6 18 3 7 6 15 8 22 2 8 3 16 3 24 0 8-1 16-3 24-1 4-3 8-4 11l13 0c6 0 9 7 5 12l-29 28c-3 3-7 3-9 0l-29-28c-4-5-1-12 5-12l11 0c0 0 0 0 0 0 2-7 5-13 6-19 2-6 2-11 2-16 0-5 0-10-2-16-1-6-4-12-6-19-3-7-5-14-7-21-2-6-3-12-3-17l-50 0c1 3 1 6 2 9 2 6 4 12 6 18 3 7 6 15 8 22 2 8 3 16 3 24 0 8-1 16-3 24-1 4-3 8-4 11l12 0c6 0 9 7 4 12l-28 28c-3 3-7 3-10 0l-28-28c-5-5-2-12 4-12l13 0c0 0 0 0 0 0 2-7 5-13 6-19 2-6 3-11 3-16 0-5-1-10-3-16-1-6-4-12-6-19-3-7-5-14-7-21-2-6-3-12-3-17l-50 0c1 3 1 6 2 9 2 6 4 12 6 18 3 7 6 15 8 22 2 8 3 16 3 24 0 8-1 16-3 24-1 4-3 8-4 11l10 0c6 0 9 7 5 12l-29 28c-2 3-6 3-9 0l-29-28c-4-5-1-12 5-12l14 0c0 0 0 0 0 0 2-7 5-13 6-19 2-6 3-11 3-16 0-5-1-10-3-16-1-6-4-12-6-19-3-7-5-14-7-21-2-6-3-12-3-17l-3 0-111 185c61 56 138 87 221 87 83 0 160-31 221-87l-111-185z"/>
<glyph glyph-name="cg-accheck2" unicode="&#98;" d="M256 512c-141 0-256-115-256-256 0-141 115-256 256-256 141 0 256 115 256 256 0 141-115 256-256 256z m0-492c-130 0-236 106-236 236 0 130 106 236 236 236 130 0 236-106 236-236 0-130-106-236-236-236z m133 171l-22 12 17 5c5 1 9 7 7 12-1 5-7 8-12 7l-36-10-18 11 43 19c4 2 6 5 6 9 0 4-2 7-6 9l-43 19 18 11 36-10c1 0 2 0 3 0 4 0 8 2 9 7 2 5-2 11-7 12l-17 5 22 12c5 3 6 9 3 14-2 4-8 6-13 3l-22-12 5 17c1 5-2 11-7 12-6 1-11-2-12-7l-10-36-18-11 5 48c0 4-2 7-5 9-3 2-8 2-11 0l-38-28 0 20 27 27c3 4 3 10 0 14-4 4-11 4-14 0l-13-13 0 26c0 5-5 10-10 10-5 0-10-5-10-10l0-26-13 13c-3 4-10 4-13 0-4-4-4-10 0-14l26-27 0-20-38 28c-3 2-8 2-11 0-3-2-5-5-5-9l5-48-18 11-10 36c-1 5-6 8-12 7-5-1-8-7-7-12l5-17-22 12c-5 3-11 1-13-3-3-5-2-11 3-14l22-12-17-5c-5-1-9-7-7-12 1-5 5-7 9-7 1 0 2 0 3 0l36 10 18-11-43-19c-4-2-6-5-6-9 0-4 2-7 6-9l43-19-18-11-36 10c-5 1-11-2-12-7-2-5 2-11 7-12l17-5-22-12c-5-3-6-9-3-14 1-3 5-5 8-5 2 0 3 1 5 2l22 12-5-17c-1-5 2-11 7-12 1 0 2 0 3 0 4 0 8 2 9 7l10 36 18 11-5-48c0-4 2-7 5-9 3-2 8-2 11 0l38 28 0-20-26-27c-4-4-4-10 0-14 3-4 10-4 13 0l13 13 0-26c0-5 5-10 10-10 5 0 10 5 10 10l0 26 13-13c2-2 4-3 7-3 2 0 5 1 7 3 3 4 3 10 0 14l-27 27 0 20 38-28c2-1 4-2 6-2 2 0 4 1 5 2 3 2 5 5 5 9l-5 48 18-11 10-36c1-5 5-7 9-7 1 0 2 0 3 0 5 1 8 7 7 12l-5 17 22-12c2-1 3-2 5-2 3 0 7 2 8 5 3 5 2 11-3 14z m-90 47c-4-2-6-6-6-10l5-45-36 27c-2 1-4 2-6 2-2 0-4-1-6-2l-36-27 5 45c0 4-2 8-6 10l-41 18 41 18c4 2 6 6 6 10l-5 45 36-27c4-2 8-2 12 0l36 27-5-45c0-4 2-8 6-10l41-18z"/>
<glyph glyph-name="air-conditioner-2" unicode="&#99;" d="M461 512c-28 0-51-23-51-51 0-28 23-51 51-51 28 0 51 23 51 51 0 28-23 51-51 51z m0-85c-19 0-34 15-34 34 0 19 15 34 34 34 19 0 34-15 34-34 0-19-15-34-34-34z m-28-30c-31 7-63-9-73-39l-47-136c-2-5-7-9-13-8l-86 10c-13 2-25-6-28-18l-57-164c-3-11 0-22 8-30 7-8 17-12 26-12 3 0 6 0 9 1 11 3 21 12 24 23l48 117c1 4 5 7 9 6l129-18c14-2 28 7 32 19l59 172c6 15 4 32-4 47-7 14-20 26-36 30z m24-70l-58-172c-2-5-7-8-13-7l-129 18c-13 1-25-6-28-18l-49-118c-2-6-7-10-13-12-7-2-13 0-18 6-4 2-5 8-4 13l57 165c1 4 5 6 9 6 0 0 1 0 2 1l86-10c13-2 26 7 30 19l47 137c8 21 31 33 52 27 12-3 21-11 27-21 5-11 7-23 2-34z m-287-76c-1 3-4 5-8 5l-34 0 0 102c0 5-3 9-9 9l-68 0c-5 0-8-4-8-9l0-102-34 0c-4 0-6-2-8-5-2-4-1-7 2-10l76-76c2-2 4-3 6-3 3 0 5 1 6 3l77 76c3 3 3 6 2 10z m-85-68l-56 56 22 0c5 0 9 3 9 8l0 103 51 0 0-103c0-5 3-8 8-8l23 0z m34 201l103 0 0-34c0-4 2-7 5-8 1-1 3-1 3-1 3 0 5 1 6 3l77 77c4 3 4 8 0 12l-77 76c-2 3-6 4-9 2-3-1-5-4-5-8l0-34-103 0c-5 0-8-3-8-8l0-68c0-6 3-9 8-9z m9 68l102 0c6 0 9 4 9 9l0 22 56-56-56-57 0 23c0 5-3 8-9 8l-102 0z"/>
<glyph glyph-name="cg-exterior" unicode="&#100;" d="M409 246c0 5-4 10-10 10l-27 0-16 35c-6 14-18 24-33 27-22 5-112 5-134 0-15-3-27-13-33-27l-16-35-27 0c-6 0-10-5-10-10 0-6 4-10 10-10l16 0-14-14c-8-8-12-20-11-31l6-36c1-10 6-18 12-25l0-14c0-12 10-22 22-22l29 0c12 0 22 10 22 22l0 4 122 0 0-4c0-12 10-22 22-22l29 0c12 0 21 10 21 22l0 14c7 7 12 15 13 25l5 36c2 11-2 23-10 31l-14 14 16 0c6 0 10 4 10 10z m-47-106l-212 0c-8 0-15 4-19 11l249 0c-3-7-10-11-18-11z m-41 42l4-11-138 0 3 11z m-155-11l-38 0-2 11 43 0z m180 0l-4 11 44 0-2-11z m-221 31c1 2 3 4 4 6l17 17 219 0 18-17c1-2 3-4 3-6z m49 81c4 8 11 13 19 15 20 5 106 5 126 0 8-2 15-7 19-15l17-38-198 0z m1-167c0-1-1-2-2-2l-29 0c-1 0-1 1-1 2l0 4c2 0 4 0 7 0l25 0z m194 0c0-1 0-2-1-2l-29 0c-1 0-2 1-2 2l0 4 25 0c3 0 5 0 7 0l0-4z m-284 202l-29 10 0 29c0 6-4 11-10 11-5 0-10-5-10-11l0-22-23 8c-5 2-11-1-12-7-2-5 1-11 6-12l72-25c1 0 2 0 3 0 4 0 8 2 10 6 1 6-1 11-7 13z m0-153l-72 24c-5 2-11-1-12-6-2-5 1-11 6-13l72-24c1-1 2-1 3-1 4 0 8 3 10 7 1 5-1 11-7 13z m0-31l-72 25c-5 2-11-1-12-6-2-6 1-11 6-13l72-25c1 0 2 0 3 0 4 0 8 2 10 6 1 6-1 11-7 13z m0-30l-72 24c-5 2-11-1-12-6-2-5 1-11 6-13l29-10 0-28c0-5 5-10 10-10 6 0 10 5 10 10l0 21 23-7c1-1 2-1 3-1 4 0 8 3 10 7 1 5-1 11-7 13z m0 184l-72 24c-5 2-11-1-12-6-2-5 1-11 6-13l72-25c1 0 2 0 3 0 4 0 8 3 10 7 1 5-1 11-7 13z m0-31l-72 24c-5 2-11-1-12-6-2-5 1-11 6-13l72-24c1-1 2-1 3-1 4 0 8 3 10 7 1 5-1 11-7 13z m0-31l-72 25c-5 2-11-1-12-6-2-6 1-11 6-13l72-25c1 0 2 0 3 0 4 0 8 2 10 6 1 6-1 11-7 13z m0-30l-72 24c-5 2-11-1-12-6-2-5 1-11 6-13l72-24c1-1 2-1 3-1 4 0 8 3 10 7 1 5-1 11-7 13z m342 122c-6-2-8-7-7-13 2-4 6-6 10-6 1 0 2 0 3 0l72 25c5 1 8 7 6 12-1 6-7 9-12 7l-23-8 0 22c0 6-5 11-10 11-6 0-10-5-10-11l0-29z m72-129l-72-24c-6-2-8-8-7-13 2-4 6-7 10-7 1 0 2 0 3 1l72 24c5 2 8 8 6 13-1 5-7 8-12 6z m0-30l-72-25c-6-2-8-7-7-13 2-4 6-6 10-6 1 0 2 0 3 0l72 25c5 2 8 7 6 13-1 5-7 8-12 6z m0-31l-72-24c-6-2-8-8-7-13 2-4 6-7 10-7 1 0 2 0 3 1l23 7 0-21c0-5 4-10 10-10 5 0 10 5 10 10l0 28 29 10c5 2 8 8 6 13-1 5-7 8-12 6z m0 184l-72-24c-6-2-8-8-7-13 2-4 6-7 10-7 1 0 2 0 3 0l72 25c5 2 8 8 6 13-1 5-7 8-12 6z m0-31l-72-24c-6-2-8-8-7-13 2-4 6-7 10-7 1 0 2 0 3 1l72 24c5 2 8 8 6 13-1 5-7 8-12 6z m0-30l-72-25c-6-2-8-7-7-13 2-4 6-6 10-6 1 0 2 0 3 0l72 25c5 2 8 7 6 13-1 5-7 8-12 6z m0-31l-72-24c-6-2-8-8-7-13 2-4 6-7 10-7 1 0 2 0 3 1l72 24c5 2 8 8 6 13-1 5-7 8-12 6z m-91 175l21 0c6 0 10 4 10 10 0 5-4 10-10 10l-28 0-10 29c-2 5-7 8-13 6-5-1-8-7-6-12l25-73c1-4 5-6 9-6 1 0 2 0 3 0 6 2 9 8 7 13z m-42-30c1-4 5-6 10-6 1 0 2 0 3 0 5 2 8 8 6 13l-24 72c-2 5-8 8-13 6-5-1-8-7-7-12z m-31 0c2-4 6-6 10-6 1 0 2 0 3 0 5 2 8 8 6 13l-24 72c-2 5-8 8-13 6-5-1-8-7-6-12z m-153 0c2-4 5-6 10-6 1 0 2 0 3 0 5 2 8 8 6 13l-24 72c-2 5-8 8-13 6-5-1-8-7-6-12z m-31 0c2-4 6-6 10-6 1 0 2 0 3 0 6 2 8 8 7 13l-25 72c-2 5-8 8-13 6-5-1-8-7-6-12z m154 0c1-4 5-6 9-6 1 0 2 0 4 0 5 2 8 8 6 13l-25 72c-2 5-7 8-13 6-5-1-8-7-6-12z m-31 0c2-4 5-6 10-6 1 0 2 0 3 0 5 2 8 8 6 13l-24 72c-2 5-8 8-13 6-5-1-8-7-6-12z m-31 0c2-4 6-6 10-6 1 0 2 0 3 0 5 2 8 8 6 13l-24 72c-2 5-8 8-13 6-5-1-8-7-6-12z m-30 0c1-4 5-6 9-6 1 0 2 0 4 0 5 2 8 8 6 13l-25 72c-2 5-7 8-13 6-5-1-8-7-6-12z m-130 30l28 0 10-30c1-4 5-6 9-6 1 0 3 0 4 0 5 2 8 8 6 13l-25 72c-1 5-7 8-12 6-6-1-9-7-7-12l8-23-21 0c-6 0-10-5-10-10 0-6 4-10 10-10z"/>
<glyph glyph-name="cg-car-standard" unicode="&#102;" d="M317 192l-29 0c-5 0-8-4-8-8 0-4 3-8 8-8l29 0c4 0 8 4 8 8 0 4-4 8-8 8z m-216-58c-14 0-25-11-25-25 0-14 11-25 25-25 14 0 25 11 25 25 0 14-11 25-25 25z m0-35c-5 0-10 4-10 10 0 5 5 9 10 9 5 0 9-4 9-9 0-6-4-10-9-10z m335 35c-14 0-25-11-25-25 0-14 11-25 25-25 14 0 25 11 25 25 0 14-11 25-25 25z m0-35c-5 0-9 4-9 10 0 5 4 9 9 9 6 0 10-4 10-9 0-6-4-10-10-10z m75 58c-2 15-9 30-19 42-11 11-24 19-39 22l-31 30c-20 19-45 29-72 29l-61 0c-33 0-67-8-97-23-3-2-5-7-3-10 2-4 7-6 10-4 28 14 59 21 90 21l40 0 7-46-194-8 29 17c4 2 5 7 3 11-2 4-7 5-10 3l-55-32-28-2c-9 0-17-2-25-5 0 0 0 0 0 0-17-7-30-19-38-34-2-3-3-6-4-10-3-7-5-14-7-21-2-5-4-11-5-17-1-1-1-1-1-2-2-7-1-14 4-20 4-6 11-10 18-10l30 0c8-18 27-31 48-31 21 0 40 13 48 31 0 0 28 0 28 0l212 0c7-18 26-31 47-31 22 0 40 13 48 31l20 0c4 0 8 4 8 8l0 51c0 3 0 7-1 10z m-37 37c1 0 1 0 1-1 10-8 17-19 20-32-12 2-21 12-21 24z m-124 70c23 0 44-8 61-24l19-19-79-3-6 46z m-320-108c0 1 0 1 1 2 0 0 0 0 0 0 4 10 12 18 20 24l0-2c0-13-9-24-22-25 0 0 0 1 1 1z m100-68c-3-6-8-10-14-12-5-2-10-4-15-4-8 0-16 3-22 8-6 5-11 12-13 20-1 3-1 6-1 9 0 20 16 36 36 36 20 0 36-16 36-36 0-8-2-15-7-21z m23 16c0 2 0 3 0 5 0 28-23 52-52 52-29 0-52-24-52-52 0 0 0 0 0 0 0-2 0-4 0-5l-26 0c-2 0-4 1-6 3-1 2-2 4-1 7l8 25c1 0 2 0 3 0 22 0 40 18 40 41l0 9c0 0 0 0 0 0 5 2 10 3 15 3 0 0 29 1 29 1l46 2c-3-19-7-59 7-91z m127 0l-99 0c-16 30-11 75-8 92l164 6c1-16 1-56-18-80-10-11-23-17-39-18z m192 2c-1-18-17-34-36-34-19 0-36 17-36 37 0 20 16 36 36 36 20 0 37-16 37-36 0-1-1-2-1-3z m24-2l-8 0c3 29-20 55-49 57-1 0-2 0-3 0-28 0-52-24-52-52 0-2 0-3 1-5l-62 0c2 2 5 5 8 8 23 28 23 72 22 90l96 4c3-1 7-2 11-3-1-3-1-6-1-9l0-9c0-21 16-39 37-40l0-41z m-198 313c-3 3-8 3-11 0l-57-57-6 18c-2 4-6 6-11 5-4-2-6-6-4-11l11-28c1-3 3-5 6-5 0 0 1 0 1 0 3 0 5 0 6 2l65 65c3 3 3 8 0 11z m-44 38c-42 0-76-34-76-76 0-42 34-77 76-77 42 0 77 35 77 77 0 42-35 76-77 76z m0-137c-33 0-60 27-60 61 0 33 27 61 60 61 34 0 61-28 61-61 0-34-27-61-61-61z"/>
<glyph glyph-name="cg-dryclean" unicode="&#103;" d="M453 306c-33 53-92 86-155 86-63 0-122-33-155-85l-52 0c-50 0-91-41-91-91 0-30 24-54 53-54l26 0c4-24 24-42 49-42 25 0 46 18 50 42l156 0c4-24 25-42 50-42 25 0 45 18 49 42l26 0c29 0 53 24 53 54l0 23c0 34-26 63-59 67z m-50-135c0-11-9-19-19-19-11 0-19 8-19 19 0 10 8 19 19 19 10 0 19-9 19-19z m-256 0c0-11-8-19-19-19-10 0-19 8-19 19 0 10 9 19 19 19 11 0 19-9 19-19z m237 50c-20 0-37-11-45-28l-166 0c-8 17-25 28-45 28-19 0-36-11-45-28l-30 0c-12 0-22 10-22 23 0 33 27 60 60 60l61 0c5 0 10 3 13 7 27 48 78 77 133 77 54 0 105-29 132-77 3-4 8-7 14-7l0 0c20 0 37-17 37-37l0-23c0-13-10-23-22-23l-30 0c-9 17-26 28-45 28z m-93 13c-9-6-21-8-31-4-8 4-15 10-18 18-4 9-4 18-1 26 2 5 0 12-6 14-5 2-11-1-13-6-6-14-5-28 0-42 6-13 17-24 30-29 7-2 13-4 20-4 11 0 22 3 31 10 5 3 6 9 3 14-4 5-10 6-15 3z m5 97c-17 7-36 5-51-5-5-3-6-10-3-15 4-4 10-6 15-2 9 6 21 7 31 3 17-7 26-26 19-44-2-5 0-11 6-13 1-1 2-1 4-1 4 0 8 3 9 7 12 28-2 59-30 70z"/>
<glyph glyph-name="car-2" unicode="&#104;" d="M247 320l0-103c0-23 19-42 43-42 24 0 42 19 42 42l0 103c22 16 34 41 34 68 0 32-18 61-47 76-2 1-5 1-8 0-3-2-4-5-4-8l0-68-34 0 0 68c0 3-2 6-4 8-2 1-6 1-8 0-30-15-48-44-48-76 0-27 13-52 34-68z m9 121l0-62c0-5 3-8 8-8l51 0c5 0 9 3 9 8l0 62c16-13 25-33 25-53 0-23-12-44-30-57-2-2-4-5-4-7l0-107c0-14-11-25-25-25-15 0-26 11-26 25l0 107c0 2-1 5-3 7-20 13-31 34-31 57 0 21 9 40 26 53z m216-206c-22 2-40 12-50 28l-3 5c-13 21-36 34-60 35-5 1-10-2-10-7-1-5 3-10 8-10 20 0 37-11 47-28l2-4c13-21 37-35 64-37 14 0 24-11 24-25l0-60c0-14-11-25-25-25l-18 0c-3 17-14 31-30 38 0 0 0 0-1 0 0 0 0 0 0 0-1 1-1 1-2 1 0 0 0 0 0 0-1 1-2 1-2 1 0 0-1 0-1 0 0 0-1 0-2 1 0 0 0 0 0 0-1 0-1 0-2 0 0 0 0 0-1 0 0 0-1 1-1 1-1 0-1 0-1 0-1 0-1 0-2 0 0 0 0 0-1 0 0 0-1 0-1 0-1 0-1 0-1 0-1 0-2 0-3 0 0 0-1 0-2 0 0 0-1 0-1 0 0 0-1 0-2 0 0 0 0 0 0 0-1 0-2 0-2 0 0 0-1 0-1 0 0 0-1-1-2-1 0 0 0 0 0 0-1 0-1 0-2 0 0 0 0 0-1 0 0-1-1-1-2-1 0 0 0 0 0 0-1 0-1 0-2-1 0 0 0 0 0 0-1 0-1 0-2-1 0 0 0 0-1 0 0 0 0 0-1 0-15-7-26-21-29-38l-172 0c-3 17-14 31-29 38-1 0-1 0-1 0 0 0-1 0-1 0 0 1-1 1-2 1 0 0 0 0 0 0-1 1-1 1-2 1 0 0 0 0 0 0-1 0-2 0-2 1 0 0-1 0-1 0 0 0-1 0-2 0 0 0 0 0 0 0-1 0-1 1-2 1 0 0 0 0-1 0 0 0-1 0-2 0 0 0 0 0 0 0-1 0-1 0-2 0 0 0 0 0-1 0-1 0-1 0-2 0-1 0-2 0-3 0 0 0 0 0 0 0-1 0-2 0-2 0 0 0-1 0-1 0-1 0-1 0-2 0 0 0 0 0 0 0-1 0-2-1-2-1 0 0-1 0-1 0 0 0-1 0-2 0 0 0 0 0 0 0-1-1-1-1-2-1 0 0 0 0-1 0 0 0-1 0-1-1-1 0-1 0-1 0 0 0-1 0-2-1 0 0 0 0 0 0-1 0-1 0-1 0-15-7-27-21-30-38l-34 0c-15 0-26 11-26 25l0 39c0 12 9 23 22 24l52 7c38 4 72 22 96 50l13 15c7 8 16 17 25 20 4 2 7 7 5 11-2 5-7 7-11 5-13-4-24-14-32-24l-12-14c-23-25-52-41-86-45l-52-7c-21-2-37-21-37-42l0-39c0-24 19-42 43-42l34 0c4-24 26-43 51-43 25 0 46 19 50 43l172 0c4-24 25-43 50-43 26 0 47 19 51 43l18 0c23 0 42 18 43 43l0 60c0 22-18 41-40 42z m-344-171c-19 0-34 15-34 34 0 19 15 34 34 34 19 0 34-15 34-34 0-19-15-34-34-34z m272 0c-18 0-34 15-34 34 0 19 16 34 34 34 19 0 34-15 34-34 0-19-15-34-34-34z"/>
<glyph glyph-name="car-3" unicode="&#105;" d="M512 173c0 6-5 11-11 11l-48 0c0 0-44 72-154 72-4 0-7 0-11 0l0 85c18-4 33-15 41-31 10 19 29 32 52 32 18 0 35-9 46-23l0 2c0 79-61 143-139 149l0 11c0 6-5 10-11 10-6 0-10-4-10-10 0 0 0 0 0 0l0-11c-78-6-139-70-139-149l0-2c11 14 27 23 46 23 22 0 42-13 52-32 8 16 23 27 41 31l0-87c-89-12-131-70-131-70-180-1-129-120-129-120l58 0c5-25 26-43 52-43 26 0 48 18 53 43l172 0c5-25 27-43 53-43 26 0 47 18 52 43l22 0c1 0 1 0 1 0 19 0 31 4 37 8 0 0 0 0 0 0 3 2 5 5 5 9l0 92z m-181 59c10-2 20-4 30-7 15-5 29-12 42-21 10-8 18-15 23-20l-95 0z m-96 119c-3-2-6-5-9-7-3 2-7 5-10 7-13 8-27 12-42 12-6 0-12-1-18-2 6 19 16 36 31 50 24 24 56 38 90 38 35 0 67-14 91-38 14-14 25-31 31-50-6 1-12 2-18 2-15 0-30-4-42-12-4-2-7-5-10-7-3 2-6 5-10 7-12 8-27 12-42 12-15 0-29-4-42-12z m-45-148c13 9 29 16 45 22 20 6 41 9 64 9 3 0 7 0 10 0l0-50-144 0c6 5 14 12 25 19z m-73-161c-17 0-32 14-32 32 0 18 15 32 32 32 18 0 33-14 33-32 0-18-15-32-33-32z m278 0c-18 0-33 14-33 32 0 18 15 32 33 32 17 0 32-14 32-32 0-18-15-32-32-32z m96 46c-5-2-11-3-21-3 0 0 0 0 0 0l-23 0c-5 25-26 43-52 43-26 0-48-18-53-43l-172 0c-5 25-27 43-53 43-26 0-47-18-52-43l-42 0c-2 12-3 29 6 43 15 22 52 34 107 34l7 0 0 0 348 0z m-192 61l-22 0c-6 0-10-5-10-11 0-5 4-10 10-10l22 0c6 0 10 5 10 10 0 6-4 11-10 11z m-182-64c-6 0-10-5-10-11 0-6 4-10 10-10 6 0 11 4 11 10 0 6-5 11-11 11z m278 0c-6 0-11-5-11-11 0-6 5-10 11-10 6 0 10 4 10 10 0 6-4 11-10 11z"/>
<glyph glyph-name="car-4" unicode="&#106;" d="M103 188c-10 0-18-8-18-17 0-10 8-18 18-18 9 0 17 8 17 18 0 9-8 17-17 17z m307 0c-9 0-17-8-17-17 0-10 8-18 17-18 10 0 17 8 17 18 0 9-7 17-17 17z m102 8l0 73c0 12-9 21-21 21l-35 0c-25 0-49 14-63 35l-29 48c-10 17-30 28-50 28l-175 0c-20 0-39-11-50-28l-43-69c-5-9-14-14-25-14-6 0-11-2-15-6-3-4-6-9-6-15l0-77c0-16 14-30 30-30l13 0c4-29 29-51 60-51 30 0 55 22 59 51l189 0c4-29 29-51 59-51 31 0 55 22 59 51l10 0c18 0 34 15 33 34z m-375 120l0 34 111 0 0-34z m128 34l92 0 21-34-113 0z m-162-222c-24 0-43 19-43 43 0 23 19 42 43 42 23 0 42-19 42-42 0-24-19-43-42-43z m307 0c-24 0-42 19-42 43 0 23 18 42 42 42 24 0 43-19 43-42 0-24-19-43-43-43z m68 51l-9 0c-4 29-28 51-59 51 0 0 0 0 0 0 0 0 0 0-1 0-30 0-54-22-59-51l-188 0c-4 27-26 49-54 51 0 0 0 0 0 0-1 0-2 0-3 0-1 0-1 0-2 0-1 0-2 0-3 0-1 0-2 0-2 0-1 0-1 0-1 0-28-2-50-24-54-51l-13 0c-7 0-13 6-13 13l0 38 26 0c5 0 8 4 8 9 0 5-3 8-8 8l-26 0 0 22c0 1 0 2 2 2 1 1 2 2 3 2 16 0 31 9 39 21l42 70c8 13 22 20 36 20l175 0c13 0 25-6 32-17l-211 0c-9 0-15-7-15-15l0-38c0-8 6-15 15-15l256 0c17-17 40-27 65-27l35 0c2 0 4-1 4-4l0-21-25 0c-5 0-8-3-8-8 0-5 3-9 8-9l25 0 0-34c0-9-8-17-17-17z m-179 94l-43 0c-5 0-8-3-8-8 0-6 3-9 8-9l35 0 0-9c0-5 3-8 8-8 5 0 9 3 9 8l0 18c0 5-4 8-9 8z"/>
<glyph glyph-name="cg-checkup" unicode="&#116;" d="M448 198l0 271c0 15-11 26-26 26l-111 0c0 9-7 17-17 17l-119 0c-9 0-17-8-17-17l-111 0c-15 0-26-11-26-26l0-443c0-15 11-26 26-26l333 0c61 0 111 49 111 111 0 36-17 67-43 87z m-26 280c6 0 9-4 9-9l0-260c-6 3-11 6-17 8l0 227c0 9-8 17-17 17l-86 0 0 17z m-153-371c0 0 0 0 0 0 1-21 7-40 17-56l-213 0 0 393 85 0c0-10 8-17 17-17l119 0c10 0 17 7 17 17l86 0 0-223c-1 0-3 0-4 0 0 0 0 0 0 0-1 0-2 0-3 0 0 0 0 0-1 0 0 1-1 1-2 1 0 0-1 0-1 0-1 0-1 0-2 0-1 0-1 0-1 0-1 0-2 0-3 0-62 0-111-50-111-111 0-1 0-2 0-4z m-94 388l119 0 0-51-119 0z m-128-478c-5 0-9 3-9 9l0 443c0 5 4 9 9 9l111 0 0-17-85 0c-10 0-18-8-18-17l0-393c0-9 8-17 18-17l227 0c6-6 13-12 20-17z m333 0c-27 0-52 11-69 30 0 0-1 1-1 2-15 16-23 36-24 58 0 0 0 0 0 0 0 1 0 3 0 4 0 52 42 94 94 94 1 0 2 0 3 0 0 0 0 0 0 0 1 0 1 0 1 0 1 0 2 0 2 0 1 0 2-1 2-1 0 0 0 0 0 0 5 0 10-1 15-3 1 0 2 0 3 0 9-2 17-6 26-12 25-17 42-45 42-78 0-52-42-94-94-94z m56 143c-4 3-9 2-12-2l-48-68-33 27c-3 3-9 2-12-1-3-3-2-9 1-12l41-33c1-1 3-2 5-2 0 0 1 0 1-1 2 0 4 2 6 4l53 76c3 4 2 9-2 12z m-133 70c16 0 29 11 33 26l13 0c13 0 22 9 23 22l0 33c0 13-10 23-22 23l-18 0-33 46c-5 7-14 12-23 12l-37 0c-1 0-3 1-4 1-2 0-3-1-4-1l-37 0c-10 0-18-5-23-12l-33-46-18 0c-12 0-22-11-22-23l0-33c0-13 10-22 22-22l13 0c4-15 18-26 33-26 16 0 30 11 33 26l71 0c4-15 17-26 33-26z m0 17c-9 0-17 8-17 18 0 9 8 17 17 17 9 0 17-8 17-17 0-10-8-18-17-18z m-19 124l27-37-68 0 0 41 32 0c4 0 7-1 9-4z m-101 0c3 3 6 4 10 4l33 0 0-41-68 0z m-17-124c-9 0-17 8-17 18 0 9 8 17 17 17 10 0 17-8 17-17 0-10-7-18-17-18z m1 52c0 0 0 0 0 0 0 0 0 0-1 0-15 0-29-11-33-26l-13 0c-2 0-5 3-5 5l0 33c0 3 3 6 5 6l17 0c1-1 2-1 4-1l188 0c1 0 2 0 3 1l18 0c2 0 5-3 5-6l0-33c0-2-3-5-5-5l-14 0c-4 15-15 26-31 26-1 0-1 0-1 0-1 0-1 0-1 0-16 0-29-11-33-26l-69 0c-5 15-18 26-34 26z m68-111l-128 0c-5 0-9-4-9-9 0-5 4-8 9-8l128 0c5 0 8 3 8 8 0 5-3 9-8 9z m0-43l-128 0c-5 0-9-3-9-8 0-6 4-9 9-9l128 0c5 0 8 3 8 9 0 5-3 8-8 8z m0-43l-128 0c-5 0-9-3-9-8 0-5 4-9 9-9l128 0c5 0 8 4 8 9 0 5-3 8-8 8z"/>
<glyph glyph-name="cg-scan" unicode="&#117;" d="M488 15l-47 50c15 17 24 39 24 63 0 20-6 39-17 54l0 287c0 15-11 26-26 26l-111 0c0 9-7 17-17 17l-119 0c-9 0-17-8-17-17l-111 0c-15 0-26-11-26-26l0-443c0-15 11-26 26-26l358 0c5 0 9 3 9 9l0 35c5 3 10 6 14 10l48-51c2-2 4-3 6-3 2 0 4 1 6 3 4 3 4 8 0 12z m-117 36c-42 0-77 34-77 77 0 33 21 61 51 72 0 0 0 0 0 0 0 0 0 0 0 0 6 2 12 3 18 4 1 0 2 0 3 1 2 0 3 0 5 0 1 0 3 0 4 0 0 0 0 0 0 0 18-1 35-8 47-20 4-3 8-7 11-11 0 0 0-1 0-1 10-13 15-28 15-45 0-43-34-77-77-77z m-196 376l119 0c10 0 17 7 17 17l86 0 0-226c-1 1-1 1-2 1-1 0-2 0-3 1 0 0-1 0-1 0-1 0-2 0-3 0 0 0-1 0-1 0-1 1-2 1-3 1 0 0 0 0-1 0-1 0-2 0-3 0 0 0-1 1-1 1-1 0-2 0-3 0-1 0-1 0-1 0-1 0-3 0-4 0-9 0-18-1-27-4-38-11-66-45-67-87 0 0 0-1 0-1 0 0 0-1 0-1l0-1c0-1 0-2 0-3 0 0 0 0 0 0 1-31 17-57 40-74l-244 0 0 393 85 0c0-10 8-17 17-17z m247 51c6 0 9-4 9-9l0-268c-1 0-2 1-2 1-5 4-10 7-15 10l0 232c0 9-8 17-17 17l-86 0 0 17z m-247 17l119 0 0-51-119 0z m222-478l-350 0c-5 0-9 3-9 9l0 443c0 5 4 9 9 9l111 0 0-17-85 0c-10 0-18-8-18-17l0-393c0-9 8-17 18-17l324 0z m-277 317c-12 0-22-11-22-23l0-33c0-13 10-22 22-22l13 0c4-15 18-26 33-26 16 0 30 11 33 26l71 0c4-15 17-26 33-26 16 0 29 11 33 26l13 0c13 0 22 9 23 22l0 33c0 13-10 23-22 23l-18 0-33 46c-5 7-14 12-23 12l-37 0c-1 0-3 1-4 1-2 0-3-1-4-1l-37 0c-10 0-18-5-23-12l-33-46z m46-87c-9 0-17 8-17 18 0 9 8 17 17 17 10 0 17-8 17-17 0-10-7-18-17-18z m137 0c-9 0-17 8-17 18 0 9 8 17 17 17 9 0 17-8 17-17 0-10-8-18-17-18z m52 64l0-33c0-2-3-5-5-5l-14 0c-4 15-15 26-31 26-1 0-1 0-1 0-1 0-1 0-1 0-16 0-29-11-33-26l-69 0c-5 15-18 26-34 26 0 0 0 0 0 0 0 0 0 0-1 0-15 0-29-11-33-26l-13 0c-2 0-5 3-5 5l0 33c0 3 3 6 5 6l17 0c1-1 2-1 4-1l188 0c1 0 2 0 3 1l18 0c2 0 5-3 5-6z m-71 60l27-37-68 0 0 41 32 0c4 0 7-1 9-4z m-101 0c3 3 6 4 10 4l33 0 0-41-68 0z m52-183l-128 0c-5 0-9-4-9-9 0-5 4-8 9-8l128 0c5 0 8 3 8 8 0 5-3 9-8 9z m0-43l-128 0c-5 0-9-3-9-8 0-6 4-9 9-9l128 0c5 0 8 3 8 9 0 5-3 8-8 8z m0-43l-128 0c-5 0-9-3-9-8 0-5 4-9 9-9l128 0c5 0 8 4 8 9 0 5-3 8-8 8z"/>
<glyph glyph-name="car-7" unicode="&#118;" d="M486 131l-12 3c-6 1-11 5-13 10-3 6-2 11 2 16l7 11c3 3 2 8-1 11l-17 17c-2 1-4 2-6 2l0 268c0 15-11 26-25 26l-111 0c0 9-8 17-17 17l-120 0c-9 0-17-8-17-17l-111 0c-14 0-25-11-25-26l0-443c0-15 11-26 25-26l347 0c4 0 7 3 12 8l1 9c1 6 5 10 11 13 5 2 11 2 16-2l7-5c4-3 9-2 12 1l17 17c2 3 3 8 0 11l-6 10c-4 5-5 11-2 17 3 5 7 9 13 10l13 1c3 1 6 5 6 9l0 24c0 4-2 8-6 8z m-313 296l120 0c9 0 17 7 17 17l89 0 0-220c-2 0-3 0-4 0l-24 0c-3 0-5-1-6-2-2-2-3-3-3-5l-4-16c0-4-2-7-4-9-1-1-3-2-5-3-6-2-11-2-16 1l-14 10c-3 2-8 1-11-1l-17-17c-1-1-1-1-2-2-2-3-2-7 0-10l8-10c3-6 4-12 2-17-1-2-2-3-4-5-2-2-5-4-8-4l-12-3c-2 0-4-1-5-2-2-2-3-4-3-7l0-24c0-3 1-5 3-7 1-1 3-2 5-2l13-2c3 0 6-2 8-4 1-2 3-3 4-5 2-5 1-11-2-17l-7-10-220 0 0 393 85 0c0-10 8-17 17-17z m251 51c5 0 9-4 9-9l0-274-1-1c-5-4-11-5-16-2-2 1-3 1-4 2l0 250c0 9-8 17-17 17l-85 0 0 17z m-251 17l120 0 0-51-120 0z m-136-469l0 443c0 5 3 9 8 9l111 0 0-17-85 0c-10 0-17-8-17-17l0-393c0-9 7-17 17-17l227 0 11-11c2-3 8-3 11-1l10 8c5 3 11 4 16 2 6-3 10-7 11-13l0-2-312 0c-5 0-8 3-8 9z m434 78l-6-1c-11-1-21-8-26-19-4-11-3-23 4-33l4-4-7-7-1 1c-11 8-23 8-34 4-11-5-18-14-20-26l0-2-10 0-1 6c-2 11-10 21-21 25-11 4-23 2-32-4l-4-4-7 7 2 4c7 10 8 22 4 33-5 10-14 18-26 19l-6 1 0 9 6 2c11 2 21 10 25 21 4 11 2 23-4 32l-4 4 7 7 8-5c9-7 21-8 31-3 11 4 18 13 21 24l1 10 10 0 1-7c1-11 9-21 19-26 11-4 23-3 33 4l4 3 7-7-4-5c-6-9-8-21-4-32 4-10 14-18 25-21l5-1z m-93 50c-24 0-43-19-43-43 0-24 19-43 43-43 24 0 43 19 43 43 0 24-19 43-43 43z m0-69c-14 0-26 11-26 26 0 14 12 26 26 26 15 0 26-12 26-26 0-15-11-26-26-26z m-259 249c-13 0-23-11-23-23l0-33c0-13 10-22 23-22l13 0c3-15 17-26 33-26 16 0 29 11 33 26l70 0c4-15 17-26 33-26 16 0 29 11 33 26l13 0c13 0 22 9 23 22l0 33c0 13-10 23-22 23l-18 0-33 46c-5 7-14 12-23 12l-37 0c-1 0-3 1-4 1-2 0-3-1-4-1l-37 0c-9 0-18-5-23-12l-33-46z m46-87c-10 0-17 8-17 18 0 9 7 17 17 17 9 0 17-8 17-17 0-10-8-18-17-18z m136 0c-9 0-17 8-17 18 0 9 8 17 17 17 10 0 17-8 17-17 0-10-7-18-17-18z m52 64l0-33c0-2-2-5-5-5l-13 0c-5 15-16 26-32 26 0 0-1 0-1 0 0 0-1 0-1 0-16 0-29-11-33-26l-69 0c-4 15-17 26-33 26-1 0-1 0-1 0 0 0 0 0 0 0-16 0-30-11-33-26l-13 0c-3 0-6 3-6 5l0 33c0 3 3 6 6 6l16 0c1-1 3-1 4-1l188 0c1 0 3 0 4 1l17 0c3 0 5-3 5-6z m-71 60l27-37-68 0 0 41 32 0c4 0 8-1 9-4z m-100 0c2 3 6 4 9 4l33 0 0-41-68 0z m51-183l-128 0c-5 0-9-4-9-9 0-5 4-8 9-8l128 0c5 0 8 3 8 8 0 5-3 9-8 9z m0-43l-128 0c-5 0-9-3-9-8 0-6 4-9 9-9l128 0c5 0 8 3 8 9 0 5-3 8-8 8z m0-43l-128 0c-5 0-9-3-9-8 0-5 4-9 9-9l128 0c5 0 8 4 8 9 0 5-3 8-8 8z"/>
<glyph glyph-name="mechanic" unicode="&#119;" d="M487 74l0 0 0 50c0 1 0 26-9 53l-27 62-44 0-27-63c-8-26-8-51-8-52l0-17-25 0c-14 0-25 11-25 25l0 35c39 22 66 65 66 114l0 1c14 4 25 16 25 32 0 15-6 24-9 28 0 2 1 3 1 5l0 16c0 82-67 149-149 149-82 0-149-67-149-149l0-16c0-2 1-3 1-5-3-4-9-13-9-28 0-16 11-28 25-32l0-1c0-49 27-92 66-114l0-35c0-14-11-25-25-25l-41 0 0 12c16 10 25 26 25 46 0 20-14 44-40 50l-10 2 0-44-16 0 0 44-11-2c-25-6-39-30-39-50 0-20 9-36 25-46l0-21c-34-15-58-50-58-90l0-8 17 0 0 8c0 43 32 78 74 82l0-90 16 0 0 91 25 0 0-91 17 0 0 91 16 0c4 0 7 0 10 1 7-38 41-67 81-67 40 0 74 29 81 67 3-1 6-1 10-1l16 0 0-91 17 0 0 91 25 0 0-91 16 0 0 90c42-4 74-39 74-82l0-8 17 0 0 8c0 26-10 49-25 66z m-375 57l-5-2 0-22-8 0c-8 0-17-1-25-3l0 25-4 2c-14 7-20 18-20 34 0 11 5 23 16 29l0-37 50 0 0 37c10-6 16-18 16-29 0-16-6-27-20-34z m276 190c2 1 5 3 6 5 1-3 2-7 2-12 0-6-3-12-8-14z m-140 174l0-57 16 0 0 57c68-4 122-59 124-127-29 15-91 20-132 20-41 0-103-5-132-20 2 68 56 123 124 127z m-124-195c-5 2-8 8-8 14 0 5 1 9 2 12 1-2 4-4 6-5z m0 47c1 8 50 25 132 25 83 0 131-17 132-25 0-16-49-33-132-33-83 0-132 17-132 33z m16-66l0 32c37-14 93-16 116-16 23 0 79 2 116 16l0-32c0-64-52-116-116-116-64 0-116 52-116 116z m116-240c-34 0-62 26-66 59 10 7 16 19 16 32l0 26c16-6 32-9 50-9 18 0 34 3 50 9l0-26c0-13 6-25 16-32-4-33-32-59-66-59z m155 66l-23 0 0 17c0 0 0 24 8 46l22 53 3 0 0-76c-9-3-16-12-16-23 0-6 2-12 6-17z m18 9c-4 0-8 3-8 8 0 4 4 8 8 8 5 0 9-4 9-8 0-5-4-8-9-8z m42-27c-9 6-18 11-29 14 7 4 12 12 12 21 0 11-7 20-16 23l0 76 2 0 23-52c8-23 8-47 8-47z m-207 184l75 0 0 16-91 0 0-83 16 0z m-115 132l16 0 0-17-16 0z m33 8l16 0 0-17-16 0z"/>
<glyph glyph-name="long-checklist" unicode="&#120;" d="M415 0l-318 0c-16 0-30 14-30 30l0 452c0 16 14 30 30 30l318 0c16 0 30-14 30-30l0-452c0-16-14-30-30-30z m-318 489c-4 0-7-3-7-7l0-452c0-4 3-7 7-7l318 0c4 0 7 3 7 7l0 452c0 4-3 7-7 7l-318 0z m272-337c0 7-4 12-11 12l-133 0c-6 0-11-5-11-12 0-6 5-11 11-11l133 0c6 0 11 5 11 11z m0-68c0 6-4 11-11 11l-133 0c-6 0-11-5-11-11 0-7 5-11 11-11l133 0c6 0 11 4 11 11z m0 137c0 6-4 11-11 11l-133 0c-6 0-11-5-11-11 0-7 5-11 11-11l133 0c6-1 11 4 11 11z m0 67c0 6-4 11-11 11l-133 0c-6 0-11-5-11-11 0-6 5-11 11-11l133 0c6 0 11 5 11 11z m-1 68c0 6-5 11-11 11l-132 0c-6 0-11-5-11-11 0-6 5-11 11-11l132 0c6 0 11 5 11 11z m0 68c0 6-5 11-11 11l-132 0c-6 0-11-5-11-11 0-6 5-11 11-11l132 0c6-1 11 5 11 11z m-214-20l29 28c4 4 4 12 0 16-4 5-12 5-16 0l-21-20-3 3c-5 5-12 5-17 0-4-4-4-11 0-16l12-11c3-3 5-4 8-4 3 0 6 2 8 4z m0-71l29 29c4 4 4 12 0 16-4 4-12 4-16 0l-21-20-3 3c-5 5-12 5-17 0-4-4-4-11 0-16l12-11c2-2 5-4 8-4 3 0 6 2 8 3z m0-67l29 28c4 5 4 12 0 17-4 4-12 4-16 0l-21-21-3 4c-5 4-12 4-17 0-4-5-4-12 0-16l12-12c2-2 5-3 8-3 3 0 6 0 8 3z m0-68l29 29c4 4 4 12 0 16-4 4-12 4-16 0l-21-20-4 3c-4 5-12 5-16 0-5-4-5-11 0-16l12-12c1-1 5-3 8-3 3 0 6 1 8 3z m0-68l29 29c4 4 4 11 0 16-4 4-12 4-16 0l-21-21-3 4c-5 4-12 4-17 0-4-4-4-12 0-16l12-12c2-2 5-3 8-3 3 0 6 1 8 3z m0-68l29 29c4 4 4 11 0 16-4 4-12 4-16 0l-21-21-4 4c-4 4-12 4-16 0-5-4-5-12 0-16l12-12c2-2 5-3 8-3 3-1 6 1 8 3z"/>
<glyph glyph-name="cg-key" unicode="&#121;" d="M511 171c-14 80-38 158-73 231-8 16-24 26-42 25-34-1-67-8-98-21 0 2 0 3-1 5-6 55-55 94-109 88-44-5-79-38-87-81l-26 7c-15 4-32-5-38-20l-34-95c-3-8-3-18 1-26 5-8 12-14 21-16l28-7-2-38-15-26c-1-1-2-3-2-4l-2-40-11-14c-1-2-2-4-2-6l-3-46-15-24c-2-3-1-8 1-11l27-36c2-2 5-4 8-4 1 0 2 0 3 1l50 16c3 1 5 4 6 7l51 201 27-7c3-1 6-1 8-1 6 0 13 2 18 5 7 5 13 13 14 22l7 47c7 2 13 4 19 7 15-70 38-138 68-203 8-16 23-26 41-26 0 0 1 0 1 0 51 2 99 17 142 45 15 10 22 28 19 45z m-405 193c0 0 0 0 0 0 2-6 5-12 9-18 2-3 5-4 8-4 2 0 4 0 5 1 5 3 6 9 3 14 0 0 0 0-1 1l17-4c5-2 9-7 7-13-1-5-7-9-12-7l-39 10c-3 0-5 2-6 4-2 3-2 5-1 8 0 3 2 5 4 6 2 1 4 2 6 2z m-73-285c1 1 2 2 2 4l3 46 11 15c2 1 2 3 2 5l2 41 15 26c1 1 1 2 2 4l2 36 14-3-54-209-11 15z m96 163l-50-196-29-10 54 212 17-4z m66 17c-1-3-3-7-6-9-3-2-6-2-10-1l-149 38c-4 1-7 3-9 6-1 4-1 7 0 11l35 94c2 6 8 10 15 8l28-7c0-3 0-7 1-10 0-2 0-4 1-6-4-1-7-2-10-4-7-4-12-10-14-18-2-8-1-16 3-22 4-7 11-12 18-14l39-10c2-1 5-1 7-1 6 0 11 2 15 4 7 4 12 11 14 18 2 8 1 16-3 23-4 7-11 11-18 13l-31 8c-1 4-2 8-2 11 0 1 0 2 0 3l81-21c7-1 11-8 10-14z m29 65l5 32c2 16-8 32-24 36l-86 22c6 35 35 62 71 66 44 5 83-27 88-71 1-4 1-8 1-12-8-5-16-9-24-14-15-10-23-28-20-46 1-2 1-5 1-8-4-2-8-4-12-5z m257-182c-40-26-84-40-131-42-10 0-20 6-24 15-31 65-54 134-68 205 11 8 20 19 27 31 3 5 1 11-3 13-5 3-11 1-13-3-4-7-9-14-15-19-1 10 3 19 11 24 40 26 84 40 132 42 0 0 0 0 1 0 9 0 18-6 23-15 34-71 58-147 71-225 2-10-2-20-11-26z m-21 66c-3 11-14 16-25 13l-93-30c-11-3-16-14-13-24l9-29c2-8 10-13 19-13 2 0 4 0 6 1l93 29c10 4 16 15 13 25z m-103-64c-1 0-1 0-1 0l-9 28c0 1 0 1 0 1l38 12 9-29z m93 30l-37-12-10 29 38 12c0 0 0 0 0 0 0 0 1 0 1-1l9-28c0 0 0 0-1 0z m-148 131l100 31c5 2 8 7 7 13-2 5-7 7-12 6l-101-32c-5-2-8-7-6-12 1-4 5-7 9-7 1 0 2 0 3 1z m116 14c-2 5-7 8-12 6l-101-31c-5-2-7-8-6-13 1-4 5-6 9-6 1 0 2 0 3 0l101 32c5 2 8 7 6 12z"/>
<glyph glyph-name="gas-station-1" unicode="&#122;" d="M432 53c-3 0-5 3-5 6l0 431c0 6-5 11-12 11l-228 1c0 0 0 0 0 0-7 0-12-5-12-11l-1-432c0-3-2-5-5-5-3 0-5 2-5 5l0 432c0 11 10 21 23 21 0 0 0 0 0 0l228 0c12 0 23-10 23-22l-1-431c0-3-2-6-5-6z m-294-53c-4 0-8 3-8 7l0 41c0 9 8 16 17 16l22 0c3 0 5-2 5-5 0-3-2-6-5-6l-22 0c-4 0-6-2-6-5l0-38 166 1c3 0 5-3 5-6 0-3-2-5-5-5z m325 0l-169 0c-3 0-5 2-5 5 0 3 2 6 5 6l166-1 0 38c0 3-2 5-6 5l-22 0c-3 0-5 3-5 6 0 3 2 5 5 5l22 0c9 0 17-7 17-16l0-41c0-4-4-7-8-7z m-69 363c0 0 0 0 0 0l-183 0c-5 0-9 4-9 9l0 91c0 5 4 9 9 9l183 0c5 0 9-4 9-9l0-91c0-3-1-5-3-6-1-2-3-3-6-3z m-182 11l180-1 1 88-181 0z m-111-259c0 0 0 0 0 0-9 0-17 2-22 7-8 8-8 19-8 24 0 7 0 127 0 127l11 0c0 0 0-120 0-126 0-5 0-12 4-17 4-3 8-5 15-5 0 0 0 0 0 0 7 0 12 2 15 5 4 4 4 10 4 10 0 1 2 72 2 86 0 7 3 13 7 17 13 11 38 8 41 8 2 0 4-3 4-6 0-3-3-5-6-4-6 0-24 1-32-6-2-2-3-5-3-9 0-14-3-83-3-86 0 0 1-9-6-17-6-6-13-8-23-8z m-2 152l-43 0c-2 0-4 2-5 5l-10 84c0 1 1 14 22 18 3 1 8 1 11 1 31 0 35-14 35-15 0-1 0-1 0-2l-4-86c0-3-3-5-6-5z m-38 11l33 0 4 80c0 1-5 7-24 7-3-1-7-1-9-1-12-2-13-8-13-8z m11 92c-3 0-5 2-5 5 0 30 16 44 30 51 14 7 28 7 29 7 0 0 0 0 0 0 3 0 5-2 5-5 0-3-2-5-5-5-2 0-48-1-48-48 0-3-3-5-6-5z"/>
<glyph glyph-name="vehicle" unicode="&#65;" d="M363 508l-363 0 0-132 363 0c0 0 33 23 33 66 0 43-33 66-33 66z m-16-83c-9 0-17 8-17 17 0 9 8 16 17 16 9 0 16-7 16-16 0-9-7-17-16-17z m0-8c13 0 25 11 25 25 0 13-12 25-25 25-14 0-25-12-25-25 0-14 11-25 25-25z m0 33c4 0 8-4 8-8 0-5-4-8-8-8-5 0-8 3-8 8 0 4 3 8 8 8z m107-256l-58 0-3 50 16 0c57 0 103 46 103 103 0 57-46 103-103 103l-13 0 0-16 13 0c48 0 86-39 86-87 0-48-38-87-86-87l-18 0-3 58-231 0-8-124-91 0c-32 0-58-26-58-58l0-91 63 0c9-24 33-41 61-41 28 0 51 17 61 41l142 0c10-24 33-41 61-41 28 0 52 17 61 41l63 0 0 91c0 32-26 58-58 58z m-330-173c-27 0-50 22-50 49 0 28 23 50 50 50 27 0 49-22 49-50 0-27-22-49-49-49z m264 0c-27 0-49 22-49 49 0 28 22 50 49 50 27 0 50-22 50-50 0-27-23-49-50-49z m107 41l-41 0c0 3 0 5 0 8 0 37-29 66-66 66-36 0-66-29-66-66 0-3 0-5 1-8l-134 0c1 3 1 5 1 8 0 37-30 66-66 66-37 0-66-29-66-66 0-3 0-5 0-8l-41 0 0 74c0 23 18 42 41 42l107 0 8 123 199 0 8-123 74 0c23 0 41-19 41-42l0-74z m-313 116l181 0 0 115-181 0z m16 99l149 0 0-83-149 0z m-136 115l8 0c16 0 29 13 29 29 0 16-13 29-29 29l-8 0c-7 0-12 6-12 12 0 7 5 13 12 13l8 0c7 0 13-6 13-13l0-4 16 0 0 4c0 16-13 29-29 29l-8 0c-16 0-29-13-29-29 0-15 13-28 29-28l8 0c7 0 13-6 13-13 0-7-6-12-13-12l-8 0c-7 0-12 5-12 12l0 4-17 0 0-4c0-16 13-29 29-29z m62 33l33 0 0-33 16 0 0 66c0 19-14 33-33 33-18 0-33-14-33-33l0-66 17 0z m16 50c9 0 17-8 17-17l0-16-33 0 0 16c0 9 7 17 16 17z m99-66l-33 0 0 82-16 0 0-99 49 0z m67 0l-33 0 0 25 33 0 0 16-33 0 0 25 33 0 0 16-50 0 0-99 50 0z"/>
<glyph glyph-name="cg-accheck" unicode="&#66;" d="M116 83c-14 0-25-12-25-25 0-14 11-25 25-25 13 0 24 11 24 25 0 13-11 25-24 25z m0-33c-5 0-9 3-9 8 0 4 4 8 9 8 4 0 8-4 8-8 0-5-4-8-8-8z m371 0c21 0 25 13 25 24l0 66c0 21-11 40-29 49l-2 1c0 0-30 7-44 29l-25 49c-10 20-32 29-49 29l-103 0c13 22 21 48 21 75l-17 0c0-47-26-90-66-111l0 28-16 0 0-50 49 0 0 17-9 0c9 7 18 15 26 25l115 0c12 0 28-7 34-20l25-50 1-1c16-25 47-34 53-36 12-6 19-19 19-34l0-66c0-7-1-8-8-8l-33 0c-4 28-29 50-58 50-29 0-53-22-57-50l-166 0c-4 28-28 50-57 50-29 0-53-22-58-50l-25 0c-9 0-16 8-16 17l0 57c0 21 13 31 26 34l49 8c11 2 20 8 30 20l35 46-17 0c-46 0-89 26-110 66l28 0 0 16-50 0 0-49 17 0 0 9c23-32 59-53 100-58l-16-20c-7-9-13-13-20-14l-49-8c-24-5-40-25-40-50l0-57c0-18 15-33 33-33l25 0c5-28 29-50 58-50l157 0 0 17-117 0c9 8 15 20 17 33l166 0c2-13 8-25 17-33l-34 0 0-17 190 0 0 17-75 0c9 8 15 20 17 33z m-371-33c-23 0-42 18-42 41 0 23 19 41 42 41 22 0 41-18 41-41 0-23-19-41-41-41z m280 0c-22 0-41 18-41 41 0 23 19 41 41 41 23 0 42-18 42-41 0-23-19-41-42-41z m0 66c-13 0-24-12-24-25 0-14 11-25 24-25 14 0 25 11 25 25 0 13-11 25-25 25z m0-33c-4 0-8 3-8 8 0 4 4 8 8 8 5 0 9-4 9-8 0-5-4-8-9-8z m-107-33l17 0 0-17-17 0z m-248 0l17 0 0-17-17 0z m-33 0l17 0 0-17-17 0z m380 156l0 9c0 22-18 41-41 41l-108 0c-22 0-41-19-41-41l17 0c0 13 11 24 24 24l108 0c13 0 25-11 25-24l0-9c0-13-12-24-25-24l-79 0 19 19-12 11-39-39 39-38 12 11-19 19 79 0c23 0 41 19 41 41z m-305 309l0-28 16 0 0 50-49 0 0-17 9 0c-36-26-59-69-59-115l17 0c0 46 26 89 66 110z m168-53l-28 0 0-16 50 0 0 49-17 0 0-9c-26 36-69 59-116 59l0-17c47 0 90-26 111-66z m-160-8l0-9-12 8-9-14 11-7-9-3 5-16 22 8 26-16-26-16-22 7-5-16 9-3-11-7 9-14 12 8 0-9 16 0 0 19 25 16 0-16-23-30 13-10 10 13 0-25 17 0 0 25 10-13 13 10-23 30 0 16 24-16 0-19 17 0 0 9 12-8 9 14-11 7 9 3-5 16-22-7-26 16 26 16 22-8 5 16-9 3 11 7-9 14-12-8 0 9-17 0 0-19-24-15 0 15 23 31-13 10-10-14 0 25-17 0 0-25-10 14-13-10 23-31 0-15-25 15 0 19z"/>
<glyph glyph-name="cg-repair" unicode="&#67;" d="M494 465l-30 31c-20 20-54 21-76 3l-54-47c-1-1-1-1-2-2l-52-88-34-11c-3-1-5-3-6-6 0-3 0-6 3-9l92-92c1-1 4-2 6-2 0 0 1 0 2 0 3 1 5 3 6 6l11 34 89 53c1 1 2 1 2 2l46 53c19 22 17 55-3 75z m-10-64l-45-52-90-54c-2-1-3-3-4-5l-8-23-21 20c0 0 0 0 0 0l-30 31c0 0 0 0 0 0l-21 21 23 8c2 0 4 2 5 3l54 90 53 46c14 12 38 12 51-2l31-31c14-14 15-37 2-52z m-14-238c-26 26-63 34-97 23l-185 185c11 34 2 71-23 97-27 27-67 35-103 21-2-1-4-3-5-6-1-3 0-6 2-8l56-55-37-37-55 55c-3 2-5 3-8 3-3-1-6-3-7-6-14-35-5-75 22-102 25-26 63-34 97-23l69-69-86-86-55-31c-1-1-3-2-3-4l-25-49c-2-3-1-7 2-10l30-30c2-2 4-3 7-3 1 0 2 0 3 1l50 24c1 1 2 2 3 4l31 55 86 86 72-73c-11-34-2-72 24-97 18-18 42-28 67-28 12 0 24 2 35 7 3 1 5 3 5 6 1 3 0 6-2 8l-55 55 37 37 55-55c2-2 5-3 8-3 3 1 5 3 6 6 14 35 6 75-21 102z m-330-40c-1-1-1-1-2-2l-30-53-41-21-22 22 21 41 53 30c1 0 2 1 2 1l87 87 18-18z m339-43l-51 51c-4 4-9 4-12 0l-50-49c-1-1-2-4-2-6 0-2 1-4 2-6l51-51c-25-5-51 3-70 21-22 22-29 55-18 84 2 3 1 7-2 9l-192 193c-2 1-4 2-6 2-1 0-2 0-3 0-29-12-62-5-84 17-19 19-26 45-21 71l51-51c3-4 9-4 12 0l49 49c3 3 3 9 0 12l-51 51c25 5 52-3 71-21 22-22 28-55 17-84-1-3 0-7 2-9l192-193c3-2 6-3 10-2 29 12 61 5 83-17 19-19 27-45 22-71z"/>
<glyph glyph-name="wrench-1" unicode="&#68;" d="M512 379c-1 10-7 19-17 22-3 2-6 2-9 2-6 0-13-3-18-7l-60-60-61 11-11 61 60 60c7 7 9 18 5 27-3 10-12 16-22 17-3 0-5 0-8 0-37 0-73-15-99-41-42-42-53-103-29-156l-167-167-42-42c-18-18-55-55-19-91 13-12 26-15 34-15 24 0 41 18 57 33l209 209c18-7 37-11 57-11 37 0 73 14 99 41 28 28 43 67 41 107z m-59-89c-22-23-52-34-81-34-22 0-43 6-62 18-80-80-185-185-222-223-13-13-26-25-39-25-5 0-10 2-15 7-19 18 0 36 18 54 37 38 142 143 222 223-28 45-23 104 16 143 23 22 52 33 81 33 2 0 4 0 7 0l-70-69 18-92 91-17 69 69c2-31-9-63-33-87z"/>
<glyph glyph-name="transport-2" unicode="&#69;" d="M284 278l-56 0c-18 0-33-14-33-32l0-31c0-4 4-8 8-8l106 0c4 0 8 4 8 8l0 31c0 18-15 32-33 32z m17-55l-90 0 0 23 0 0c0 9 8 16 17 16l56 0c9 0 17-7 17-16z m-45 168c-4 0-8-4-8-8l0-10c0-5 4-8 8-8 4 0 8 3 8 8l0 10c0 4-4 8-8 8z m0-33c-4 0-8-4-8-8l0-10c0-5 4-8 8-8 4 0 8 3 8 8l0 10c0 4-4 8-8 8z m-26 31c-3 3-8 3-12 0l-7-8c-3-3-3-8 0-11 2-1 4-2 6-2 2 0 4 1 6 2l7 7c3 3 3 8 0 12z m-24-24c-3 3-8 3-11 0l-7-7c-3-3-3-8 0-11 1-2 3-3 5-3 2 0 4 1 6 3l7 7c3 3 3 8 0 11z m95 16l-7 8c-4 3-9 3-12 0-3-4-3-9 0-12l7-7c2-1 4-2 6-2 2 0 4 1 6 2 3 3 3 8 0 11z m23-23l-7 7c-3 3-8 3-11 0-3-3-3-8 0-11l7-7c2-2 4-3 6-3 2 0 4 1 5 3 3 3 3 8 0 11z m159 5l0 0 0 43c0 32-27 59-59 59l-336 0c-32 0-59-27-59-59l0-43 0 0c-16 0-29-12-29-28l0-259c0-16 13-29 29-29l55 0c12 0 23 11 23 23 0 6-2 11-6 15 4 4 6 10 6 15 0 6-2 11-6 15 4 4 6 10 6 15 0 6-2 11-6 15 4 4 6 10 6 15 0 6-2 11-6 15 4 4 6 10 6 15 0 6-2 11-6 15 4 4 6 10 6 15 0 6-2 11-6 15 4 4 6 10 6 15 0 6-2 11-6 15 4 4 6 10 6 15 0 6-2 11-6 15 4 4 6 10 6 15 0 6-2 11-6 15 4 4 6 10 6 15 0 13-11 23-23 23l-7 0 0 43c0 6 5 11 11 11l336 0c6 0 11-5 11-11l0-43-7 0c-12 0-23-10-23-23 0-5 2-11 6-15-4-4-6-9-6-15 0-5 2-11 6-15-4-4-6-9-6-15 0-5 2-11 6-15-4-4-6-9-6-15 0-5 2-11 6-15-4-4-6-9-6-15 0-5 2-11 6-15-4-4-6-9-6-15 0-5 2-11 6-15-4-4-6-9-6-15 0-5 2-11 6-15-4-4-6-9-6-15 0-5 2-11 6-15-4-4-6-9-6-15 0-5 2-11 6-15-4-4-6-9-6-15 0-12 11-23 23-23l55 0c16 0 29 13 29 29l0 259c0 16-13 28-29 28z m-399-16c4 0 7-3 7-7 0-3-3-7-7-7-5 0-8-3-8-8 0-4 3-8 8-8 4 0 7-3 7-7 0-3-3-7-7-7-5 0-8-3-8-8 0-4 3-8 8-8 4 0 7-3 7-7 0-3-3-7-7-7-5 0-8-3-8-8 0-4 3-8 8-8 4 0 7-3 7-7 0-3-3-7-7-7-5 0-8-3-8-8 0-4 3-8 8-8 4 0 7-3 7-7 0-4-3-7-7-7-5 0-8-3-8-8 0-4 3-8 8-8 4 0 7-3 7-7 0-4-3-7-7-7-5 0-8-3-8-8 0-4 3-8 8-8 4 0 7-3 7-7 0-4-3-7-7-7-5 0-8-3-8-8 0-4 3-8 8-8 4 0 7-3 7-7 0-4-3-7-7-7-5 0-8-3-8-8 0-4 3-8 8-8 4 0 7-3 7-7 0-4-3-7-7-7-5 0-8-3-8-8 0-4 3-8 8-8 4 0 7-3 7-7 0-4-3-7-7-7l-55 0c-7 0-13 6-13 13l0 259c0 7 6 12 13 12z m340 86l-336 0c-15 0-27-12-27-27l0-43-16 0 0 43c0 23 20 43 43 43l336 0c23 0 43-20 43-43l0-43-16 0 0 43c0 15-12 27-27 27z m72-357c0-7-6-13-13-13l-55 0c-4 0-7 3-7 7 0 4 3 7 7 7 5 0 8 4 8 8 0 5-3 8-8 8-4 0-7 3-7 7 0 4 3 7 7 7 5 0 8 4 8 8 0 5-3 8-8 8-4 0-7 3-7 7 0 4 3 7 7 7 5 0 8 4 8 8 0 5-3 8-8 8-4 0-7 3-7 7 0 4 3 7 7 7 5 0 8 4 8 8 0 5-3 8-8 8-4 0-7 3-7 7 0 4 3 7 7 7 5 0 8 4 8 8 0 5-3 8-8 8-4 0-7 3-7 7 0 4 3 7 7 7 5 0 8 4 8 8 0 5-3 8-8 8-4 0-7 4-7 7 0 4 3 7 7 7 5 0 8 4 8 8 0 5-3 8-8 8-4 0-7 4-7 7 0 4 3 7 7 7 5 0 8 4 8 8 0 5-3 8-8 8-4 0-7 4-7 7 0 4 3 7 7 7 5 0 8 4 8 8 0 5-3 8-8 8-4 0-7 4-7 7 0 4 3 7 7 7l55 0 0 0c7 0 13-5 13-12z m-147 110l0 60c0 35-29 64-65 64l-56 0c-36 0-65-29-65-64l0-60c-16-8-28-23-28-39l0-34c0-4 4-8 8-8l24 0 0-28c0-16 13-30 30-30 16 0 29 14 29 30l0 28 60 0 0-28c0-16 13-30 29-30 17 0 30 14 30 30l0 28 24 0c4 0 8 4 8 8l0 34c0 16-12 31-28 39z m-170 60c0 26 22 48 49 48l56 0c27 0 49-22 49-48l0-55c0 0-10 0-11 0 0 0-132 0-132 0-4 0-7 0-11 0z m31-169c0-8-6-14-13-14-8 0-14 6-14 14l0 28 27 0z m119 0c0-8-6-14-14-14-7 0-13 6-13 14l0 28 27 0z m32 44c0 0-24 0-24 0 0 0-43 0-43 0 0 0-76 0-76 0 0 0-43 0-43 0l-24 0 0 26c0 11 9 21 23 26 0 0 0 0 0 0 5 2 10 2 16 2 0 0 132 0 132 0 6 0 11 0 16-2 0 0 0 0 0 0 14-5 23-15 23-26z"/>
<glyph glyph-name="cg-fuel" unicode="&#70;" d="M307 412c-32 0-58-26-58-58 0-32 26-57 58-57 32 0 57 25 57 57 0 32-25 58-57 58z m0-99c-23 0-41 18-41 41 0 23 18 41 41 41 23 0 41-18 41-41 0-23-18-41-41-41z m201-194l-16 31 6 4-75 150 16 24-18 56-105 87-26-17-45 17-7-16-76 38-139 18-23-57 140-18 73-36-6-14 17-25-16-49 37-66 15 3 58-116 111 0 2-4 15-31 0-31-246 0 0 107c0 22-18 41-41 41l-156 0 0-17 156 0c14 0 25-11 25-24l0-107c0-9 7-16 16-16l246 0c9 0 17 7 17 16l0 31c0 2-1 5-2 7l-12 24 28 14 16-32c2-3 3-7 3-11l0-58c0-13-11-24-25-24l-295 0c-14 0-25 11-25 24l0 107c0 9-7 16-16 16l-132 0 0-16 132 0 0-107c0-22 18-41 41-41l295 0c23 0 41 19 41 41l0 58c0 7-1 13-4 19z m-288 296l-75 37-122 16 10 25 124-16 74-37z m135-205l-6-61-21 0-52 104 17 4 30-6c12-2 23-9 28-20 3-6 5-13 4-21z m10-61l6 60c1 10-1 20-5 29-7 13-18 23-32 27l26 6 61-122z m77-5l-73 146-115-25-28 49 16 49-16 25 28 62 37-15 24 16 92-77 14-43-17-26 72-144z m-28-102l16 0 0-16-16 0z m-33 0l16 0 0-16-16 0z m-91 0l74 0 0-16-74 0z"/>
<glyph glyph-name="cg-contract" unicode="&#71;" d="M480 330c-8 0-16-3-22-9l-45-45 0 105c5-11 8-23 8-34l17 0c0 29 29 74 66 74l0 17c-40 0-66 26-66 66l-17 0c0-12-3-23-8-33l0 16c0 14-11 25-25 25l-363 0c-14 0-25-11-25-25l0-462c0-14 11-25 25-25l363 0c14 0 25 11 25 25l0 162 90 89c6 6 9 14 9 23 0 17-14 31-32 31z m-51 136c8-18 22-31 40-38-17-11-31-27-39-45-8 20-23 36-40 46 17 7 30 20 39 37z m-33-441c0-5-3-8-8-8l-363 0c-5 0-8 3-8 8l0 462c0 5 3 8 8 8l363 0c5 0 8-3 8-8l0-35c-11-9-25-14-41-14l0-17c16 0 30-7 41-18l0-144-115-115 0 46-58 0 0-58 46 0-3-3-34-79 78 34 86 86z m-105 69l-28-12 12 27z m-27 79l0-24-25 0 0 24z m42-70l-22 21 145 145 22-21z m185 185l-29-29-21 22 29 28c3 3 6 5 10 5 9 0 15-7 15-15 0-4-1-8-4-11z m-384 67c28 0 50 22 50 50 0 27-22 49-50 49-27 0-49-22-49-49 0-28 22-50 49-50z m0 83c19 0 33-15 33-33 0-19-14-33-33-33-18 0-33 14-33 33 0 18 15 33 33 33z m-41-99l66 0 0-17-66 0z m66-66l-58 0 0-58 58 0z m-16-42l-25 0 0 25 25 0z m-42-99l58 0 0 58-58 0z m17 41l25 0 0-24-25 0z m190 100l-58 0 0-58 58 0z m-17-42l-25 0 0 25 25 0z m-49 198l115 0 0-16-115 0z m0-49l148 0 0-17-148 0z m0-50l148 0 0-16-148 0z m-66-66l41 0 0-16-41 0z m0-33l41 0 0-16-41 0z m148 33l42 0 0-16-42 0z m0-33l42 0 0-16-42 0z m-148-66l41 0 0-16-41 0z m-75-66l149 0 0-16-149 0z m0-33l149 0 0-16-149 0z m75 273l16 0 0-17-16 0z m214-289l17 0 0-17-17 0z m-33 0l17 0 0-17-17 0z m-297 0l17 0 0-17-17 0z"/>
<glyph glyph-name="transport-1" unicode="&#72;" d="M341 299l-94 0c-19 0-34-16-34-34 0-19 15-35 34-35l56 0-2-2c-4-4-4-9 0-12 1-2 3-3 6-3 2 0 4 1 6 3l15 16c3 1 4 4 4 7 0 0 0 0 0 0 0 3-1 6-4 7l-15 16c-4 3-9 3-12 0-4-3-4-9 0-12l2-3-56 0c-9 0-17 8-17 18 0 9 8 17 17 17l94 0c5 0 8 3 8 8 0 5-3 9-8 9z m131 16c-22 1-40 12-50 28l-3 4c-13 23-38 37-65 37l-111 0c-22 0-42-10-56-26l-12-12c-23-24-52-41-86-45l-52-7c-21-3-37-21-37-42l0-39c0-23 19-42 43-42l34 0c4-24 26-43 51-43 25 0 46 19 50 43l172 0c4-24 25-43 50-43 26 0 47 19 51 43l18 0c23 0 42 19 43 42l0 59c0 22-18 41-40 43z m-344-170c-19 0-34 16-34 34 0 19 15 34 34 34 19 0 34-15 34-34 0-18-15-34-34-34z m272 0c-18 0-34 16-34 34 0 19 16 34 34 34 19 0 34-15 34-34 0-18-15-34-34-34z m94 68c0-14-11-25-25-25l-18 0c-3 17-14 31-30 38 0 0 0 0-1 0 0 0 0 1 0 1-1 0-1 0-2 0 0 0 0 0 0 0-1 1-2 1-2 1 0 0-1 0-1 0 0 0-1 1-2 1 0 0 0 0 0 0-1 0-1 0-2 0 0 0 0 0-1 0 0 1-1 1-1 1-1 0-1 0-1 0-1 0-1 0-2 0 0 0 0 0-1 0 0 0-1 0-1 0-1 0-1 0-1 0-1 0-2 0-3 0 0 0-1 0-2 0 0 0-1 0-1 0 0 0-1 0-2 0 0 0 0 0 0 0-1 0-2 0-2 0 0 0-1 0-1 0 0 0-1 0-2-1 0 0 0 0 0 0-1 0-1 0-2 0 0 0 0 0-1 0 0 0-1-1-2-1 0 0 0 0 0 0-1 0-1 0-2-1 0 0 0 0 0 0-1 0-1 0-2 0 0 0 0-1-1-1 0 0 0 0-1 0-15-7-26-21-29-38l-172 0c-3 17-14 31-29 38-1 0-1 0-1 0 0 0-1 1-1 1 0 0-1 0-2 0 0 0 0 0 0 0-1 1-1 1-2 1 0 0 0 0 0 0-1 0-2 1-2 1 0 0-1 0-1 0 0 0-1 0-2 0 0 0 0 0 0 0-1 1-1 1-2 1 0 0 0 0-1 0 0 0-1 0-2 0 0 0 0 0 0 0-1 0-1 0-2 0 0 0 0 0-1 0-1 0-1 0-2 0-1 0-2 0-3 0 0 0 0 0 0 0-1 0-2 0-2 0 0 0-1 0-1 0-1 0-1 0-2 0 0 0 0 0 0 0-1 0-2 0-2-1 0 0-1 0-1 0 0 0-1 0-2 0 0 0 0 0 0 0-1 0-1-1-2-1 0 0 0 0-1 0 0 0-1 0-1-1-1 0-1 0-1 0 0 0-1 0-2 0 0 0 0-1 0-1-1 0-1 0-1 0-15-7-27-21-30-38l-34 0c-15 0-26 11-26 25l0 39c0 13 9 24 22 24l52 7c38 5 72 22 96 51l12 13c11 13 27 20 44 20l111 0c21 0 40-11 50-28l2-4c13-21 37-35 64-36 14-1 24-12 24-26z"/>
<glyph glyph-name="cg-underbody" unicode="&#73;" d="M371 333l51 0c15 0 26 11 26 25l0 128c0 15-11 26-26 26l-51 0c-14 0-25-11-25-26l0-38-54 0c-5 15-19 26-36 26-17 0-31-11-36-26l-54 0 0 38c0 15-11 26-25 26l-51 0c-15 0-26-11-26-26l0-128c0-14 11-25 26-25l51 0c14 0 25 11 25 25l0 64 54 0c4-10 12-19 23-23l0-286c-11-4-19-13-23-23l-54 0 0 64c0 14-11 25-25 25l-51 0c-15 0-26-11-26-25l0-128c0-15 11-26 26-26l51 0c14 0 25 11 25 26l0 38 54 0c5-15 19-26 36-26 17 0 31 11 36 26l54 0 0-38c0-15 11-26 25-26l51 0c15 0 26 11 26 26l0 128c0 14-11 25-26 25l-51 0c-14 0-25-11-25-25l0-64-54 0c-4 10-12 19-23 23l0 286c11 4 19 13 23 23l54 0 0-64c0-14 11-25 25-25z m0 153l51 0 0-128-51 0z m-230-128l-51 0 0 128 51 0z m0-332l-51 0 0 128 51 0z m230 128l51 0 0-128-51 0z m-115-90c-7 0-13 6-13 13 0 7 6 13 13 13 7 0 13-6 13-13 0-7-6-13-13-13z m0 358c-7 0-13 6-13 13 0 7 6 13 13 13 7 0 13-6 13-13 0-7-6-13-13-13z"/>
<glyph glyph-name="cg-brake" unicode="&#74;" d="M231 99c73 0 132 59 132 132 0 73-59 132-132 132-73 0-132-59-132-132 0-73 59-132 132-132z m0 248c64 0 116-52 116-116 0-64-52-115-116-115-64 0-115 51-115 115 0 64 51 116 115 116z m0-157c23 0 42 18 42 41 0 23-19 42-42 42-23 0-41-19-41-42 0-23 18-41 41-41z m0 66c14 0 25-11 25-25 0-13-11-25-25-25-13 0-25 12-25 25 0 14 12 25 25 25z m0 25c14 0 25 11 25 25 0 13-11 24-25 24-13 0-25-11-25-24 0-14 12-25 25-25z m0 33c5 0 8-4 8-8 0-5-3-9-8-9-4 0-8 4-8 9 0 4 4 8 8 8z m0-132c-13 0-25-11-25-25 0-14 12-25 25-25 14 0 25 11 25 25 0 14-11 25-25 25z m0-33c-4 0-8 3-8 8 0 4 4 8 8 8 5 0 8-4 8-8 0-5-3-8-8-8z m75 57c13 0 24 12 24 25 0 14-11 25-24 25-14 0-25-11-25-25 0-13 11-25 25-25z m0 33c4 0 8-3 8-8 0-4-4-8-8-8-5 0-9 4-9 8 0 5 4 8 9 8z m-124-8c0 14-11 25-25 25-14 0-25-11-25-25 0-13 11-25 25-25 14 0 25 12 25 25z m-33 0c0 5 3 8 8 8 4 0 8-3 8-8 0-4-4-8-8-8-5 0-8 4-8 8z m141 224l-4-16c74-20 132-78 152-152l16 4c-21 80-84 142-164 164z m-59 57l-8 0 0-50c-124-4-223-106-223-231 0-127 104-231 231-231 125 0 227 99 231 223l50 0 0 8c0 155-126 281-281 281z m0-495c-118 0-214 96-214 214 0 116 91 210 206 215l0-36c-39-13-62-31-63-32l10-13c1 0 20 16 53 27l0-20 8 0c78 0 141-63 141-141l0-8 25 0c5-19 8-38 8-58l16 0c0 20-2 39-7 58l32 0c-5-115-99-206-215-206z m157 222c-4 80-69 145-149 149l0 107c140-4 252-116 256-256z m66 34l17 0 0-17-17 0z m-33 0l17 0 0-17-17 0z m-165 206l17 0 0-17-17 0z m68-398l13-11c4 5 7 10 11 15l-14 9c-3-4-7-9-10-13z m19 28l15-8c3 5 5 10 8 16l-15 7c-2-5-5-10-8-15z m15 31l15-6c3 5 5 11 6 17l-15 5c-2-6-4-11-6-16z m-219 242l-13 10c-4-5-8-10-11-15l13-9c4 5 7 9 11 14z m-20-28l-14 8c-3-5-6-11-9-16l15-7c3 5 5 10 8 15z m-30-25c-2-6-4-12-6-18l16-4c1 5 3 10 5 16z m45-240c5-2 11-4 17-6l5 16c-6 1-11 3-16 5z m-64 37c5-4 10-8 15-11l9 13c-4 4-9 7-13 11z m31-21c5-3 10-6 16-9l7 15c-5 3-10 5-15 8z m64-47l0-17c83 0 135 42 137 43l-10 13c0 0-50-39-127-39z m-124 239c0-83 42-135 43-137l13 10c0 1-39 50-39 127z"/>
<glyph glyph-name="cg-clutch" unicode="&#75;" d="M256 512c-141 0-256-115-256-256 0-141 115-256 256-256 141 0 256 115 256 256 0 141-115 256-256 256z m241-287l-44 13c-2 1-4 0-4-2-1-1 0-3 2-4l45-13c-6-41-22-78-46-109l-56 60c13 22 21 47 23 73l16-5 0 0c2 0 3 1 4 3 0 1 0 3-2 4l-16 4c0 0-1 1-1 0 0 2 0 4 0 6 0 25-6 49-17 70l81 18c11-27 17-57 17-88 0-10-1-20-2-30z m-241-119c-82 0-148 67-148 149 0 81 66 148 148 148 82 0 148-67 148-148 0-82-66-149-148-149z m28 390l-16-51c-1-2 0-4 2-4l1 0c1 0 3 0 3 2l17 52c41-5 79-22 110-45l-20-19c-1-1-1-3 0-5 1 0 2-1 3-1 1 0 1 1 2 1l21 20c31-26 57-58 72-96l-81-18c-13 23-31 42-52 57l13 13c1 1 1 3 0 4-1 2-3 2-5 0l-14-13c-22 13-47 21-74 23l1 6c1 2 0 4-2 4-1 1-3 0-4-2l-2-8c-1 0-2 0-3 0-26 0-51-6-74-17l-18 81c29 11 60 18 92 18 10 0 19-1 28-2z m-126-19l18-82c-23-13-42-32-57-54l-9 11c-2 1-4 1-5 0-1-2-1-4 0-5l11-12c-13-22-21-48-22-75l-79 25c11 86 67 158 143 192z m-123-322l26 5c2 1 4 2 3 4-1 2-2 4-4 3l-27-6c-13 29-20 61-20 94 0 8 1 16 2 23l79-24c0-27 7-53 19-75l-33-7c-2-1-3-2-3-4 1-2 2-3 4-3l1 0 35 8c12-22 31-41 52-55l-60-55c-32 24-57 55-74 92z m221-142c-9 0-17 0-25 1l14 45c0 1 0 3-2 4-2 0-4 0-5-2l-14-46c-40 5-78 21-109 43l60 57c24-14 51-22 81-22 26 0 51 6 73 17l4-22c1-1 2-2 4-2l1 0c2 0 3 2 2 4l-5 24c22 12 41 30 55 51l56-61c-45-55-113-91-190-91z m0 376c-74 0-134-60-134-134 0-74 60-134 134-134 74 0 134 60 134 134 0 74-60 134-134 134z m0-261c-70 0-127 57-127 127 0 70 56 128 127 128 70 0 127-58 127-128 0-70-57-127-127-127z m-6-43c-1 1-3 0-4-2l-2-7c-1-1 0-3 2-4l1 0c1 0 2 1 3 2l2 7c1 1 0 3-2 4z m114 322c1 0 2 0 2 1l7 6c1 2 1 4 0 5-2 1-4 1-5 0l-7-6c-1-1-1-3 0-5 1 0 2-1 3-1z m-293-23c1-1 2-1 3-1 1 0 1 0 2 0 1 2 1 4 0 5l-4 5c-1 1-3 1-5 0-1-2-1-4 0-5z m21-22c0-1 2-2 2-2 1 0 2 0 2 2 2 1 2 3 0 4l-6 8c-2 1-4 1-5 0-1-1-1-3 0-5z m254-295c-1 2-2 4-4 3-2-1-4-2-3-4l3-13c0-2 2-3 3-3l1 0c2 1 3 2 2 4z m-57 155c3 3 3 7 0 10l-5 4c3 4 4 8 5 13l7 0c4 0 7 2 7 6 0 4-3 7-7 7l-7 0c-1 4-3 8-5 12l5 5c3 3 3 7 0 9-3 3-7 3-9 0l-6-5c-3 2-7 4-11 5l0 8c0 4-3 6-7 6-4 0-7-2-7-6l0-8c-4-1-8-3-11-5l-6 5c-2 3-6 3-9 0-3-2-3-6 0-9l5-5c-2-4-4-8-5-12l-7 0c-4 0-7-3-7-7 0-4 3-6 7-6l7 0c1-5 2-9 5-13l-5-4c-3-3-3-7 0-10 1-1 3-2 5-2 1 0 3 1 4 2l5 5c4-3 8-4 12-5l0-7c0-4 3-7 7-7 4 0 7 3 7 7l0 7c4 1 8 2 12 5l5-5c1-1 2-2 4-2 2 0 4 1 5 2z m-53 33c0 10 9 20 20 20 11 0 20-10 20-20 0-11-9-21-20-21-11 0-20 10-20 21z m69 90l-3 0c0 1-1 1-1 1-2 0-3-1-5-2l-6-7c-3-3-3-7 0-10l38-38c1-1 3-2 5-2 2 0 3 1 5 2l6 7c2 1 2 3 2 5l0 2c-2 22-19 39-41 42z m34-44l-7-7-38 39 7 6 2 0c19-2 34-17 36-36z m-155-79c-1 1-3 2-4 2-2 0-3-1-5-2l-7-7c-1-1-2-3-2-5l0-3c3-22 20-39 42-41l3 0c2 0 3 0 5 2l6 6c3 3 3 7 0 10z m28-50l-2 0c-19 2-34 17-36 35l0 3 6 7 38-38z m-37 118c2-2 4-2 5-2 2 0 3 0 5 2l38 38c3 3 3 7 0 10l-7 6c-2 1-3 2-5 2l-3 0c-22-3-39-20-42-42l0-2c0-2 1-4 2-6z m-3 12c2 19 17 34 36 36l3 1 7-7-39-38-7 6z m164-81c-1 2-2 3-4 3-2 0-3-1-5-2l-38-39c-3-2-3-6 0-9l7-7c1-1 2-2 4-2l3 0c22 3 39 20 42 42l0 2c0 2-1 4-2 5z m3-13c-2-19-17-34-36-36l-2 0-7 7 38 38 7-7z m-117 240c5 0 9 4 9 9 0 4-4 9-9 9-4 0-8-5-8-9 0-5 4-9 8-9z m68-387c-5 0-9-4-9-8 0-5 4-9 9-9 4 0 8 4 8 9 0 4-4 8-8 8z m33 378c2 0 4-1 5-1 3 0 6 1 7 5 3 4 1 9-3 12-4 2-9 0-12-4-1-2-1-4-1-6 1-2 2-4 4-6z m-135-368c-4 2-9 0-12-4-2-4-1-9 3-12 2 0 4-1 5-1 3 0 6 2 7 5 1 2 2 4 1 6-1 2-2 4-4 6z m226 305c2 0 3 1 5 1 2 2 3 4 4 6 1 2 1 4-1 6-2 4-8 6-12 4-2-2-3-4-4-6 0-2 0-4 1-6 1-3 4-5 7-5z m-308-247c-2 4-8 6-12 4-4-3-6-8-4-12 2-3 4-5 8-5 2 0 3 0 4 1 2 2 4 4 4 6 1 2 1 4 0 6z m352 168c-5 0-9-4-9-9 0-4 4-8 9-8 5 0 9 4 9 8 0 5-4 9-9 9z m-404-67c-5 0-9-4-9-9 0-5 4-9 9-9 5 0 9 4 9 9 0 5-4 9-9 9z m386-43c-1-2-1-4-1-6 1-2 2-4 4-6 2-1 4-1 5-1 3 0 6 2 7 5 1 2 2 4 1 6-1 2-2 4-4 6-4 2-10 0-12-4z m-385 138c1-2 2-4 4-6 2 0 4-1 5-1 3 0 6 1 7 5 1 2 2 4 1 6-1 2-2 4-4 6-4 2-9 0-12-4-1-2-1-4-1-6z m327-221c-4-2-6-8-3-12 1-2 4-4 7-4 2 0 3 0 5 1 2 1 3 3 4 5 0 2 0 5-1 7-2 4-8 6-12 3z m-256 300c1 0 3 0 5 2 4 2 6 8 3 12-2 4-8 6-12 3-2-1-3-3-4-5-1-2-1-5 1-7 1-3 4-5 7-5z"/>
<glyph glyph-name="towing-a-car" unicode="&#76;" d="M511 246c2 6 0 14-4 19l-76 76c-4 3-10 5-15 5-1 0-3 0-4 0l-51-11c-1 0-2 0-4 0-4 0-9 1-12 3l-22 13c-2 2-5 2-7 2-4 0-8-1-11-4l-11-11-17 21c-6 8-19 14-29 16l-81 9c-4 4-10 6-16 6l-84 0c-13 0-25-9-28-21l-37-156c0 0-1-1-1-1-1-2-1-5-1-7l0-22c0-11 8-19 19-19l17 0c0-1 0-2 0-3 0-22 18-39 40-39 21 0 39 17 39 39 0 1 0 2 0 3l82 0c0-1 0-2 0-3 0-22 18-39 40-39 22 0 39 17 39 39 0 1 0 2 0 3l28 0c10 0 18 8 18 19l0 22c0 10-8 19-18 19l-130 0 0 143c0 1 0 1 0 1l73-8c6-1 15-6 19-10l18-22-10-10c-4-4-4-12 0-16l14-13c-3-5-4-11-4-16 0-9 3-17 9-23 6-7 15-10 23-10 6 0 11 1 16 4l50-50c-7-12-5-28 6-39 6-6 14-9 23-9 5 0 11 1 16 4l23-24c3-2 5-4 9-4 3 0 6 2 8 4l39 38c4 5 4 12 0 17l-4 4c-3 3-5 9-4 14z m-274-65c11 0 19-9 19-20 0-11-8-20-19-20-11 0-20 9-20 20 0 11 9 20 20 20z m-161-40c-11 0-20 9-20 20 0 11 9 20 20 20 10 0 19-9 19-20 0-11-9-20-19-20z m68 109c0-7-6-13-14-13l-89 0c-7 0-12 6-10 13l25 95c2 7 9 13 17 13l57 0c8 0 14-6 14-13z m184 11c-7-6-17-6-23 0-7 7-7 17 0 23 6 7 16 7 23 0 6-6 6-16 0-23z m43 51c-4 3-3 6 2 7l38 10c4 1 10-1 13-4l28-28-33-33z m51-145c-6-6-16-6-23 0-6 6-6 17 0 23 7 6 17 6 23 0 7-6 7-17 0-23z m71 80l-11-37c-1-4-5-5-8-2l-42 42 33 34 25-24c3-3 4-9 3-13z"/>
<glyph glyph-name="cg-tow" unicode="&#77;" d="M466 333l-4 0-39 63c-8 12-21 20-35 20l-29 0c-14 0-25-11-25-25l0-184-38 0c0 0-137 241-138 242-9 17-23 31-44 31-25 0-46-21-46-47 0-15 7-29 20-38l-10-25c-1-3-1-7 0-10 2-3 4-5 7-7 9-3 13-12 10-21-2-4-5-7-9-9-4-2-8-2-12 0-5 1-8 5-10 9-2 7-10 10-16 8-7-3-10-10-8-17 4-11 13-20 25-24 4-2 9-3 14-3 6 0 12 1 18 4 10 4 18 13 22 23 6 18 1 37-13 48l6 16c1 0 2 0 2 0 5 0 10 1 14 2l0-182-103 0c-14 0-25-11-25-25l0-41c0-25 21-46 46-46l35 0c2-35 32-63 67-63 36 0 66 28 68 63l80 0c2-35 32-63 68-63 35 0 65 28 67 63l35 0c25 0 46 21 46 46l0 146c0 25-21 46-46 46z m-78 49c2 0 4-2 6-4l28-45-54 0 0 49 20 0z m-226-8l95-167-95 0z m-14-308c-18 0-34 15-34 34 0 19 16 34 34 34 19 0 35-15 35-34 0-19-16-34-35-34z m216 0c-19 0-35 15-35 34 0 19 16 34 35 34 18 0 34-15 34-34 0-19-16-34-34-34z m114 75c0-7-6-12-12-12l-41 0c-11 23-34 39-61 39-28 0-51-16-62-39l-92 0c-11 23-34 39-62 39-27 0-50-16-61-39l-41 0c-6 0-12 5-12 12l0 32 444 0z m-110 66l0 92 98 0c6 0 12-5 12-12l0-80z"/>
<glyph glyph-name="child-seat-for-the-car" unicode="&#78;" d="M361 10l-326 0c-10 0-19 4-26 12-7 9-11 22-8 36 2 15 11 37 28 48 27 18 56 18 65 17 17 14 39 23 69 23 46 0 89-6 122-13 1 12 5 37 13 69 11 40 28 81 31 88 1 20 2 41 5 61-9 3-17 9-23 18-6 10-8 22-4 34l13 49c6 22 28 36 50 31l27-5c49 34 109 22 110 21 3 0 6-4 5-7l-77-421c-7-35-38-61-74-61z m-300 13l300 0c30 0 55 21 61 51l76 414c-16 2-59 5-95-21-1-1-1-2-2-2-19-15-36-38-45-73-33-124 2-280 2-282 1-2 0-4-2-6-2-2-4-2-6-1-1 0-84 30-187 30-25 0-46-7-62-21 0 0-1-1-1-1-10-9-19-21-26-36-9-20-12-41-13-52z m20 87c-12-1-29-5-45-15-13-8-20-25-22-39-2-10 0-20 5-26 4-4 9-7 16-7l13 0c1 16 7 57 33 87z m217 21c20-5 36-9 45-12-4 22-13 74-14 135-6-16-13-36-18-56-8-32-12-57-13-67z m64 340c-14 0-26-9-29-22l-14-49c-2-8-1-17 4-24 3-5 8-10 13-12 2 10 4 21 7 31 9 33 23 56 40 72l-15 3c-2 1-4 1-6 1z"/>
<glyph glyph-name="cg-alignment" unicode="&#79;" d="M63 370c0-3 2-7 6-9 1-1 3-1 5-1 1 0 3 0 5 1l66 39c3 2 5 5 5 9 0 3-2 7-5 8l-66 39c-3 2-7 2-10 0-4-2-6-5-6-9l0-10-53 0c-5 0-10-4-10-10l0-37c0-5 5-10 10-10l53 0z m-43 30l0 17 54 0c5 0 10 5 10 10l0 3 36-21-36-21 0 2c0 6-5 10-10 10l-54 0z m482-268l-53 0 0 10c0 3-2 7-6 9-3 1-7 1-10 0l-66-39c-3-2-5-5-5-9 0-3 2-7 5-8l66-39c2-1 4-1 5-1 2 0 4 0 5 1 4 2 6 5 6 9l0 10 53 0c5 0 10 4 10 10l0 37c0 5-5 10-10 10z m-10-37l-54 0c-5 0-10-5-10-10l0-3-36 21 36 21 0-2c0-6 5-10 10-10l54 0z m-120 86c6 0 10 5 10 10l0 38 73 0c6 0 10 5 10 10l0 34c0 5-4 10-10 10l-73 0 0 38c0 5-4 10-10 10l-22 0 0 118c0 31-25 56-56 56l-76 0c-31 0-56-25-56-56l0-118-22 0c-6 0-10-5-10-10l0-38-73 0c-5 0-10-5-10-10l0-34c0-5 5-10 10-10l73 0 0-38c0-5 4-10 10-10l22 0 0-118c0-31 25-56 56-56l76 0c31 0 56 25 56 56l0 118z m73 82l0-14-63 0 0 14z m-378-14l0 14 63 0 0-14z m83-48l0 110 12 0 0-110z m73-146c0 0 1 0 1 0 9 17 9 37 0 54 0 0 0 0-1 0-5 10-5 23 0 33 1 0 1 0 1 0 9 17 9 37 0 54 0 0-1 0-1 0-5 10-5 23 0 33 0 0 0 0 1 0 9 17 9 37 0 54-6 10-6 23 0 33 9 17 9 37 0 54 0 0 0 0 0 0-6 10-6 23 0 33 9 17 9 37 0 54 0 0 0 0 0 0-5 9-6 19-3 28l20 0c-2-13 0-26 6-38 0 0 0 0 0 0 6-11 6-23 0-34-9-16-9-37 0-53 0 0 0 0 0 0 6-11 6-23 0-34-9-16-9-37 0-53 6-11 6-23 0-34 0 0 0 0 0 0-9-16-9-37 0-53 0 0 0 0 0 0 6-11 6-23 0-34 0 0 0 0 0 0-9-16-9-37 0-53 0 0 0 0 0 0 6-11 6-24 0-34 0 0 0 0 0 0-6-12-8-25-6-38l-20 0c-3 9-2 19 2 28z m42 0c0 0 0 0 0 0 9 17 9 37 0 54 0 0 0 0 0 0-6 10-6 23 0 33 0 0 0 0 0 0 9 17 9 37 0 54 0 0 0 0 0 0-6 10-6 23 0 33 0 0 0 0 0 0 9 17 9 37 0 54-6 10-6 23 0 33 9 17 9 37 0 54 0 0 0 0 0 0-6 10-6 23 0 33 9 17 9 37 0 54 0 0 0 0 0 0-5 9-6 19-3 28l21 0c-3-13-1-26 5-38 0 0 0 0 0 0 6-10 6-23 1-34 0 0 0 0-1 0-9-16-9-37 0-53 0 0 0 0 0 0 6-11 6-23 0-34-9-16-9-37 0-53 6-11 6-23 0-34 0 0 0 0 0 0-9-16-9-37 0-53 0 0 1 0 1 0 5-11 5-23 0-34 0 0-1 0-1 0-9-16-9-37 0-53 0 0 1 0 1 0 5-11 5-24 0-34 0 0 0 0-1 0-6-12-8-25-5-38l-21 0c-3 9-2 19 3 28z m-83 8l0 386c0 13 7 25 17 31-1-11 1-23 7-33 0 0 0 0 0 0 6-10 6-23 0-34-9-16-9-37 0-53 0 0 0 0 0 0 6-11 6-23 0-34-9-16-9-37 0-53 6-11 6-23 0-34 0 0 0 0 0 0-9-16-9-37 0-53 0 0 0 0 0 0 6-11 6-23 0-34 0 0 0 0 0 0-9-16-9-37 0-53 0 0 0 0 0 0 6-11 6-24 0-34 0 0 0 0 0 0-6-10-8-22-7-33-10 6-17 18-17 31z m148 0c0-17-11-31-27-35-2 9-2 19 3 27 0 0 0 0 0 0 9 17 9 37 0 54 0 0 0 0 0 0-6 10-6 23 0 33 0 0 0 0 0 0 9 17 9 37 0 54 0 0 0 0 0 0-6 10-6 23 0 33 0 0 0 0 0 0 9 17 9 37 0 54-6 10-6 23 0 33 9 17 9 37 0 54 0 0 0 0 0 0-6 10-6 23 0 33 0 0 0 0 0 0 9 17 9 37 0 54 0 0 0 0 0 0-5 8-5 18-3 27 16-4 27-18 27-35z m32 248l0-110-12 0 0 110z"/>
<glyph glyph-name="to-do-list" unicode="&#80;" d="M396 299l-164 0c-4 0-7 3-7 7 0 3 3 6 7 6l164 0c3 0 6-3 6-6 0-4-3-7-6-7z m0-139l-164 0c-4 0-7 2-7 6 0 3 3 6 7 6l164 0c3 0 6-3 6-6 0-4-3-6-6-6z m4 316l-6 0 0 28c0 4-4 8-8 8-4 0-8-4-8-8l0-28-27 0 0 28c0 4-4 8-8 8-5 0-8-4-8-8l0-28-28 0 0 28c0 4-3 8-8 8-4 0-8-4-8-8l0-28-27 0 0 28c0 4-4 8-8 8-4 0-8-4-8-8l0-28-27 0 0 28c0 4-4 8-8 8-5 0-8-4-8-8l0-28-28 0 0 28c0 4-3 8-8 8-4 0-8-4-8-8l0-28-27 0 0 28c0 4-4 8-8 8-4 0-8-4-8-8l0-28-6 0c-39 0-71-32-71-71l0-334c0-39 32-71 71-71l288 0c39 0 71 32 71 71l0 334c0 39-32 71-71 71z m55-405c0-30-24-55-55-55l-288 0c-31 0-55 25-55 55l0 334c0 30 24 55 55 55l6 0 0-23c0-4 4-8 8-8 4 0 8 4 8 8l0 23 27 0 0-23c0-4 4-8 8-8 5 0 8 4 8 8l0 23 28 0 0-23c0-4 3-8 8-8 4 0 8 4 8 8l0 23 27 0 0-23c0-4 4-8 8-8 4 0 8 4 8 8l0 23 27 0 0-23c0-4 4-8 8-8 5 0 8 4 8 8l0 23 28 0 0-23c0-4 3-8 8-8 4 0 8 4 8 8l0 23 27 0 0-23c0-4 4-8 8-8 4 0 8 4 8 8l0 23 6 0c31 0 55-25 55-55z m-268 265l-38-62c-2-2-3-3-5-4-1 0-2 0-2 0-2 0-3 1-5 2l-32 22c-3 3-4 8-2 11 3 4 8 5 11 2l26-18 34 55c2 4 7 5 11 3 4-3 5-8 2-11z m0-140l-38-62c-2-2-3-3-5-4-1 0-2 0-2 0-2 0-3 1-5 2l-32 22c-3 3-4 8-2 11 3 4 8 5 11 2l26-18 34 55c2 4 7 5 11 3 4-3 5-7 2-11z"/>
<glyph glyph-name="carwash" unicode="&#81;" d="M512 389l0 67-512 0 0-67 75 0 0-14-42 0c-1 0-3-1-4-3l-11-17c0-2 0-4 0-6l10-15-10-15c0-2 0-4 0-5l10-16-10-15c0-1 0-3 0-5l10-15-10-16c0-1 0-3 0-5l10-15-10-15c0-2 0-4 0-5l10-16-10-15c0-1 0-3 0-5l10-15-10-16c0-1 0-3 0-5l11-18c1-1 3-2 4-2l42 0 0-39 11 0 0 39 41 0 0-1c-5-2-7-6-7-11l0-10c0-7 5-13 13-13l9 0 0-12c0-7 6-12 12-12l28 0c6 0 12 5 12 12l0 12 124 0 0-12c0-7 6-12 12-12l28 0c6 0 12 5 12 12l0 12 9 0c8 0 13 6 13 13l0 10c0 5-2 9-7 11l0 1 41 0 0-39 11 0 0 39 42 0c1 0 3 1 4 2l11 18c0 2 0 4 0 5l-10 16 10 15c0 2 0 4 0 5l-10 15 10 16c0 1 0 3 0 5l-10 15 10 15c0 2 0 4 0 5l-10 16 10 15c0 2 0 4 0 5l-10 15 10 16c0 1 0 3 0 5l-10 15 10 15c0 2 0 4 0 6l-11 17c-1 2-3 3-4 3l-42 0 0 14z m-502 57l492 0 0-46-492 0z m26-321l-7 13 9 15c1 2 1 4 0 5l-9 16 9 15c1 1 1 3 0 5l-9 15 9 15c1 2 1 4 0 6l-9 15 9 15c1 2 1 4 0 5l-9 16 9 15c1 1 1 3 0 5l-9 15 9 16c1 1 1 3 0 5l-9 15 7 13 89 0 7-13-9-15c-1-2-1-4 0-5l9-16-9-15c-1-2-1-4 0-5l9-15-9-16c-1-1-1-3 0-5l9-15-9-15c-1-2-1-4 0-6l9-15-9-15c-1-2-1-4 0-5l8-13-7-6c-4-3-6-9-5-14l6-31z m333 189l9-16-9-15c-1-1-1-3 0-5l9-15-9-16c-1-1-1-3 0-5l5-8-11-7-15 9c-2 1-4 1-5 0l-16-9-15 9c-1 1-3 1-5 0l-15-9-16 9c-1 1-3 1-5 0l-15-9-15 9c-2 1-4 1-5 0l-16-9-15 9c-2 1-4 1-5 0l-15-9-16 9c-1 1-3 1-5 0l-15-9-11 7 5 8c1 2 1 4 0 5l-9 16 9 15c1 2 1 4 0 5l-9 15 9 16c1 1 1 3 0 5l-1 2 7 4 15-9c2-1 4-1 5 0l16 9 15-9c1-1 3-1 5 0l15 9 16-9c1-1 3-1 5 0l15 9 15-9c2-1 4-1 5 0l16 9 15-9c2-1 4-1 5 0l15 9 16-9c0 0 1-1 2-1 1 0 2 1 3 1l15 9 7-4-1-2c-1-2-1-4 0-5z m0-107l9-16-5-9-13 10-12 33 12-8c1-1 2-1 3-1 1 0 2 0 3 1l10 6-7-11c-1-2-1-4 0-5z m-187-55l0-19-48 0-4 19z m200 0l-4-19-49 0 0 19z m-64-19l-125 0 0 19 125 0z m58-11l-1-8c-1-2-2-3-4-3l-230 0c-2 0-3 1-4 3l-1 8z m-245 40l26 21 198 0 26-21z m3 29l9 16c1 1 1 3 0 5l-7 11 10-6c2-1 4-1 6 0l12 8-12-33-13-10z m204 31l11-28-186 0 11 28 8-5c2-1 4-1 5 0l15 9 16-9c1-1 3-1 5 0l15 9 15-9c2-1 4-1 6 0l15 9 15-9c2-1 4-1 5 0l16 9 15-9c1-1 3-1 5 0z m-154-154c0-1-1-2-2-2l-28 0c-1 0-2 1-2 2l0 12 2 0 30 0 0-12z m176 0c0-1-1-2-2-2l-28 0c-1 0-2 1-2 2l0 12 30 0 2 0z m22 25c0-1-1-3-3-3l-21 0-203 0-22 0c-2 0-3 2-3 3l0 10c0 1 0 1 1 2 2-3 6-5 10-5l230 0c4 0 8 2 10 5 1-1 1-1 1-2z m101 259l-9-15c-1-2-1-4 0-5l9-16-9-15c-1-2-1-4 0-5l9-15-9-16c-1-1-1-3 0-5l9-15-9-15c-1-2-1-4 0-6l9-15-9-15c-1-2-1-4 0-5l9-15-9-16c-1-1-1-3 0-5l9-15-7-13-89 0 6 31c1 5-1 11-5 14l-7 6 8 13c1 1 1 3 0 5l-9 15 9 15c1 2 1 4 0 6l-9 15 9 15c1 2 1 4 0 5l-9 16 9 15c1 1 1 3 0 5l-9 15 9 16c1 1 1 3 0 5l-9 15 7 13 89 0z m-57 23l-42 0c-1 0-3-1-4-3l-11-17c-1-2-1-4 0-6l9-15-2-5-10 6c-2 1-4 1-6 0l-15-9-15 9c-2 1-4 1-5 0l-15-9-16 9c-1 1-3 1-5 0l-15-9-15 9c-2 1-4 1-6 0l-15-9-15 9c-2 1-4 1-5 0l-16-9-15 9c-1 1-3 1-5 0l-15-9-15 9c-2 1-4 1-6 0l-10-6-2 5 9 15c1 2 1 4 0 6l-11 17c-1 2-3 3-4 3l-42 0 0 14 340 0z"/>
<glyph glyph-name="cg-wash" unicode="&#82;" d="M140 193l0-20 124 0 0 83-78 0z m108 46l0-49-89 0 35 49z m25 17l0-83 123 0 0 20-45 63z m16-66l0 49 54 0 35-49z m192 0l-33 8c-8 2-13 5-20 13l-42 58c-10 14-22 20-39 20l-157 0c-17 0-29-6-40-20l-41-57c-7-9-13-13-20-14l-49-8c-24-5-40-25-40-50l0-57c0-18 15-33 33-33l25 0c5-28 29-50 58-50l396 0 0 17-75 0c9 8 15 20 17 33l33 0c21 0 25 13 25 24l0 75c0 20-17 38-31 41z m-365-173c-23 0-42 18-42 41 0 23 19 41 42 41 22 0 41-18 41-41 0-23-19-41-41-41z m40 0c9 8 15 20 17 33l166 0c2-13 8-25 17-33z m240 0c-22 0-41 18-41 41 0 23 19 41 41 41 23 0 42-18 42-41 0-23-19-41-42-41z m99 57c0-7-1-8-8-8l-33 0c-4 28-29 50-58 50-29 0-53-22-57-50l-166 0c-4 28-28 50-57 50-29 0-54-22-58-50l-25 0c-9 0-16 8-16 17l0 41 16 0 0-17 17 0 0 17c0 11-6 16-17 16l-16 0c0 21 13 31 26 34l49 8c11 2 20 8 30 20l41 57c8 10 15 14 27 14l157 0c12 0 19-4 26-14l42-58c8-9 16-16 29-19l34-8c7-2 17-13 17-25z m-256 83l25 0 0-17-25 0z m-123-74c-14 0-25-12-25-25 0-14 11-25 25-25 13 0 24 11 24 25 0 13-11 25-24 25z m0-33c-5 0-9 3-9 8 0 4 4 8 9 8 4 0 8-4 8-8 0-5-4-8-8-8z m280 33c-13 0-24-12-24-25 0-14 11-25 24-25 14 0 25 11 25 25 0 13-11 25-25 25z m0-33c-4 0-8 3-8 8 0 4 4 8 8 8 5 0 9-4 9-8 0-5-4-8-9-8z m-355-33l17 0 0-17-17 0z m-33 0l17 0 0-17-17 0z m99 412l17 0 0-123-17 0z m-57 0l16 0 0-156-16 0z m346 0l17 0 0-156-17 0z m58 0l17 0 0-156-17 0z m-289 0l17 0 0-123-17 0z m58-33l16 0 0-90-16 0z m58 33l16 0 0-90-16 0z m58 0l16 0 0-123-16 0z m136 58l-103 0 0 25-17 0 0-25-198 0 0 25-17 0 0-25-103 0c-20 0-37-16-37-37l0-12 512 0 0 12c0 21-17 37-37 37z m-457-33c3 8 11 17 19 17l438 0c8 0 16-9 19-17z m89-198l17 0 0-17-17 0z m347 0l17 0 0-17-17 0z m-404 0l16 0 0-17-16 0z m0-33l16 0 0-17-16 0z m404 0l17 0 0-17-17 0z m-173 99l16 0 0-16-16 0z m-174-33l17 0 0-16-17 0z m-107-74l17 0 0-17-17 0z m495 0l17 0 0-17-17 0z m-272 214l16 0 0-16-16 0z"/>
<glyph glyph-name="cg-tyre2" unicode="&#83;" d="M495 258c0 1 0 1 0 2 0 1 0 3 0 4 0 0 0 0 0 1-2 69-23 132-57 177-29 41-69 66-112 70-1 0-1 0-2 0 0 0-1 0-2 0-2 0-4 0-6 0l-120 0c-44 0-85-23-116-61-1-1-2-2-2-3-37-47-61-116-61-192 0-141 80-256 179-256l120 0c2 0 5 0 7 0 1 0 1 0 2 0 82 7 150 90 167 206 0 1 0 1 0 2 2 16 3 32 3 48z m-282-136c0 1-1 2-1 2-16 38-24 83-24 132 0 126 59 229 135 239 86-6 155-111 155-239 0-128-69-233-155-239-46 6-86 46-110 105z m-168 49c2 1 3 2 5 3l11 17 18-18c4-3 9-3 12 0l20 20 20-21c4-3 9-3 12 0l21 21 14-13c3-15 7-30 11-43l-15 7c-4 3-8 1-11-2l-11-17-18 18c-3 3-9 3-12 0l-20-20-19 20c-4 3-9 3-12 0l-12-13c-6 13-11 27-14 41z m-11 81l21-12c4-2 8-1 11 1l19 20 21-20c3-3 8-3 12 0l20 21 33-20c0-12 1-24 3-36l-7 6c-3 2-8 1-11-1l-19-20-20 20c-4 3-9 3-12 0l-20-20-19 20c-2 1-5 2-7 2-3 0-5-1-7-3l-12-18c-4 19-6 39-6 60z m28 138l19-13c3-2 7-2 9 0l21 14 21-15c3-1 7-1 10 0l21 15 27-13c-4-13-8-27-11-41l-11 10c-3 4-8 4-12 0l-19-19-20 19c-4 4-9 4-12 0l-20-19-19 19c-2 2-4 3-6 3-3 0-5-1-6-3l-10-10c4 19 11 37 18 53z m28 46l53 15 23-14c2-2 6-2 9 0l21 14 24-11c-9-14-17-30-24-47l-31 16c-3 1-6 1-9-1l-20-14-21 14c-2 2-7 2-9 0l-21-14-15 11c6 11 12 21 20 31z m51-156c-4 2-8 1-10-2l-20-19-20 19c-3 4-8 4-12 0l-21-21-24 13c1 13 2 26 4 38 1 0 2 1 3 2l19 19 19-19c4-4 9-4 12 0l20 19 20-19c3-4 8-4 12 0l19 19 11-11c1 0 2-1 2-1-2-18-4-36-4-55z m133 215c-16-10-31-24-44-42l-30 15c-3 1-6 1-9 0l-20-14-21 14c-2 1-5 1-7 1l-30-8c24 21 53 34 83 34z m-208-381l11 11 19-20c4-3 9-3 12 0l20 20 20-20c1-2 3-3 6-3 3 0 6 2 6 5l13 19 25-12c6-15 14-29 22-42l-16-11-21 14c-2 2-6 2-9 0l-20-14-21 14c-2 2-7 2-9 0l-21-14c-14 15-27 33-37 53z m130-97c-29 0-57 12-81 32l13 9 21-14c3-1 7-1 10 0l20 14 20-14c2-2 7-2 9 0l22 14c13-17 28-31 45-41z m137 427c-44 0-81-50-96-121 0 0 0 0 0-1-1-2-1-4-1-6 0 0-1-1-1-2 0-1 0-3 0-4-1-1-1-2-1-3 0-1 0-3-1-4 0-1 0-2 0-3 0-2 0-3 0-5-1-1-1-2-1-3 0-1 0-3 0-4 0-1 0-2 0-3-1-2-1-3-1-5 0-1 0-2 0-3 0-1 0-3 0-5 0 0 0-1 0-1 0-2 0-4 0-7-1 0-1-1-1-1 0-2 0-5 0-7 0-2 0-5 0-7 0 0 0-1 1-1 0-3 0-5 0-7 0 0 0-1 0-1 0-2 0-4 0-5 0-1 0-2 0-3 0-2 0-3 1-5 0-1 0-2 0-3 0-1 0-3 0-4 0-1 0-2 1-3 0-2 0-3 0-5 0-1 0-2 0-3 1-1 1-3 1-4 0-1 0-2 1-3 0-1 0-3 0-4 0-1 1-2 1-2 0-2 0-4 1-6 0-1 0-1 0-1 15-71 52-121 96-121 57 0 102 83 102 188 0 105-45 188-102 188z m-84-215c0 1 0 1-1 2 0 0 0 1 0 2 0 1 0 2 0 3 0 1 0 2 0 2 0 2 0 4 0 5 0 1 0 1 0 1 0 2 0 3 0 5 0 0 0 1 0 1-1 2-1 4-1 6 0 2 0 3 1 5 0 32 5 62 14 87 12-21 20-55 20-92 0-37-8-71-20-92-7 19-11 41-13 65z m84-144c-25 0-48 24-64 60 18 22 30 64 30 111 0 47-12 89-30 111 16 36 39 60 64 60 46 0 85-79 85-171 0-92-39-171-85-171z"/>
<glyph glyph-name="rim" unicode="&#84;" d="M193 198l-21-21c-6-6-6-16 0-22 6-6 16-6 21 0l22 22c6 5 6 15 0 21-6 6-16 6-22 0z m2 75c5 8 2 18-7 23l-32 17c-9 5-20 2-25-6-5-8-2-19 7-23l32-18c9-4 20-2 25 7z m61 34c-28 0-51-23-51-51 0-28 23-51 51-51 28 0 51 23 51 51 0 28-23 51-51 51z m0-68c-9 0-17 8-17 17 0 9 8 17 17 17 9 0 17-8 17-17 0-9-8-17-17-17z m0 273c-141 0-256-115-256-256 0-141 115-256 256-256 141 0 256 115 256 256 0 141-115 256-256 256z m0-478c-123 0-222 99-222 222 0 123 99 222 222 222 123 0 222-99 222-222 0-123-99-222-222-222z m0 290c9 0 17 8 17 17l0 34c0 10-8 18-17 18-9 0-17-8-17-18l0-34c0-9 8-17 17-17z m63-126c-6 6-16 6-21 0-6-6-6-16 0-21l21-22c6-6 15-6 21 0 6 6 6 16 0 22z m63 109c-5 8-17 11-26 6l-32-17c-8-5-11-15-6-23 5-9 16-11 25-7l32 18c9 4 12 15 7 23z m-126 137c-104 0-188-84-188-188 0-104 84-188 188-188 104 0 188 84 188 188 0 104-84 188-188 188z m0-342c-85 0-154 69-154 154 0 85 69 154 154 154 85 0 154-69 154-154 0-85-69-154-154-154z"/>
<glyph glyph-name="car-contract2" unicode="&#85;" d="M378 200l-27 66c-7 18-29 32-48 32l-94 0c-20 0-41-14-49-32l-27-67c-3-3-6-6-8-9-6-12-11-33-11-47l0-2c0-13 9-24 21-26l0-41 42 0 0 41 158 0 0-41 42 0 0 41c12 2 21 13 21 26l1 2c0 14-6 35-12 47-2 3-5 7-9 10z m-4-45c0-7-6-13-13-13-7 0-13 6-13 13 0 7 6 13 13 13 7 0 13-6 13-13z m-211 0c0-7-6-13-13-13-7 0-13 6-13 13 0 7 6 13 13 13 7 0 13-6 13-13z m23 100c3 8 14 16 23 16l94 0c8 0 19-8 23-16l18-45-177 0z m105-115l-69 0c-8 0-14 6-14 13 0 8 6 14 14 14l69 0c8 0 14-6 14-14 0-7-6-13-14-13z m86 372l-279 0c-22 0-40-18-40-40l0-432c0-22 18-40 40-40l317 0c22 0 39 18 39 40l0 394z m38-484l-317 0c-7 0-13 5-13 12l0 432c0 7 6 12 13 12l258 0 0-70 71 0 0-374c0-7-5-12-12-12z m-302 400l143 0 0-28-143 0z m0-57l284 0 0-28-284 0z"/>
<glyph glyph-name="cg-fork" unicode="&#86;" d="M484 177c-25 26-63 35-97 24l-73 72 86 86 55 31c2 1 3 2 4 3l24 50c2 3 1 7-2 10l-30 30c-3 3-7 4-10 2l-49-25c-2 0-3-2-4-3l-31-55-86-86-69 69c11 34 3 72-23 97-27 27-67 35-102 22-3-1-5-4-6-7 0-3 1-6 3-8l55-55-37-37-55 56c-2 2-5 2-8 2-3-1-5-3-6-5-14-36-6-76 21-103 26-25 63-34 97-23l69-69-10-10-24 24c-3 3-6 3-9 3-3-1-5-3-6-6l-11-34-89-54c-1 0-2-1-2-1l-46-53c-18-22-17-56 3-76l31-30c10-11 24-16 39-16 13 0 26 4 36 13l54 47c1 1 1 1 2 2l52 88 34 11c3 1 5 3 6 6 1 3 0 6-2 8l-25 25 10 10 73-73c-11-34-3-71 23-97 18-18 43-28 68-28 11 0 23 2 34 7 3 1 5 3 6 6 0 3-1 6-3 8l-55 55 37 37 55-55c2-2 5-3 8-2 3 0 5 2 6 5 14 35 6 75-21 102z m-335 163c-2 2-6 3-9 2-29-11-62-5-84 17-18 19-26 46-21 71l51-51c3-4 9-4 12 0l49 49c4 3 4 9 0 12l-51 51c26 5 52-2 71-21 22-22 29-55 17-84-1-3 0-7 2-9l73-73-37-37z m96-165l-23-8c-2-1-4-2-5-4l-53-89-53-46c-15-13-38-12-52 2l-31 31c-14 13-14 37-2 51l45 52 91 55c1 1 3 3 3 5l8 23 21-21 31-30z m-14 39l-19 19 159 158c0 0 1 1 1 2l30 53 41 21 22-22-21-41-53-30c-1-1-1-1-2-2z m262-119l-51 51c-3 3-9 3-12 0l-49-50c-2-1-3-3-3-6 0-2 1-4 3-6l51-51c-26-5-52 3-71 22-22 22-29 54-17 83 1 4 0 7-2 10l-77 76 37 37 77-76c2-3 6-4 9-2 29 11 62 4 84-18 18-19 26-45 21-70z"/>
<glyph glyph-name="car-1" unicode="&#107;" d="M448 198l0 271c0 15-11 26-26 26l-111 0c0 9-7 17-17 17l-119 0c-9 0-17-8-17-17l-111 0c-15 0-26-11-26-26l0-443c0-15 11-26 26-26l333 0c61 0 111 49 111 111 0 36-17 67-43 87z m-26 280c6 0 9-4 9-9l0-260c-6 3-11 6-17 8l0 227c0 9-8 17-17 17l-86 0 0 17z m-153-371c0 0 0 0 0 0 1-21 7-40 17-56l-213 0 0 393 85 0c0-10 8-17 17-17l119 0c10 0 17 7 17 17l86 0 0-223c-1 0-3 0-4 0 0 0 0 0 0 0-1 0-2 0-3 0 0 0 0 0-1 0 0 1-1 1-2 1 0 0-1 0-1 0-1 0-1 0-2 0-1 0-1 0-1 0-1 0-2 0-3 0-62 0-111-50-111-111 0-1 0-2 0-4z m-94 388l119 0 0-51-119 0z m-128-478c-5 0-9 3-9 9l0 443c0 5 4 9 9 9l111 0 0-17-85 0c-10 0-18-8-18-17l0-393c0-9 8-17 18-17l227 0c6-6 13-12 20-17z m333 0c-27 0-52 11-69 30 0 0-1 1-1 2-15 16-23 36-24 58 0 0 0 0 0 0 0 1 0 3 0 4 0 52 42 94 94 94 1 0 2 0 3 0 0 0 0 0 0 0 1 0 1 0 1 0 1 0 2 0 2 0 1 0 2-1 2-1 0 0 0 0 0 0 5 0 10-1 15-3 1 0 2 0 3 0 9-2 17-6 26-12 25-17 42-45 42-78 0-52-42-94-94-94z m56 143c-4 3-9 2-12-2l-48-68-33 27c-3 3-9 2-12-1-3-3-2-9 1-12l41-33c1-1 3-2 5-2 0 0 1 0 1-1 2 0 4 2 6 4l53 76c3 4 2 9-2 12z m-133 70c16 0 29 11 33 26l13 0c13 0 22 9 23 22l0 33c0 13-10 23-22 23l-18 0-33 46c-5 7-14 12-23 12l-37 0c-1 0-3 1-4 1-2 0-3-1-4-1l-37 0c-10 0-18-5-23-12l-33-46-18 0c-12 0-22-11-22-23l0-33c0-13 10-22 22-22l13 0c4-15 18-26 33-26 16 0 30 11 33 26l71 0c4-15 17-26 33-26z m0 17c-9 0-17 8-17 18 0 9 8 17 17 17 9 0 17-8 17-17 0-10-8-18-17-18z m-19 124l27-37-68 0 0 41 32 0c4 0 7-1 9-4z m-101 0c3 3 6 4 10 4l33 0 0-41-68 0z m-17-124c-9 0-17 8-17 18 0 9 8 17 17 17 10 0 17-8 17-17 0-10-7-18-17-18z m1 52c0 0 0 0 0 0 0 0 0 0-1 0-15 0-29-11-33-26l-13 0c-2 0-5 3-5 5l0 33c0 3 3 6 5 6l17 0c1-1 2-1 4-1l188 0c1 0 2 0 3 1l18 0c2 0 5-3 5-6l0-33c0-2-3-5-5-5l-14 0c-4 15-15 26-31 26-1 0-1 0-1 0-1 0-1 0-1 0-16 0-29-11-33-26l-69 0c-5 15-18 26-34 26z m68-111l-128 0c-5 0-9-4-9-9 0-5 4-8 9-8l128 0c5 0 8 3 8 8 0 5-3 9-8 9z m0-43l-128 0c-5 0-9-3-9-8 0-6 4-9 9-9l128 0c5 0 8 3 8 9 0 5-3 8-8 8z m0-43l-128 0c-5 0-9-3-9-8 0-5 4-9 9-9l128 0c5 0 8 4 8 9 0 5-3 8-8 8z"/>
<glyph glyph-name="cg-engine" unicode="&#108;" d="M446 239l-25 0 0 50-39 0-49 33-52 0 0 50 66 0 0 16-198 0 0-16 66 0 0-50-53 0-58-49-46 0 0-50-41 0 0 74-17 0 0-206 17 0 0 66 41 0 0-66 47 0 58-33 93 0 0 16-89 0-51 30 0 156 52 46 160 0 44-30 0-28 16 0 0 25 17 0 0-199-17 0 0-16 33 0 0 41 25 0 0-16 66 0 0 181-66 0z m-388-66l-41 0 0 33 41 0z m41-66l-25 0 0 149 25 0z m165 215l-33 0 0 50 33 0z m182-206l-25 0 0 107 25 0z m16 132l33 0 0-149-33 0z m-128-42l-62 0 41 58-79 0-49-99 52 0-22-78z m-122-24l33 66 36 0-41-58 54 0-46-46 11 38z m-146 280l50 0 0-16-50 0z m-66 0l50 0 0-16-50 0z m50-16l16 0 0-50-16 0z m0 66l16 0 0-50-16 0z m429-124l0 33-17 0 0-33 17 0 0-16-17 0 0 16-33 0 0-16 33 0 0-33 17 0 0 33 33 0 0 16z m-149-314l42 0 0-16-42 0z m-16 0l16 0 0 42-16 0 0-42-41 0 0-16 41 0 0-41 16 0 0 41-16 0z m181-24l-16 0 0-17-17 0 0-16 17 0 0-17 16 0 0 17-16 0 0 16 16 0 0-16 17 0 0 16-17 0z"/>
<glyph glyph-name="gearstick" unicode="&#109;" d="M471 380l-168 0c16 14 27 34 27 58l0 33c0 22-18 41-41 41l-66 0c-23 0-41-19-41-41l0-33c0-24 11-44 27-58l-168 0c-22 0-41-19-41-41l0-298c0-22 19-41 41-41l430 0c22 0 41 19 41 41l0 298c0 22-19 41-41 41z m-273 58l0 0c7-5 16-9 25-9l50 0 0 17-50 0c-14 0-25 11-25 25 0 13 11 24 25 24l66 0c14 0 25-11 25-24 0-14-11-25-25-25l0-17c9 0 18 4 25 9l0 0c0-32-26-58-58-58-32 0-58 26-58 58z m83-273l0-66c0-14-11-25-25-25-14 0-25 11-25 25l0 66-82 0 0-66c0-14-11-25-25-25-14 0-25 11-25 25l0 182c0 13 11 25 25 25 14 0 25-12 25-25l0-66 66 0 0-17c0-23 18-41 41-41 23 0 41 18 41 41l0 17 66 0 0 66c0 13 11 25 25 25 14 0 25-12 25-25l0-182c0-14-11-25-25-25-14 0-25 11-25 25l0 66z m-50 33l0 170c8-3 16-5 25-5 9 0 17 2 25 5l0-170c0-13-11-25-25-25-14 0-25 12-25 25z m264-157l0 0c0-13-11-24-24-24l-430 0c-13 0-24 11-24 24l0 298c0 13 11 24 24 24l174 0 0-132-50 0 0 50c0 23-18 41-41 41-23 0-41-18-41-41l0-182c0-23 18-41 41-41 23 0 41 18 41 41l0 50 50 0 0-50c0-23 18-41 41-41 23 0 41 18 41 41l0 50 50 0 0-50c0-23 18-41 41-41 23 0 41 18 41 41l0 182c0 23-18 41-41 41-23 0-41-18-41-41l0-50-50 0 0 132 174 0c13 0 24-11 24-24z m-437 380l99 0 0-16-99 0z m66 33l33 0 0-16-33 0z m264-41l83 0 0-17-83 0z m-25 33l58 0 0-17-58 0z m99-396l17 0 0-17-17 0z m-33 0l17 0 0-17-17 0z m-396 0l17 0 0-17-17 0z m58 404l16 0 0-16-16 0z"/>
<glyph glyph-name="cg-wire" unicode="&#110;" d="M419 338c0 1 0 3-2 3l-5 1c1 7 4 25 2 35 0 1-2 3-4 2-1-1-2-2-2-4 1-8-1-26-2-33l-6 1c-1 1-3-1-4-3l0 0c0-14-4-27-11-41 0 2 0 5 0 8 0 71-59 130-130 130-72 0-130-58-130-130 0-38 16-74 44-98-15 5-28 12-38 21 0 0 0 0 0 1-2 1-4 0-5-1l-3-5c-5 4-19 15-24 22-2 2-3 2-5 1-1-1-1-3-1-5 6-7 20-19 26-23l-2-3c-1-2-1-4 0-5 16-13 37-22 64-28 21-4 46-7 74-7 36 0 69 15 93 39 30 30 51 59 62 86 0 1 1 1 1 1 4 12 7 23 8 35z m-21-24l9-2c-1-2-1-3-2-5l-9 2c1 2 2 3 2 5z m11 3l-9 2c1 6 2 12 3 17l9-1c0-6-2-12-3-18z m-265-114l5 7c1-1 3-1 4-2l-5-7c-1 1-3 1-4 2z m-15 20c5-4 9-7 15-10l-6-7c-5 2-10 6-14 9z m126-40c-42 0-75 5-101 16l5 7c7-3 15-5 23-7l1 0c1 0 1-1 2-1 23-4 47-5 69-5 63 0 115 51 115 114 0 63-52 114-114 114-63 0-115-51-115-114 0-48 31-90 73-106-9 1-18 2-27 4 0 0-1 0-1 0-34 24-54 62-54 103 0 68 55 123 123 123 68 0 124-55 124-124 0-68-55-124-123-124z m0 16c-60 0-108 49-108 108 0 60 48 108 108 108 59 0 107-48 107-108 0-59-48-108-107-108z m128 85c5 6 8 13 11 20l9-2c-7-15-16-30-29-46 4 8 7 18 9 28z"/>
<glyph glyph-name="cg-chain" unicode="&#111;" d="M503 247c5 0 9 4 9 9 0 5-4 9-9 9l-25 0c-1 13-3 27-6 40l25 7c5 1 8 6 6 10-1 5-6 7-10 6l-25-6c0 1-1 1-1 2 0 0 0 1 0 1 0 0 0 0 0 0-4 12-9 23-15 34l23 13c4 3 5 8 3 12-3 4-8 5-12 3l-22-13c-8 12-16 23-25 33l18 18c3 3 3 9 0 12-3 3-9 3-12 0l-18-18c-10 9-21 17-33 25l13 22c2 4 1 9-3 12-4 2-9 1-12-3l-13-23c-12 7-24 12-37 16l6 25c2 4-1 9-6 10-4 1-9-1-10-6l-7-25c-13 3-27 5-40 6l0 25c0 5-4 9-9 9-5 0-9-4-9-9l0-25c-13-1-27-3-40-6l-7 25c-1 5-6 7-10 6-5-1-8-6-6-10l6-25c-13-4-25-9-37-16l-13 23c-3 4-8 5-12 3-4-3-5-8-3-12l13-22c-12-8-23-16-33-25l-18 18c-3 3-9 3-12 0-3-3-3-9 0-12l18-18c-9-10-17-21-25-33l-22 13c-4 2-9 1-12-3-2-4-1-9 3-12l23-13c-6-11-11-22-15-34 0 0 0 0 0 0 0 0 0-1 0-1 0-1-1-1-1-2l-25 6c-4 1-9-1-10-6-2-4 1-9 6-10l25-7c-3-13-5-27-6-40l-25 0c-5 0-9-4-9-9 0-5 4-9 9-9l25 0c1-13 3-27 6-40l-25-7c-5-1-7-6-6-10 1-4 4-7 8-7 1 0 1 1 2 1l25 6c4-13 9-25 16-37l-23-13c-4-3-5-8-3-12 2-3 5-4 8-4 1 0 3 0 4 1l22 13c8-12 16-23 25-33l-18-18c-3-3-3-9 0-12 2-2 4-3 6-3 2 0 4 1 6 3l18 18c7-6 13-11 20-16 0 0 0 0 1 0 0-1 0-1 0-1 4-3 8-5 12-8l-13-22c-2-4-1-9 3-12 1 0 3-1 4-1 3 0 6 2 8 4l13 23c12-7 24-12 37-16l-6-25c-1-4 1-9 6-10 1 0 1-1 2-1 4 0 7 3 8 7l7 25c13-3 27-5 40-6l0-25c0-5 4-9 9-9 5 0 9 4 9 9l0 25c13 1 27 3 40 6l7-25c1-4 4-7 8-7 1 0 2 1 2 1 5 1 8 6 6 10l-6 25c13 4 25 9 37 16l13-23c2-2 5-4 8-4 1 0 3 1 4 1 4 3 6 8 3 12l-13 22c4 3 8 5 12 8 0 0 0 0 0 1 1 0 1 0 1 0 7 5 13 10 20 16l18-18c2-2 4-3 6-3 2 0 4 1 6 3 3 3 3 9 0 12l-18 18c9 10 17 21 25 33l22-13c1-1 3-1 4-1 3 0 6 1 8 4 2 4 1 9-3 12l-23 13c7 12 12 24 16 37l25-6c1 0 1-1 2-1 4 0 7 3 8 7 2 4-1 9-6 10l-25 7c3 13 5 27 6 40z m-120-151l-65 89c19 18 32 43 32 71 0 7-1 14-3 21l106 34c5-17 8-36 8-55 0-65-31-123-78-160z m-127-45c-42 0-81 13-113 35l65 89c14-8 30-13 48-13 18 0 34 5 48 13l65-89c-32-22-71-35-113-35z m-205 205c0 19 3 38 8 55l106-34c-2-7-3-14-3-21 0-28 13-53 32-71l-65-89c-47 37-78 95-78 160z m196 205l0-112c-34-3-64-25-77-56l-106 34c28 76 99 130 183 134z m201-134l-106-34c-13 31-43 53-77 56l0 112c84-4 155-58 183-134z m-192-148c-42 0-77 35-77 77 0 42 35 77 77 77 42 0 77-35 77-77 0-42-35-77-77-77z m9 77c0-5-4-9-9-9-5 0-9 4-9 9 0 5 4 9 9 9 5 0 9-4 9-9z"/>
<glyph glyph-name="cg-spark" unicode="&#112;" d="M512 457c0 3-1 6-3 8l-30 30c-2 2-5 3-8 3-3 0-5-1-7-3l-39-39c-6 2-12 3-18 3-13 0-26-5-35-14-1-1-1-2-2-3l-6-12c-3-6-8-11-14-14-10-5-18-13-23-23-3-6-8-10-13-13-10-5-18-11-25-18l-64-64-16 16c-4 4-11 4-15 0l-32-31c-4-4-4-11 0-15l10-10-8-8-10 9c-2 2-5 4-8 4-2 0-5-2-7-4l-44-43c-4-4-4-11 0-15l10-10-93-93c-16-16-16-43 0-59l21-20c2-3 5-4 7-4 3 0 6 1 8 4 4 4 4 11 0 15l-20 20c-8 8-8 21 0 29l11 12 27-28-8-8c-4-4-4-11 0-15 2-2 5-3 8-3 2 0 5 1 7 3l9 8 34-35c2-2 5-3 8-3 3 0 6 1 8 3l73 74 10-10c2-2 5-3 8-3 2 0 5 1 7 3l44 44c4 4 4 11 0 15l-10 10 8 8 10-10c2-2 5-3 7-3 3 0 6 1 8 3l31 31c5 5 5 12 0 16l-16 16 64 64c7 7 13 15 18 24 3 6 7 11 13 14 10 5 18 13 23 23 3 6 8 11 14 14l12 6c1 0 2 1 3 2 9 9 14 22 14 35 0 6-1 12-3 18l39 38c2 3 3 5 3 8z m-388-417l-69 70 65 66 70-70z m99 64l-105 104 28 28 105-104z m26 61l-70 69 8 9 70-70z m40 6l-104 104 16 16 104-104z m138 258l17-16c5-6 8-13 8-20 0-6-2-12-6-17l-56 56c5 4 11 6 17 6 8 0 15-3 20-9z m-83-50l49-49c-8-5-14-12-18-20l-51 51c9 4 15 10 20 18z m-47-153l-56 57 63 63c1 1 2 2 2 2l56-56c0-1-1-1-2-2z m114 120c0-1-1-2-1-2l-52 52c1 0 1 1 2 1 8 4 14 9 19 16l48-49c-7-4-12-11-16-18z m47 83l-15 15 28 28 15-15z"/>
<glyph glyph-name="cg-car-comp" unicode="&#87;" d="M186 479l-46-63 0-20 124 0 0 83z m62-66l-89 0 35 49 54 0z m25 66l0-83 123 0 0 20-45 63-78 0z m16-66l0 49 54 0 35-49z m-50-25l25 0 0-16-25 0z m-123-132c13 0 24 11 24 25 0 13-11 25-24 25-14 0-25-12-25-25 0-14 11-25 25-25z m0 33c4 0 8-4 8-8 0-5-4-8-8-8-5 0-9 3-9 8 0 4 4 8 9 8z m371-16c21 0 25 13 25 24l0 75c0 20-17 38-31 41l-33 8c-8 2-13 5-20 13l-42 58c-10 14-22 20-39 20l-157 0c-17 0-29-6-40-20l-41-57c-7-9-13-13-20-14l-49-8c-24-5-40-25-40-50l0-57c0-18 15-33 33-33l25 0c2-13 8-25 17-34l-75 0 0-66 147 0 81-24-82-25 0-16 78-21-76-21-148 0 0-66 512 0 0 66-148 0-76 21 78 21 0 16-82 25 81 24 147 0 0 66-75 0c9 9 15 21 17 34z m-413 8c0 23 19 41 42 41 22 0 41-18 41-41 0-23-19-42-41-42-23 0-42 19-42 42z m99-8l166 0c2-13 8-25 17-34l-200 0c9 9 15 21 17 34z m322-223l0-33-478 0 0 33z m-194 16l-90 0 45 12z m33 50l-78-21-78 21 78 24z m-78 41l-52 16 104 0z m239 66l0-33-478 0 0 33z m-99 16c-22 0-41 19-41 42 0 23 19 41 41 41 23 0 42-18 42-41 0-23-19-42-42-42z m0 100c-29 0-53-22-57-50l-166 0c-4 28-28 50-57 50-29 0-54-22-58-50l-25 0c-9 0-16 8-16 17l0 41 16 0 0-17 17 0 0 17c0 10-6 16-17 16l-16 0c0 21 13 31 26 33l49 9c11 2 20 8 30 20l41 57c8 10 15 13 27 13l157 0c12 0 19-3 26-13l42-58c8-9 16-16 29-19l34-8c7-2 17-13 17-25l0-75c0-7-1-8-8-8l-33 0c-4 28-29 50-58 50z m0-33c-13 0-24-12-24-25 0-14 11-25 24-25 14 0 25 11 25 25 0 13-11 25-25 25z m0-33c-4 0-8 3-8 8 0 4 4 8 8 8 5 0 9-4 9-8 0-5-4-8-9-8z m-330-116l17 0 0-41-17 0z m-33-17l17 0 0-57-17 0z m421 17l17 0 0-33-17 0z m-33 0l17 0 0-74-17 0z m-115 165l16 0 0-16-16 0z m-33 0l16 0 0-16-16 0z m189 0l17 0 0-16-17 0z m-429-281l17 0 0-16-17 0z m33 0l17 0 0-16-17 0z"/>
<glyph glyph-name="cg-tyre" unicode="&#88;" d="M388 325l0 14c0 17-9 32-22 41 13 9 22 24 22 41l0 41c0 28-22 50-49 50l-289 0c-28 0-50-22-50-50l0-41c0-17 9-32 22-41-13-9-22-24-22-41l0-42c0-17 9-32 22-41-13-9-22-24-22-41l0-42c0-27 22-49 50-49l137 0c19-71 83-124 160-124 91 0 165 74 165 165 0 77-53 141-124 160z m76-69c19-24 31-54 31-87l-18 18c-4 27-17 50-34 69z m-15 17l-25 0c-21 14-47 23-74 24l15 16c33-5 62-19 84-40z m-79 74l-83 0 30 25 22 0c15 0 28-11 31-25z m-178 41l-73 0-30 25 73 0z m-4 25l73 0 30-25-73 0z m30-41l73 0-30-25-73 0z m121 16l-22 0-30 25 83 0c-3-14-16-25-31-25z m-48 107l-30-24-73 0 30 24z m-99 0l-30-24-73 0 30 24z m-142 0l43 0-30-24-45 0c3 14 16 24 32 24z m-33-41l280 0 0 17-10 0 30 24 22 0c15 0 28-10 31-24l-23 0 0-17 25 0 0-25-355 0z m1-41l45 0 30-25-43 0c-16 0-29 11-32 25z m32-41c0 0 43 0 43 0l-30-25-45 0c3 14 16 25 32 25z m-33-42l52 0 50 42 73 0-30-25-5 0 0-17 215 0 0-2c-8 1-17 2-25 2-32 0-62-9-87-24l-243 0z m326-16l-18-19c-27-4-50-16-69-34l0 22c24 18 54 30 87 31z m-155-25l50 0c-8-7-15-15-22-23z m4-25l-73 0-30 25 73 0z m47 4l0-26c-14-21-23-46-24-74l-16 16c5 32 19 61 40 84z m-221 21l45 0 30-25-43 0c-16 0-29 11-32 25z m32-41l43 0-30-25-45 0c3 14 16 25 32 25z m0-108c-16 0-29 11-32 25l45 0 30-25z m137 66c-3-13-5-27-5-41 0-8 1-17 2-25l-65 0-30 25 51 0 0 17-123 0 0 24 123 0 0 17-51 0 30 25 85 0c-5-8-8-16-12-25l-35 0 0-17z m42-132c-18 25-30 55-31 88l19-19c4-26 16-50 34-69z m99-56c-32 4-61 18-84 40l26 0c21-15 46-24 74-25z m-97 147c0 64 52 116 116 116 64 0 115-52 115-116 0-64-51-115-115-115-64 0-116 51-116 115z m207-117c-25-19-55-31-88-31l19 18c26 4 50 17 69 34z m16 15l0 25c15 21 24 47 25 74l15-15c-4-33-18-62-40-84z m-25 102c0 46-37 83-82 83-46 0-83-37-83-83 0-45 37-82 83-82 45 0 82 37 82 82z m-148 0c0 37 29 66 66 66 36 0 66-29 66-66 0-36-30-66-66-66-37 0-66 30-66 66z m33 306l16 0 0-17-16 0z m-190-124l16 0 0-17-16 0z m-33 0l17 0 0-17-17 0z m256-273l0-16c26 0 52 10 71 27l-11 12c-16-14-38-23-60-23z m-190 108l16 0 0-17-16 0z m24-104l-14-8c14-26 35-50 59-68l10 13c-22 17-41 39-55 63z"/>
<glyph glyph-name="cg-checkup-1" unicode="&#89;" d="M396 299l-164 0c-4 0-7 3-7 7 0 3 3 6 7 6l164 0c3 0 6-3 6-6 0-4-3-7-6-7z m0-139l-164 0c-4 0-7 2-7 6 0 3 3 6 7 6l164 0c3 0 6-3 6-6 0-4-3-6-6-6z m4 316l-6 0 0 28c0 4-4 8-8 8-4 0-8-4-8-8l0-28-27 0 0 28c0 4-4 8-8 8-5 0-8-4-8-8l0-28-28 0 0 28c0 4-3 8-8 8-4 0-8-4-8-8l0-28-27 0 0 28c0 4-4 8-8 8-4 0-8-4-8-8l0-28-27 0 0 28c0 4-4 8-8 8-5 0-8-4-8-8l0-28-28 0 0 28c0 4-3 8-8 8-4 0-8-4-8-8l0-28-27 0 0 28c0 4-4 8-8 8-4 0-8-4-8-8l0-28-6 0c-39 0-71-32-71-71l0-334c0-39 32-71 71-71l288 0c39 0 71 32 71 71l0 334c0 39-32 71-71 71z m55-405c0-30-24-55-55-55l-288 0c-31 0-55 25-55 55l0 334c0 30 24 55 55 55l6 0 0-23c0-4 4-8 8-8 4 0 8 4 8 8l0 23 27 0 0-23c0-4 4-8 8-8 5 0 8 4 8 8l0 23 28 0 0-23c0-4 3-8 8-8 4 0 8 4 8 8l0 23 27 0 0-23c0-4 4-8 8-8 4 0 8 4 8 8l0 23 27 0 0-23c0-4 4-8 8-8 5 0 8 4 8 8l0 23 28 0 0-23c0-4 3-8 8-8 4 0 8 4 8 8l0 23 27 0 0-23c0-4 4-8 8-8 4 0 8 4 8 8l0 23 6 0c31 0 55-25 55-55z m-268 265l-38-62c-2-2-3-3-5-4-1 0-2 0-2 0-2 0-3 1-5 2l-32 22c-3 3-4 8-2 11 3 4 8 5 11 2l26-18 34 55c2 4 7 5 11 3 4-3 5-8 2-11z m0-140l-38-62c-2-2-3-3-5-4-1 0-2 0-2 0-2 0-3 1-5 2l-32 22c-3 3-4 8-2 11 3 4 8 5 11 2l26-18 34 55c2 4 7 5 11 3 4-3 5-7 2-11z"/>
<glyph glyph-name="cg-bike-standard" unicode="&#90;" d="M341 179c0-5-4-9-8-9-5 0-9 4-9 9 0 0 0 0 0 1l-20 20c-1 1-1 2 0 3l5 5c1 1 2 1 3 0l20-21c1 0 1 0 1 0 4 0 8-3 8-8z m55 46l9 9c4 3 4 9 0 13l-4 4c-3 3-9 3-13 0l-9-9c-10 8-23 13-36 15l0 7 8 0c5 0 10 4 10 9l0 6c0 5-4 9-10 9l-37 0c-5 0-9-4-9-9l0-6c0-5 4-9 9-9l9 0 0-7c-14-2-26-7-37-15l-8 8c-4 4-10 4-13 0l-4-3c-4-4-4-10 0-14l8-8c-9-13-14-29-14-46 0-43 35-78 78-78 43 0 78 35 78 78 0 17-5 33-15 46z m-63-97c-28 0-52 23-52 52 0 28 23 51 52 51 28 0 51-23 51-51 0-29-23-52-51-52z m-182 270c-36 2-52 4-52 4-4 0-7-3-7-8l0-4c0-5 3-8 8-8 0 0 9-3 45-4 1 7 3 14 6 20z m160-3c0 4-4 8-8 8 0 0-16-3-52-5 3-6 6-13 6-20 36 1 46 4 46 4 4 0 8 4 8 8z m-110 22c-25 0-46-20-46-45 1-26 21-46 46-46 25 0 46 21 46 46 0 25-21 45-46 45z m0-73c-15 0-28 12-28 28 0 15 13 28 28 28 15 0 28-13 28-28 0-16-12-28-28-28z m94 134c15 0 28-13 28-28 0-16-13-28-28-28-16 0-28 12-28 28 0 15 12 28 28 28z m-188 0c16 0 28-13 28-28 0-16-12-28-28-28-15 0-27 12-27 28 0 15 12 28 27 28z m122-336c0-12-10-22-21-22l-13 0c-12 0-22 10-22 22l0 120c0 12 10 21 22 21l13 0c11 0 21-9 21-21z m0 152l0 1c0 12-10 22-21 22l-13 0c-12 0-22-10-22-22l0-1z m8 35c0 4 3 8 7 8l5 0c4 0 7-4 7-8l0-75c0 0-7-7-6-13 0-6 6-13 6-13l0-24c0-4-3-7-7-7l-5 0c-4 0-7 3-7 7z m50-73c1 1 1 3 1 4l0 44c0 12-10 22-22 22l-2 0 0-65c0 0 7 1 12-1 5-3 10-8 11-4z m-141 73c0 4 3 8 7 8l5 0c4 0 7-4 7-8l0-125c0-4-3-7-7-7l-5 0c-4 0-7 3-7 7z m-8 7l-2 0c-12 0-21-9-21-21l0-45c0-11 9-21 21-21l2 0z"/>
<glyph glyph-name="noun-796852-cc" unicode="&#48;" d="M36 489c-13 0-24-10-27-22l-6-5 6-4c3-13 14-23 27-23 15 0 27 12 27 27 0 15-12 27-27 27z m7-41l-14 0m13 8c0 2-1 2-1 2l-5 1-5 1c0 0-1 0-1 2 0 2 1 2 1 2l10 2c0 0 1 0 1 2 0 2-1 2-1 2l-10 2c0 0-1 0-1 2 0 2 1 2 1 2l5 1m-6-27c0 2 1 2 1 2l5 1 5 1c0 0 1 0 1 2m1 21l-14 0m-67-27c0 0 6 6 13 6 7 0 13-6 13-6m-20-24l-6 0 0 65m0-16l7 0m18 14c0-6-5-12-12-12-7 0-12 6-12 12 0 7 5 12 12 12 7 0 12-5 12-12z m-26 3l0 6c0 12 7 17 14 17 7 0 14-5 14-17l0-6m32 11c0-2-2-5-5-5-3 0-5 3-5 5 0 3 2 5 5 5 3 0 5-2 5-5z m-39-77l6 0 0 65m0-16l-7 0m-19-8l-6 0c0 0-3 0-3-3 0-3 0-6 0-6l3-4 0-7-6 0c0 0-6 0-6-6 0-6 0-4 0-4 0 0 0-6 6-6l12 0m27 36l5 0c0 0 3 0 3-3 0-3 0-6 0-6l-3-4 0-7 6 0c0 0 6 0 6-6 0-6 0-4 0-4 0 0 0-6-6-6l-12 0m-23 63c0 0-3 0-6-2-3-2-5-12-5-12 0 0-1-7 2-7 3 0 6 0 6 0m23 21c0 0 3 0 6-2 3-2 5-12 5-12 0 0 1-7-2-7-3 0-6 0-6 0m-7 6l0-72c0 0 0-6-6-6 0 0-6 0-6 6 0 3 0 72 0 72m28 19l1-5 10-6m-48 12l-4 0-18-6m15 5l-1-5-10-6m74 11l0-3-4-2-18 6-4 0m-38-68l-1-1 5-17c0 0 1-3 5 0m36 18l1-1-5-17c0 0-1-3-5 0m-32 34l0-7m-6 7l0-7m50 7l0-7m-6 7l0-7m-38-3l0-6m-6 6l0-6m50 6l0-6m-6 6l0-6m-6-3l14-27 6 0"/>
<glyph glyph-name="cg-comfort" unicode="&#49;" d="M496 351c0 0-170-146-199-176-30-29-62-26-93 0-16 14-191 181-191 181l-9-7c0 0 169-163 195-186 40-35 76-24 104 4l202 178z m-129 1c20 0 37 16 37 37 0 21-17 37-37 37-21 0-38-16-38-37 0-21 17-37 38-37z m-295-19l161-140c4-3 8-4 12-5 2 0 2 0 3 0 4 0 11 1 15 5l191 155c9 7 10 20 2 30-8 9-21 9-30 2l-54-44c-1 0-4 1-7 3-8 5-28 4-37-3l-32-29-8 27 8 5-3 5 7 5-43 71-16-24 24-37c-14-5-16-15-13-29l13-45-24-22c-19 63-18 63-17 59-2 9-14 23-27 23-10 0-58 0-74 0l-23 21c-9 7-23 6-30-2-8-9-7-23 2-31z m185 70l-10-6 10 16 38-64-4-3z m-63-86l14-46-53 46z"/>
<glyph glyph-name="cg-certificate" unicode="&#50;" d="M107 547c-4 0-8-2-10-4-3-3-4-6-4-10l0-407c0-4 1-7 4-10 2-3 6-4 10-4l120 0c1 3 3 6 4 8 3 4-1 8-2 12-1 2-2 5-3 8l-106 0 0 379 181 0 0-77c0-3 1-7 4-10 2-2 6-4 9-4l81 0 0-288-30 0c-2-5-2-11-6-16 2-4 4-8 6-12l44 0c4 0 7 1 10 4 2 3 4 6 4 10l0 316c0 4-2 8-4 10l-95 91c-2 2-6 4-9 4-70 0-139 0-208 0z m221-47l46-44-46 0z m-160-109c-7 0-12-6-12-12 0-7 5-13 12-13l180 0c7 0 12 6 12 13 0 6-5 12-12 12z m0-58c-7 0-12-6-12-13 0-7 5-12 12-12l180 0c7 0 12 5 12 12 0 7-5 13-12 13z m128-54c-4 0-7-1-10-3l-9-6c-3-3-6-4-10-4l-10 0c-8 0-14-4-17-11l-3-11c-1-3-3-6-6-8l-9-6c-6-5-8-12-6-19l3-11c1-3 1-7 0-10l-3-10c-2-7 0-15 6-19l9-6c3-3 5-6 6-9l3-10c3-7 9-12 17-12l10 0c4 0 7-1 10-3l9-6c6-5 14-5 20 0l8 6c3 2 7 3 11 3l10 0c7 0 14 5 16 12l3 10c2 3 4 6 7 9l8 6c6 4 9 12 7 19l-4 10c-1 3-1 7 0 10l4 11c2 7-1 14-7 19l-8 6c-3 2-5 5-7 8l-3 11c-2 7-9 11-16 11l-10 0c-4 0-8 1-11 4l-8 6c-3 2-7 3-10 3z m-128-5c-7 0-12-5-12-12 0-7 5-13 12-13l56 0c0 1 0 1 0 2 1 9 6 17 14 23z m128-19c15 0 30-6 42-18 24-23 24-61 1-84l-1 0c-23-24-61-24-85 0-23 23-23 61 0 84 12 12 27 18 43 18z m37-34c-1 0-1 0-1 0-1 0-2-1-3-1-2-1-4-2-6-3-7-3-13-9-19-14-5-5-9-10-13-16l-5-6 0 1c-6 6-9 11-16 15-7 3-12 4-19 4 0 0-1-1-1-1 0-1 0-1 1-2 17-11 20-18 26-27 3-5 4-7 6-9 1-1 1-2 2-2 1-1 2-1 2-1 2 0 3 1 5 2 1 1 2 3 3 5 9 17 20 35 38 53 1 0 1 1 1 1 0 1-1 1-1 1z m-89-100l-34-81c-1-1 0-2 0-2 1-1 2-1 3-1l38 15 22-15c1-1 2-1 3-1 1 1 1 2 1 3l8 68c-2 1-5 3-7 4 0 1 0 1 0 1-4 3-9 6-14 5-6 0-14 0-20 4z m104 0c-7-5-17-3-25-4-6-2-11-7-17-10l8-68c0-1 1-2 2-3 0 0 1 0 2 1l22 15 38-15c1 0 3 0 3 1 1 0 1 1 1 2z"/>
<glyph glyph-name="cg-message" unicode="&#51;" d="M7 391l132-119c2-2 5-5 7-7l8-7c2-2 6-5 8-7l64-58c2-1 3-3 3-3 0 0 1 0 1 0 0 0 2 2 4 3l64 58c2 2 5 5 7 7l8 7c2 2 6 5 8 7l27 25c-23 21-37 51-37 84 0 5 0 9 1 14l-77 0c-3 0-5 0-5 0 0 0-3 0-6 0l-216 0c-3 0-4-2-1-4z m-1-241l114 106c2 2 2 5 0 7l-114 105c-2 2-4 1-4-2l0-214c0-3 2-4 4-2z m423 0l-102 92c-2 2-6 2-8 0l-85-76c-3-2-6-2-8 0l-85 76c-3 2-6 2-8 0l-103-92c-2-2-1-3 1-3l193 0c3 0 6 0 6 0 0 0 2 0 5 0l193 0c3 0 3 1 1 3z m28 120c-10-2-20-4-31-4-23 0-45 7-63 19l-23-22c-2-2-2-5 0-7l113-106c3-2 4-1 4 2z m-37 200c-49 0-90-37-95-84-1-4-1-8-1-11 0-28 12-53 31-70 4-4 8-7 12-10 15-10 33-16 53-16 8 0 17 2 25 4 40 11 70 48 70 92 0 52-43 95-95 95z m0-162c-10 0-17 7-17 16 0 2 0 3 1 4 1 7 6 11 13 12 1 1 2 1 3 1 9 0 16-8 16-17 0-9-7-16-16-16z m13 78l-1-12-1-20 0-5-23 0 0 4-2 33-4 55 35 0z"/>
<glyph glyph-name="cg-driver" unicode="&#52;" d="M230 204c-1 1-3 0-4-1-1 0-2-2-2-3l0-21c0-2-2-4-4-4l-2 0c-3 0-5 2-5 4l0 21c0 1 0 3-1 3-2 1-3 2-4 1-15-5-24-18-24-34 0-13 8-25 19-31l0-12-14 0 0-42 1-2c0 0 9-12 29-12 20 0 29 12 30 12l1 2 0 42-14 0 0 12c12 6 19 18 19 31-1 16-11 29-25 34z m9-87l0-28c-2-3-9-7-20-7-11 0-18 5-20 7l0 28z m-10 29c-2-1-3-2-3-4l0-15-15 0 0 15c0 2-1 3-3 4-10 4-16 14-16 24 0 9 4 17 11 23l0-14c0-7 6-13 13-13l3 0c7 0 13 6 13 13l0 14c7-5 12-13 12-23 1-10-5-20-15-24z m132 117c30 26 50 65 50 108 0 7-1 14-2 21 1 2 1 3 1 5 1 1 1 3 1 4 0 0 0 1 0 2 0 0 0 1 0 1l-18 78c-2 25-56 63-123 63-77 0-128-37-129-63l-18-78c0 0 0-1 0-1 0-4 1-8 1-11-1-7-2-14-2-21 0-45 21-85 53-111-9-8-17-17-23-27-18-30-27-70-27-129 0-9 9-11 21-15 2 0 7-1 9-3 5-54 53-54 95-54l18 0c58 0 109 0 114 54 3 1 6 2 9 3 12 3 21 6 21 15 0 65-8 125-51 159z m19 119c0-1-1-1-2-1 0 0-1 0-2 0-1 0-1 0-2-1-1 0-2 0-4 0l-16 0c-16 4-34 7-53 9-11 1-23 2-35 2-15 0-29-1-42-3-16-1-31-4-45-8l-16 0c-2 0-3 0-5 1 0 0-1 0-1 0 0 0-1 1-2 1-1 0-1 0-2 0 0 0-1 1-1 1-1 1-2 1-2 1-3 3-6 6-7 9 7 2 21 5 41 7 3 0 8 1 13 1 10 2 25 3 44 3 8 0 17 1 26 1 33 0 53-2 66-4 5 0 9-1 12-1 1 0 3 0 4 1 20-3 33-5 41-7-2-5-6-9-10-11 1-1 1-1 0-1z m-192 86l153 1 0-50c-19 2-43 3-71 3-1 0-1 0-2 0 0 0-1 0-1 0-9 0-17 0-25 0-21-1-38-2-53-4z m-30 11c0 0 0 1 0 2 0 9 36 46 111 46 66 0 106-36 106-46 0-1 0-2 0-2l15-68c-8 2-18 4-32 6l0 51c0 10-8 17-17 17l-153 0c-9 0-17-7-17-17l0-52c-13-2-22-4-28-5z m-18-110c2-1 3-1 5-2 4-2 8-3 11-4 1 0 1 0 1 0 2 0 4-1 6-1l18 0 1 1c20 6 45 9 71 10 4 0 9 0 13 0 4 0 8 0 11 0 27-1 52-4 73-10l1-1 19 0c2 0 4 0 5 1 1 0 1 0 2 0 3 1 7 2 10 4 2 0 4 1 5 2-1-68-57-124-127-124-68 0-124 55-125 124z m110-319c-53 0-76 4-77 42 0 1 0 1-1 3 0 0-1 16 0 37 1 20 2 52 2 52l-14-79c-2 1-5 1-9 3-2 0-6 1-8 2 0 70 15 116 47 140 20-13 44-21 69-22l0-176z m136 56c-3 0-6-1-8-2l-14 79c0 0 1-32 2-52 1-20 0-37 0-37 0-1-1-1-1-2-2-39-31-42-91-42l0 177c27 1 52 10 73 24 37-26 47-75 47-142-2-1-6-2-8-3z m-151 185c7 0 13 6 13 13l0 15c0 7-6 13-13 13-7 0-13-6-13-13l0-15c0-7 6-13 13-13z m64 0c7 0 13 6 13 13l0 15c0 7-6 13-13 13-8 0-13-6-13-13l0-15c0-7 5-13 13-13z m-58-17c-1-3 0-6 3-7 0 0 9-5 22-5 14 0 23 4 23 5 3 1 4 4 2 7-1 3-5 4-7 3 0 0-7-4-18-4-10 0-16 3-17 4-3 1-7 0-8-3z"/>
<glyph glyph-name="cg-discount" unicode="&#53;" d="M52 323l-46-170c-4-14 5-29 19-33l88-23z m50-51l51-188c4-14 18-23 32-19l98 26z m151 44c-1 3-3 5-5 7l-8 8c-2 2-5 4-8 5-2 2-5 2-8 3-3 0-6 0-9-1-3-2-6-3-8-6-3-3-5-6-6-9 0-2-1-5 0-8 0-3 1-6 3-9 1-2 3-5 5-7l8-8c2-2 5-4 8-5 2-1 5-2 8-3 3 0 6 1 9 2 3 1 6 3 8 5 3 3 5 6 6 9 0 3 1 6 0 8 0 3-1 6-3 9z m245-13l-216 216-152 0c-20 0-36-16-36-36l0-153 216-215c10-10 27-10 37 0l151 151c10 10 10 27 0 37z m-324 136c-11-10-28-10-38 0-10 11-10 28 0 38 10 10 27 10 38 0 10-10 10-27 0-38z m98-146c-2-5-5-10-10-14-4-5-9-8-14-10-5-3-10-4-16-4-5 0-10 1-15 4-5 2-9 5-13 9l-8 7c-4 4-7 8-10 13-2 5-3 10-3 15-1 5 0 11 2 16 2 5 5 10 10 15 4 4 9 8 14 10 5 2 10 3 16 3 5 0 10-1 15-4 5-2 9-5 13-9l8-7c4-4 7-8 10-13 2-5 3-10 3-15 1-5 0-10-2-16z m46-80l-45 180 17 4 45-180z m103 72c-1-5-5-10-9-14-5-5-9-8-14-11-6-2-11-3-16-3-5 0-10 1-15 3-5 3-10 6-14 10l-7 7c-4 4-8 8-10 13-2 5-4 10-4 15 0 5 1 11 3 16 2 5 5 10 9 14 5 5 10 9 15 11 5 2 10 3 15 3 5 0 10-1 15-3 5-3 10-6 14-10l8-7c4-4 7-8 9-13 3-5 4-10 4-15 0-5-1-11-3-16z m-18 23c-1 2-3 5-6 7l-7 8c-3 2-5 4-8 5-3 1-6 2-9 3-3 0-5-1-8-2-3-1-6-3-9-5-2-3-4-6-5-9-1-3-1-5-1-8 1-3 2-6 3-9 2-3 4-5 6-7l8-8c2-2 4-4 7-5 3-2 6-2 9-3 3 0 6 0 9 1 3 2 5 3 8 6 3 3 4 6 5 9 1 2 1 5 1 8 0 3-1 6-3 9z"/>
<glyph glyph-name="cg-dashboard" unicode="&#54;" d="M397 319c-64 0-116-52-116-115 0-64 52-116 116-116 63 0 115 52 115 116 0 63-52 115-115 115z m-59-114l15 0 64-91-15 0z m31 70l0-13c16 0 28-13 28-29 0-15-12-28-28-28l0-13c23 0 41 19 41 41 0 23-18 42-41 42z m81 0l-5-13-110 0 5 13z m-101-70l20 0 0-13-20 0z m101 35l-5-13-110 0 5 13z m-422 147l24 0 0-23-24 0z m0-52l24 0 0-24-24 0z m0-41l24 0 0-23-24 0z m248 160l100 0 0-8-100 0z m0-17l84 0 0-8-84 0z m-11-235l-252 0 0 41 259 0c1 3 3 6 4 9l-263 0 0 93 379 0 0-14c2 0 3 0 5 0 1 0 2 0 4 0l0 156-396 0 0-294 260 0c0 2 0 4 0 6 0 1 0 2 0 3z m-252 276l379 0 0-75-379 0z m0-84l379 0 0-41-379 0z m57-59l143 0 0-24-143 0z m0 52l158 0 0-23-158 0z m0-93l143 0 0-23-143 0z m-29 169l108 0 0-43-108 0z m-13-238l142 0 0-9-142 0z"/>
<glyph glyph-name="cg-driver2" unicode="&#55;" d="M479 130c-18 109-148 144-165 148-37-28-88-28-124 0-17-4-144-39-163-148-9-45-6-84 17-92 14-4 37 1 61 9 1 0 1 0 1 0 0 0 0 0 1 0 15 5 25 19 25 35l0 2c0 14-7 26-19 32 20 58 75 99 140 99 65 0 120-41 140-99-11-7-19-19-19-32l0-2c0-17 11-31 26-36 25-7 48-13 61-9 24 8 28 48 18 93z m-105 280c0 70-54 127-120 127-67 0-121-57-121-127 0-70 54-127 121-127 66 0 120 57 120 127z m-83-321c4-7 7-14 7-22 0-10-4-19-9-26 30 1 56 5 77 10 1 5 2 11 2 16 0 28-10 52-25 72z m-76 0l-51 50c-16-20-26-45-26-72 0-6 1-11 2-16 21-5 47-9 77-10-5 7-8 16-8 26 0 8 2 16 6 22z m38 0c-12 0-22-10-22-22 0-12 10-22 22-22 12 0 22 10 22 22 0 12-10 22-22 22z m0 92c-28 0-54-10-74-27l51-49c7 4 15 6 23 6 8 0 17-2 23-7l52 50c-21 17-47 27-75 27z"/>
<glyph glyph-name="battery" unicode="&#101;" d="M461 422l0 26c0 14-12 26-26 26l-77 0c-14 0-25-12-25-26l0-26-154 0 0 26c0 14-11 26-25 26l-77 0c-14 0-26-12-26-26l0-26c-28 0-51-23-51-51l0-281c0-29 23-52 51-52l410 0c28 0 51 23 51 52l0 281c0 28-23 51-51 51z m-103 26l77 0 0-26-77 0z m-281 0l77 0 0-26-77 0z m409-358c0-15-11-26-25-26l-410 0c-14 0-25 11-25 26l0 256 460 0z m-460 281c0 14 11 26 25 26l410 0c14 0 25-12 25-26z m384-153l0 38-26 0 0-38-38 0 0-26 38 0 0-38 26 0 0 38 38 0 0 26z m-346 0l102 0 0-26-102 0z"/>
<glyph glyph-name="credit-card" unicode="&#56;" d="M448 448l-384 0c-35 0-64-29-64-64l0-256c0-35 29-64 64-64l384 0c35 0 64 29 64 64l0 256c0 35-29 64-64 64m32-320c0-18-14-32-32-32l-384 0c-18 0-32 14-32 32l0 160 448 0z m0 224l-448 0 0 32c0 18 14 32 32 32l384 0c18 0 32-14 32-32z m-416-96l192 0 0-32-192 0z m0-64l64 0 0-32-64 0z m288 64l96 0 0-64-96 0z"/>
</font>
</defs>
</svg>
