<?xml version="1.0" standalone="no"?>
<!DOCTYPE svg PUBLIC "-//W3C//DTD SVG 1.1//EN" "http://www.w3.org/Graphics/SVG/1.1/DTD/svg11.dtd">
<svg xmlns="http://www.w3.org/2000/svg">
<metadata>Generated by Fontastic.me</metadata>
<defs>
<font id="cgfont" horiz-adv-x="512">
<font-face font-family="cgfont" units-per-em="512" ascent="480" descent="-32"/>
<missing-glyph horiz-adv-x="512" />

<glyph glyph-name="cg-driver" unicode="&#97;" d="M479 130c-18 109-148 144-165 148-37-28-88-28-124 0-17-4-144-39-163-148-9-45-6-84 17-92 14-4 37 1 61 9 1 0 1 0 1 0 0 0 0 0 1 0 15 5 25 19 25 35l0 2c0 14-7 26-19 32 20 58 75 99 140 99 65 0 120-41 140-99-11-7-19-19-19-32l0-2c0-17 11-31 26-36 25-7 48-13 61-9 24 8 28 48 18 93z m-105 280c0 70-54 127-120 127-67 0-121-57-121-127 0-70 54-127 121-127 66 0 120 57 120 127z m-83-321c4-7 7-14 7-22 0-10-4-19-9-26 30 1 56 5 77 10 1 5 2 11 2 16 0 28-10 52-25 72z m-76 0l-51 50c-16-20-26-45-26-72 0-6 1-11 2-16 21-5 47-9 77-10-5 7-8 16-8 26 0 8 2 16 6 22z m38 0c-12 0-22-10-22-22 0-12 10-22 22-22 12 0 22 10 22 22 0 12-10 22-22 22z m0 92c-28 0-54-10-74-27l51-49c7 4 15 6 23 6 8 0 17-2 23-7l52 50c-21 17-47 27-75 27z"/>
<glyph glyph-name="cg-carbreakdown" unicode="&#98;" d="M388 204c-23 0-41-19-41-42 0-23 18-42 41-42 23 0 42 19 42 42 0 23-19 42-42 42z m0-56c-7 0-14 6-14 14 0 8 7 14 14 14 8 0 14-6 14-14 0-8-6-14-14-14z m-221 269l-22 26-8-8 25-22z m-48-213c-23 0-42-19-42-42 0-23 19-42 42-42 23 0 41 19 41 42 0 23-18 42-41 42z m0-56c-8 0-14 6-14 14 0 8 6 14 14 14 7 0 14-6 14-14 0-8-7-14-14-14z m72 277l3 34-12 0 3-34z m49 10l-9 8-21-26 4-4z m-38-190l0 133c8 0 14 6 14 14 0 7-6 13-14 13l-28 0c-7 0-14-6-14-13 0-8 7-14 14-14l1 0c-79-13-139-82-139-165l0-37c0-8 6-14 13-14l18 0c0 29 23 52 52 52 29 0 52-23 52-52l165 0c0 29 24 52 52 52 29 0 52-23 52-52l18 0c7 0 13 6 13 14l0 55c0 8-6 14-13 14z m-28 21l-115 0c18 50 62 88 115 98z m266 140l-98 0c-31 0-66-41-87-45-21-5-43-12-43-53l0-42 16 0c4-12 16-21 29-21 14 0 26 9 30 21l101 0 7 10c0-17 14-31 31-31 13 0 25 9 29 21l16 0 0 78c0 34-13 62-31 62z m-183-140c-5 0-10 5-10 10 0 6 5 11 10 11 6 0 11-5 11-11 0-5-5-10-11-10z m169 0c-6 0-11 5-11 10 0 6 5 11 11 11 5 0 10-5 10-11 0-5-5-10-10-10z m14 95l-148 0c0 0 22 36 50 36l98 0z"/>
<glyph glyph-name="cg-bikebreakdown" unicode="&#99;" d="M414 200c-22 0-40-18-40-40 0-22 18-40 40-40 22 0 40 18 40 40 0 22-18 40-40 40z m0-54c-7 0-13 6-13 14 0 7 6 13 13 13 7 0 13-6 13-13 0-8-6-14-13-14z m-277 273l-21 25-8-8 25-21z m-46-219c-22 0-40-18-40-40 0-22 18-40 40-40 22 0 40 18 40 40 0 22-18 40-40 40z m0-54c-7 0-13 6-13 14 0 7 6 13 13 13 8 0 14-6 14-13 0-8-6-14-14-14z m70 280l3 33-12 0 3-33z m47 10l-8 8-21-25 4-4z m-37-196l0 150c8 0 14 6 14 14 0 7-6 13-14 13l-26 0c-8 0-14-6-14-13 0-8 6-14 14-14-76-12-134-78-134-157l0-60c0-7 6-13 14-13l16 0c0 27 23 50 50 50 28 0 50-23 50-50l223 0c0 27 22 50 50 50 28 0 50-23 50-50l17 0c7 0 13 6 13 13l0 53c0 8-6 14-13 14z m-26 43l-111 0c17 48 59 84 111 94z m150 116c-1 0-2-2-10-9l-2-2-2 1c-4 1-10 1-17-1-3-1-3-2-5-5-2-4-4-10-4-13 1-3 3-8 4-9 1-1-1-6-12-23-1-2-2-2-2-1-2 1-10 3-13 3-8 1-19 0-26-3-3-1-3-1-2-2 1-1 1-1-3-3-5-3-9-6-13-10-9-9-13-20-14-32 0-12 2-21 8-30 7-10 16-16 28-20 4-1 6-1 13-1 10 0 15 1 22 5 6 3 13 8 16 12 4 5 7 10 9 16 2 6 2 8 2 16l0 7 2-1c1-1 2-1 2-1 1 0 0 9-1 11-1 0-1 1-1 1-1 4-5 13-11 19l-4 6 9 15c5 8 9 15 9 15 0 0 0-2 1-4 0-3 0-5 1-9 1-4 2-11 2-12 0-1 0-3 0-4 1-1 1-3 1-4 0-2 1-5 2-9 1-5 2-11 2-15 1-3 1-6 2-13 1-3 2-7 2-8 1-4 5-14 6-17 4-5 9-8 18-9 3 0 7 0 8 0 2-1 5-1 9-1 3 0 7-1 8-1 5 0 22 0 24 0 2 1 3 1 4 1 2 0 7 3 9 4 4 3 7 8 7 12 1 4 0 4 9 4l7 0 0-2c1-3 5-11 8-15 7-10 18-16 30-19 5-1 17-1 22 1 19 5 33 21 36 39 1 4 1 14 0 18l0 3 3 0c2 0 3 0 3 0 0 2-2 9-3 11-8 17-23 27-46 31-2 0-4 0-4 0-1 0-2 1-3 2-4 6-9 6-13 3-2-2-6-4-8-5 0 0-2 0-3 0-8-2-23-2-29-1-6 2-11 5-13 8 0 2-29 18-45 24-15 6-22 8-30 5-3-1-7-4-8-6 0-1 0-1-2 0-1 1-2 2-2 6-1 3-1 5 0 6 0 2 8 8 9 8 1 0 4-1 7-2 3-1 7-2 10-3l5-2 2 2c1 1 2 3 2 3-1 0-19 5-22 6-1 0-3 1-5 1-3 1-5 2-5 2z"/>
<glyph glyph-name="cg-hasslefree" unicode="&#100;" d="M496 351c0 0-170-146-199-176-30-29-62-26-93 0-16 14-191 181-191 181l-9-7c0 0 169-163 195-186 40-35 76-24 104 4l202 178z m-129 1c20 0 37 16 37 37 0 21-17 37-37 37-21 0-38-16-38-37 0-21 17-37 38-37z m-295-19l161-140c4-3 8-4 12-5 2 0 2 0 3 0 4 0 11 1 15 5l191 155c9 7 10 20 2 30-8 9-21 9-30 2l-54-44c-1 0-4 1-7 3-8 5-28 4-37-3l-32-29-8 27 8 5-3 5 7 5-43 71-16-24 24-37c-14-5-16-15-13-29l13-45-24-22c-19 63-18 63-17 59-2 9-14 23-27 23-10 0-58 0-74 0l-23 21c-9 7-23 6-30-2-8-9-7-23 2-31z m185 70l-10-6 10 16 38-64-4-3z m-63-86l14-46-53 46z"/>
<glyph glyph-name="cg-repair" unicode="&#101;" d="M404 215c-17 17-49 18-53 18-4 0-10 2-13 5l-67 67 80 79c2-1 4-1 6-1 4 0 8 2 11 5l33 32-23 22-32-32c-3-3-5-7-5-11 0-3 1-5 2-7l-80-79-62 63c-3 2-6 9-6 13 0 1 0 35-17 52-17 17-49 18-53 18-7 0-9-4-10-6-1-2-2-6 3-11l23-23c2-2 2-5 0-6l-14-15c-2-1-5-1-6 0l-23 23c-3 3-6 4-8 4-5 0-9-3-9-11 0-1 0-35 17-52 17-17 49-18 53-18 4 0 10-2 13-5l63-63-20-20-10 11c-3 3-7 4-12 4-4 0-8-1-11-4l-93-93c-3-3-4-7-4-11 0-5 1-9 4-11l29-29c3-3 7-5 11-5 4 0 8 2 11 5l93 93c6 6 6 16 0 22l-10 10 20 20 67-67c3-2 5-9 5-13 0-1 0-35 17-52 17-17 49-18 53-18 7 0 9 4 10 6 1 2 2 6-3 11l-23 23c-2 2-2 5 0 6l14 15c2 1 5 1 7 0l22-23c3-3 6-4 9-4 4 0 8 3 8 11 0 1 0 35-17 52z m-27-91z"/>
<glyph glyph-name="cg-bikeservicing" unicode="&#102;" d="M341 179c0-5-4-9-8-9-5 0-9 4-9 9 0 0 0 0 0 1l-20 20c-1 1-1 2 0 3l5 5c1 1 2 1 3 0l20-21c1 0 1 0 1 0 4 0 8-3 8-8z m55 46l9 9c4 3 4 9 0 13l-4 4c-3 3-9 3-13 0l-9-9c-10 8-23 13-36 15l0 7 8 0c5 0 10 4 10 9l0 6c0 5-4 9-10 9l-37 0c-5 0-9-4-9-9l0-6c0-5 4-9 9-9l9 0 0-7c-14-2-26-7-37-15l-8 8c-4 4-10 4-13 0l-4-3c-4-4-4-10 0-14l8-8c-9-13-14-29-14-46 0-43 35-78 78-78 43 0 78 35 78 78 0 17-5 33-15 46z m-63-97c-28 0-52 23-52 52 0 28 23 51 52 51 28 0 51-23 51-51 0-29-23-52-51-52z m-182 270c-36 2-52 4-52 4-4 0-7-3-7-8l0-4c0-5 3-8 8-8 0 0 9-3 45-4 1 7 3 14 6 20z m160-3c0 4-4 8-8 8 0 0-16-3-52-5 3-6 6-13 6-20 36 1 46 4 46 4 4 0 8 4 8 8z m-110 22c-25 0-46-20-46-45 1-26 21-46 46-46 25 0 46 21 46 46 0 25-21 45-46 45z m0-73c-15 0-28 12-28 28 0 15 13 28 28 28 15 0 28-13 28-28 0-16-12-28-28-28z m94 134c15 0 28-13 28-28 0-16-13-28-28-28-16 0-28 12-28 28 0 15 12 28 28 28z m-188 0c16 0 28-13 28-28 0-16-12-28-28-28-15 0-27 12-27 28 0 15 12 28 27 28z m122-336c0-12-10-22-21-22l-13 0c-12 0-22 10-22 22l0 120c0 12 10 21 22 21l13 0c11 0 21-9 21-21z m0 152l0 1c0 12-10 22-21 22l-13 0c-12 0-22-10-22-22l0-1z m8 35c0 4 3 8 7 8l5 0c4 0 7-4 7-8l0-75c0 0-7-7-6-13 0-6 6-13 6-13l0-24c0-4-3-7-7-7l-5 0c-4 0-7 3-7 7z m50-73c1 1 1 3 1 4l0 44c0 12-10 22-22 22l-2 0 0-65c0 0 7 1 12-1 5-3 10-8 11-4z m-141 73c0 4 3 8 7 8l5 0c4 0 7-4 7-8l0-125c0-4-3-7-7-7l-5 0c-4 0-7 3-7 7z m-8 7l-2 0c-12 0-21-9-21-21l0-45c0-11 9-21 21-21l2 0z"/>
<glyph glyph-name="cg-carclean" unicode="&#103;" d="M33 382l22 0-1-3c-21-65-30-95 13-180 6-14 9-27 9-38-1-6-2-11-5-15-2-5-6-7-9-10-7-2-13-5-21-4l0-9c10-2 18 0 24 3 8 4 11 9 15 14 4 6 6 13 6 21 0 12-2 27-11 43-40 82-32 110-11 172l1 6 15 0c9 0 15 7 15 15 0 8-5 14-13 16l4 7 25 0 0-3 13 0 0 27-13 0 0-4-38 0c-4 0-6-2-8-5l-7-22-25 0z m374 37c4 0 8-2 8-7 0-4-4-6-8-6-5 0-7 2-7 6 0 5 2 7 7 7z m-24 21c3 0 7-4 7-7 0-5-4-8-7-8-4 0-8 3-8 8 0 3 4 7 8 7z m-28-40c4 0 7-4 6-8 0-5-4-7-9-6-4 0-6 4-5 9 0 3 4 6 8 5z m-2 54c4 0 8-3 8-8 0-3-4-7-8-7-3 0-7 4-7 7 0 5 4 8 7 8z m-25-40c3-1 6-5 5-8 0-4-4-6-8-6-5 1-7 5-6 8 0 4 4 6 9 6z m-4 49c4 0 7-3 7-7 0-4-3-7-7-7-4 0-7 3-7 7 0 4 3 7 7 7z m-26-39c4 0 6-4 6-7-1-5-5-8-8-6-4 0-6 3-6 8 1 4 5 6 8 5z m-5 44c4 0 8-2 8-7 0-4-4-6-8-6-3 0-7 2-7 6 0 5 4 7 7 7z m-30-74c3-2 6-5 5-9 0-1-2-1-2-3l98 0c18 0 37-12 43-24 9-16 17-32 27-48l31 0c6 0 12-6 12-12l0-10c0-10-8-17-18-17l-3 0 3-6c12-21 19-86-1-118l0-34c0-8-5-12-13-12l-18 0c-6 0-12 4-12 12l0 16-255 0 0-16c0-8-6-12-13-12l-18 0c-7 0-12 4-12 12l0 32c-24 30-16 98-3 120l3 6-3 0c-9 0-18 7-18 17l0 10c0 6 6 12 12 12l31 0c10 16 18 32 27 48 6 12 24 24 43 24l46 0c-2 3-2 5-1 8 1 4 5 5 9 4z m6 39c3-1 6-5 6-9-1-4-5-7-9-6-3 1-6 5-6 9 1 3 5 6 9 6z m-6 38c5 0 7-3 7-8 0-3-2-6-7-6-4 0-6 3-6 6 0 5 2 8 6 8z m-29-68c4-1 5-5 4-8-1-4-5-6-8-5-4 1-7 6-5 10 1 3 6 5 9 3z m4 35c5-2 7-5 6-9 0-4-3-7-8-6-4 1-6 5-5 9 0 3 3 6 7 6z m-5 33c4 0 6-4 6-8 0-3-2-7-6-7-5 0-7 4-7 7 0 4 2 8 7 8z m-29-60c3-2 6-5 5-9-2-4-5-6-10-5-4 1-5 6-4 10 1 4 5 5 9 4z m5 28c3 0 6-4 5-7 0-5-4-8-8-7-5 0-7 4-6 8 0 5 4 7 9 6z m-6 29c3 0 7-3 7-7 0-4-4-7-7-7-5 0-8 3-8 7 0 4 3 7 8 7z m-29-50c4-1 7-5 5-9-1-3-5-6-10-4-3 1-4 6-3 9 1 4 5 5 8 4z m3 22c4 0 6-4 6-7-1-5-5-8-9-6-3 0-6 3-6 8 1 4 5 6 9 5z m-5 22c5 0 7-4 7-7 0-4-2-8-7-8-4 0-6 4-6 8 0 3 2 7 6 7z m-28-35c3 0 6-4 6-8-1-5-5-7-9-6-3 0-6 4-6 9 1 3 5 6 9 5z m-1 25c3 0 7-3 7-7 0-4-4-7-7-7-4 0-8 3-8 7 0 4 4 7 8 7z m114-132c2 0 4 0 7 0 1 7 5 13 10 20 6 6 14 9 23 9 6 0 12-2 17-5 4-2 7-6 10-8 2 1 6 2 9 4 4 1 11 2 15 2 11 0 21-4 29-10 6-5 12-12 14-19 2 0 2 0 2 0 4 0 8-2 12-3l-16 38c-4 8-20 14-25 14l-155 0c-6 0-21-6-26-14l-31-78 73 0c-3 5-4 10-4 14 0 10 5 19 11 26 6 6 15 10 25 10z m4-10c-1 0-2 0-4 0-7 0-14-2-18-7-5-5-7-11-7-19 0-7 2-13 7-18 4-4 11-7 18-7l136 0c6 0 12 2 16 6 3 5 6 10 6 16 0 6-3 11-6 14-4 4-10 7-16 7l-2 0c-1 0-1 0-2 0l-5-2-1 5c-1 8-6 15-12 20-7 5-14 7-23 7-3 0-8-1-12-2-3-1-7-4-10-6l-6-4-2 6c-1 4-5 7-9 9-3 2-7 3-12 3-6 0-12-2-16-6-5-5-7-10-7-17l0-1 1-9-9 3c-1 1-2 1-5 2z m149-83c-14 0-27-11-31-25-4-13 4-24 17-24 14 0 28 11 32 24 4 14-5 25-18 25z m-265-25c4-13 18-24 32-24 13 0 21 11 17 24-4 14-17 25-31 25-13 0-22-11-18-25z m89-39c12 0 100-1 114 2 13 4 11 14-3 17-13 3-100 4-113 0-13-4-12-18 2-19z"/>
<glyph glyph-name="cg-carsericing" unicode="&#104;" d="M280 164c-2 10-4 20-4 31 0 17 4 34 12 49-11 11-11 28 0 40l4 4c11 11 29 11 39 0 1 1 3 1 4 2-2 3-3 8-3 11l0 6c0 16 13 28 28 28l42 0c3 0 6 0 8 0-3 3-6 6-9 9 0 1-1 1-2 2 0 0 0 1 1 1 3 0 6 0 9 0 8 0 16 0 24 0 8 0 13 5 13 13 0 5 0 11 0 16 0 8-5 13-12 13-3 0-6 0-9 0-15 0-26-18-26-18-1-2-2-4-4-7-2 7-3 12-5 17-6 24-17 46-31 65-9 14-23 19-39 22-28 4-56 5-84 5-29 0-57-1-85-5-15-3-29-8-39-22-14-20-25-41-31-65-2-5-3-10-5-17-2 3-3 5-4 7 0 0-11 18-26 18-3 0-6 0-9 0-7-1-12-6-12-13 0-5 0-11 0-16 0-8 5-13 13-13 8 0 16 0 24 0 3 0 7 0 9 0 1 0 1-1 1-1-1-1-2-1-2-2-20-19-31-43-31-71 1-17 2-33 4-50 1-12 4-25 10-37 3-5 6-9 11-9 3-1 3-3 3-5 0-7 0-13 0-20 0-10 6-16 16-16 8 0 16 0 24 0 11 0 16 6 16 16 0 5 0 11 0 17 38-3 76-5 113-5 15-1 29 0 44 0z m-180 195c6 26 15 49 29 71 0 2 1 3 2 3 1 1 2 2 3 2 9 4 34 11 101 12 67-1 93-8 101-12 1 0 2-1 3-2 1-1 2-2 3-3 13-22 22-45 28-71 1-2 1-3 1-4-45 3-91 6-136 6-46 0-91-2-137-6 1 1 2 2 2 4z m7-107c-16 0-30 14-30 30 0 17 14 30 30 30 16 0 30-13 30-30-1-16-14-30-30-30z m284-58c0-5-4-9-9-9-5 0-10 4-10 9 0 1 0 1 0 1l-23 24c-1 1-1 1 0 2l6 6c1 1 2 1 3 0l23-23c1 0 1 0 1 0 5 0 9-4 9-10z m62 53l10 9c4 5 4 11 0 15l-4 5c-4 4-11 4-15 0l-10-10c-11 9-26 15-41 17l0 8 9 0c6 0 11 4 11 10l0 6c0 6-5 11-11 11l-42 0c-5 0-10-4-10-11l0-6c0-5 4-10 10-10l10 0 0-8c-15-2-29-8-41-17l-10 9c-4 4-11 4-15 0l-4-4c-4-4-4-11 0-15l10-10c-10-14-17-32-17-52 0-48 40-88 88-88 49 0 89 40 89 88 0 20-6 38-17 53z m-71-110c-32 0-58 26-58 58 0 32 26 58 58 58 32 0 58-26 58-58 0-32-26-58-58-58z"/>
<glyph glyph-name="cg-certificate" unicode="&#105;" d="M107 547c-4 0-8-2-10-4-3-3-4-6-4-10l0-407c0-4 1-7 4-10 2-3 6-4 10-4l120 0c1 3 3 6 4 8 3 4-1 8-2 12-1 2-2 5-3 8l-106 0 0 379 181 0 0-77c0-3 1-7 4-10 2-2 6-4 9-4l81 0 0-288-30 0c-2-5-2-11-6-16 2-4 4-8 6-12l44 0c4 0 7 1 10 4 2 3 4 6 4 10l0 316c0 4-2 8-4 10l-95 91c-2 2-6 4-9 4-70 0-139 0-208 0z m221-47l46-44-46 0z m-160-109c-7 0-12-6-12-12 0-7 5-13 12-13l180 0c7 0 12 6 12 13 0 6-5 12-12 12z m0-58c-7 0-12-6-12-13 0-7 5-12 12-12l180 0c7 0 12 5 12 12 0 7-5 13-12 13z m128-54c-4 0-7-1-10-3l-9-6c-3-3-6-4-10-4l-10 0c-8 0-14-4-17-11l-3-11c-1-3-3-6-6-8l-9-6c-6-5-8-12-6-19l3-11c1-3 1-7 0-10l-3-10c-2-7 0-15 6-19l9-6c3-3 5-6 6-9l3-10c3-7 9-12 17-12l10 0c4 0 7-1 10-3l9-6c6-5 14-5 20 0l8 6c3 2 7 3 11 3l10 0c7 0 14 5 16 12l3 10c2 3 4 6 7 9l8 6c6 4 9 12 7 19l-4 10c-1 3-1 7 0 10l4 11c2 7-1 14-7 19l-8 6c-3 2-5 5-7 8l-3 11c-2 7-9 11-16 11l-10 0c-4 0-8 1-11 4l-8 6c-3 2-7 3-10 3z m-128-5c-7 0-12-5-12-12 0-7 5-13 12-13l56 0c0 1 0 1 0 2 1 9 6 17 14 23z m128-19c15 0 30-6 42-18 24-23 24-61 1-84l-1 0c-23-24-61-24-85 0-23 23-23 61 0 84 12 12 27 18 43 18z m37-34c-1 0-1 0-1 0-1 0-2-1-3-1-2-1-4-2-6-3-7-3-13-9-19-14-5-5-9-10-13-16l-5-6 0 1c-6 6-9 11-16 15-7 3-12 4-19 4 0 0-1-1-1-1 0-1 0-1 1-2 17-11 20-18 26-27 3-5 4-7 6-9 1-1 1-2 2-2 1-1 2-1 2-1 2 0 3 1 5 2 1 1 2 3 3 5 9 17 20 35 38 53 1 0 1 1 1 1 0 1-1 1-1 1z m-89-100l-34-81c-1-1 0-2 0-2 1-1 2-1 3-1l38 15 22-15c1-1 2-1 3-1 1 1 1 2 1 3l8 68c-2 1-5 3-7 4 0 1 0 1 0 1-4 3-9 6-14 5-6 0-14 0-20 4z m104 0c-7-5-17-3-25-4-6-2-11-7-17-10l8-68c0-1 1-2 2-3 0 0 1 0 2 1l22 15 38-15c1 0 3 0 3 1 1 0 1 1 1 2z"/>
<glyph glyph-name="cg-carcare" unicode="&#106;" d="M434 319c0 6-5 10-11 10-2 0-5 0-7 0-13 0-22-15-22-15-1-1-2-3-3-6-2 6-3 10-4 15-6 19-15 37-26 54-8 12-20 16-33 18-23 4-47 4-71 4-23 0-47 0-70-4-13-2-25-6-33-18-12-17-21-35-26-54-1-5-2-9-4-15-2 3-3 5-3 6 0 0-9 15-22 15-3 0-5 0-7 0-7 0-11-4-11-10 0-5 0-9 0-13 0-7 4-11 11-11 7 0 13 0 20 0 3 0 6 0 8 0 1-1 1-1 1-1-1-1-2-1-3-2-16-16-25-35-25-59 0-14 1-28 3-41 1-11 3-22 9-31 2-5 4-8 9-9 2 0 3-1 3-3 0-6 0-12 0-18 0-8 5-13 12-13 7 0 14 0 21 0 8 0 13 5 13 14 0 4 0 9 0 14 32-3 63-4 94-4 32 0 63 1 95 4 0-5 0-10 0-14 0-9 4-14 13-14 7 0 14 0 20 0 8 0 13 5 13 13 0 6 0 12 0 18 0 1 0 3 3 3 4 1 7 5 9 9 5 10 8 20 9 31 2 13 2 27 3 41 0 24-9 43-26 59-1 1-1 1-2 2 0 0 0 0 1 1 2 0 5 0 7 0 7 0 13 0 20 0 7 0 11 4 12 11 0 4 0 8 0 13z m-290-14c5 21 13 41 24 59 0 1 1 2 2 3 1 0 2 1 3 1 7 3 28 9 84 10 56-1 77-7 84-10 1 0 2-1 3-1 1-1 1-1 2-3 11-18 19-38 24-59 0-1 0-3 0-4-38 3-76 5-113 5-38 0-76-2-114-5 0 1 1 3 1 4z m6-89c-14 0-25 11-25 25 0 13 11 24 25 24 13 0 24-11 24-24 0-14-10-25-24-25z m215 0c-14 0-25 11-25 25 0 13 11 24 25 24 13 0 24-11 24-24 0-14-11-25-24-25z m56 170l5-14 14-6-14-5-5-14-6 14-13 5 13 6z m-365-89l6-13 14-6-14-5-6-14-5 14-14 5 14 6z m51 112l8-23 23-8-23-9-8-22-9 22-22 9 22 8z m275 50l10-25 25-9-25-10-10-25-9 25-25 10 25 9z"/>
<glyph glyph-name="cg-carrepair" unicode="&#107;" d="M449 296c-2 5-11 23-40 41-21 15-41 18-50 18-15 1-26-3-30-16-3-13 12-21 23-27l-38-16-73 0 0-15-22 0 0 15-94 0 16 37-5 17-24-54-38-23 0-98 18 0 0-33c0-13 11-25 25-25 13 0 25 12 25 25l-1 33 167 0 0-33c0-13 11-25 25-25 14 0 25 12 25 25l0 33 17 0 0 98-13 8 26 11c10-7 20-20 25-27 0 0 2-5 4-11 2-6 2-13 3-16l0-101c0-11 8-19 19-19 11 0 19 8 19 19l0 120c0 8-1 25-9 39z m-333-78c-12 0-21 9-21 21 0 11 9 21 21 21 11 0 21-10 21-21 0-12-10-21-21-21z m51-8l0 38c0 5 4 9 10 9l99 0c5 0 10-4 10-9l0-38z m167 8c-12 0-21 9-21 21 0 11 9 21 21 21 11 0 21-10 21-21 0-12-10-21-21-21z m-17 221l-76 0 0 19-22 0 0-19-78 0c-16 0-28-11-22-32l17-58 28 65 12 0-35-81 7-24c0 0 37 10 78 10 42 0 84-10 84-10l9 26c-6-5-13-7-21-6-12 3-21 15-18 28 2 13 15 21 27 19 10-2 17-9 19-18l15 49c3 17-5 32-24 32z"/>
<glyph glyph-name="cg-windshield" unicode="&#108;" d="M243 251l16 0 0-24-16 0z m0 49l16 0 0-24-16 0z m0 49l16 0 0-25-16 0z m201-14c-3 2-77 48-185 50l0-24c79-2 139-29 162-41l-73-126c-18 8-54 21-97 21-16 0-30-2-44-5l-100 111c-1 2-3 3-6 3-4 0-8-3-8-8 0-2 1-4 2-5l84-108c-10-3-18-6-24-9l-74 126c24 12 84 39 162 41l0 24c-107-2-182-48-185-50l-10-7 97-166 11 6c0 0 16 8 40 15l43-55c3-4 7-7 12-7 9 0 17 8 17 17 0 3-2 7-4 10l-37 41c8 1 16 1 24 1 53 0 95-22 96-22l10-6 97 166z m-322 82l-11 12c-7-7-12-14-16-23l14-7c3 7 8 13 13 18z m128-11c-4 9-10 16-16 23l-12-12c6-5 10-11 13-18z m-89 31l-2 16c-9-1-18-4-26-8l7-15c7 3 14 6 21 7z m51 8c-8 4-17 7-26 8l-3-16c8-1 15-4 21-7z m196-39c-4 9-9 16-16 23l-11-12c5-5 9-11 13-18z m-128 11l-11 12c-7-7-12-14-16-23l14-7c4 7 8 13 13 18z m90 28c-8 4-17 7-26 8l-3-16c8-1 15-4 22-7z m-51-8l-2 16c-9-1-18-4-26-8l7-15c7 3 14 6 21 7z"/>
<glyph glyph-name="cg-discount" unicode="&#109;" d="M52 323l-46-170c-4-14 5-29 19-33l88-23z m50-51l51-188c4-14 18-23 32-19l98 26z m151 44c-1 3-3 5-5 7l-8 8c-2 2-5 4-8 5-2 2-5 2-8 3-3 0-6 0-9-1-3-2-6-3-8-6-3-3-5-6-6-9 0-2-1-5 0-8 0-3 1-6 3-9 1-2 3-5 5-7l8-8c2-2 5-4 8-5 2-1 5-2 8-3 3 0 6 1 9 2 3 1 6 3 8 5 3 3 5 6 6 9 0 3 1 6 0 8 0 3-1 6-3 9z m245-13l-216 216-152 0c-20 0-36-16-36-36l0-153 216-215c10-10 27-10 37 0l151 151c10 10 10 27 0 37z m-324 136c-11-10-28-10-38 0-10 11-10 28 0 38 10 10 27 10 38 0 10-10 10-27 0-38z m98-146c-2-5-5-10-10-14-4-5-9-8-14-10-5-3-10-4-16-4-5 0-10 1-15 4-5 2-9 5-13 9l-8 7c-4 4-7 8-10 13-2 5-3 10-3 15-1 5 0 11 2 16 2 5 5 10 10 15 4 4 9 8 14 10 5 2 10 3 16 3 5 0 10-1 15-4 5-2 9-5 13-9l8-7c4-4 7-8 10-13 2-5 3-10 3-15 1-5 0-10-2-16z m46-80l-45 180 17 4 45-180z m103 72c-1-5-5-10-9-14-5-5-9-8-14-11-6-2-11-3-16-3-5 0-10 1-15 3-5 3-10 6-14 10l-7 7c-4 4-8 8-10 13-2 5-4 10-4 15 0 5 1 11 3 16 2 5 5 10 9 14 5 5 10 9 15 11 5 2 10 3 15 3 5 0 10-1 15-3 5-3 10-6 14-10l8-7c4-4 7-8 9-13 3-5 4-10 4-15 0-5-1-11-3-16z m-18 23c-1 2-3 5-6 7l-7 8c-3 2-5 4-8 5-3 1-6 2-9 3-3 0-5-1-8-2-3-1-6-3-9-5-2-3-4-6-5-9-1-3-1-5-1-8 1-3 2-6 3-9 2-3 4-5 6-7l8-8c2-2 4-4 7-5 3-2 6-2 9-3 3 0 6 0 9 1 3 2 5 3 8 6 3 3 4 6 5 9 1 2 1 5 1 8 0 3-1 6-3 9z"/>
<glyph glyph-name="cg-repor" unicode="&#110;" d="M7 391l132-119c2-2 5-5 7-7l8-7c2-2 6-5 8-7l64-58c2-1 3-3 3-3 0 0 1 0 1 0 0 0 2 2 4 3l64 58c2 2 5 5 7 7l8 7c2 2 6 5 8 7l27 25c-23 21-37 51-37 84 0 5 0 9 1 14l-77 0c-3 0-5 0-5 0 0 0-3 0-6 0l-216 0c-3 0-4-2-1-4z m-1-241l114 106c2 2 2 5 0 7l-114 105c-2 2-4 1-4-2l0-214c0-3 2-4 4-2z m423 0l-102 92c-2 2-6 2-8 0l-85-76c-3-2-6-2-8 0l-85 76c-3 2-6 2-8 0l-103-92c-2-2-1-3 1-3l193 0c3 0 6 0 6 0 0 0 2 0 5 0l193 0c3 0 3 1 1 3z m28 120c-10-2-20-4-31-4-23 0-45 7-63 19l-23-22c-2-2-2-5 0-7l113-106c3-2 4-1 4 2z m-37 200c-49 0-90-37-95-84-1-4-1-8-1-11 0-28 12-53 31-70 4-4 8-7 12-10 15-10 33-16 53-16 8 0 17 2 25 4 40 11 70 48 70 92 0 52-43 95-95 95z m0-162c-10 0-17 7-17 16 0 2 0 3 1 4 1 7 6 11 13 12 1 1 2 1 3 1 9 0 16-8 16-17 0-9-7-16-16-16z m13 78l-1-12-1-20 0-5-23 0 0 4-2 33-4 55 35 0z"/>
<glyph glyph-name="cg-pricing" unicode="&#111;" d="M397 319c-64 0-116-52-116-115 0-64 52-116 116-116 63 0 115 52 115 116 0 63-52 115-115 115z m-59-114l15 0 64-91-15 0z m31 70l0-13c16 0 28-13 28-29 0-15-12-28-28-28l0-13c23 0 41 19 41 41 0 23-18 42-41 42z m81 0l-5-13-110 0 5 13z m-101-70l20 0 0-13-20 0z m101 35l-5-13-110 0 5 13z m-422 147l24 0 0-23-24 0z m0-52l24 0 0-24-24 0z m0-41l24 0 0-23-24 0z m248 160l100 0 0-8-100 0z m0-17l84 0 0-8-84 0z m-11-235l-252 0 0 41 259 0c1 3 3 6 4 9l-263 0 0 93 379 0 0-14c2 0 3 0 5 0 1 0 2 0 4 0l0 156-396 0 0-294 260 0c0 2 0 4 0 6 0 1 0 2 0 3z m-252 276l379 0 0-75-379 0z m0-84l379 0 0-41-379 0z m57-59l143 0 0-24-143 0z m0 52l158 0 0-23-158 0z m0-93l143 0 0-23-143 0z m-29 169l108 0 0-43-108 0z m-13-238l142 0 0-9-142 0z"/>
<glyph glyph-name="cg-mechanic" unicode="&#112;" d="M230 204c-1 1-3 0-4-1-1 0-2-2-2-3l0-21c0-2-2-4-4-4l-2 0c-3 0-5 2-5 4l0 21c0 1 0 3-1 3-2 1-3 2-4 1-15-5-24-18-24-34 0-13 8-25 19-31l0-12-14 0 0-42 1-2c0 0 9-12 29-12 20 0 29 12 30 12l1 2 0 42-14 0 0 12c12 6 19 18 19 31-1 16-11 29-25 34z m9-87l0-28c-2-3-9-7-20-7-11 0-18 5-20 7l0 28z m-10 29c-2-1-3-2-3-4l0-15-15 0 0 15c0 2-1 3-3 4-10 4-16 14-16 24 0 9 4 17 11 23l0-14c0-7 6-13 13-13l3 0c7 0 13 6 13 13l0 14c7-5 12-13 12-23 1-10-5-20-15-24z m132 117c30 26 50 65 50 108 0 7-1 14-2 21 1 2 1 3 1 5 1 1 1 3 1 4 0 0 0 1 0 2 0 0 0 1 0 1l-18 78c-2 25-56 63-123 63-77 0-128-37-129-63l-18-78c0 0 0-1 0-1 0-4 1-8 1-11-1-7-2-14-2-21 0-45 21-85 53-111-9-8-17-17-23-27-18-30-27-70-27-129 0-9 9-11 21-15 2 0 7-1 9-3 5-54 53-54 95-54l18 0c58 0 109 0 114 54 3 1 6 2 9 3 12 3 21 6 21 15 0 65-8 125-51 159z m19 119c0-1-1-1-2-1 0 0-1 0-2 0-1 0-1 0-2-1-1 0-2 0-4 0l-16 0c-16 4-34 7-53 9-11 1-23 2-35 2-15 0-29-1-42-3-16-1-31-4-45-8l-16 0c-2 0-3 0-5 1 0 0-1 0-1 0 0 0-1 1-2 1-1 0-1 0-2 0 0 0-1 1-1 1-1 1-2 1-2 1-3 3-6 6-7 9 7 2 21 5 41 7 3 0 8 1 13 1 10 2 25 3 44 3 8 0 17 1 26 1 33 0 53-2 66-4 5 0 9-1 12-1 1 0 3 0 4 1 20-3 33-5 41-7-2-5-6-9-10-11 1-1 1-1 0-1z m-192 86l153 1 0-50c-19 2-43 3-71 3-1 0-1 0-2 0 0 0-1 0-1 0-9 0-17 0-25 0-21-1-38-2-53-4z m-30 11c0 0 0 1 0 2 0 9 36 46 111 46 66 0 106-36 106-46 0-1 0-2 0-2l15-68c-8 2-18 4-32 6l0 51c0 10-8 17-17 17l-153 0c-9 0-17-7-17-17l0-52c-13-2-22-4-28-5z m-18-110c2-1 3-1 5-2 4-2 8-3 11-4 1 0 1 0 1 0 2 0 4-1 6-1l18 0 1 1c20 6 45 9 71 10 4 0 9 0 13 0 4 0 8 0 11 0 27-1 52-4 73-10l1-1 19 0c2 0 4 0 5 1 1 0 1 0 2 0 3 1 7 2 10 4 2 0 4 1 5 2-1-68-57-124-127-124-68 0-124 55-125 124z m110-319c-53 0-76 4-77 42 0 1 0 1-1 3 0 0-1 16 0 37 1 20 2 52 2 52l-14-79c-2 1-5 1-9 3-2 0-6 1-8 2 0 70 15 116 47 140 20-13 44-21 69-22l0-176z m136 56c-3 0-6-1-8-2l-14 79c0 0 1-32 2-52 1-20 0-37 0-37 0-1-1-1-1-2-2-39-31-42-91-42l0 177c27 1 52 10 73 24 37-26 47-75 47-142-2-1-6-2-8-3z m-151 185c7 0 13 6 13 13l0 15c0 7-6 13-13 13-7 0-13-6-13-13l0-15c0-7 6-13 13-13z m64 0c7 0 13 6 13 13l0 15c0 7-6 13-13 13-8 0-13-6-13-13l0-15c0-7 5-13 13-13z m-58-17c-1-3 0-6 3-7 0 0 9-5 22-5 14 0 23 4 23 5 3 1 4 4 2 7-1 3-5 4-7 3 0 0-7-4-18-4-10 0-16 3-17 4-3 1-7 0-8-3z"/>
<glyph glyph-name="cg-quality" unicode="&#113;" d="M171 433l-81-55-26 0c-14 0-27 0-29 0-10-1-17-8-19-17-1-4-1-276 0-281 1-4 3-8 6-11 3-3 7-5 11-6 2 0 56-1 224 0l220 0 3 1c6 2 11 7 13 12 0 2 1 3 1 3 1 2 1 282 0 282 0 0 0 0 0 1 0 2-3 7-6 10-3 3-8 5-13 6-2 0-15 0-29 0l-26 0-81 55c-81 54-82 54-84 54-3 0-3 0-84-54z m76 24c0-9 1-11 5-13 3-1 7 0 9 2 2 2 2 4 2 11 0 3 0 6 0 6 0 0 29-19 64-42 35-23 64-43 64-43-21 0-271 0-271 1 0 0 126 84 126 84 1 0 1-3 1-6z m228-96c4-1 3 11 3-141 0-149 0-138-3-140-1-1-17-1-220-1-198 0-220 0-221 1-2 2-2-8-2 140 0 152-1 140 3 141 2 1 437 1 440 0z m-386-53c-3-7-5-14-5-14-1-1-4-1-15-1-8 0-14 0-14 0 0 0 5-4 11-8 8-6 12-9 12-10 0 0-2-6-4-13-4-12-5-14-4-14 0 0 5 4 11 9 7 4 12 8 12 8 1 0 6-4 12-8 6-5 12-9 12-9 0 1-2 6-4 14-3 7-4 13-4 13 0 1 5 5 11 10 6 4 12 8 11 8 0 0-6 0-14 0-11 0-14 0-14 1-1 1-7 20-9 26 0 1-1 1-1 1 0 0-2-6-4-13z m82 12c0-1-2-7-4-14-2-6-4-12-5-12 0 0-7-1-14-1-8 0-14 0-14 0 0 0 5-4 11-9 7-4 12-8 12-8 0-1-8-25-9-27 0 0 0-1 0-1 1 0 6 4 12 9 6 4 12 8 12 8 0 0 5-3 10-7 13-10 13-10 13-10 1 1-1 7-4 14-3 11-4 14-3 14 0 1 5 4 11 9 6 4 11 8 11 8 0 0-5 1-14 0-8 0-14 1-15 1 0 0-8 25-8 26 0 2-1 1-2 0z m78-12c-2-7-5-14-5-14 0-1-4-1-14-1-8 0-15 0-15 0 0 0 3-2 6-4 13-9 18-13 17-13 0-1-2-7-7-25-1-1-1-2-1-2 0-1 5 3 12 7 6 5 11 9 11 9 1 0 6-4 12-8 7-5 12-9 12-9 0 1-2 6-4 14-2 7-4 13-4 13 0 1 5 5 11 10 7 4 12 8 12 8 0 0-7 0-15 0-10 0-14 0-14 1-1 1-3 9-8 24-1 1-1 3-1 3-1 0-3-6-5-13z m86 12c-1-1-6-16-7-21-2-4-2-5-3-5-1-1-7-1-15-1-7 1-13 0-13 0 0 0 3-3 15-11 4-3 8-6 8-6 0 0-3-8-7-21-1-4-2-6-1-7 0 0 2 2 15 11 4 3 8 6 8 6 0 0 4-3 9-6 12-9 14-11 15-11 0 1-6 18-8 26-1 2-1 2 0 2 0 1 3 3 6 5 3 2 8 6 11 8 3 2 5 4 5 4 0 0-6 1-13 0-8 0-14 0-15 1-1 0-1 0-6 16-3 10-4 12-4 10z m81 0c-1-5-8-25-9-26 0-1-3-1-14-1-8 0-14 0-14 0-1 0 5-4 11-8 11-9 11-9 11-10 0-2-7-24-8-26 0 0 0-1 0-1 0 0 6 4 12 9 6 4 11 8 12 8 0 0 5-4 12-8 6-5 11-9 11-9 1 0 0 2-4 15-2 7-4 13-4 13 0 0 5 4 12 9 6 4 11 8 11 8 0 0-7 0-14 0-11 0-14 0-15 1 0 0-2 7-5 14-2 7-4 13-4 13 0 0-1 0-1-1z m-272-133c-7-1-8-10-2-14l2-1 222 0 2 1c6 4 4 13-3 14-2 1-218 1-221 0z m39-41c-2-2-4-5-4-7 0-2 1-6 3-7l2-1 142 0 2 1c2 1 3 5 3 7 0 2-2 5-4 7l-3 1-139 0z"/>
<glyph glyph-name="cg-location" unicode="&#114;" d="M368 494c-26-3-49-20-61-44-2-3-3-6-3-6 0-1 0-1 0-1 0 0-4 2-9 4-23 12-44 16-69 16-16-1-27-3-41-7-44-15-79-51-93-95-3-13-5-23-5-38-1-20 3-38 10-57 4-8 6-12 26-47 25-43 34-59 50-88 4-6 8-13 10-17 2-3 6-10 9-15 6-11 17-29 25-45 9-14 9-14 11-15 2-1 3 0 5 1 1 1 4 6 8 12 9 17 24 43 41 72 10 17 16 27 19 33 1 2 7 11 12 20 16 27 28 49 35 62 10 17 10 17 13 24 4 10 8 22 10 35 1 6 1 8 1 22l0 16 9 0c9 0 12 1 18 2 14 4 29 14 39 25 13 15 20 33 20 52 0 33-20 62-51 74-4 2-7 3-14 4-3 1-21 2-25 1z m19-10c9-2 14-3 22-7 9-4 16-10 22-17 8-10 13-21 15-33 1-6 1-17 0-23-4-23-19-43-41-52-10-4-23-7-33-5-17 1-32 8-43 21-23 23-26 58-8 85 4 7 13 15 19 20 14 9 30 13 47 11z m-149-32c20-1 37-6 54-15 6-4 8-5 8-6-1-12-2-15-1-22 1-11 3-19 8-29 10-20 28-35 49-41 2-1 4-2 5-2 0 0 1-4 1-9 2-21-3-44-12-64-2-4-9-17-41-72-5-7-12-21-18-31-11-19-15-26-23-41-4-5-8-13-10-17-2-3-6-9-8-13-9-15-18-31-19-33-1-2-2-2-3 0 0 1-11 20-17 30-1 3-5 10-8 15-3 5-11 18-18 30-13 23-30 51-34 59-11 19-13 23-18 31-2 4-7 12-9 16-3 5-5 9-6 10-9 17-13 25-16 38-4 13-4 18-4 34 0 15 0 18 2 29 2 6 2 6 4 13 7 20 20 42 37 56 23 21 52 33 84 34 2 0 4 0 4 1 1 0 4-1 9-1z m137 10c-2-2-2-2-2-26 0-18 0-22 1-23 1-3 1-3 23-3l20 0 2 2c2 2 2 5 0 7l-1 1-17 0-17 1 0 19-1 20-1 1c-1 1-2 2-3 2-2 0-3-1-4-1z m-155-79c-20-4-38-16-47-35-4-6-5-12-6-20-3-19 4-40 19-54 22-21 54-24 79-7 5 3 14 12 17 17 15 22 15 49 0 71-4 8-14 16-22 21-12 6-27 9-40 7z m19-11c8-2 14-4 21-8 3-3 11-11 14-14 12-19 12-42 0-60-3-4-11-12-14-14-25-16-56-11-73 12-15 21-14 49 4 69 6 5 13 10 20 13 9 3 20 4 28 2z"/>
<glyph glyph-name="cg-fair" unicode="&#115;" d="M243 469c-4-1-18-2-19-2 0-1 1-8 1-9 0 0 3 1 7 1 3 1 11 1 16 1l10 1 0 4 0 4-6 0c-4 0-8 0-9 0z m32-4c-1-6-2-5 6-6 6-1 19-3 25-5 0 0 1 1 1 3 1 2 1 4 1 5 0 1-20 5-30 6l-3 0z m-75-3c-11-4-25-9-25-10 0 0 1-2 2-4 1-3 1-3 2-3 6 3 17 6 22 8 4 1 7 2 8 2 0 1-2 8-2 8 0 0-3 0-7-1z m123-9c0-2-1-4-1-4 0 0 2-1 4-2 5-1 12-5 19-8l7-4 2 4c1 2 2 4 1 4-1 2-28 14-30 14 0 0-1-2-2-4z m-81-1c-46-5-87-23-118-55-30-30-48-67-54-110-2-11-2-34 0-46 6-43 24-79 54-109 29-30 66-48 109-54 12-1 34-1 46 0 10 2 19 3 28 6 3 1 6 2 7 1 7-14 15-25 28-34 10-7 22-12 35-14 5-1 18-1 23 0 33 5 60 29 68 61 1 6 3 15 3 20 0 5-2 14-3 20-4 15-11 27-22 38l-3 3 3 7c2 6 5 14 7 20l1 3-3 1c-5 1-6 1-6 0 0-2-8-24-9-25 0 0-5 3-7 4-1 0 0 1 0 3 7 17 11 31 13 49 2 12 2 35 0 46-4 34-16 63-35 90-31 41-76 67-127 74-9 1-30 1-38 1z m37-10c42-6 77-23 106-53 28-29 44-62 49-104 1-6 1-35 0-41-2-17-5-30-11-44-1-3-2-6-2-6 0 0-4 0-7 2-19 6-38 5-56-2-19-8-34-22-43-41-6-11-8-22-8-35 0-8 1-13 2-20 1-2 1-4 1-4-1-2-21-6-33-8-7 0-35 0-41 0-28 4-50 12-71 24-21 13-40 30-54 50-18 25-28 51-33 84-1 6-1 35 0 41 4 27 11 49 24 71 13 21 30 40 50 54 25 18 54 29 84 32 2 1 5 1 6 1 5 1 32 0 37-1z m126-257c9-2 17-6 25-12 13-9 22-23 26-40 1-5 1-6 1-15 0-10 0-14-3-22-5-16-17-30-32-39-5-3-13-6-20-7-7-2-20-2-27 0-6 1-13 4-18 6-8 4-18 13-24 21-4 5-8 14-10 19-3 8-3 12-3 22 0 9 0 10 1 15 4 16 12 28 23 38 10 8 20 13 33 15 3 1 7 1 13 1 8 0 10-1 15-2z m-219 214c0 0-1-1-1-1-1 0-1-1-1-6l0-6 2 1c6 1 9 1 17 1 9 0 15-1 23-3 11-4 20-9 27-17 8-7 13-15 16-24 2-3 3-10 3-11 0 0-19 0-43 0l-43 0 0-10 87 0 0-5c-1-7-3-15-6-21-9-18-27-31-49-36-6-2-20-2-27-1-3 0-6 1-6 1-1 0-1-1-1-6l0-6 2 0c3 0 6-3 49-50 26-27 49-51 51-53l5-5 3 4 4 3-47 50-47 50 2 0c34 1 63 21 74 51 2 5 4 13 4 19l0 5 54 0 0 10-54 0-1 4c-3 16-12 31-24 42-4 3-13 10-15 11-1 0 17 0 46 0l48 0 0 10-76 0c-65 0-76 0-76-1z m238-250c-1-1-12-11-25-24l-23-23-11 11c-11 11-13 12-16 11-1 0-4-3-4-4-1-4-1-4 14-19l15-15 2 1 3 0 26 26c14 14 27 27 27 27 2 3 0 7-3 9-2 1-3 1-5 0z m-271 293c-6-4-18-12-21-14l-1-1 2-3c3-3 3-4 4-3 4 3 18 12 22 14l4 3-2 3c-1 2-2 4-2 4 0 0-3-2-6-3z m215-11c-1-2-2-4-2-4 0 0 2-2 5-4 6-4 12-10 17-14 1-1 3-2 3-2 0 0 2 1 3 3l3 3-4 3c-7 6-10 9-16 13-7 5-6 5-9 2z m-259-24c-5-4-10-10-12-12l-3-4 3-2c2-2 4-3 4-3 0 0 2 2 4 5 2 2 7 7 11 11 4 4 7 8 7 8 0 0-5 6-6 6 0 0-4-4-8-9z m296-10l-3-3 5-5c3-4 7-9 9-12 7-10 6-9 10-6 2 1 3 2 3 2 0 1-6 10-10 15-4 5-10 12-10 12-1 0-2-1-4-3z m-325-26c-2-3-6-10-8-15-4-7-4-8-4-9 1 0 3-1 4-2l3-1 4 8c3 6 8 14 11 19l1 2-3 2c-1 1-3 2-3 2-1 0-2-2-5-6z m354-15l-4-2 2-4c3-6 7-15 9-21 1-2 2-4 2-4 0-1 2 0 4 0l4 2-2 5c-4 11-10 25-11 26-1 0-3-1-4-2z m-373-25c-1-2-8-29-8-32 0-1 7-2 8-1 0 0 1 2 1 4 1 5 3 13 5 20 1 4 2 7 2 7-1 1-8 3-8 2z m391-22c-2 0-4-1-4-1 0 0 0-3 1-7 1-8 3-18 3-22 0-3 0-3 4-3l4 1 0 4c-1 9-4 29-5 29 0 0-2 0-3-1z m-402-28c0-1 0-22 0-28l0-5 2 0c1 0 3 0 4 0l3 0 0 33-3 0c-4 1-5 1-6 0z m402-25c0-5-1-14-2-22-1-4-1-7-1-7 0 0 8-1 8-1 1 1 4 24 4 31l0 3-9 0z m-397-25c-1 0-3 0-3 0 0-1 4-21 7-29l1-4 4 1 4 1-1 4c-1 6-5 19-6 24 0 4 0 4-6 3z m15-48c-1 0-3-1-3-1-1-1 14-29 15-30 1 0 7 3 7 4 0 0-1 3-3 6-2 3-5 10-7 14-3 5-5 9-5 9 0 0-2-1-4-2z m27-42c-1 0-2-1-3-2l-1-1 4-5c2-3 7-9 11-13l7-7 3 3 3 3-5 5c-5 6-14 16-16 18-1 1-1 1-3-1z m36-34c-1-1-2-2-3-3l-1-3 4-3c7-5 23-15 24-15 0 0 4 6 4 7 0 0-2 1-4 2-4 3-15 10-19 13-2 2-4 3-4 3 0 0-1 0-1-1z m41-28c-1-2-1-3-1-4 1-1 25-10 30-10l2-1 1 4c0 2 0 4 0 4 0 0-3 1-7 2-5 2-17 6-23 9 0 0-1-2-2-4z m134-5c-5-2-21-5-24-5l-1 0 0-4c1-3 1-5 1-5 1-1 33 6 33 8 0 0-1 2-1 4-1 2-1 3-2 3-1 0-3-1-6-1z m-86-6c0-4-1-7 0-7 1-2 39-4 44-3 1 0 1 1 1 4l0 4-15 1c-12 0-23 1-28 2-1 0-1 0-2-1z"/>
<glyph glyph-name="cg-denting" unicode="&#116;" d="M253 460c-4-1-5-3-7-7-2-3-4-8-5-10l-3-6-2 2c-2 0-7 3-11 5-4 2-8 3-8 3 0 0-3 2-7 4-11 5-12 4-18-11-2-3-2-5 0-7 1-2 2-2 9-6 3-1 7-3 10-4 3-2 8-4 11-6 3-1 6-2 6-3 0 0-2-4-4-8-5-10-5-10-5-14 0-4 1-7 4-9 1-1 7-4 8-4 0 0 1 1 2 3 1 2 3 6 4 8 1 3 3 6 3 8 2 2 3 6 4 8 1 2 3 5 4 8 1 3 3 6 3 8 1 1 3 5 5 9 1 3 3 7 4 9 1 2 3 7 5 11 2 5 3 7 3 7-1 0-2 1-4 2-4 2-8 2-11 0z m26-10c0 0-2-3-3-7-2-3-4-7-4-8-3-6-4-9-8-17-6-13-7-15-8-17-1-1-2-4-3-6-8-17-10-22-10-22 1 0 16-7 21-10 6-2 9-4 15-6 2-2 7-4 9-5 2-1 5-2 7-3 2-1 3-2 4-1 1 0 5 11 4 11 0 0-2 1-4 2-4 2-4 3-5 4-1 2-1 2 0 4 1 1 2 2 3 3l2 1 4-2c3-1 5-2 5-2 0 0 1 1 2 2 5 12 7 16 7 16 0 0-4 2-18 9-7 3-8 4-9 6-1 3 2 7 5 7 1 0 3-1 6-2 13-6 21-10 21-10 0 0 2 5 2 6 0 0-5 2-11 5-9 5-10 6-11 7-2 4 1 8 5 8 0 0 5-2 9-4 5-2 9-5 10-5 2-1 3-1 3-1 0 0 6 11 6 12 0 0-1 1-2 1-1 1-5 3-9 5-4 1-8 4-10 4-1 1-5 3-9 5-10 4-25 12-25 12 0 0-1-1-1-2z m-137-43c-12-2-21-7-29-15-5-4-7-8-10-15-2-3-3-7-4-8 0-1-3-9-7-16-3-8-6-16-6-17-1-1-4-9-8-18-8-18-9-22-11-25 0-2-1-3-1-3 0-1-1-2-5-1-3 0-8 1-12 1-4 0-11 1-16 2l-9 1-2-2c-3-1-6-5-8-8-2-6-4-18-2-24 2-7 6-12 13-15 4-2 8-3 16-4 3 0 6-1 6-1 0 0-1-2-3-4-13-27-18-54-14-77 3-19 11-36 24-52 6-6 12-11 20-15l4-2 0-17 1-16 1-3c2-4 6-8 9-10 2-1 4-1 6-2 3 0 28 0 32 0 6 2 13 7 15 13 1 2 1 3 1 18l0 16 227 0 0-14c0-19 1-22 7-27 5-5 6-5 24-5 17-1 19 0 24 2 4 2 7 5 9 9l1 3 0 17c0 14 1 16 1 17 1 0 3 1 6 2 4 2 5 3 10 9 16 16 26 32 31 51 2 10 3 14 3 26 0 12-1 17-4 28-2 9-6 21-10 30-1 2-2 4-2 4 0 0 2 1 4 1 8 0 10 1 15 3 7 4 11 8 13 15 1 6 0 20-3 25-1 3-5 7-8 8-2 1-4 1-13 0-11-1-29-3-30-3-2 0-2 0-6 11-3 6-5 11-5 12-1 1-3 5-4 9-2 3-3 7-4 8 0 1-5 13-11 27-7 15-12 27-13 29-1 2-4 5-6 7-6 6-11 10-19 12-7 2-9 3-18 3l-8 0 0-32 7 0c6 0 8-1 10-2 5-2 6-3 11-16 3-7 6-13 6-14 1-1 5-10 9-20 4-10 8-19 9-20 0-2 1-4 2-5 0-1 1-4 2-5 2-5 5-13 5-13 0-1-50-1-159-1-87 1-159 1-159 1 0 0 2 6 4 12 1 1 5 9 8 17 14 34 24 56 25 58 1 2 4 5 7 6 2 1 4 2 11 2l7 0 0 32-7 0c-5 0-9 0-10 0z m-16-184c5-2 8-3 11-7 7-6 10-15 8-24-2-13-12-23-26-24-8 0-15 2-21 8-14 14-10 38 8 46 3 2 6 2 11 2 4 0 6 0 9-1z m273 0c9-2 15-7 19-15 5-11 2-23-6-32-15-15-41-8-47 13-2 4-1 11 0 16 4 12 14 19 27 19 2 0 6 0 7-1z"/>
<glyph glyph-name="cg-carcheckup" unicode="&#117;" d="M369 496c-28-4-51-15-70-34-19-19-30-40-35-67-1-5-1-8-1-20 0-13 0-15 1-21 2-9 3-15 6-22 18-48 64-79 114-79 28 0 54 9 76 27 24 18 40 47 45 76 0 3 1 7 1 8 1 3 1 18 0 21 0 2-1 6-1 9-3 17-10 36-21 50-18 26-45 44-76 50-12 3-28 3-39 2z m73-74c6-3 9-8 9-13 0-7 2-4-44-51-27-27-42-41-43-41 0 0-10 9-21 20-18 19-20 21-21 23-3 8 1 16 8 19 2 1 3 1 6 1 6 0 8-1 19-12 5-5 9-9 9-9 1 0 15 14 31 30 17 17 31 31 32 32 4 2 6 2 9 2 3 0 5 0 6-1z m-290-54c-10-2-22-6-31-13-9-6-17-16-21-25-1-2-4-11-7-19-3-8-8-25-12-36-4-11-7-21-7-22-1-1-1-2-2-3l0-2-18 0c-21 0-22 0-27-3-3-3-7-7-7-10 0-1-1-2-1-2 0-1-1-6-1-13l0-11 20-4 20-3 0-89 1-88 1-3c1-4 4-7 7-9 5-4 6-4 25-4l16 0 1 4c0 2 1 4 1 5 0 2 1 5 1 7 2 7 5 24 6 33 1 5 2 9 2 10l1 1 118 0 119 0 0-4c1-3 2-9 3-14 1-5 2-10 2-11 1-3 2-8 4-20 0-5 1-9 1-10l1-1 17 0 18 0 3 2c2 1 5 3 6 5 2 2 3 4 5 8 0 1 1 25 1 90l0 88 16 3c9 1 17 3 20 3l3 1 0 12 0 13-1 3c-2 3-5 7-6 7 0 0-2-1-3-2-17-7-32-11-50-13-10-1-15-1-24 0-4 0-6 0-7 0 0 0-34-1-128-1-70 0-128 0-128 1 0 0 0 1 1 3 0 1 3 10 5 18 5 15 6 19 9 27 1 2 2 7 3 10 2 6 3 9 7 22 4 12 4 12 5 14 1 1 2 3 4 4l2 1 50 0c54 0 50 0 49 3-3 6-6 22-7 33l0 4-42 0c-24 0-43 0-44 0z m-33-182c17-7 24-26 16-42-6-10-19-17-30-15-9 1-16 5-20 12-8 9-8 21-3 32 2 4 8 10 13 12 5 3 8 3 15 3 5 0 6 0 9-2z m256 2c10-3 19-11 22-22 1-3 1-11-1-16-2-6-7-14-13-17-11-7-26-5-35 3-13 12-14 31-1 44 3 3 8 6 13 8 4 1 11 1 15 0z m-78-39c1-1 1-3 1-13 0-11 0-11-2-14 0-2-2-4-3-5-2-3-7-6-11-7-3-1-4-1-44-1-39 0-41 0-44 1-6 2-11 6-14 11-2 3-2 3-2 15 0 10 0 12 1 13 1 0 118 0 118 0z"/>
<glyph glyph-name="cg-bikerepair" unicode="&#118;" d="M409 422c-8-1-17-4-24-9-5-4-12-10-15-15l-3-4-18 0c-9 0-44 0-77 0-33-1-79-1-103-1l-44 0-2 3c-3 3-10 10-14 13-6 4-14 7-21 8-6 2-19 2-23 0-1 0-1 0-2 0-8-2-19-8-27-14-6-7-13-18-16-28-1-5-1-6-1-14 0-6 0-10 0-12 1-5 4-11 4-11 0 0 9 8 19 19l19 19 15-15c9-9 16-16 16-16 0 0-9-9-19-19-10-11-18-19-18-20 1 0 9-3 13-3 15-2 30 1 42 10 4 3 11 9 14 13l2 4 20 0c11 0 21 0 21 0 0 0 32 0 70 0 38 1 71 1 73 1 2 0 17 0 32 0l28 0 1-1c1-3 9-10 13-13 10-7 22-10 34-10 12 0 22 3 32 10 19 13 29 36 24 59-1 5-3 11-3 11-1 0-9-8-19-19-10-10-19-18-19-18 0 0-8 7-16 15l-15 15 18 19c10 10 19 19 19 20 0 0-5 2-12 3-4 1-14 1-18 0z m-58-53c2-2 2-2 2-4 0-3 0-3-2-5l-1-1-23-1c-13 0-47 0-76 0-29-1-64-1-77-1-25 0-26 0-27 1-4 2-5 6-2 10l2 1 25 1c14 0 55 0 92 0 36 1 66 1 66 1 0 0 4 0 10 0l9 0z m-38-91c0 0-8-2-17-5-22-5-22-5-24-7-2-3-1-6 3-8 2-1 2-1 3-1 3 1 33 9 34 9 0 0 4-7 8-14 7-12 8-14 10-15 2-1 2-1 4 0 2 1 4 4 4 6 0 1-5 10-15 28-5 6-7 8-10 7z m84-45c-6-2-14-6-18-10-8-8-8-16-1-24 5-6 15-11 22-11 2 0 3 0 4 1l1 2 0 19c0 21 0 21-2 22-1 1-4 1-6 1z m-63-2c-3-2-5-6-3-11 0-1 2-5 4-8 3-4 7-13 11-19 3-6 9-16 13-23 4-6 7-12 8-14l2-3-4-3c-10-8-17-20-21-33-5-14-5-32 0-47 6-18 20-33 37-42 5-3 15-6 20-7 7-1 19-1 25 0 5 1 15 4 20 6 22 12 37 33 40 57 1 7 1 20-1 26-3 14-9 25-18 35-8 8-16 14-26 18-10 4-16 5-28 5-10 0-14-1-23-4l-5-1-1 2c-1 1-9 15-18 31-10 17-18 31-19 32-2 3-4 4-7 4-3 0-4 0-6-1z m92-92c11-3 20-9 26-19 6-8 8-17 8-27-1-7-2-12-5-19-5-10-15-19-27-23-9-3-22-3-31 0-13 5-23 16-27 29-6 16-2 33 9 45 2 2 3 4 4 4 0 0 3-5 6-10 13-23 17-30 19-32 4-2 9-2 12 1 2 2 3 4 3 8 0 2-4 8-20 36-2 3-3 6-3 6 0 0 2 1 4 1 2 1 4 1 4 1 1 1 4 1 7 1 5-1 8-1 11-2z m-158 88c-4-1-8-3-14-5-15-7-21-10-25-11-12-4-26-6-60-8-13-1-20-1-27-2-11-2-12-2-38 3-7 1-11 1-23 3-4 1-9 1-15 1-9 0-10 0-12-1-7-4-8-14-2-24 4-6 7-9 15-11 4-1 21-3 42-4 13-1 26-1 103-1l88 0 4 2c10 5 22 22 22 33 0 13-15 23-37 25-8 1-17 1-21 0z m-183-73c-19-3-36-13-47-29-14-20-15-47-4-68 5-10 13-19 21-25 8-5 19-9 28-10 9-2 21-1 29 2 16 5 30 15 38 30 4 6 6 11 8 19l1 4 7 0 7 0 1-3c1-2 3-3 13-11 7-5 13-10 15-10 2-1 2-1 46-1 44 0 45 0 47 1 3 1 4 2 6 7 1 3 2 5 2 6 2 3 27 61 30 68 4 10 4 13-1 17-1 1-3 2-4 3-1 0-26 0-80 0l-79 0-2-2c-3-1-5-4-5-7 0-2 1-9 3-25 2-12 4-21 4-21 0-1-2-1-5-1l-5 0-1 3c-4 20-18 37-36 46-11 6-25 8-37 7z m15-28c10-2 18-8 24-16 3-3 6-11 6-11-1-1-9-1-20-1-17 0-20 0-21-1-2-1-2-3-2-10 0-7 0-8 1-10l2-1 20 0c23 0 21 0 18-5-7-14-20-22-35-22-7 0-12 1-17 3-7 3-13 9-17 16-6 10-7 24-2 35 7 16 25 26 43 23z"/>
<glyph glyph-name="cg-bikecheckup" unicode="&#119;" d="M136 493c-28-4-51-16-70-34-18-19-30-40-35-67-1-5-1-8-1-20 0-13 0-15 1-21 2-9 3-15 6-22 19-48 64-79 114-79 28 0 55 9 77 27 23 18 39 47 44 76 0 3 1 7 1 8 1 3 1 18 0 21 0 2-1 6-1 9-3 17-10 35-21 50-18 26-45 44-76 50-12 3-28 3-39 2z m73-74c6-3 9-8 9-13 0-7 2-4-44-51-27-27-42-42-43-42 0 1-10 10-21 21-18 19-20 21-21 23-3 8 1 15 8 19 2 1 3 1 6 1 6 0 8-1 19-12 5-5 9-9 9-9 1 0 15 14 31 30 17 17 32 31 33 32 3 2 5 2 9 2 2 0 4 0 5-1z m111-107c-1 0-9-2-18-5-21-5-22-5-23-7-1-2-2-3-1-5 1-3 4-4 6-4 1 0 9 2 18 4l17 5 1-2c1 0 1-2 2-3 4-7 13-23 15-24 2-2 6-1 8 3 1 1 1 2 1 3-1 3-19 33-21 34-1 1-4 1-5 1z m83-47c-5-1-11-4-15-9-5-5-7-8-7-13 0-3 0-4 2-6 4-8 16-16 25-17 3 0 3 1 4 2l2 1 0 40-2 2c-2 1-4 2-9 0z m-61 0c-3-2-4-5-4-8 0-4 0-4 5-13 2-3 6-10 10-16 13-24 14-26 20-36 2-3 4-6 4-7 0 0-2-1-4-3-7-6-14-15-18-24-5-11-7-21-7-33 0-12 2-23 8-33 10-20 28-35 49-40 8-1 21-2 29-1 26 4 47 21 57 45 4 9 5 16 5 26 1 14-1 24-6 35-9 18-25 33-44 39-9 3-13 4-24 4-11 0-15-1-24-4l-5-1-10 18c-6 11-15 26-19 34-5 8-9 15-10 16-3 3-8 4-12 2z m89-93c14-2 28-13 34-27 4-8 5-20 3-29-4-18-19-32-36-36-6-1-18-1-22 1-12 3-21 9-27 19-5 8-8 16-8 26 0 9 3 17 7 25 3 4 8 9 9 9 0 0 6-8 12-19 6-11 11-20 12-21 2-3 8-4 12-2 1 1 3 2 4 3 1 2 1 3 0 6 0 2 0 4-5 12-4 7-17 28-18 31 0 0 2 1 6 2 4 1 12 1 17 0z m-154 89c-2-1-6-2-9-3-4-1-6-2-15-7-23-10-32-12-85-15-7-1-18-2-23-3-3 0-6-1-7-1-1 0-9 1-18 2-15 3-20 4-29 5-17 3-26 3-32 2-2-1-5-4-7-6-1-3-1-10 1-14 1-5 6-10 9-13 5-4 17-6 52-8 18-1 187-1 192 0 5 1 11 5 16 11 5 5 9 13 11 19 3 15-9 26-32 30-5 1-22 1-24 1z m-185-75c-26-2-48-18-58-42-10-25-4-55 16-74 13-13 29-19 48-19 21 0 40 10 53 27 6 8 10 15 13 28l0 2 14 0 1-2c1-1 2-3 3-4 2-2 23-18 25-19 2-1 4-1 47-1l45 0 3 1c1 1 3 2 3 3 1 2 18 38 18 39 0 0 0 2 1 4 1 2 2 4 2 4 0 0 1 2 2 4 0 2 2 4 2 6 1 2 2 5 3 6 1 2 3 8 6 14 4 10 5 11 4 13 0 4-2 7-5 9l-2 1-161 0-2-1c-3-2-5-5-6-8 0-2 0-6 2-16 0-2 1-6 2-11 0-4 1-10 2-14 1-3 1-6 1-6 0 0-2 0-5 0l-5 0 0 1c-4 16-10 26-20 36-10 9-21 15-34 18-4 1-14 1-18 1z m12-29c2 0 5-1 6-1 10-3 19-12 23-21 2-6 4-5-19-5l-20 0-1-2c-2-2-3-6-3-12 0-5 1-8 4-9 1 0 6-1 21-1 18 0 19 0 19 0 0-1-1-3-2-6-2-3-3-5-6-8-6-6-12-10-20-12-6-1-16-1-22 1-5 2-11 6-16 10-21 23-10 60 21 66 5 1 11 1 15 0z"/>
</font>
</defs>
</svg>
