<svg xmlns="http://www.w3.org/2000/svg" xmlns:xlink="http://www.w3.org/1999/xlink" version="1.1" x="0px" y="0px" viewBox="0 0 100 100" enable-background="new 0 0 100 100" xml:space="preserve"><g><path fill="none" d="M79.139,21.169c-1.64-6.016-2.693-6.016-6.016-6.016c0,0-23.123,0-23.124,0H26.876   c-3.322,0-4.376,0-6.016,6.016l-4.559,21.302H50h33.699L79.139,21.169z"></path><ellipse transform="matrix(-0.7134 -0.7008 0.7008 -0.7134 -7.9515 109.5136)" fill="none" cx="18.421" cy="56.383" rx="7.654" ry="5.862"></ellipse><ellipse transform="matrix(-0.7134 -0.7008 0.7008 -0.7134 100.3167 153.797)" fill="none" cx="81.611" cy="56.383" rx="5.862" ry="7.654"></ellipse><path d="M92.184,42.65L84.44,17.746c-1.938-7.11-3.183-7.11-7.11-7.11c0,0-27.329,0-27.33,0H22.67c-3.927,0-5.172,0-7.11,7.11   L7.816,42.65C6.17,43.173,4.97,44.786,4.97,46.698v26.153c0,1.847,1.121,3.413,2.681,3.989v5.414c0,3.927,3.183,7.11,7.11,7.11h1.6   c3.927,0,7.11-3.183,7.11-7.11V78.83c8.381,0.898,18.764,1.804,26.53,1.804s18.149-0.907,26.53-1.804v3.424   c0,3.927,3.183,7.11,7.11,7.11h1.6c3.927,0,7.11-3.183,7.11-7.11V76.84c1.56-0.576,2.681-2.142,2.681-3.989V46.698   C95.03,44.786,93.83,43.173,92.184,42.65z M23.881,61.747c-2.269,2.31-6.553,1.781-9.568-1.182   c-3.015-2.962-3.621-7.236-1.352-9.546c2.269-2.31,6.553-1.781,9.568,1.182C25.544,55.163,26.15,59.437,23.881,61.747z    M16.301,42.471l4.559-21.302c1.64-6.016,2.693-6.016,6.016-6.016h46.247c3.322,0,4.376,0,6.016,6.016l4.559,21.302H16.301z    M85.793,60.491c-2.962,3.015-7.236,3.621-9.546,1.352c-2.31-2.269-1.781-6.553,1.182-9.568c2.962-3.015,7.236-3.621,9.546-1.352   C89.284,53.192,88.755,57.476,85.793,60.491z"></path></g></svg>