<?xml version="1.0" encoding="utf-8"?>
<!-- Generator: Adobe Illustrator 16.0.0, SVG Export Plug-In . SVG Version: 6.00 Build 0)  -->
<!DOCTYPE svg PUBLIC "-//W3C//DTD SVG 1.1//EN" "http://www.w3.org/Graphics/SVG/1.1/DTD/svg11.dtd">
<svg version="1.1" id="Layer_1" xmlns="http://www.w3.org/2000/svg" xmlns:xlink="http://www.w3.org/1999/xlink" x="0px" y="0px"
	 width="1080px" height="720px" viewBox="0 0 1080 720" enable-background="new 0 0 1080 720" xml:space="preserve">
<path fill="#4A148C" d="M852.104,513.608c-35.604-35.613-103.01-36.637-110.791-36.637c-8.561,0-21.829-5.476-27.846-11.491
	L572.211,324.228l167.328-167.32c4.196,1.867,8.75,2.917,13.471,2.917c8.877,0,17.229-3.457,23.516-9.743l68.759-68.775
	L798.27,34.284l-68.777,68.758c-6.284,6.286-9.75,14.64-9.742,23.516c0,4.736,1.051,9.282,2.917,13.486L555.355,307.364
	L423.274,175.282c-6.057-6.055-11.54-19.367-11.492-27.926c0.018-3.012-0.063-74.139-36.644-110.712
	C339.527,1.024,272.137,0,264.426,0c-15.115,0.079-20.146,8.345-21.6,11.896c-1.455,3.552-3.703,12.961,6.986,23.65l48.136,48.136
	c3.663,3.672,3.663,9.639,0,13.312l-30.168,30.167c-3.518,3.521-9.791,3.513-13.311,0l-48.136-48.136
	c-5.476-5.483-11.245-8.265-17.118-8.265c-9.107,0-18.343,7.073-18.414,22.88c-0.016,3.012,0.064,74.139,36.644,110.712
	c35.611,35.611,103.003,36.644,110.791,36.644c8.569,0,21.839,5.476,27.848,11.491l132.081,132.083l-41.921,41.919L414.5,404.764
	c-6.278-6.287-14.622-9.752-23.508-9.752c-8.885,0-17.227,3.458-23.516,9.744L171.356,600.86c-6.286,6.287-9.742,14.639-9.735,23.53
	c0,8.878,3.473,17.224,9.743,23.478l60.342,60.367c6.278,6.27,14.63,9.726,23.508,9.726c8.876,0,17.229-3.457,23.516-9.735
	l196.104-196.104c12.961-12.969,12.961-34.06,0-47.028l-21.751-21.736l41.921-41.92l141.244,141.245
	c6.064,6.063,11.541,19.375,11.492,27.939c-0.016,3.013,0.07,74.123,36.645,110.715c35.62,35.594,103.021,36.626,110.586,36.626
	h0.143c15.108-0.08,20.131-8.345,21.593-11.896c1.462-3.545,3.701-12.952-6.985-23.643l-48.119-48.129
	c-3.681-3.671-3.681-9.656-0.009-13.327l30.166-30.16c3.52-3.518,9.789-3.518,13.318,0l48.129,48.13
	c5.477,5.483,11.245,8.264,17.126,8.264c9.107,0,18.332-7.071,18.414-22.88C888.764,621.316,888.684,550.197,852.104,513.608z
	 M794.971,706.041L794.971,706.041L794.971,706.041L794.971,706.041z"/>
</svg>
