<?xml version="1.0" encoding="utf-8"?>
<!-- Generator: Adobe Illustrator 16.0.0, SVG Export Plug-In . SVG Version: 6.00 Build 0)  -->
<!DOCTYPE svg PUBLIC "-//W3C//DTD SVG 1.1//EN" "http://www.w3.org/Graphics/SVG/1.1/DTD/svg11.dtd">
<svg version="1.1" id="Layer_1" xmlns="http://www.w3.org/2000/svg" xmlns:xlink="http://www.w3.org/1999/xlink" x="0px" y="0px"
	 width="1080px" height="800px" viewBox="0 0 1080 800" enable-background="new 0 0 1080 800" xml:space="preserve">
<path fill="#4A148C" d="M719.144,630.553c0,9.597-7.852,17.448-17.448,17.448c-9.6,0-17.447-7.852-17.447-17.448
	c0-0.872,0-0.872,0-1.745l-41.876-41.875l-1.744-1.745c-1.749-1.747-1.749-3.488,0-5.234l11.341-11.34
	c1.748-1.746,3.489-1.746,5.233,0l1.749,1.744l9.596,9.6l32.275,32.275c0.877,0,0.877,0,1.749,0
	C711.292,612.232,719.144,620.084,719.144,630.553z M836.263,532.844l18.319-18.32c7.853-7.852,7.853-20.064,0-27.919l-7.848-7.853
	c-7.852-7.848-20.065-7.848-27.92,0l-18.32,18.324c-21.81-16.576-48.854-27.92-77.644-31.41v-14.827h18.32
	c10.473,0,20.065-8.724,20.065-20.065v-11.34c0-10.472-8.724-20.065-20.065-20.065h-39.258h-39.258
	c-10.469,0-20.062,8.724-20.062,20.065v11.34c0,10.472,8.725,20.065,20.062,20.065h18.321v14.831
	c-28.79,3.489-54.962,14.831-77.644,31.407l-17.448-17.448c-7.852-7.852-20.065-7.852-27.92,0l-7.848,7.851
	c-7.852,7.852-7.852,20.065,0,27.92l18.32,18.319c-19.195,27.045-31.406,60.195-31.406,96.836
	c0,90.729,74.154,164.884,164.88,164.884c90.729,0,164.882-74.154,164.882-164.884C867.668,593.911,856.328,559.889,836.263,532.844
	z M701.695,736.985c-59.323,0-108.177-47.982-108.177-108.178c0-59.322,47.982-108.177,108.177-108.177
	c59.319,0,108.174,47.982,108.174,108.177C809.872,689.003,761.018,736.985,701.695,736.985z M318.751,167.685
	c-75.406-2.953-108.917-8.526-108.917-8.526c-9.211,0.023-16.677,7.515-16.653,16.732l0.023,9.924
	c0.016,9.226,7.506,16.669,16.724,16.654c0,0,20.579,5.464,95.695,8.447C307.226,195.426,311.795,180.836,318.751,167.685z
	 M655.348,174.83c-0.03-9.218-7.507-16.669-16.741-16.653c0,0-33.69,5.724-109.072,9.022c7.02,13.112,11.652,27.685,13.332,43.151
	c75.045-3.32,95.844-8.863,95.844-8.863c9.219-0.024,16.677-7.506,16.661-16.731L655.348,174.83z M424.057,127.014
	c-53.226,0.125-96.266,43.365-96.143,96.583c0.126,53.218,43.367,96.266,96.583,96.143c53.217-0.126,96.268-43.365,96.159-96.583
	C520.514,169.931,477.275,126.896,424.057,127.014z M424.418,282.06c-32.412,0.078-58.753-26.146-58.839-58.558
	c-0.069-32.411,26.152-58.745,58.557-58.824c32.403-0.078,58.737,26.139,58.816,58.558
	C483.03,255.647,456.822,281.989,424.418,282.06z M621.933,0c32.409,0,58.683,26.273,58.683,58.683s-26.273,58.682-58.683,58.682
	c-32.41,0-58.681-26.274-58.681-58.682C563.25,26.273,589.522,0,621.933,0z M226.613,0c32.411,0,58.682,26.273,58.682,58.683
	s-26.273,58.682-58.682,58.682c-32.409,0-58.682-26.274-58.682-58.682C167.931,26.273,194.204,0,226.613,0z M483.062,708.055
	c0,25.03-20.283,45.319-45.312,45.319h-26.946c-25.031,0-45.322-20.294-45.322-45.319V454.928c0-25.031,20.304-45.319,45.322-45.319
	h26.946c25.029,0,45.312,20.294,45.312,45.319V708.055z M483.062,387.961v-3.75c0-25.03-20.283-45.313-45.312-45.313h-26.946
	c-25.016,0-45.322,20.283-45.322,45.313v3.75H483.062z M499.684,313.514c0-8.781,7.119-15.9,15.899-15.9h9.453
	c8.752,0,15.882,7.112,15.882,15.9v157.5c0,0-14.835,15.554-14.177,28.716c0.582,11.633,14.177,26.081,14.177,26.081v50.4
	c0,8.754-7.112,15.892-15.882,15.892h-9.453c-8.781,0-15.899-7.114-15.899-15.892V313.514z M605.817,467.518
	c0.639-2.759,0.812-5.652,0.812-8.588v-93.473c0-25.023-20.281-45.327-45.32-45.327h-3.745v137.525c0,0,14.61-2.455,24.078,2.182
	C593.285,465.537,603.932,475.648,605.817,467.518z M307.633,313.514c0-8.781,7.098-15.9,15.884-15.9h9.462
	c8.77,0,15.881,7.112,15.881,15.9V576.21c0,8.754-7.106,15.892-15.881,15.892h-9.462c-8.788,0-15.884-7.114-15.884-15.892V313.514z
	 M290.988,298.32h-3.747c-25.031,0-45.32,20.273-45.32,45.313v93.474c0,25.03,20.281,45.318,45.32,45.318h3.747V298.32z"/>
</svg>
