<?xml version="1.0" encoding="utf-8"?>
<!-- Generator: Adobe Illustrator 16.0.0, SVG Export Plug-In . SVG Version: 6.00 Build 0)  -->
<!DOCTYPE svg PUBLIC "-//W3C//DTD SVG 1.1//EN" "http://www.w3.org/Graphics/SVG/1.1/DTD/svg11.dtd">
<svg version="1.1" id="Layer_1" xmlns="http://www.w3.org/2000/svg" xmlns:xlink="http://www.w3.org/1999/xlink" x="0px" y="0px"
	 width="1280px" height="720px" viewBox="0 0 1280 720" enable-background="new 0 0 1280 720" xml:space="preserve">
<path fill="#FFFFFF" d="M972.48,501.848c-37.967,0-68.754,30.779-68.754,68.752h0.015c0,37.967,30.772,68.746,68.746,68.753
	c37.966-0.007,68.753-30.779,68.753-68.753C1041.24,532.627,1010.453,501.848,972.48,501.848z M972.494,593.524
	c-12.657,0-22.925-10.268-22.925-22.926c0-12.656,10.268-22.917,22.925-22.917c12.658,0,22.918,10.261,22.918,22.917
	C995.412,583.258,985.152,593.524,972.494,593.524z"/>
<polygon fill="#FFFFFF" points="496.354,124.875 460.598,82.265 446.882,95.981 489.498,131.729 "/>
<path fill="#FFFFFF" d="M417.506,501.848c-37.973,0-68.753,30.779-68.753,68.752c0,37.975,30.78,68.753,68.753,68.753
	c37.965,0,68.753-30.779,68.753-68.753C486.259,532.627,455.471,501.848,417.506,501.848z M417.506,593.524
	c-12.658,0-22.918-10.268-22.918-22.926c0-12.656,10.26-22.917,22.918-22.917c12.657,0,22.917,10.261,22.917,22.917
	C440.423,583.258,430.156,593.524,417.506,593.524z"/>
<polygon fill="#FFFFFF" points="536.953,112.059 541.807,56.647 522.409,56.654 527.255,112.059 "/>
<polygon fill="#FFFFFF" points="617.32,95.981 603.597,82.265 567.849,124.875 574.703,131.729 "/>
<path fill="#FFFFFF" d="M555.004,433.095V174.401c12.658,0,22.925-10.26,22.925-22.917c0-12.657-10.26-22.917-22.925-22.917h-45.828
	c-12.656,0-22.917,10.26-22.917,22.917c0,12.657,10.261,22.917,22.917,22.917h0.41C379.331,196.059,280,309.2,280,445.604v56.244
	v45.835c0,12.657,10.26,22.917,22.917,22.917h28.642c0-47.383,38.556-85.938,85.947-85.938s85.946,38.549,85.946,85.938h383.103
	c0-47.383,38.549-85.938,85.939-85.938c47.39,0,85.954,38.549,85.954,85.938h28.647c12.657,0,22.918-10.26,22.918-22.917v-45.835
	v-16.244v-29.592c0-12.656-10.261-22.917-22.918-22.917H924.529H646.438H555.004z M509.184,358.549H318.361
	c30.334-82.439,102.543-144.583,190.814-160.798v160.798H509.184z"/>
<g transform="translate(0.000000,245.000000) scale(0.100000,-0.100000)">
	<path fill="#FFFFFF" d="M7675.166,852.431c-7.881,1.128-32.656-21.387-162.168-146.416l-45.068-43.921l-38.271,19.165
		c-59.697,29.268-164.434,23.643-278.203-15.781c-50.664-18.018-61.943-27.026-88.955-76.577
		c-41.67-76.602-68.711-171.196-65.332-226.387c3.369-49.551,38.281-137.402,65.332-165.562
		c15.742-15.762-27.051-93.481-217.393-393.052c-14.619-22.534-23.643-27.031-34.883-19.155
		c-24.795,15.771-156.572,55.186-208.389,61.938c-139.648,19.15-334.478-4.497-461.748-57.432
		c-38.286-16.88-40.532-19.141-21.392-32.666c16.88-13.506,12.383-18.018-52.939-51.802
		c-95.737-48.438-159.907-96.855-235.391-176.816c-149.8-157.671-222.988-331.113-230.869-546.24
		c-7.9-198.203,34.893-352.49,141.914-510.166c114.868-168.955,270.278-282.725,471.89-344.648
		c67.563-20.264,111.489-25.918,219.609-25.918c175.693,0,256.797,16.895,387.422,83.359
		c102.5,51.807,216.25,139.648,277.051,216.221c72.09,90.107,116.025,167.822,153.174,277.07
		c31.562,91.211,38.33,137.393,38.33,273.677v120.498l30.381-21.392c15.791-11.27,32.666-21.392,37.168-21.392
		c13.525,0-9.014,155.42-27.031,190.337c-5.625,10.132-11.26,21.406-11.26,25.903c-12.402,70.947-94.6,211.738-192.588,329.985
		l-74.326,90.098l156.543,262.427c86.719,144.15,158.799,260.161,159.922,259.028c2.266-2.251,6.768-31.533,11.25-65.317
		c6.777-57.441,10.137-84.473,22.539-157.681c10.137-63.066,30.41-188.086,33.77-213.989c2.266-15.771,6.758-42.793,10.146-61.943
		c2.266-18.013,7.891-52.93,11.289-75.454c3.369-23.647,14.639-86.729,23.633-140.781c18.027-94.6,36.035-202.734,45.049-262.432
		c10.137-61.924,19.141-111.484,40.547-219.599c12.393-61.929,25.898-127.261,28.164-145.303
		c13.516-73.193,75.459-240.996,108.125-290.557c59.678-93.477,148.643-136.27,307.432-148.682
		c49.6-4.502,110.391-10.127,135.166-12.383c24.785-3.369,90.107-7.871,146.416-12.383c55.186-3.379,119.375-9.004,140.801-11.26
		c96.826-11.27,375.02-12.383,418.945-2.266c27.041,5.635,56.328,12.393,65.322,14.658c33.799,6.748,121.621,49.57,146.436,69.824
		c72.051,58.584,120.508,136.26,130.635,208.359c10.137,67.568,5.625,65.312,144.16,65.312h128.379l9.014-36.035
		c11.27-56.309,77.715-185.83,127.275-250.02c128.379-170.068,309.697-284.951,513.574-327.754
		c97.979-20.273,288.33-14.648,382.891,11.27c318.75,85.596,572.168,361.514,621.719,676.885
		c10.137,70.942,10.137,243.271-1.133,306.338l-9.004,47.295h57.432c31.533,0,57.441,4.512,57.441,9.033
		c0,23.628-36.006,142.998-58.545,190.308c-129.531,282.695-396.475,459.526-785.02,520.337
		c-39.414,6.753-75.459,8.999-79.971,6.753c-4.492-3.379-24.756,14.639-43.916,38.306c-73.203,90.088-150.918,102.48-222.979,37.148
		c-36.055-33.779-108.135-68.711-140.801-70.942c-2.256,0-23.652-4.512-48.428-10.146c-131.768-30.405-397.578-36.04-501.191-11.265
		c-97.969,23.643-192.568,85.596-213.965,140.791c-14.648,37.158-507.959,296.211-789.512,414.463
		c-246.641,103.623-376.172,125.015-502.305,82.212c-56.318-19.146-129.531-75.449-140.771-108.115
		c-4.531-13.516-9.033-13.516-33.798,2.251c-23.672,15.776-31.543,33.784-42.793,100.229
		c-10.137,58.564-10.137,87.856-1.143,106.987c13.545,31.533,141.914,128.398,168.945,128.398
		c10.127,0,58.574-13.525,108.125-29.277c49.541-15.781,129.512-40.547,176.836-54.062l86.709-25.908l34.932,36.035
		c20.264,20.273,31.523,39.414,25.869,42.803c-9.004,5.635-322.09,93.477-369.404,103.608
		c-12.383,3.389-55.176,14.648-95.732,27.036C7715.702,841.186,7679.677,851.313,7675.166,852.431z"/>
</g>
</svg>
