<?xml version="1.0" encoding="utf-8"?>
<!-- Generator: Adobe Illustrator 16.0.0, SVG Export Plug-In . SVG Version: 6.00 Build 0)  -->
<!DOCTYPE svg PUBLIC "-//W3C//DTD SVG 1.1//EN" "http://www.w3.org/Graphics/SVG/1.1/DTD/svg11.dtd">
<svg version="1.1" id="Layer_1" xmlns="http://www.w3.org/2000/svg" xmlns:xlink="http://www.w3.org/1999/xlink" x="0px" y="0px"
	 width="1080px" height="720px" viewBox="0 0 1080 720" enable-background="new 0 0 1080 720" xml:space="preserve">
<path fill="#4A148C" d="M873.34,546.047c-46.569,0-84.33,37.752-84.33,84.324h0.02c0,46.57,37.741,84.318,84.318,84.328
	c46.566-0.01,84.327-37.75,84.327-84.328C957.675,583.799,919.914,546.047,873.34,546.047z M873.356,658.49
	c-15.524,0-28.118-12.596-28.118-28.121c0-15.521,12.594-28.109,28.118-28.109c15.525,0,28.109,12.588,28.109,28.109
	C901.466,645.898,888.882,658.49,873.356,658.49z"/>
<polygon fill="#4A148C" points="289.361,83.683 245.506,31.421 228.684,48.244 280.953,92.089 "/>
<path fill="#4A148C" d="M192.653,546.047c-46.574,0-84.327,37.752-84.327,84.324c0,46.58,37.752,84.328,84.327,84.328
	c46.564,0,84.327-37.75,84.327-84.328C276.98,583.799,239.218,546.047,192.653,546.047z M192.653,658.49
	c-15.525,0-28.109-12.596-28.109-28.121c0-15.521,12.584-28.109,28.109-28.109c15.524,0,28.108,12.588,28.108,28.109
	C220.762,645.898,208.169,658.49,192.653,658.49z"/>
<polygon fill="#4A148C" points="339.158,67.964 345.11,0 321.319,0.008 327.263,67.964 "/>
<polygon fill="#4A148C" points="437.729,48.244 420.897,31.421 377.051,83.683 385.458,92.089 "/>
<path fill="#4A148C" d="M361.297,461.721V144.427c15.525,0,28.118-12.584,28.118-28.108s-12.584-28.108-28.118-28.108h-56.209
	c-15.523,0-28.108,12.584-28.108,28.108s12.585,28.108,28.108,28.108h0.503C145.831,170.991,24,309.761,24,477.062v68.984v56.217
	c0,15.525,12.584,28.107,28.108,28.107h35.13c0-58.115,47.29-105.402,105.415-105.402s105.415,47.279,105.415,105.402H767.95
	c0-58.115,47.28-105.402,105.406-105.402c58.124,0,105.424,47.279,105.424,105.402h35.135c15.524,0,28.109-12.582,28.109-28.107
	v-56.217v-19.924v-36.295c0-15.521-12.585-28.107-28.109-28.107H814.526H473.442H361.297z M305.098,370.287H71.05
	c37.205-101.112,125.771-177.333,234.037-197.221v197.221H305.098z"/>
<g transform="translate(0.000000,245.000000) scale(0.100000,-0.100000)">
	<path fill="#4A148C" d="M6219.477,1185.336c-9.668,1.387-40.054-26.23-198.901-179.58l-55.278-53.867l-46.938,23.506
		c-73.223,35.894-201.68,28.994-341.221-19.355c-62.144-22.1-75.977-33.149-109.106-93.926
		c-51.108-93.955-84.277-209.976-80.132-277.666c4.131-60.776,46.953-168.525,80.132-203.066
		c19.307-19.331-33.179-114.653-266.636-482.085c-17.93-27.637-28.999-33.154-42.783-23.491
		c-30.415,19.341-192.041,67.686-255.596,75.967c-171.279,23.486-410.244-5.518-566.338-70.439
		c-46.968-20.703-49.722-23.486-26.245-40.068c20.708-16.562,15.186-22.104-64.917-63.535
		c-117.432-59.414-196.138-118.794-288.726-216.865c-183.725-193.394-273.486-406.118-283.164-669.98
		c-9.678-243.091,42.808-432.329,174.057-625.728c140.894-207.227,331.509-346.758,578.789-422.715
		c82.861-24.844,136.738-31.777,269.355-31.777c215.488,0,314.966,20.703,475.181,102.227
		c125.718,63.555,265.234,171.289,339.805,265.215c88.423,110.508,142.31,205.82,187.871,339.824
		c38.711,111.875,47.012,168.516,47.012,335.659v147.793l37.266-26.23c19.365-13.823,40.063-26.24,45.586-26.24
		c16.587,0-11.055,190.625-33.154,233.457c-6.899,12.417-13.813,26.255-13.813,31.763
		c-15.21,87.017-116.025,259.702-236.211,404.731l-91.162,110.513l192.002,321.87c106.362,176.797,194.771,319.097,196.147,317.705
		c2.778-2.769,8.301-38.677,13.799-80.112c8.315-70.454,12.432-103.613,27.646-193.398c12.432-77.354,37.3-230.688,41.416-262.461
		c2.778-19.346,8.291-52.485,12.446-75.977c2.778-22.09,9.678-64.917,13.848-92.544c4.131-29.004,17.954-106.377,28.984-172.671
		c22.109-116.03,44.199-248.657,55.254-321.88c12.432-75.947,23.477-136.733,49.731-269.341
		c15.2-75.957,31.763-156.094,34.546-178.223c16.572-89.766,92.549-295.586,132.617-356.367
		c73.193-114.648,182.314-167.129,377.07-182.363c60.83-5.508,135.391-12.422,165.781-15.176
		c30.4-4.141,110.518-9.668,179.58-15.195c67.686-4.141,146.416-11.035,172.695-13.809c118.76-13.828,459.971-15.195,513.848-2.773
		c33.164,6.914,69.082,15.195,80.117,17.969c41.455,8.281,149.17,60.801,179.609,85.645
		c88.369,71.855,147.803,167.129,160.225,255.547c12.432,82.891,6.895,80.117,176.807,80.117h157.461l11.055-44.199
		c13.828-69.062,95.322-227.93,156.113-306.66c157.451-208.594,379.844-349.512,629.902-402.012
		c120.176-24.844,353.643-17.949,469.629,13.848c390.947,104.98,701.768,443.398,762.539,830.215
		c12.441,86.992,12.441,298.369-1.387,375.723l-11.045,58.008h70.439c38.682,0,70.459,5.532,70.459,11.079
		c0,28.975-44.16,175.391-71.807,233.408c-158.877,346.724-486.279,563.613-962.842,638.198
		c-48.34,8.281-92.549,11.035-98.086,8.281c-5.508-4.146-30.361,17.954-53.857,46.982
		c-89.785,110.493-185.107,125.693-273.496,45.562c-44.219-41.431-132.627-84.272-172.695-87.012
		c-2.764,0-29.004-5.532-59.395-12.441c-161.611-37.295-487.637-44.204-614.717-13.818
		c-120.166,28.999-236.191,104.985-262.432,172.681c-17.969,45.576-623.027,363.311-968.349,508.35
		c-302.51,127.095-461.387,153.33-616.084,100.835c-69.082-23.486-158.877-92.544-172.661-132.607
		c-5.562-16.577-11.079-16.577-41.455,2.764c-29.038,19.346-38.691,41.436-52.485,122.93
		c-12.437,71.831-12.437,107.759-1.406,131.221c16.616,38.677,174.062,157.485,207.217,157.485
		c12.422,0,71.846-16.587,132.617-35.908c60.762-19.355,158.848-49.731,216.895-66.309l106.348-31.777l42.842,44.194
		c24.854,24.868,38.672,48.345,31.729,52.5c-11.045,6.914-395.049,114.653-453.076,127.08
		c-15.195,4.155-67.676,17.964-117.417,33.159C6269.199,1171.547,6225.009,1183.969,6219.477,1185.336z"/>
</g>
</svg>
