<?xml version="1.0" encoding="utf-8"?>
<!-- Generator: Adobe Illustrator 16.0.0, SVG Export Plug-In . SVG Version: 6.00 Build 0)  -->
<!DOCTYPE svg PUBLIC "-//W3C//DTD SVG 1.1//EN" "http://www.w3.org/Graphics/SVG/1.1/DTD/svg11.dtd">
<svg version="1.1" id="Layer_1" xmlns="http://www.w3.org/2000/svg" xmlns:xlink="http://www.w3.org/1999/xlink" x="0px" y="0px"
	 width="1280px" height="720px" viewBox="0 0 1280 720" enable-background="new 0 0 1280 720" xml:space="preserve">
<path fill="#FFFFFF" d="M936.187,498.859c-32.256-32.264-93.326-33.192-100.375-33.192c-7.755,0-19.778-4.961-25.229-10.411
	L682.609,327.283l151.596-151.589c3.802,1.692,7.928,2.643,12.205,2.643c8.042,0,15.609-3.132,21.305-8.827l62.294-62.309
	l-42.595-42.602l-62.31,62.294c-5.694,5.695-8.834,13.263-8.827,21.305c0,4.291,0.951,8.41,2.643,12.218L667.338,312.005
	L547.675,192.341c-5.487-5.486-10.455-17.546-10.411-25.301c0.014-2.729-0.058-67.169-33.199-100.303
	c-32.264-32.271-93.319-33.199-100.304-33.199c-13.694,0.072-18.252,7.56-19.569,10.778c-1.318,3.218-3.355,11.743,6.329,21.427
	l43.611,43.61c3.318,3.327,3.318,8.733,0,12.06l-27.332,27.331c-3.189,3.19-8.87,3.183-12.06,0l-43.61-43.61
	c-4.961-4.968-10.188-7.488-15.509-7.488c-8.251,0-16.618,6.408-16.683,20.729c-0.014,2.729,0.058,67.169,33.199,100.303
	c32.263,32.263,93.319,33.199,100.375,33.199c7.762,0,19.786,4.961,25.229,10.411l119.663,119.665l-37.979,37.979l-19.699-19.685
	c-5.688-5.695-13.248-8.835-21.298-8.835s-15.609,3.133-21.305,8.828L319.441,577.908c-5.695,5.695-8.827,13.262-8.82,21.319
	c0,8.042,3.146,15.603,8.827,21.269l54.669,54.691c5.688,5.681,13.255,8.812,21.298,8.812c8.042,0,15.609-3.132,21.305-8.82
	l177.667-177.667c11.743-11.75,11.743-30.859,0-42.609l-19.706-19.692l37.98-37.979l127.965,127.966
	c5.494,5.493,10.455,17.553,10.411,25.314c-0.014,2.729,0.065,67.154,33.199,100.304C816.508,683.064,877.571,684,884.426,684h0.129
	c13.688-0.072,18.238-7.561,19.562-10.778c1.325-3.211,3.355-11.736-6.328-21.42l-43.596-43.604
	c-3.334-3.326-3.334-8.748-0.008-12.074l27.331-27.324c3.189-3.189,8.87-3.189,12.067,0l43.604,43.604
	c4.961,4.968,10.188,7.488,15.516,7.488c8.251,0,16.61-6.408,16.683-20.729C969.4,596.44,969.328,532.008,936.187,498.859z
	 M884.426,673.2L884.426,673.2L884.426,673.2L884.426,673.2z"/>
</svg>
