<?xml version="1.0" encoding="utf-8"?>
<!-- Generator: Adobe Illustrator 16.0.0, SVG Export Plug-In . SVG Version: 6.00 Build 0)  -->
<!DOCTYPE svg PUBLIC "-//W3C//DTD SVG 1.1//EN" "http://www.w3.org/Graphics/SVG/1.1/DTD/svg11.dtd">
<svg version="1.1" id="Layer_1" xmlns="http://www.w3.org/2000/svg" xmlns:xlink="http://www.w3.org/1999/xlink" x="0px" y="0px"
	 width="1280px" height="800px" viewBox="0 0 1280 800" enable-background="new 0 0 1280 800" xml:space="preserve">
<path fill="#FFFFFF" d="M910.4,618.8c0,8.8-7.2,16-16,16c-8.803,0-16-7.2-16-16c0-0.8,0-0.8,0-1.601L840,578.8l-1.6-1.601
	c-1.603-1.602-1.603-3.199,0-4.8L848.8,562c1.603-1.601,3.2-1.601,4.8,0l1.603,1.6l8.8,8.802L893.6,602c0.803,0,0.803,0,1.603,0
	C903.2,602,910.4,609.199,910.4,618.8z M1017.8,529.199l16.8-16.8c7.2-7.2,7.2-18.399,0-25.602l-7.197-7.2
	c-7.2-7.198-18.4-7.198-25.603,0L985,496.399c-20-15.2-44.8-25.602-71.2-28.802V454h16.8c9.603,0,18.4-8,18.4-18.4V425.2
	c0-9.602-8-18.399-18.4-18.399h-36h-36c-9.6,0-18.397,8-18.397,18.399V435.6c0,9.602,8,18.4,18.397,18.4H875.4v13.6
	C849,470.8,825,481.2,804.2,496.4l-16-16c-7.2-7.2-18.4-7.2-25.603,0L755.4,487.6c-7.2,7.2-7.2,18.4,0,25.602l16.8,16.8
	c-17.602,24.8-28.8,55.199-28.8,88.8c0,83.2,68,151.2,151.198,151.2c83.199,0,151.199-68,151.199-151.2
	C1046.6,585.199,1036.2,554,1017.8,529.199z M894.4,716.399c-54.4,0-99.2-44-99.2-99.2c0-54.399,44-99.199,99.2-99.199
	c54.397,0,99.197,44,99.197,99.199C993.6,672.399,948.8,716.399,894.4,716.399z M543.235,194.344
	c-69.148-2.708-99.878-7.819-99.878-7.819c-8.446,0.021-15.293,6.891-15.271,15.343l0.021,9.101
	c0.015,8.46,6.884,15.286,15.336,15.271c0,0,18.871,5.011,87.754,7.747C532.666,219.782,536.856,206.404,543.235,194.344z
	 M851.898,200.896c-0.027-8.453-6.883-15.286-15.351-15.271c0,0-30.895,5.249-100.021,8.273
	c6.438,12.024,10.686,25.387,12.226,39.571c68.817-3.045,87.891-8.128,87.891-8.128c8.453-0.022,15.293-6.883,15.278-15.343
	L851.898,200.896z M639.802,157.048c-48.809,0.115-88.278,39.766-88.164,88.567c0.115,48.802,39.767,88.278,88.567,88.164
	c48.801-0.115,88.279-39.766,88.179-88.567C728.254,196.403,688.604,156.94,639.802,157.048z M640.133,299.227
	c-29.722,0.072-53.877-23.976-53.956-53.698c-0.064-29.721,23.982-53.87,53.697-53.942c29.714-0.072,53.863,23.969,53.936,53.698
	C693.881,275.006,669.848,299.162,640.133,299.227z M821.257,40.574c29.72,0,53.812,24.093,53.812,53.813
	c0,29.72-24.093,53.812-53.812,53.812c-29.721,0-53.812-24.093-53.812-53.812C767.443,64.667,791.536,40.574,821.257,40.574z
	 M458.743,40.574c29.721,0,53.812,24.093,53.812,53.813c0,29.72-24.093,53.812-53.812,53.812s-53.812-24.093-53.812-53.812
	C404.931,64.667,429.023,40.574,458.743,40.574z M693.91,689.87c0,22.953-18.599,41.559-41.552,41.559h-24.71
	c-22.954,0-41.56-18.611-41.56-41.559V457.749c0-22.954,18.619-41.559,41.56-41.559h24.71c22.953,0,41.552,18.611,41.552,41.559
	V689.87z M693.91,396.34v-3.44c0-22.953-18.599-41.552-41.552-41.552h-24.71c-22.939,0-41.56,18.599-41.56,41.552v3.44H693.91z
	 M709.152,328.07c0-8.051,6.529-14.58,14.58-14.58h8.669c8.026,0,14.564,6.522,14.564,14.58V472.5c0,0-13.604,14.263-13,26.333
	c0.533,10.667,13,23.917,13,23.917v46.218c0,8.027-6.522,14.572-14.564,14.572h-8.669c-8.051,0-14.58-6.523-14.58-14.572V328.07z
	 M806.479,469.294c0.586-2.529,0.745-5.183,0.745-7.875v-85.716c0-22.946-18.598-41.565-41.559-41.565h-3.435V460.25
	c0,0,13.398-2.251,22.08,2.001C794.986,467.479,804.75,476.75,806.479,469.294z M533.04,328.07c0-8.051,6.509-14.58,14.565-14.58
	h8.677c8.042,0,14.564,6.522,14.564,14.58v240.897c0,8.027-6.517,14.572-14.564,14.572h-8.677c-8.058,0-14.565-6.523-14.565-14.572
	V328.07z M517.776,314.138h-3.436c-22.953,0-41.559,18.591-41.559,41.552v85.717c0,22.953,18.598,41.558,41.559,41.558h3.436
	V314.138z"/>
</svg>
