<?xml version="1.0" encoding="utf-8"?>
<!-- Generator: Adobe Illustrator 16.0.0, SVG Export Plug-In . SVG Version: 6.00 Build 0)  -->
<!DOCTYPE svg PUBLIC "-//W3C//DTD SVG 1.1//EN" "http://www.w3.org/Graphics/SVG/1.1/DTD/svg11.dtd">
<svg version="1.1" id="Layer_1" xmlns="http://www.w3.org/2000/svg" xmlns:xlink="http://www.w3.org/1999/xlink" x="0px" y="0px"
	 width="1280px" height="800px" viewBox="0 0 1280 800" enable-background="new 0 0 1280 800" xml:space="preserve">
<g>
	<path fill="#FFFFFF" d="M278,242h36l-2,6c-34,106-50,154,20,294c10,22,16,44,16,62c-2,10-4,18-8,24c-4,8-10,12-16,16
		c-10,4-20,8-34,6v16c16,2,30,0,40-6c12-6,18-14,24-22c6-10,10-22,10-34c0-20-4-44-18-70c-66-134-52-180-18-282l2-10h24
		c14,0,24-10,24-24c0-12-8-22-20-26l6-12h40v6h22v-44h-22v6h-62c-6,0-10,4-12,8l-12,36h-40V242z M888,182c6,0,12,4,12,12
		c0,6-6,10-12,10c-8,0-12-4-12-10C876,186,880,182,888,182z M848,148c6,0,12,6,12,12c0,8-6,12-12,12s-12-4-12-12
		C836,154,842,148,848,148z M802,214c8,0,12,6,10,12c0,8-6,12-14,10c-6,0-10-6-8-14C790,216,796,212,802,214z M800,126
		c6,0,12,4,12,12c0,6-6,12-12,12s-12-6-12-12C788,130,794,126,800,126z M758,190c6,2,10,8,8,14c0,6-6,10-12,10c-8-2-12-8-10-14
		C744,194,750,190,758,190z M752,110c6,0,12,6,12,12s-6,12-12,12s-12-6-12-12S746,110,752,110z M710,174c6,0,10,6,10,12
		c-2,8-8,12-14,10c-6,0-10-6-10-14C698,176,704,172,710,174z M702,102c6,0,12,4,12,12c0,6-6,10-12,10s-12-4-12-10
		C690,106,696,102,702,102z M652,224c6,2,10,8,8,14c0,2-2,2-2,4h160c28,0,60,20,70,40c14,26,28,52,44,78h50c10,0,20,10,20,20v16
		c0,16-14,28-30,28h-4l4,10c20,34,32,140-2,192v56c0,12-8,20-20,20h-30c-10,0-20-8-20-20v-26H484v26c0,12-10,20-20,20h-30
		c-12,0-20-8-20-20v-52c-38-50-26-160-4-196l4-10h-4c-16,0-30-12-30-28v-16c0-10,10-20,20-20h50c16-26,30-52,44-78
		c10-20,40-40,70-40h76c-4-4-4-8-2-12C640,224,646,222,652,224z M662,160c6,2,10,8,10,14c-2,6-8,12-14,10s-10-8-10-14
		C650,164,656,160,662,160z M652,98c8,0,12,4,12,12c0,6-4,10-12,10c-6,0-10-4-10-10C642,102,646,98,652,98z M606,208c6,2,8,8,6,14
		s-8,10-14,8s-10-10-8-16S600,206,606,208z M612,152c8,2,12,8,10,14c0,6-6,12-14,10c-6-2-10-8-8-14C600,156,606,152,612,152z
		 M604,98c6,0,10,6,10,12s-4,12-10,12c-8,0-12-6-12-12S596,98,604,98z M556,196c6,2,10,8,8,14s-8,10-16,8c-6-2-8-10-6-16
		S550,194,556,196z M564,150c6,0,10,6,8,12c0,8-6,12-12,10c-8,0-12-6-10-12C550,152,556,148,564,150z M554,102c6,0,12,6,12,12
		s-6,12-12,12c-8,0-12-6-12-12S546,102,554,102z M508,184c6,2,10,8,8,14s-8,10-16,8c-6-2-8-10-6-16S502,182,508,184z M512,148
		c6,0,10,6,10,12c-2,8-8,12-14,10c-6,0-10-6-10-14C500,150,506,146,512,148z M504,112c8,0,12,6,12,12s-4,12-12,12c-6,0-10-6-10-12
		S498,112,504,112z M458,170c6,0,10,6,10,12c-2,8-8,12-14,10c-6,0-10-6-10-14C446,172,452,168,458,170z M456,128c6,0,12,6,12,12
		s-6,12-12,12s-12-6-12-12S450,128,456,128z M642,344c4,0,8,0,12,0c2-12,8-22,16-32l0,0c10-10,24-16,38-16c10,0,20,4,28,8
		c6,4,12,10,16,14c4-2,10-4,14-6c8-2,18-4,26-4c18,0,34,6,46,16c10,8,20,20,24,32c2,0,2,0,2,0c8,0,14,2,20,4l-26-62
		c-6-12-32-22-40-22H564c-10,0-34,10-42,22l-50,128h118c-4-8-6-16-6-24c0-16,8-30,18-42C612,350,626,344,642,344z M650,360
		c-2,0-4,0-8,0c-10,0-22,4-28,12c-8,8-12,18-12,30s4,22,12,30c6,6,18,12,28,12h222c10,0,20-4,26-10c6-8,10-16,10-26s-4-18-10-24
		s-16-10-26-10h-2l0,0c-2,0-2,0-4,0l-8,2l-2-8c-2-12-10-24-20-32s-22-12-36-12c-6,0-14,2-20,4s-12,6-16,10l-10,6l-4-10
		c-2-6-8-12-14-14c-6-4-12-6-20-6c-10,0-20,4-26,10l0,0c-8,8-12,16-12,28v2l0,0l2,14l-14-4C656,362,654,362,650,360z M892,496
		c-22,0-44,18-50,40s6,40,28,40s46-18,52-40S914,496,892,496z M459.854,536c6,22,30,40,52,40s34-18,28-40s-28-40-50-40
		S453.854,514,459.854,536z M606.008,599.327C625,599.5,768.523,602.215,791.49,596.32c21.309-5.47,17.044-22.406-5.171-27.554
		c-21.304-4.936-162.36-6.021-183.976,0.694C581.336,575.989,583.205,599.119,606.008,599.327z"/>
</g>
</svg>
