<?xml version="1.0" encoding="utf-8"?>
<!-- Generator: Adobe Illustrator 16.0.0, SVG Export Plug-In . SVG Version: 6.00 Build 0)  -->
<!DOCTYPE svg PUBLIC "-//W3C//DTD SVG 1.1//EN" "http://www.w3.org/Graphics/SVG/1.1/DTD/svg11.dtd">
<svg version="1.1" id="Layer_1" xmlns="http://www.w3.org/2000/svg" xmlns:xlink="http://www.w3.org/1999/xlink" x="0px" y="0px"
	 width="1080px" height="800px" viewBox="0 0 1080 800" enable-background="new 0 0 1080 800" xml:space="preserve">
<path fill="#4A148C" d="M591.505,660.717c-5.915-20.705-9.859-42.396-9.859-64.085c0-36.48,8.874-71.974,25.634-103.523
	c-22.672-22.677-22.672-60.143,0-83.805l8.874-8.873c22.677-22.676,60.142-22.676,82.818-0.986c1.972-0.987,4.93-1.973,6.901-3.944
	l0,0c-2.953-6.902-4.93-15.775-4.93-23.663v-12.816c0-32.535,26.625-59.156,59.156-59.156h88.733c4.93,0,10.851,0.987,15.78,1.973
	c-5.921-6.902-11.836-12.815-17.748-19.719c-1.971-1.973-3.943-1.973-5.915-3.943c0.985-0.986,0.985-1.972,1.972-2.958
	c6.905,0,13.803,0,19.719,0c16.765,0,33.521,0,50.282,0c16.765,0,27.606-10.846,28.592-27.605c0-10.846,0-22.677,0-33.522
	c-0.989-15.777-10.849-26.623-26.623-26.623c-5.915,0-11.835,0-17.747,0c-32.531,0-55.212,37.464-55.212,37.464
	c-1.972,4.929-4.93,8.874-8.874,14.789c-3.943-13.803-6.9-25.634-9.859-36.479c-13.803-49.296-35.493-95.636-65.071-137.044
	c-20.704-29.578-50.282-39.438-82.818-45.353C616.153,10.986,556.012,10,496.856,10c-60.142,0-119.298,0.986-178.454,10.845
	c-32.537,5.916-62.114,16.761-82.819,45.353c-29.578,42.395-51.269,87.748-65.071,137.044c-2.958,10.846-5.916,22.675-9.859,36.479
	c-3.944-6.901-6.903-10.845-8.874-14.789c0,0-22.676-37.464-55.212-37.464c-5.916,0-11.832,0-17.748,0
	c-15.774,0.986-25.634,11.832-26.62,26.62c0,10.845,0,22.676,0,33.521c0,16.761,11.831,27.605,28.592,27.605
	c16.761,0,33.522,0,50.283,0c6.901,0,13.803,0,19.719,0c0.986,0.987,0.986,1.973,1.971,2.958c-1.971,0.986-4.929,1.972-5.915,3.943
	c-42.395,40.423-65.071,89.72-64.086,148.876c0.986,35.497,3.944,70.005,7.888,105.498c2.958,26.621,8.874,53.24,21.69,77.889
	c4.93,10.845,11.832,18.729,23.663,20.704c5.916,0.987,5.916,4.93,5.916,8.874c0,14.789,0,28.589,0,43.378
	c0,20.708,11.831,32.536,32.536,32.536c17.746,0,34.508,0,52.253,0c22.677,0,33.522-11.832,33.522-33.522
	c0-10.845,0-22.673,0-34.508c79.86,5.916,158.735,8.874,237.61,8.874C528.405,662.688,559.956,661.703,591.505,660.717z
	 M210.935,249.582c12.818-53.24,32.537-102.537,60.142-149.862c1.975-2.958,2.958-4.93,4.93-5.916l0,0l0,0
	c1.975-1.973,3.944-2.958,6.905-3.944c17.744-7.887,70.987-23.662,212.961-24.648c141.975,0.986,195.21,16.761,212.961,24.648
	c2.958,0.986,4.93,1.972,6.9,3.944l0,0l0,0c1.977,1.972,3.944,3.943,4.93,5.916c27.607,46.339,47.326,96.621,60.146,149.862
	c0.986,3.944,0.986,7.887,1.972,9.859c-95.641-7.886-192.263-12.816-287.898-12.816c-95.639,0-191.271,3.943-287.896,12.816
	C208.963,257.47,209.95,253.527,210.935,249.582z M225.724,475.361c-34.508,0-63.1-28.589-63.1-63.097
	c0-34.507,28.592-63.1,63.1-63.1s63.1,28.592,63.1,63.1C287.838,446.769,260.232,475.361,225.724,475.361z M825.172,597.617
	c0,10.845-8.873,19.719-19.719,19.719c-10.85,0-19.719-8.874-19.719-19.719c0-0.985,0-0.985,0-1.973l-47.325-47.324l-1.971-1.973
	c-1.977-1.975-1.977-3.942,0-5.915l12.816-12.816c1.976-1.973,3.943-1.973,5.915,0l1.977,1.972l10.845,10.849l36.476,36.477
	c0.99,0,0.99,0,1.976,0C816.299,576.913,825.172,585.785,825.172,597.617z M956.301,487.191l20.704-20.704
	c8.873-8.873,8.873-22.676,0-31.553l-8.869-8.874c-8.873-8.87-22.677-8.87-31.554,0l-20.705,20.708
	c-24.647-18.732-55.212-31.553-87.748-35.497v-16.756h20.704c11.836,0,22.678-9.859,22.678-22.677v-12.816
	c0-11.833-9.859-22.676-22.678-22.676h-44.366H760.1c-11.831,0-22.672,9.859-22.672,22.676v12.816
	c0,11.833,9.859,22.677,22.672,22.677h20.705v16.76c-32.536,3.944-62.114,16.762-87.748,35.495l-19.719-19.719
	c-8.873-8.874-22.677-8.874-31.555,0l-8.868,8.872c-8.874,8.874-8.874,22.677,0,31.553l20.704,20.705
	c-21.693,30.563-35.493,68.028-35.493,109.438c0,102.538,83.805,186.342,186.338,186.342c102.536,0,186.341-83.804,186.341-186.342
	C991.794,556.207,978.978,517.757,956.301,487.191z M805.453,717.9c-67.044,0-122.256-54.227-122.256-122.256
	c0-67.043,54.227-122.255,122.256-122.255c67.039,0,122.251,54.227,122.251,122.255C927.708,663.674,872.496,717.9,805.453,717.9z"
	/>
</svg>
