<?xml version="1.0" encoding="utf-8"?>
<!-- Generator: Adobe Illustrator 16.0.0, SVG Export Plug-In . SVG Version: 6.00 Build 0)  -->
<!DOCTYPE svg PUBLIC "-//W3C//DTD SVG 1.1//EN" "http://www.w3.org/Graphics/SVG/1.1/DTD/svg11.dtd">
<svg version="1.1" id="Layer_1" xmlns="http://www.w3.org/2000/svg" xmlns:xlink="http://www.w3.org/1999/xlink" x="0px" y="0px"
	 width="1280px" height="800px" viewBox="0 0 1280 800" enable-background="new 0 0 1280 800" xml:space="preserve">
<path fill="#FFFFFF" d="M701.8,610c-4.8-16.801-8-34.4-8-52c0-29.601,7.2-58.4,20.8-84c-18.398-18.4-18.398-48.801,0-68l7.2-7.2
	c18.4-18.4,48.8-18.4,67.2-0.8c1.6-0.801,4-1.601,5.6-3.2l0,0c-2.398-5.601-4-12.8-4-19.2v-10.4c0-26.399,21.602-48,48-48h72
	c4,0,8.802,0.801,12.802,1.601c-4.802-5.601-9.602-10.4-14.4-16c-1.6-1.601-3.2-1.601-4.8-3.2c0.8-0.8,0.8-1.6,1.6-2.4
	c5.602,0,11.2,0,16,0c13.602,0,27.2,0,40.8,0c13.602,0,22.4-8.8,23.2-22.399c0-8.8,0-18.4,0-27.2C985,234.8,977,226,964.2,226
	c-4.8,0-9.602,0-14.4,0c-26.398,0-44.8,30.399-44.8,30.399c-1.6,4-4,7.2-7.2,12c-3.2-11.2-5.6-20.8-8-29.6
	c-11.2-40-28.8-77.601-52.8-111.2c-16.8-24-40.8-32-67.2-36.8c-48-8-96.8-8.8-144.8-8.8c-48.8,0-96.8,0.8-144.8,8.8
	c-26.4,4.8-50.4,13.6-67.2,36.8c-24,34.4-41.6,71.2-52.8,111.2c-2.4,8.8-4.8,18.399-8,29.6c-3.2-5.6-5.601-8.8-7.2-12
	c0,0-18.4-30.399-44.8-30.399c-4.8,0-9.6,0-14.4,0c-12.8,0.8-20.8,9.6-21.6,21.6c0,8.8,0,18.4,0,27.2c0,13.6,9.6,22.399,23.2,22.399
	s27.2,0,40.8,0c5.6,0,11.2,0,16,0c0.8,0.801,0.8,1.601,1.6,2.4c-1.6,0.8-4,1.6-4.8,3.2c-34.4,32.8-52.8,72.8-52,120.8
	c0.8,28.801,3.2,56.801,6.4,85.601c2.4,21.601,7.2,43.2,17.6,63.2c4,8.8,9.6,15.199,19.2,16.8c4.8,0.801,4.8,4,4.8,7.2
	c0,12,0,23.199,0,35.199c0,16.801,9.6,26.4,26.4,26.4c14.399,0,28,0,42.399,0c18.4,0,27.2-9.601,27.2-27.2c0-8.8,0-18.399,0-28
	c64.8,4.8,128.8,7.2,192.8,7.2C650.6,611.6,676.2,610.8,701.8,610z M393,276.399c10.4-43.2,26.4-83.2,48.8-121.6
	c1.601-2.4,2.4-4,4-4.8l0,0l0,0c1.601-1.601,3.2-2.4,5.601-3.2c14.399-6.4,57.6-19.2,172.8-20c115.2,0.8,158.398,13.6,172.8,20
	c2.4,0.8,4,1.6,5.6,3.2l0,0l0,0c1.602,1.6,3.2,3.199,4,4.8c22.4,37.6,38.4,78.399,48.802,121.6c0.8,3.2,0.8,6.4,1.6,8
	C779.4,278,701,274,623.4,274c-77.601,0-155.2,3.199-233.601,10.399C391.4,282.8,392.2,279.6,393,276.399z M405,459.6
	c-28,0-51.2-23.199-51.2-51.199c0-28,23.2-51.2,51.2-51.2s51.2,23.2,51.2,51.2C455.4,436.399,433,459.6,405,459.6z M891.4,558.8
	c0,8.8-7.2,16-16,16c-8.802,0-16-7.2-16-16c0-0.8,0-0.8,0-1.601L821,518.8l-1.6-1.601c-1.602-1.601-1.602-3.199,0-4.8L829.8,502
	c1.602-1.601,3.2-1.601,4.8,0l1.602,1.6l8.8,8.801L874.6,542c0.802,0,0.802,0,1.602,0C884.2,542,891.4,549.199,891.4,558.8z
	 M997.8,469.199l16.8-16.8c7.2-7.2,7.2-18.399,0-25.601l-7.198-7.2c-7.2-7.199-18.4-7.199-25.602,0L965,436.399
	c-20-15.2-44.8-25.601-71.2-28.801V394h16.8c9.602,0,18.4-8,18.4-18.4v-10.4c0-9.6-8-18.399-18.4-18.399h-36h-36
	c-9.6,0-18.398,8-18.398,18.399v10.4c0,9.6,8,18.4,18.398,18.4H855.4v13.6C829,410.8,805,421.2,784.2,436.4l-16-16
	c-7.2-7.2-18.4-7.2-25.602,0L735.4,427.6c-7.2,7.2-7.2,18.4,0,25.601l16.8,16.8c-17.601,24.8-28.8,55.199-28.8,88.8
	c0,83.2,68,151.2,151.199,151.2s151.199-68,151.199-151.2C1026.6,525.199,1016.2,494,997.8,469.199z M875.4,656.399
	c-54.4,0-99.2-44-99.2-99.2c0-54.399,44-99.199,99.2-99.199c54.398,0,99.198,44,99.198,99.199
	C974.6,612.399,929.8,656.399,875.4,656.399z"/>
</svg>
