<?xml version="1.0" encoding="utf-8"?>
<!-- Generator: Adobe Illustrator 16.0.0, SVG Export Plug-In . SVG Version: 6.00 Build 0)  -->
<!DOCTYPE svg PUBLIC "-//W3C//DTD SVG 1.1//EN" "http://www.w3.org/Graphics/SVG/1.1/DTD/svg11.dtd">
<svg version="1.1" id="Layer_1" xmlns="http://www.w3.org/2000/svg" xmlns:xlink="http://www.w3.org/1999/xlink" x="0px" y="0px"
	 width="1080px" height="800px" viewBox="0 0 1080 800" enable-background="new 0 0 1080 800" xml:space="preserve">
<g>
	<path fill="#4A148C" d="M70.5,200.666h46.542l-2.585,7.757C70.5,345.461,49.815,407.517,140.312,588.511
		c12.928,28.442,20.685,56.885,20.685,80.155c-2.585,12.928-5.171,23.271-10.342,31.027c-5.171,10.343-12.928,15.514-20.685,20.686
		c-12.928,5.171-25.856,10.342-43.956,7.757v20.685c20.685,2.586,38.785,0,51.713-7.757c15.514-7.757,23.271-18.1,31.027-28.442
		c7.757-12.928,12.928-28.441,12.928-43.955c0-25.856-5.171-56.884-23.271-90.497c-85.326-173.238-67.227-232.708-23.271-364.575
		l2.585-12.928h31.027c18.1,0,31.028-12.929,31.028-31.028c0-15.514-10.342-28.442-25.856-33.613l7.757-15.514h51.713v7.757h28.442
		V71.384h-28.442v7.757H153.24c-7.757,0-12.928,5.171-15.514,10.343l-15.514,46.542H70.5V200.666z M859.119,123.097
		c7.757,0,15.514,5.171,15.514,15.514c0,7.757-7.757,12.928-15.514,12.928c-10.343,0-15.514-5.171-15.514-12.928
		C843.605,128.268,848.776,123.097,859.119,123.097z M807.406,79.141c7.757,0,15.514,7.757,15.514,15.514
		c0,10.342-7.757,15.514-15.514,15.514s-15.514-5.171-15.514-15.514C791.893,86.898,799.649,79.141,807.406,79.141z
		 M747.937,164.467c10.343,0,15.514,7.757,12.928,15.514c0,10.343-7.757,15.514-18.099,12.928c-7.758,0-12.929-7.757-10.343-18.099
		C732.423,167.053,740.18,161.881,747.937,164.467z M745.351,50.699c7.757,0,15.514,5.171,15.514,15.514
		c0,7.757-7.757,15.514-15.514,15.514s-15.514-7.757-15.514-15.514C729.837,55.87,737.594,50.699,745.351,50.699z M691.053,133.439
		c7.757,2.585,12.928,10.342,10.343,18.099c0,7.757-7.757,12.928-15.515,12.928c-10.342-2.585-15.514-10.342-12.928-18.1
		C672.953,138.61,680.71,133.439,691.053,133.439z M683.296,30.014c7.757,0,15.514,7.757,15.514,15.514
		c0,7.757-7.757,15.514-15.514,15.514s-15.514-7.757-15.514-15.514C667.782,37.771,675.539,30.014,683.296,30.014z M628.997,112.754
		c7.757,0,12.929,7.757,12.929,15.514c-2.586,10.342-10.343,15.514-18.1,12.928c-7.757,0-12.928-7.757-12.928-18.1
		C613.483,115.34,621.24,110.168,628.997,112.754z M618.655,19.671c7.757,0,15.514,5.171,15.514,15.514
		c0,7.757-7.757,12.928-15.514,12.928c-7.757,0-15.514-5.171-15.514-12.928C603.141,24.843,610.898,19.671,618.655,19.671z
		 M554.014,177.395c7.757,2.585,12.928,10.342,10.343,18.1c0,2.585-2.586,2.585-2.586,5.171h206.851
		c36.199,0,77.569,25.856,90.498,51.712c18.1,33.613,36.198,67.227,56.884,100.84h64.641c12.929,0,25.856,12.928,25.856,25.856
		v20.685c0,20.685-18.1,36.199-38.784,36.199h-5.172l5.172,12.928c25.856,43.956,41.37,180.994-2.586,248.221v72.398
		c0,15.514-10.343,25.856-25.856,25.856h-38.784c-12.929,0-25.856-10.343-25.856-25.856v-33.613H336.82v33.613
		c0,15.514-12.928,25.856-25.856,25.856H272.18c-15.514,0-25.856-10.343-25.856-25.856v-67.227
		c-49.127-64.642-33.613-206.852-5.171-253.393l5.171-12.928h-5.171c-20.685,0-38.785-15.515-38.785-36.199v-20.685
		c0-12.928,12.928-25.856,25.856-25.856h64.641c20.685-33.613,38.785-67.227,56.884-100.84
		c12.928-25.856,51.713-51.712,90.498-51.712H538.5c-5.171-5.171-5.171-10.343-2.585-15.514
		C538.5,177.395,546.257,174.81,554.014,177.395z M566.942,94.655c7.757,2.585,12.928,10.342,12.928,18.099
		c-2.585,7.757-10.342,15.514-18.1,12.928c-7.757-2.585-12.928-10.342-12.928-18.099C551.428,99.826,559.185,94.655,566.942,94.655z
		 M554.014,14.5c10.343,0,15.514,5.171,15.514,15.514c0,7.757-5.171,12.928-15.514,12.928c-7.757,0-12.928-5.171-12.928-12.928
		C541.086,19.671,546.257,14.5,554.014,14.5z M494.544,156.71c7.757,2.585,10.342,10.343,7.757,18.1
		c-2.586,7.757-10.343,12.928-18.1,10.342s-12.928-12.928-10.342-20.685C476.445,156.71,486.787,154.125,494.544,156.71z
		 M502.301,84.312c10.342,2.586,15.514,10.343,12.928,18.1c0,7.757-7.757,15.514-18.1,12.928
		c-7.757-2.586-12.928-10.343-10.343-18.1C486.787,89.483,494.544,84.312,502.301,84.312z M491.958,14.5
		c7.757,0,12.928,7.757,12.928,15.514s-5.171,15.514-12.928,15.514c-10.342,0-15.514-7.757-15.514-15.514S481.616,14.5,491.958,14.5
		z M429.903,141.196c7.757,2.585,12.928,10.342,10.343,18.099c-2.586,7.757-10.343,12.928-20.686,10.343
		c-7.757-2.585-10.342-12.928-7.757-20.685C414.39,141.196,422.146,138.61,429.903,141.196z M440.246,81.727
		c7.757,0,12.928,7.757,10.342,15.514c0,10.343-7.757,15.514-15.514,12.928c-10.343,0-15.514-7.757-12.928-15.514
		C422.146,84.312,429.903,79.141,440.246,81.727z M427.318,19.671c7.757,0,15.514,7.757,15.514,15.514s-7.757,15.514-15.514,15.514
		c-10.343,0-15.514-7.757-15.514-15.514S416.975,19.671,427.318,19.671z M367.848,125.682c7.757,2.586,12.928,10.343,10.342,18.1
		c-2.585,7.757-10.342,12.928-20.685,10.343c-7.757-2.586-10.342-12.928-7.757-20.685
		C352.334,125.682,360.091,123.097,367.848,125.682z M373.02,79.141c7.757,0,12.928,7.757,12.928,15.514
		c-2.585,10.342-10.342,15.514-18.099,12.928c-7.757,0-12.928-7.757-12.928-18.1C357.505,81.727,365.263,76.555,373.02,79.141z
		 M362.677,32.6c10.343,0,15.514,7.757,15.514,15.514s-5.171,15.514-15.514,15.514c-7.757,0-12.928-7.757-12.928-15.514
		S354.92,32.6,362.677,32.6z M303.207,107.583c7.757,0,12.928,7.757,12.928,15.514c-2.585,10.343-10.342,15.514-18.099,12.928
		c-7.757,0-12.928-7.757-12.928-18.1C287.693,110.168,295.45,104.997,303.207,107.583z M300.622,53.285
		c7.757,0,15.514,7.757,15.514,15.514s-7.757,15.514-15.514,15.514s-15.514-7.757-15.514-15.514S292.865,53.285,300.622,53.285z
		 M541.086,332.533c5.171,0,10.342,0,15.514,0c2.585-15.514,10.342-28.442,20.685-41.37l0,0
		c12.928-12.928,31.027-20.685,49.127-20.685c12.928,0,25.855,5.171,36.198,10.342c7.757,5.171,15.514,12.928,20.686,18.1
		c5.171-2.585,12.928-5.171,18.1-7.757c10.342-2.586,23.271-5.171,33.612-5.171c23.271,0,43.956,7.757,59.47,20.685
		c12.929,10.343,25.856,25.856,31.028,41.37c2.585,0,2.585,0,2.585,0c10.343,0,18.1,2.586,25.856,5.171l-33.613-80.155
		c-7.757-15.514-41.37-28.442-51.713-28.442H440.246c-12.928,0-43.956,12.928-54.299,28.442l-64.641,165.48h152.553
		c-5.171-10.343-7.757-20.685-7.757-31.027c0-20.685,10.343-38.785,23.271-54.298C502.301,340.29,520.4,332.533,541.086,332.533z
		 M551.428,353.218c-2.585,0-5.171,0-10.342,0c-12.929,0-28.442,5.171-36.199,15.514c-10.342,10.343-15.514,23.271-15.514,38.785
		s5.171,28.442,15.514,38.784c7.757,7.757,23.271,15.514,36.199,15.514h287.005c12.929,0,25.856-5.171,33.613-12.928
		c7.757-10.343,12.929-20.686,12.929-33.613s-5.172-23.271-12.929-31.027c-7.757-7.757-20.685-12.928-33.613-12.928h-2.585l0,0
		c-2.586,0-2.586,0-5.172,0l-10.342,2.585l-2.586-10.343c-2.586-15.514-12.929-31.027-25.856-41.37
		c-12.929-10.342-28.442-15.514-46.542-15.514c-7.757,0-18.099,2.586-25.855,5.171s-15.514,7.757-20.686,12.928l-12.928,7.757
		l-5.172-12.928c-2.585-7.757-10.342-15.514-18.1-18.1c-7.757-5.171-15.514-7.757-25.855-7.757
		c-12.929,0-25.857,5.171-33.614,12.928l0,0c-10.342,10.343-15.514,20.685-15.514,36.199v2.585l0,0l2.585,18.099l-18.1-5.171
		C559.185,355.804,556.6,355.804,551.428,353.218z M864.29,529.041c-28.442,0-56.884,23.271-64.641,51.713
		c-7.757,28.442,7.757,51.713,36.198,51.713c28.442,0,59.47-23.271,67.227-51.713C910.832,552.312,892.732,529.041,864.29,529.041z
		 M305.604,580.754c7.757,28.442,38.785,51.713,67.227,51.713s43.956-23.271,36.199-51.713
		c-7.757-28.441-36.199-51.713-64.641-51.713C315.946,529.041,297.847,552.312,305.604,580.754z M494.554,662.625
		c24.554,0.223,210.103,3.732,239.795-3.888c27.548-7.074,22.034-28.967-6.686-35.624c-27.544-6.381-209.902-7.784-237.849,0.897
		C462.658,632.453,465.075,662.355,494.554,662.625z"/>
</g>
</svg>
