<?xml version="1.0" encoding="utf-8"?>
<!-- Generator: Adobe Illustrator 16.0.0, SVG Export Plug-In . SVG Version: 6.00 Build 0)  -->
<!DOCTYPE svg PUBLIC "-//W3C//DTD SVG 1.1//EN" "http://www.w3.org/Graphics/SVG/1.1/DTD/svg11.dtd">
<svg version="1.1" id="Layer_1" xmlns="http://www.w3.org/2000/svg" xmlns:xlink="http://www.w3.org/1999/xlink" x="0px" y="0px"
	 width="1080px" height="720px" viewBox="0 -104 1080 720" enable-background="new 0 -104 1080 720" xml:space="preserve">
<path fill="#4A148C" d="M818.909,433.932c-48.487,0-87.809,39.312-87.809,87.808h0.02c0,48.487,39.302,87.8,87.798,87.81
	c48.488-0.013,87.807-39.313,87.807-87.81S867.406,433.932,818.909,433.932z M818.927,551.019
	c-16.166,0-29.277-13.118-29.277-29.283s13.111-29.27,29.277-29.27s29.271,13.104,29.271,29.27S835.093,551.019,818.927,551.019z"/>
<polygon fill="#4A148C" points="351.313,-16.864 305.648,-71.283 288.131,-53.765 342.56,-8.111 "/>
<path fill="#4A148C" d="M250.615,433.932c-48.498,0-87.808,39.312-87.808,87.808s39.31,87.81,87.808,87.81
	c48.486,0,87.807-39.313,87.807-87.81S299.1,433.932,250.615,433.932z M250.615,551.019c-16.166,0-29.271-13.118-29.271-29.283
	s13.104-29.27,29.271-29.27c16.165,0,29.269,13.104,29.269,29.27S266.771,551.019,250.615,551.019z"/>
<polygon fill="#4A148C" points="403.167,-33.233 409.362,-104 384.591,-103.991 390.78,-33.233 "/>
<polygon fill="#4A148C" points="505.805,-53.765 488.278,-71.283 442.623,-16.864 451.379,-8.111 "/>
<path fill="#4A148C" d="M426.22,346.126V66.823c16.166,0,29.278-13.104,29.278-29.269c0-16.166-13.104-29.269-29.278-29.269h-58.528
	c-16.167,0-29.27,13.103-29.27,29.269c0,16.165,13.103,29.269,29.27,29.269h0.524C201.861,94.483,75,238.98,75,413.188v20.744
	v58.538c0,16.165,13.103,29.27,29.269,29.27h36.581c0-60.512,49.24-109.753,109.766-109.753
	c60.523,0,109.766,49.229,109.766,109.753h348.79c0-60.512,49.234-109.753,109.756-109.753c60.524,0,109.776,49.229,109.776,109.753
	h36.587c16.167,0,29.27-13.104,29.27-29.27v-58.538v-20.744v-37.793c0-16.166-13.103-29.272-29.27-29.272h-67.136H542.991
	L426.22,346.126L426.22,346.126z M367.7,302.005H123.992c38.742-105.288,130.962-184.652,243.696-205.362v205.362H367.7z"/>
<path fill="#4A148C" d="M928.684,6.483H811.908h-91.334c-65.511,0-138.705,86.382-182.797,96.212
	c-44.092,9.82-91.182,24.138-91.182,111.724v87.587h34.289c8.994,25.673,33.361,44.116,62.098,44.116
	c28.745,0,53.129-18.445,62.116-44.116h196.63h15.664l14.876-21.59c0.085,36.296,29.542,65.712,65.858,65.712
	c28.736,0,53.11-18.447,62.105-44.121h34.31v-87.586V138.19C994.542,65.455,965.053,6.483,928.684,6.483z M543,302.005
	c-12.009,0-21.738-9.737-21.738-21.737c0-12.005,9.729-21.731,21.738-21.731c12,0,21.738,9.738,21.738,21.731
	C564.738,292.277,555,302.005,543,302.005z M898.146,302.005c-12.012,0-21.729-9.737-21.729-21.737
	c0-12.005,9.725-21.731,21.729-21.731c12,0,21.729,9.738,21.729,21.731C919.875,292.277,910.146,302.005,898.146,302.005z
	 M928.684,102.695H615.828c0,0,47.145-75.844,104.746-75.844h208.109V102.695z"/>
</svg>
