<?xml version="1.0" encoding="utf-8"?>
<!-- Generator: Adobe Illustrator 16.0.0, SVG Export Plug-In . SVG Version: 6.00 Build 0)  -->
<!DOCTYPE svg PUBLIC "-//W3C//DTD SVG 1.1//EN" "http://www.w3.org/Graphics/SVG/1.1/DTD/svg11.dtd">
<svg version="1.1" id="Layer_1" xmlns="http://www.w3.org/2000/svg" xmlns:xlink="http://www.w3.org/1999/xlink" x="0px" y="0px"
	 width="512px" height="512px" viewBox="0 0 512 512" enable-background="new 0 0 512 512" xml:space="preserve">
<path fill="#FFFFFF" d="M414.208,356.869c-26.998,0-48.891,21.889-48.891,48.891h0.01c0,26.998,21.883,48.886,48.886,48.891
	c26.998-0.005,48.891-21.888,48.891-48.891C463.104,378.758,441.211,356.869,414.208,356.869z M414.218,422.062
	c-9.001,0-16.302-7.302-16.302-16.303s7.301-16.297,16.302-16.297s16.298,7.296,16.298,16.297S423.219,422.062,414.218,422.062z"/>
<polygon fill="#FFFFFF" points="153.851,105.866 128.425,75.566 118.671,85.32 148.977,110.74 "/>
<path fill="#FFFFFF" d="M97.782,356.869c-27.003,0-48.891,21.889-48.891,48.891c0,27.003,21.888,48.891,48.891,48.891
	c26.998,0,48.891-21.888,48.891-48.891C146.673,378.758,124.779,356.869,97.782,356.869z M97.782,422.062
	c-9.001,0-16.297-7.302-16.297-16.303s7.296-16.297,16.297-16.297s16.297,7.296,16.297,16.297S106.778,422.062,97.782,422.062z"/>
<polygon fill="#FFFFFF" points="182.723,96.752 186.173,57.349 172.38,57.354 175.826,96.752 "/>
<polygon fill="#FFFFFF" points="239.872,85.32 230.113,75.566 204.692,105.866 209.567,110.74 "/>
<path fill="#FFFFFF" d="M195.559,307.979V152.463c9.001,0,16.302-7.296,16.302-16.297s-7.296-16.297-16.302-16.297H162.97
	c-9.001,0-16.297,7.296-16.297,16.297s7.296,16.297,16.297,16.297h0.292C70.636,167.864,0,248.32,0,345.318v11.551v32.594
	c0,9.001,7.296,16.297,16.297,16.297h20.368c0-33.694,27.417-61.112,61.117-61.112s61.118,27.413,61.118,61.112h194.206
	c0-33.694,27.413-61.112,61.112-61.112c33.7,0,61.123,27.413,61.123,61.112h20.372c9.001,0,16.297-7.296,16.297-16.297v-32.594
	v-11.551v-21.043c0-9.001-7.296-16.297-16.297-16.297h-37.381H260.577H195.559z M162.975,283.412H27.279
	c21.571-58.624,72.919-102.814,135.69-114.345v114.345H162.975z"/>
<path fill="#FFFFFF" d="M475.33,118.866h-65.019h-50.856c-36.476,0-77.23,48.098-101.781,53.571
	c-24.55,5.468-50.77,13.44-50.77,62.208v48.768h19.092c5.008,14.295,18.576,24.566,34.576,24.566
	c16.005,0,29.583-10.271,34.586-24.566h109.485h8.72l8.284-12.021c0.046,20.209,16.45,36.588,36.669,36.588
	c16,0,29.573-10.271,34.581-24.566H512v-48.768V192.2C512,151.701,495.58,118.866,475.33,118.866z M260.582,283.412
	c-6.687,0-12.104-5.422-12.104-12.104s5.417-12.098,12.104-12.098c6.682,0,12.104,5.422,12.104,12.098
	C272.686,277.996,267.264,283.412,260.582,283.412z M458.327,283.412c-6.687,0-12.099-5.422-12.099-12.104
	s5.417-12.098,12.099-12.098s12.099,5.422,12.099,12.098C470.426,277.996,465.009,283.412,458.327,283.412z M475.33,172.437H301.133
	c0,0,26.25-42.23,58.322-42.23H475.33V172.437z"/>
</svg>
