<?xml version="1.0" encoding="utf-8"?>
<!-- Generator: Adobe Illustrator 16.0.0, SVG Export Plug-In . SVG Version: 6.00 Build 0)  -->
<!DOCTYPE svg PUBLIC "-//W3C//DTD SVG 1.1//EN" "http://www.w3.org/Graphics/SVG/1.1/DTD/svg11.dtd">
<svg version="1.1" id="Layer_1" xmlns="http://www.w3.org/2000/svg" xmlns:xlink="http://www.w3.org/1999/xlink" x="0px" y="0px"
	 width="512px" height="512px" viewBox="0 0 512 512" enable-background="new 0 0 512 512" xml:space="preserve">
<path fill="#4A148C" d="M486.145,230.16c0-7.168-5.12-12.288-12.288-12.288c-2.562,0-5.633,0-8.191,0
	c-15.36,0-26.112,17.408-26.112,17.408c-1.023,2.048-2.56,4.096-4.097,7.168c-1.535-6.656-3.072-11.776-4.607-16.896
	c-6.655-23.04-16.896-44.544-30.208-64c-9.728-13.823-23.552-18.432-38.912-21.504c-27.646-4.608-55.808-5.12-83.455-5.12
	c-28.161,0-55.809,0.512-83.457,5.12c-15.36,2.56-29.184,7.681-38.912,21.504c-13.824,19.968-24.064,40.96-30.208,64
	c-1.536,5.12-2.56,10.24-4.608,16.896c-2.048-3.072-3.584-5.12-4.096-7.168c0,0-10.752-17.408-26.112-17.408
	c-2.56,0-5.632,0-8.192,0c-7.168,0-12.288,5.12-12.288,12.288c0,5.12,0,10.24,0,15.359c0,7.681,5.12,12.801,13.312,12.801
	c7.68,0,15.36,0,23.552,0c3.072,0,6.144,0,9.216,0c0.512,0.512,0.512,1.022,1.024,1.535c-1.024,0.513-2.048,1.023-3.072,1.537
	c-19.968,18.942-30.208,41.982-30.208,69.632c0.512,16.384,1.536,32.768,3.584,49.15c1.536,12.801,4.096,25.088,10.24,36.354
	c2.56,5.12,5.632,8.704,11.264,9.728c2.56,0.512,3.072,2.048,3.072,4.608c0,6.655,0,13.824,0,20.479
	c0,9.729,5.632,15.36,14.848,15.36c8.192,0,16.384,0,24.064,0c10.24,0,15.872-5.12,15.872-15.872c0-5.12,0-10.752,0-16.384
	c37.376,2.56,74.24,4.096,111.104,4.096c36.862,0,74.24-1.536,111.104-4.096c0,5.632,0,10.752,0,16.384
	c0,10.24,5.633,15.872,15.873,15.872c8.191,0,16.383,0,24.062,0c9.217,0,14.85-5.632,14.85-15.36c0-6.654,0-13.823,0-20.479
	c0-2.048,0.512-4.098,3.071-4.608c5.632-1.022,8.704-5.12,11.265-9.728c5.631-11.776,8.703-24.064,10.239-36.354
	c2.048-16.384,3.071-32.768,3.584-49.15c0.513-27.648-10.239-50.688-30.208-69.632c-1.023-0.514-2.048-1.024-3.072-1.537
	c0.512-0.513,0.512-1.023,1.024-1.535c3.07,0,6.144,0,9.216,0c7.68,0,15.359,0,23.553,0c7.68,0,12.799-5.12,13.312-12.801
	C486.145,240.912,486.145,235.28,486.145,230.16z M144.64,246.544c6.144-24.576,15.36-48.128,28.16-70.144
	c0.512-1.024,1.536-2.049,2.56-3.072l0,0l0,0c1.024-0.512,2.048-1.536,3.072-1.536c8.192-3.584,32.768-10.752,99.328-11.265
	c66.561,0.513,91.137,7.681,99.328,11.265c1.535,0.512,2.561,1.024,3.072,1.536l0,0l0,0c1.023,1.023,1.535,1.536,2.56,3.072
	c13.312,22.016,22.528,45.056,28.159,70.144c0.513,1.536,0.513,3.584,0.513,4.608c-45.056-4.097-89.601-5.633-134.144-5.633
	c-44.544,0-89.601,2.049-134.145,5.633C143.615,249.616,144.127,248.08,144.64,246.544z M151.295,351.504
	c-16.384,0-29.184-13.312-29.184-29.184s13.312-29.186,29.184-29.186s29.184,13.312,29.184,29.186S167.68,351.504,151.295,351.504z
	 M404.735,351.504c-16.384,0-29.186-13.312-29.186-29.184s13.312-29.186,29.186-29.186c16.384,0,29.185,13.312,29.185,29.186
	S421.119,351.504,404.735,351.504z M470.783,151.312l6.145,16.384l16.385,6.144l-16.385,6.145l-6.145,16.384l-6.145-16.384
	l-16.384-6.145l16.384-6.144L470.783,151.312z M41.215,255.248l6.144,16.384l16.384,6.146l-16.384,6.144l-6.144,16.386
	l-6.144-16.386l-16.384-6.144l16.384-6.146L41.215,255.248z M100.607,123.664l10.24,26.624l26.624,10.239l-26.624,10.24
	l-10.24,26.625l-10.24-26.625l-26.624-10.24l26.624-10.239L100.607,123.664z M425.729,64.784l11.264,29.184l29.185,11.265
	l-29.185,11.264l-11.264,29.184l-11.266-29.184l-29.184-11.264l29.184-11.265L425.729,64.784z"/>
</svg>
