<?xml version="1.0" encoding="utf-8"?>
<!-- Generator: Adobe Illustrator 16.0.0, SVG Export Plug-In . SVG Version: 6.00 Build 0)  -->
<!DOCTYPE svg PUBLIC "-//W3C//DTD SVG 1.1//EN" "http://www.w3.org/Graphics/SVG/1.1/DTD/svg11.dtd">
<svg version="1.1" id="Layer_1" xmlns="http://www.w3.org/2000/svg" xmlns:xlink="http://www.w3.org/1999/xlink" x="0px" y="0px"
	 width="1080px" height="720px" viewBox="0 -104 1080 720" enable-background="new 0 -104 1080 720" xml:space="preserve">
<path fill="#4A148C" d="M914.676,191.176c0-12.819-9.154-21.976-21.974-21.976c-4.582,0-10.075,0-14.65,0
	c-27.469,0-46.698,31.132-46.698,31.132c-1.828,3.662-4.576,7.325-7.326,12.819c-2.745-11.903-5.493-21.061-8.24-30.217
	c-11.899-41.204-30.215-79.661-54.021-114.456c-17.397-24.72-42.12-32.963-69.588-38.457c-49.443-8.241-99.808-9.156-149.249-9.156
	c-50.363,0-99.81,0.915-149.253,9.156c-27.47,4.578-52.193,13.737-69.591,38.457c-24.722,35.71-43.035,73.252-54.022,114.456
	c-2.747,9.157-4.578,18.314-8.241,30.217c-3.662-5.494-6.409-9.157-7.324-12.819c0,0-19.229-31.132-46.699-31.132
	c-4.578,0-10.072,0-14.65,0c-12.819,0-21.975,9.156-21.975,21.976c0,9.156,0,18.312,0,27.467c0,13.737,9.156,22.893,23.807,22.893
	c13.735,0,27.47,0,42.12,0c5.493,0,10.988,0,16.481,0c0.916,0.916,0.916,1.827,1.831,2.746c-1.831,0.917-3.662,1.829-5.494,2.75
	c-35.71,33.874-54.022,75.078-54.022,124.527c0.915,29.3,2.746,58.601,6.409,87.898c2.748,22.892,7.325,44.865,18.313,65.016
	c4.578,9.156,10.072,15.564,20.144,17.396c4.578,0.915,5.494,3.663,5.494,8.242c0,11.9,0,24.721,0,36.623
	c0,17.399,10.072,27.47,26.553,27.47c14.65,0,29.302,0,43.037,0c18.312,0,28.384-9.156,28.384-28.386c0-9.156,0-19.228,0-29.3
	c66.843,4.577,132.771,7.325,198.695,7.325c65.924,0,132.77-2.748,198.696-7.325c0,10.072,0,19.229,0,29.3
	c0,18.314,10.074,28.386,28.388,28.386c14.648,0,29.298,0,43.03,0c16.485,0,26.559-10.071,26.559-27.47c0-11.899,0-24.722,0-36.623
	c0-3.663,0.915-7.33,5.492-8.242c10.071-1.827,15.565-9.156,20.146-17.396c10.07-21.062,15.564-43.037,18.312-65.016
	c3.663-29.301,5.491-58.601,6.41-87.898c0.917-49.445-18.312-90.649-54.023-124.527c-1.831-0.92-3.663-1.832-5.495-2.75
	c0.915-0.918,0.915-1.83,1.832-2.746c5.49,0,10.987,0,16.481,0c13.735,0,27.467,0,42.122,0c13.734,0,22.89-9.156,23.807-22.893
	C914.676,210.404,914.676,200.332,914.676,191.176z M303.938,220.477c10.987-43.952,27.469-86.071,50.36-125.444
	c0.916-1.831,2.746-3.664,4.578-5.494l0,0l0,0c1.831-0.916,3.663-2.747,5.494-2.747c14.649-6.41,58.602-19.229,177.635-20.146
	c119.038,0.917,162.987,13.737,177.636,20.146c2.746,0.916,4.579,1.831,5.495,2.747l0,0l0,0c1.83,1.83,2.744,2.748,4.576,5.494
	c23.809,39.373,40.289,80.578,50.36,125.444c0.916,2.747,0.916,6.409,0.916,8.24c-80.575-7.326-160.238-10.074-239.897-10.074
	c-79.662,0-160.241,3.664-239.902,10.074C302.105,225.971,303.021,223.223,303.938,220.477z M315.84,408.185
	c-29.301,0-52.192-23.807-52.192-52.192c0-28.385,23.807-52.196,52.192-52.196c28.385,0,52.191,23.808,52.191,52.196
	C368.031,384.382,345.143,408.185,315.84,408.185z M769.086,408.185c-29.3,0-52.196-23.807-52.196-52.192
	c0-28.385,23.807-52.196,52.196-52.196c29.301,0,52.192,23.808,52.192,52.196C821.278,384.382,798.387,408.185,769.086,408.185z
	 M887.203,50.166l10.99,29.3l29.302,10.988l-29.302,10.989l-10.99,29.302l-10.989-29.302l-29.301-10.989l29.301-10.988
	L887.203,50.166z M118.975,236.042l10.988,29.301l29.301,10.99l-29.301,10.988l-10.988,29.306l-10.988-29.306l-29.3-10.988
	l29.3-10.99L118.975,236.042z M225.191,0.721l18.313,47.613l47.613,18.311l-47.613,18.313l-18.313,47.616l-18.313-47.616
	l-47.614-18.313l47.614-18.311L225.191,0.721z M806.63-104.578l20.145,52.191l52.193,20.146l-52.193,20.145L806.63,40.096
	l-20.148-52.192l-52.19-20.145l52.19-20.146L806.63-104.578z"/>
</svg>
