<?xml version="1.0" encoding="utf-8"?>
<!-- Generator: Adobe Illustrator 16.0.0, SVG Export Plug-In . SVG Version: 6.00 Build 0)  -->
<!DOCTYPE svg PUBLIC "-//W3C//DTD SVG 1.1//EN" "http://www.w3.org/Graphics/SVG/1.1/DTD/svg11.dtd">
<svg version="1.1" id="Layer_1" xmlns="http://www.w3.org/2000/svg" xmlns:xlink="http://www.w3.org/1999/xlink" x="0px" y="0px"
	 width="4096px" height="4096px" viewBox="0 0 4096 4096" enable-background="new 0 0 4096 4096" xml:space="preserve">
<g>
	<path stroke="#FFFFFF" stroke-width="2.1702" d="M1662.455,506.799"/>
	<path stroke="#FFFFFF" stroke-width="2.1702" d="M1662.455,859.51"/>
	<path fill="#FFFFFF" d="M3999.532,2187.297c-25.437-46.486-127.187-237.146-425.854-437.069
		c-226.905-151.894-446.415-191.635-541.907-192.366c-156.852-1.301-277.861,31.857-313.052,173.755
		c-34.215,138.402,125.806,225.605,242.753,284.444l-404.724,174.08h-776.696v163.515h-235.194v-163.515H536.462l174.324-395.459
		l-53.313-176.355l-250.636,574.821L0,2439.07l0.65,1047.405h183.751l-0.163,342.959c0,147.18,118.816,266.646,266.078,266.646
		c147.18,0,266.564-119.547,266.564-266.646l-0.324-342.959h1777.127l-0.244,342.959c0,147.18,119.305,266.646,266.24,266.646
		c147.262,0,266.484-119.547,266.484-266.646l-0.244-342.959h183.589l0.894-1047.405l-141.247-85.415l277.862-119.548
		c99.88,74.769,209.594,213.333,260.876,292.328c0,0,27.713,50.875,46.08,115.24c16.416,57.458,25.112,139.134,28.119,171.154
		v1074.469c0,113.615,92.079,205.693,205.775,205.693c113.615,0,205.775-92.078,205.775-205.693V2608.6
		C4093.725,2518.553,4082.753,2339.027,3999.532,2187.297z M443.733,3024.051c-123.449,0-222.923-99.881-222.923-223.817
		c0-123.124,99.555-223.005,222.923-223.005c123.205,0,223.411,99.881,223.411,223.005
		C667.145,2924.089,566.938,3024.051,443.733,3024.051z M989.785,3109.303l0.244-401.555c0-55.67,44.942-100.693,100.368-100.693
		L2153,2605.105c55.589,0,100.531,45.673,100.531,100.937l0.244,401.88L989.785,3109.303z M2766.507,3024.051
		c-123.124,0-223.086-99.881-223.086-223.817c0-123.124,99.962-223.005,223.086-223.005c123.286,0,223.085,99.881,223.085,223.005
		C2989.592,2924.089,2889.793,3024.051,2766.507,3024.051z"/>
</g>
<g>
	<path fill="#FFFFFF" d="M2587.062,671.451h-807.01V467.627h-235.194v203.824H707.129c-171.073,0-297.61,112.071-234.951,335.97
		l184.564,613.669l302.079-691.77l126.781,1.869l-376.686,863.492l78.994,262.664c0,0,396.841-107.683,832.935-107.683
		c445.846,0,894.049,107.683,894.049,107.683l89.804-285.176c-56.727,52.825-136.371,79.076-217.641,62.903
		c-134.664-26.9-222.272-159.452-194.966-295.66c27.225-136.614,159.126-224.874,293.709-197.729
		c100.124,19.911,173.511,97.768,193.99,192.122l165.791-526.385C2877.277,821.882,2785.442,671.451,2587.062,671.451z"/>
</g>
</svg>
