<?xml version="1.0" encoding="utf-8"?>
<!-- Generator: Adobe Illustrator 16.0.0, SVG Export Plug-In . SVG Version: 6.00 Build 0)  -->
<!DOCTYPE svg PUBLIC "-//W3C//DTD SVG 1.1//EN" "http://www.w3.org/Graphics/SVG/1.1/DTD/svg11.dtd">
<svg version="1.1" id="Layer_1" xmlns="http://www.w3.org/2000/svg" xmlns:xlink="http://www.w3.org/1999/xlink" x="0px" y="0px"
	 width="1080px" height="720px" viewBox="0 1688 1080 720" enable-background="new 0 1688 1080 720" xml:space="preserve">
<g>
	<path stroke="#FFFFFF" stroke-width="2.1702" d="M485.596,1697.8"/>
	<path stroke="#FFFFFF" stroke-width="2.1702" d="M485.596,1767.59"/>
	<path fill="#4A148C" d="M948.026,2030.315c-5.033-9.198-25.166-46.924-84.262-86.481c-44.896-30.055-88.331-37.918-107.226-38.063
		c-31.036-0.257-54.979,6.304-61.942,34.381c-6.771,27.385,24.893,44.639,48.033,56.282l-80.082,34.444H508.865v32.355h-46.537
		v-32.355H262.799l34.493-78.249l-10.549-34.895l-49.592,113.738l-80.5,48.661l0.128,207.246h36.357l-0.032,67.859
		c0,29.122,23.51,52.761,52.648,52.761c29.122,0,52.744-23.653,52.744-52.761l-0.064-67.859h351.635l-0.048,67.859
		c0,29.122,23.606,52.761,52.68,52.761c29.139,0,52.728-23.653,52.728-52.761l-0.048-67.859h36.327l0.177-207.246l-27.948-16.901
		l54.979-23.655c19.763,14.795,41.472,42.212,51.619,57.842c0,0,5.483,10.067,9.118,22.802c3.248,11.369,4.969,27.53,5.563,33.866
		v212.603c0,22.479,18.22,40.7,40.716,40.7c22.481,0,40.716-18.221,40.716-40.7v-253.013
		C966.664,2095.86,964.493,2060.337,948.026,2030.315z M244.452,2195.88c-24.427,0-44.109-19.762-44.109-44.284
		c0-24.363,19.699-44.126,44.109-44.126c24.377,0,44.205,19.763,44.205,44.126C288.657,2176.102,268.829,2195.88,244.452,2195.88z
		 M352.497,2212.749l0.048-79.454c0-11.015,8.892-19.924,19.859-19.924l210.254-0.385c11,0,19.892,9.036,19.892,19.972l0.048,79.519
		L352.497,2212.749z M704.051,2195.88c-24.362,0-44.141-19.762-44.141-44.284c0-24.363,19.779-44.126,44.141-44.126
		c24.395,0,44.142,19.763,44.142,44.126C748.192,2176.102,728.445,2195.88,704.051,2195.88z"/>
</g>
<g>
	<path fill="#4A148C" d="M668.545,1730.379H508.864v-40.33h-46.537v40.33H296.568c-33.85,0-58.887,22.175-46.489,66.478
		l36.519,121.424l59.771-136.878l25.085,0.371l-74.534,170.856l15.63,51.973c0,0,78.522-21.307,164.811-21.307
		c88.218,0,176.903,21.307,176.903,21.307l17.769-56.427c-11.224,10.452-26.982,15.646-43.064,12.446
		c-26.646-5.322-43.98-31.55-38.577-58.501c5.387-27.032,31.485-44.495,58.115-39.124c19.812,3.939,34.333,19.345,38.385,38.014
		l32.804-104.154C725.969,1760.145,707.798,1730.379,668.545,1730.379z"/>
</g>
</svg>
