<?xml version="1.0" encoding="utf-8"?>
<!-- Generator: Adobe Illustrator 16.0.0, SVG Export Plug-In . SVG Version: 6.00 Build 0)  -->
<!DOCTYPE svg PUBLIC "-//W3C//DTD SVG 1.1//EN" "http://www.w3.org/Graphics/SVG/1.1/DTD/svg11.dtd">
<svg version="1.1" id="Layer_1" xmlns="http://www.w3.org/2000/svg" xmlns:xlink="http://www.w3.org/1999/xlink" x="0px" y="0px"
	 width="1280px" height="800px" viewBox="0 0 1280 800" enable-background="new 0 0 1280 800" xml:space="preserve">
<g id="Layer_2">
	<g id="Layer_3" display="none">
	</g>
	<g>
		<g>
			<defs>
				<path id="SVGID_1_" d="M272.344,43h351.306C495.664,43,392,204.28,392,403c0,198.904,103.664,360,231.648,360H272.344
					C400.336,763,34,601.904,34,403C34,204.28,400.336,43,272.344,43z"/>
			</defs>
			<clipPath id="SVGID_2_">
				<use xlink:href="#SVGID_1_"  overflow="visible"/>
			</clipPath>
			<path clip-path="url(#SVGID_2_)" fill="#FFFFFF" d="M459,40C260.168,40,99,201.168,99,400s161.168,360,360,360
				s360-161.168,360-360S657.832,40,459,40z M459,656c-141.152,0-256-114.84-256-256c0-141.152,114.84-256,256-256
				s256,114.84,256,256S600.16,656,459,656z M459,448c-26.52,0-48-21.488-48-48c0-26.52,21.48-48,48-48c26.512,0,48,21.48,48,48
				C507,426.512,485.512,448,459,448z M459,184c24.44,0,50.376,6.696,50.376,6.696c10.64,2.776,14.84,12.816,9.328,22.344
				l-49.688,85.896c-5.504,9.512-14.504,9.512-20.016-0.016l-49.552-85.936c-5.504-9.528-1.288-19.568,9.352-22.328
				C408.808,190.664,434.624,184,459,184z M448.984,501.056c5.504-9.504,14.512-9.504,20.016,0.024l49.568,85.936
				c5.504,9.528,1.287,19.562-9.376,22.32c0,0-25.824,6.664-50.192,6.664c-24.432,0-50.368-6.704-50.368-6.704
				c-10.646-2.776-14.84-12.814-9.336-22.344L448.984,501.056z M271.952,291.992c12.208-21.152,31-40.256,31-40.256
				c7.696-7.832,18.496-6.464,23.982,3.064l49.554,85.977c5.486,9.527,1,17.344-10.018,17.344l-99.199-0.056
				c-11,0-17.576-8.673-14.648-19.28C252.616,338.792,259.76,313.128,271.952,291.992z M541.512,459.216
				c-5.486-9.528-0.992-17.344,10.024-17.344l99.192,0.04c11.016,0,17.6,8.672,14.654,19.296c0,0-7.16,25.664-19.344,46.8
				c-12.2,21.152-30.992,40.256-30.992,40.256c-7.695,7.832-18.496,6.464-23.982-3.07L541.512,459.216z M271.952,508.008
				c-12.224-21.168-19.376-46.992-19.376-46.992c-2.952-10.584,3.656-19.23,14.664-19.216l99.216,0.08c11,0,15.504,7.776,10,17.344
				l-49.648,85.856c-5.486,9.528-16.288,10.896-24,3.048C302.808,548.128,284.136,529.104,271.952,508.008z M551.536,358.144
				c-10.992-0.016-15.504-7.792-10-17.344l49.632-85.88c5.504-9.552,16.304-10.92,24.016-3.048c0,0,18.673,19.024,30.856,40.136
				c12.231,21.152,19.376,46.977,19.376,46.977c2.952,10.584-3.648,19.256-14.64,19.239L551.536,358.144z"/>
		</g>
	</g>
</g>
<path fill="#FFFFFF" d="M811.344,40H642.648C514.664,40,411,201.28,411,400c0,198.904,103.664,360,231.648,360h168.694
	C939.336,760,1043,598.904,1043,400C1043,201.28,939.336,40,811.344,40z M811.344,150.856c88.616,0,160.664,111.776,160.664,249.128
	c0,137.344-72.048,249.119-160.664,249.119c-88.606,0-160.64-111.775-160.64-249.119
	C650.704,262.64,722.736,150.856,811.344,150.856z M849.808,212.96c3.488-9.36,0.81-19.448-6.022-22.32
	c-0.832-0.336-16.672-6.664-32.44-6.664c-15.614,0-31.479,6.328-32.318,6.664c-6.824,2.696-9.48,12.776-6,22.32L804.88,299
	c1.8,4.768,4.12,7.152,6.464,7.152c2.354,0,4.696-2.384,6.496-7.152L849.808,212.96 M843.672,609.312
	c6.832-2.688,9.616-12.77,6.024-22.32l-31.856-85.856c-1.8-4.768-4.144-7.15-6.496-7.15c-2.344,0-4.664,2.384-6.464,7.15
	l-31.976,85.856c-3.48,9.552-0.824,19.456,6.022,22.32c0.824,0.336,16.672,6.662,32.416,6.662
	C826.992,615.976,842.832,609.648,843.672,609.312 M864.504,341.648c-3.576,9.544-0.672,18.352,6.384,18.352h63.816
	c7.168,0,11.36-9.528,9.504-20.152c-0.231-1.288-4.632-26.176-12.512-47.432c-7.85-21.056-19.192-39.408-19.81-40.36
	c-2.168-3.448-4.704-5.232-7.19-5.232c-3.2,0-6.296,3.192-8.306,8.568L864.504,341.648 M758.184,459.2
	c3.602-9.528,0.704-17.288-6.358-17.288l-63.816-0.176c-7.19,0-11.358,8.64-9.504,19.264c0.232,1.28,4.616,25.912,12.512,46.984
	c7.856,21.062,19.2,39.184,19.792,40.144c2.168,3.44,4.729,5.12,7.192,5.12c3.2,0,6.32-2.792,8.328-8.176L758.184,459.2
	 M944.2,460.216c1.864-10.606-2.424-20.216-9.496-20.216h-63.816c-7.062,0-9.96,8.712-6.479,18.24l31.968,86.52
	c1.928,5.354,5.008,8.36,8.168,8.36c2.488,0,5.057-1.562,7.216-4.938c0.602-0.96,12.072-19.512,19.92-40.752
	C939.568,486.368,943.968,461.504,944.2,460.216 M749.824,360c7.062,0,10.96-8.712,7.479-18.264l-31.464-86.344
	c-1.96-5.424-4.814-8.472-8.016-8.472c-2.448,0-4.864,1.512-7.018,4.864c-0.592,0.968-11.982,19.184-19.84,40.248
	c-7.896,21.056-12.248,46.472-12.479,47.76c-1.864,10.632,2.446,20.208,9.52,20.208H743 M785.64,399.984
	c0,22.144,11.48,39.95,25.704,39.95c14.256,0,25.736-17.814,25.736-39.95c0-22.137-11.48-39.969-25.736-39.969
	C797.12,360.016,785.64,377.84,785.64,399.984"/>
</svg>
