<?xml version="1.0" encoding="utf-8"?>
<!-- Generator: Adobe Illustrator 16.0.0, SVG Export Plug-In . SVG Version: 6.00 Build 0)  -->
<!DOCTYPE svg PUBLIC "-//W3C//DTD SVG 1.1//EN" "http://www.w3.org/Graphics/SVG/1.1/DTD/svg11.dtd">
<svg version="1.1" id="Layer_1" xmlns="http://www.w3.org/2000/svg" xmlns:xlink="http://www.w3.org/1999/xlink" x="0px" y="0px"
	 width="1080px" height="720px" viewBox="0 1688 1080 720" enable-background="new 0 1688 1080 720" xml:space="preserve">
<rect x="512.952" y="2125.565" fill="#4A148C" width="34.223" height="51.334"/>
<rect x="512.952" y="2022.898" fill="#4A148C" width="34.223" height="51.334"/>
<rect x="512.952" y="1920.23" fill="#4A148C" width="34.223" height="51.334"/>
<path fill="#4A148C" d="M936.892,1949.856c-6.711-4.236-163.436-101.512-389.709-106.391v51.308
	c165.044,3.852,291.988,60.947,340.686,86.396L733.25,2246.227c-36.209-15.887-112.349-43.569-203.179-43.664v-0.008
	c-0.077,0-0.145,0-0.214,0c-0.068,0-0.146,0-0.214,0v0.008c-33.05,0.034-64.114,3.74-92.054,9.185l-211.251-234.302v0.008
	c-3.141-3.586-7.695-5.889-12.831-5.889c-9.451,0-17.111,7.661-17.111,17.111c0,4.323,1.652,8.217,4.297,11.23l-0.051,0.035
	l177.695,226.907c-21.459,6.78-39.179,13.799-51.89,19.389l-154.61-265.058c48.715-25.483,175.855-82.655,341.122-86.413v-51.3
	c-226.521,4.76-383.443,102.146-390.162,106.392l-20.946,13.243l204.72,350.94l21.896-11.95c0.531-0.291,33.333-17.898,83.939-31.74
	l90.735,115.858l0.103-0.085c6.257,7.986,15.896,13.208,26.835,13.208c18.899,0,34.223-15.322,34.223-34.224
	c0-7.96-2.833-15.193-7.387-21.006l-78.392-86.935c16.349-2.037,33.537-3.261,51.325-3.261
	c111.836,0.06,200.5,47.704,201.373,48.192l21.905,11.95l204.72-350.949L936.892,1949.856z"/>
<path fill="#4A148C" d="M257.369,1775.833l-24.165-24.233c-13.713,13.679-25.106,29.326-33.863,46.515l30.491,15.537
	C236.954,1799.681,246.216,1786.96,257.369,1775.833z"/>
<path fill="#4A148C" d="M527.059,1798.046c-8.809-17.197-20.176-32.836-33.837-46.489l-24.191,24.199
	c11.12,11.12,20.398,23.865,27.572,37.887L527.059,1798.046z"/>
<path fill="#4A148C" d="M339.775,1733.803L334.434,1700c-19.055,3.022-37.458,9.005-54.715,17.813l15.537,30.49
	C309.311,1741.13,324.291,1736.26,339.775,1733.803z"/>
<path fill="#4A148C" d="M446.681,1717.753c-17.146-8.722-35.55-14.681-54.732-17.71l-5.35,33.803
	c15.63,2.474,30.62,7.319,44.555,14.416L446.681,1717.753z"/>
<path fill="#4A148C" d="M860.768,1798.123c-8.765-17.188-20.15-32.836-33.863-46.515l-24.156,24.233
	c11.136,11.119,20.407,23.849,27.52,37.827L860.768,1798.123z"/>
<path fill="#4A148C" d="M591.078,1775.755l-24.199-24.199c-13.645,13.653-25.03,29.292-33.837,46.489l30.473,15.596
	C570.688,1799.621,579.959,1786.875,591.078,1775.755z"/>
<path fill="#4A148C" d="M780.381,1717.813c-17.248-8.808-35.653-14.792-54.707-17.813l-5.35,33.803
	c15.502,2.458,30.465,7.328,44.52,14.493L780.381,1717.813z"/>
<path fill="#4A148C" d="M673.493,1733.846l-5.35-33.803c-19.174,3.03-37.578,8.997-54.724,17.71l15.52,30.507
	C642.883,1741.165,657.872,1736.319,673.493,1733.846z"/>
</svg>
