<?xml version="1.0" encoding="utf-8"?>
<!-- Generator: Adobe Illustrator 16.0.0, SVG Export Plug-In . SVG Version: 6.00 Build 0)  -->
<!DOCTYPE svg PUBLIC "-//W3C//DTD SVG 1.1//EN" "http://www.w3.org/Graphics/SVG/1.1/DTD/svg11.dtd">
<svg version="1.1" id="Layer_1" xmlns="http://www.w3.org/2000/svg" xmlns:xlink="http://www.w3.org/1999/xlink" x="0px" y="0px"
	 width="4096px" height="4096px" viewBox="0 0 4096 4096" enable-background="new 0 0 4096 4096" xml:space="preserve">
<rect x="1967.145" y="2411.172" fill="#FFFFFF" width="163.759" height="245.637"/>
<rect x="1967.145" y="1919.897" fill="#FFFFFF" width="163.759" height="245.638"/>
<rect x="1967.145" y="1428.623" fill="#FFFFFF" width="163.759" height="245.638"/>
<path fill="#FFFFFF" d="M3995.73,1570.386c-32.113-20.274-782.05-485.744-1864.786-509.092v245.515
	c789.749,18.432,1397.187,291.635,1630.208,413.409l-739.861,1268.326c-173.261-76.021-537.6-208.486-972.227-208.937v-0.041
	c-0.368,0-0.695,0-1.023,0s-0.696,0-1.024,0v0.041c-158.146,0.164-306.79,17.899-440.483,43.949L595.682,1702.4v0.041
	c-15.033-17.162-36.823-28.181-61.399-28.181c-45.22,0-81.879,36.659-81.879,81.879c0,20.685,7.905,39.321,20.562,53.739
	l-0.245,0.164l850.288,1085.768c-102.687,32.44-187.474,66.027-248.299,92.774l-739.82-1268.326
	c233.104-121.938,841.482-395.51,1632.297-413.491v-245.474C883.262,1084.068,132.383,1550.07,100.229,1570.386L0,1633.751
	l979.6,1679.278l104.775-57.181c2.539-1.392,159.498-85.647,401.654-151.88l434.176,554.395l0.491-0.41
	c29.941,38.216,76.062,63.201,128.409,63.201c90.439,0,163.758-73.318,163.758-163.758c0-38.093-13.557-72.704-35.348-100.517
	l-375.111-415.989c78.233-9.748,160.48-15.605,245.596-15.605c535.143,0.287,959.406,228.27,963.584,230.604l104.816,57.181
	L4096,1633.751L3995.73,1570.386z"/>
<path fill="#FFFFFF" d="M744.161,737.669l-115.63-115.957c-65.618,65.454-120.136,140.329-162.038,222.576l145.899,74.343
	C646.472,851.784,690.791,790.917,744.161,737.669z"/>
<path fill="#FFFFFF" d="M2034.646,843.961c-42.147-82.289-96.542-157.123-161.914-222.454l-115.754,115.794
	c53.207,53.207,97.608,114.196,131.933,181.289L2034.646,843.961z"/>
<path fill="#FFFFFF" d="M1138.483,536.556l-25.56-161.751c-91.177,14.459-179.24,43.09-261.816,85.238l74.343,145.899
	C992.707,571.617,1064.387,548.312,1138.483,536.556z"/>
<path fill="#FFFFFF" d="M1650.033,459.756c-82.043-41.738-170.107-70.247-261.898-84.746l-25.601,161.751
	c74.793,11.837,146.515,35.021,213.197,68.977L1650.033,459.756z"/>
<path fill="#FFFFFF" d="M3631.473,844.329c-41.943-82.247-96.42-157.122-162.038-222.576L3353.846,737.71
	c53.289,53.207,97.648,114.115,131.686,181.003L3631.473,844.329z"/>
<path fill="#FFFFFF" d="M2340.986,737.301l-115.793-115.794c-65.291,65.331-119.768,140.165-161.915,222.454l145.817,74.629
	C2243.42,851.497,2287.779,790.508,2340.986,737.301z"/>
<path fill="#FFFFFF" d="M3246.817,460.043c-82.534-42.148-170.599-70.779-261.775-85.238l-25.601,161.751
	c74.179,11.756,145.777,35.062,213.033,69.346L3246.817,460.043z"/>
<path fill="#FFFFFF" d="M2735.35,536.761l-25.6-161.751c-91.751,14.5-179.814,43.049-261.857,84.746l74.26,145.981
	C2588.877,571.781,2660.598,548.598,2735.35,536.761z"/>
</svg>
