<svg width="100" height="100" viewBox="0 0 100 100" xmlns="http://www.w3.org/2000/svg" xmlns:xlink="http://www.w3.org/1999/xlink"><title>gurgaon</title><defs><path id="a" d="M0 97h97V0H0z"/></defs><g transform="translate(2 2)" fill="none" fill-rule="evenodd"><path d="M96.508 48.5c0 26.514-21.494 48.008-48.008 48.008C21.986 96.508.492 75.014.492 48.5.492 21.986 21.986.492 48.5.492c26.514 0 48.008 21.494 48.008 48.008z" fill="#FFF"/><path d="M80.842 18.695h-10.24c-.274 0-.494-.22-.494-.493 0-.272.22-.492.493-.492h10.242c.272 0 .493.22.493.492s-.22.493-.493.493M47.08 13.76h-5.857c-.272 0-.492-.22-.492-.492s.22-.492.493-.492h5.857c.272 0 .492.22.492.492s-.22.492-.492.492M67.473 10.8H65.91c-.273 0-.493-.22-.493-.49 0-.273.22-.493.492-.493h1.563c.272 0 .493.22.493.492 0 .27-.22.49-.493.49M23.087 32.17h-1.564c-.272 0-.493-.22-.493-.49 0-.273.22-.494.493-.494h1.564c.272 0 .492.22.492.493 0 .27-.22.49-.493.49M77.164 25.814h-5.192c-.272 0-.492-.22-.492-.493 0-.27.22-.49.492-.49h5.192c.272 0 .493.22.493.49 0 .273-.22.494-.493.494" fill="#9B9B9B"/><path d="M28.194 17.467H17.98c-.273 0-.493-.22-.493-.492s.22-.492.492-.492h10.214c.273 0 .493.22.493.492s-.22.492-.493.492" fill="#DC3226"/><mask id="b" fill="#fff"><use xlink:href="#a"/></mask><path fill="#9B9B9B" mask="url(#b)" d="M11.192 29.344h5.82v-.985h-5.82M35.08 42.427c-.176 0-.348-.095-.436-.263-.107-.204-2.535-5.07 5.38-11.326 6.344-5.014 18.716-9.995 19.24-10.204.25-.102.538.02.64.273.1.253-.022.54-.275.64-.128.052-12.765 5.14-18.996 10.064-7.28 5.755-5.14 10.053-5.118 10.096.127.24.034.538-.207.665-.074.04-.153.057-.23.057"/><path d="M59.446 21.583h-.04c-.272-.025-.474-.262-.45-.533l1.12-13.377c.022-.27.254-.475.53-.45.272.023.473.26.45.532l-1.12 13.376c-.02.26-.236.453-.49.453" fill="#9B9B9B" mask="url(#b)"/><path d="M61.98 21.583c-.25 0-.464-.188-.49-.44L60.076 7.765c-.03-.27.168-.513.438-.542.275-.024.513.168.54.438L62.47 21.04c.03.27-.167.512-.437.54l-.05.003" fill="#9B9B9B" mask="url(#b)"/><path d="M60.712 21.912h-.08c-.495-.014-.988-.15-1.425-.39-.238-.133-.324-.432-.19-.67.13-.238.43-.324.668-.192.208.116.546.256.973.267.49.016.85-.138 1.083-.267.237-.132.538-.046.67.192s.046.537-.192.67c-.326.18-.847.39-1.506.39" fill="#9B9B9B" mask="url(#b)"/><path d="M58.758 29.287H46.692c-.272 0-.492-.22-.492-.493 0-.272.22-.492.492-.492h12.066c.273 0 .493.22.493.492s-.22.493-.492.493M57.445 30.446H44.91c-.272 0-.492-.22-.492-.492s.22-.493.492-.493h12.535c.272 0 .492.222.492.494 0 .27-.22.492-.492.492M53.445 32.856H41.412c-.273 0-.493-.22-.493-.492s.22-.493.492-.493h12.033c.272 0 .492.222.492.494s-.22.492-.492.492M51.135 34.132H40.29c-.27 0-.49-.22-.49-.492s.22-.492.49-.492h10.845c.272 0 .492.22.492.492s-.22.492-.492.492M60.006 27.163h-9.208c-.272 0-.492-.22-.492-.492 0-.27.22-.492.492-.492h9.208c.272 0 .493.22.493.493s-.222.493-.494.493M60.317 25.814H53.36c-.273 0-.493-.22-.493-.493 0-.27.22-.49.492-.49h6.957c.273 0 .493.22.493.49 0 .273-.22.494-.493.494M43.555 37.42h-5.64c-.274 0-.494-.22-.494-.49 0-.273.22-.493.494-.493h5.64c.274 0 .494.22.494.492 0 .27-.22.49-.493.49M46.56 36.13h-8.11c-.27 0-.492-.222-.492-.494 0-.27.22-.492.493-.492h8.11c.274 0 .494.22.494.492s-.22.493-.493.493" fill="#DC3226" mask="url(#b)"/><path d="M43.058 50.58h-6.704c-.272 0-.492-.222-.492-.493 0-.272.22-.493.492-.493h6.704c.272 0 .492.22.492.493 0 .27-.22.492-.492.492M43.058 47.247h-6.704c-.272 0-.492-.22-.492-.492s.22-.492.492-.492h6.704c.272 0 .492.22.492.492s-.22.492-.492.492M42.72 53.91h-6.366c-.272 0-.492-.22-.492-.493 0-.272.22-.493.492-.493h6.365c.272 0 .492.22.492.493 0 .272-.22.492-.493.492M42.298 57.24h-5.944c-.272 0-.492-.22-.492-.493 0-.272.22-.492.492-.492h5.944c.272 0 .492.22.492.492s-.22.493-.492.493M41.853 60.57h-5.5c-.27 0-.49-.22-.49-.492s.22-.493.49-.493h5.5c.272 0 .492.22.492.493 0 .27-.22.492-.492.492M41.38 63.9h-5.026c-.272 0-.492-.22-.492-.492s.22-.492.492-.492h5.025c.27 0 .492.22.492.492s-.22.492-.493.492M41.12 67.23h-4.766c-.272 0-.492-.22-.492-.492s.22-.492.492-.492h4.767c.274 0 .494.22.494.492s-.22.493-.493.493M40.864 70.56h-4.51c-.272 0-.492-.22-.492-.49 0-.273.22-.494.492-.494h4.51c.272 0 .492.22.492.493 0 .27-.22.49-.492.49M40.606 73.89h-4.252c-.272 0-.492-.22-.492-.49 0-.273.22-.493.492-.493h4.252c.272 0 .492.22.492.492 0 .27-.22.49-.492.49" fill="#9B9B9B" mask="url(#b)"/><path d="M40.348 77.222h-3.994c-.272 0-.492-.22-.492-.493s.22-.493.492-.493h3.994c.272 0 .493.22.493.492 0 .27-.22.492-.492.492" fill="#DC3226" mask="url(#b)"/><path d="M36.315 95.44c-.272 0-.493-.22-.493-.493V41.492c0-.272.22-.492.493-.492.272 0 .492.22.492.492v53.455c0 .272-.22.492-.492.492" fill="#DC3226" mask="url(#b)"/><path d="M39.726 96.2c-.016 0-.033-.002-.05-.004-.27-.028-.468-.27-.44-.54l5.987-57.933c.028-.27.268-.472.54-.44.27.03.468.27.44.54l-5.987 57.934c-.027.253-.24.442-.49.442" fill="#9B9B9B" mask="url(#b)"/><path d="M40.35 77.222c-.018 0-.034 0-.052-.003-.27-.028-.467-.27-.44-.54l3.9-38.336c.027-.27.256-.47.54-.44.27.027.466.27.44.54l-3.9 38.335c-.026.253-.24.442-.49.442" fill="#DC3226" mask="url(#b)"/><path d="M62.42 41.492H45.33c-.273 0-.494-.22-.494-.492s.22-.493.493-.493h17.09c.273 0 .493.22.493.493 0 .272-.22.492-.492.492M62.42 44.213H45.33c-.273 0-.494-.22-.494-.492 0-.27.22-.49.493-.49h17.09c.273 0 .493.22.493.49 0 .273-.22.493-.492.493M62.42 46.935H44.685c-.272 0-.492-.22-.492-.492s.22-.493.492-.493H62.42c.273 0 .493.22.493.493 0 .272-.22.492-.492.492M62.42 49.656H44.685c-.272 0-.492-.22-.492-.492s.22-.492.492-.492H62.42c.273 0 .493.22.493.492s-.22.492-.492.492M62.42 52.378H44.248c-.272 0-.492-.22-.492-.493 0-.27.22-.492.492-.492H62.42c.273 0 .493.22.493.492s-.22.493-.492.493M62.42 55.1H43.965c-.272 0-.492-.22-.492-.493 0-.272.22-.493.492-.493H62.42c.273 0 .493.22.493.493 0 .272-.22.492-.492.492M62.42 57.82H43.888c-.272 0-.492-.22-.492-.492 0-.27.22-.492.492-.492H62.42c.273 0 .493.22.493.492s-.22.493-.492.493M62.42 60.542h-.002l-19.013-.105c-.272-.002-.49-.223-.49-.495.002-.27.222-.49.493-.49h.003l19.014.105c.272.002.49.223.49.495-.002.27-.222.49-.493.49M62.42 63.263H43.115c-.273 0-.493-.22-.493-.492 0-.27.22-.49.494-.49H62.42c.273 0 .493.22.493.49 0 .273-.22.493-.492.493M62.42 66.434H42.83c-.272 0-.492-.22-.492-.492s.22-.492.492-.492h19.59c.273 0 .493.22.493.492s-.22.492-.492.492M62.42 69.82H42.376c-.272 0-.492-.22-.492-.492 0-.27.22-.492.492-.492H62.42c.273 0 .493.22.493.492s-.22.493-.492.493M42.03 73.665c-.27 0-.49-.22-.49-.492s.22-.493.49-.493l20.39-.01c.273 0 .493.222.493.493 0 .273-.22.493-.492.493l-20.39.01zM62.42 77.492H41.688c-.272 0-.492-.22-.492-.493 0-.272.22-.493.492-.493H62.42c.273 0 .493.22.493.492 0 .27-.22.492-.492.492M62.42 81.328H41.235c-.272 0-.492-.22-.492-.493 0-.272.22-.492.492-.492H62.42c.273 0 .493.22.493.492s-.22.493-.492.493M62.42 85.163H40.836c-.273 0-.493-.22-.493-.492 0-.27.22-.492.493-.492H62.42c.273 0 .493.22.493.493 0 .272-.22.493-.492.493M62.42 89H40.436c-.272 0-.492-.222-.492-.494 0-.27.22-.492.492-.492H62.42c.273 0 .493.22.493.492s-.22.493-.492.493M62.42 38.734H45.714c-.272 0-.493-.22-.493-.492s.22-.493.493-.493H62.42c.273 0 .493.22.493.492s-.22.492-.492.492M62.42 36.13H50.754c-.272 0-.492-.222-.492-.494 0-.27.22-.492.493-.492H62.42c.273 0 .493.22.493.492s-.22.493-.492.493M62.42 33.564h-6.816c-.272 0-.492-.22-.492-.492s.22-.493.492-.493h6.817c.273 0 .493.22.493.492s-.22.492-.492.492M62.42 31.225h-2.933c-.272 0-.493-.22-.493-.492s.22-.492.493-.492h2.934c.273 0 .493.22.493.493 0 .272-.22.492-.492.492M37.668 39.637c-.206 0-.397-.13-.467-.334-.086-.258.05-.537.31-.624.137-.048 13.883-4.75 19.637-9.118 4.672-3.548 2.38-6.812 2.28-6.95-.16-.22-.11-.526.107-.686.218-.16.525-.116.687.103.03.04 2.99 4.165-2.477 8.315-5.882 4.466-19.347 9.072-19.917 9.266-.053.018-.106.027-.158.027" fill="#9B9B9B" mask="url(#b)"/><path d="M37.664 39.634c-.194 0-.376-.114-.453-.304-.055-.14-1.317-3.474 4.92-8.21 4.962-3.767 16.988-9.028 17.498-9.25.25-.11.54.006.648.255.11.25-.005.54-.255.648-.122.054-12.426 5.436-17.295 9.132-5.564 4.224-4.61 7.034-4.598 7.062.093.252-.032.535-.283.633-.06.023-.12.034-.18.034M56.527 73.816c-.272 0-.492-.22-.492-.493v-3.796c0-.27.22-.492.492-.492.273 0 .493.22.493.492v3.796c0 .272-.22.493-.493.493M59.763 70.02c-.272 0-.492-.22-.492-.493v-3.795c0-.272.22-.493.493-.493s.493.22.493.492v3.795c0 .272-.22.493-.493.493M62.42 92.57H40.22c-.272 0-.493-.222-.493-.494s.22-.492.493-.492H62.42c.273 0 .493.22.493.492s-.22.493-.492.493M62.42 89h-19.7c-.273 0-.493-.222-.493-.494 0-.27.22-.492.492-.492h19.7c.273 0 .493.22.493.492s-.22.493-.492.493M62.42 85.203H45.304c-.272 0-.492-.22-.492-.492 0-.27.22-.492.493-.492H62.42c.273 0 .493.22.493.493 0 .272-.22.493-.492.493M62.42 81.407H47.763c-.273 0-.493-.22-.493-.492s.22-.493.492-.493h14.66c.27 0 .49.22.49.493 0 .272-.22.492-.49.492M62.42 77.61H50.635c-.273 0-.493-.22-.493-.49 0-.273.22-.493.494-.493H62.42c.273 0 .493.22.493.492 0 .27-.22.49-.492.49" fill="#9B9B9B" mask="url(#b)"/><path d="M62.42 73.816h-8.914c-.272 0-.492-.22-.492-.493 0-.272.22-.492.492-.492h8.915c.273 0 .493.22.493.493 0 .272-.22.493-.492.493M62.42 70.02h-5.893c-.272 0-.492-.22-.492-.493 0-.27.22-.492.492-.492h5.894c.273 0 .493.22.493.492s-.22.493-.492.493M62.42 66.224h-2.656c-.273 0-.493-.22-.493-.492s.22-.493.494-.493h2.657c.273 0 .493.22.493.492 0 .27-.22.492-.492.492M42.72 96.508c-.273 0-.493-.22-.493-.493v-7.51c0-.27.22-.49.492-.49s.492.22.492.49v7.51c0 .272-.22.493-.493.493M45.094 97c-.272 0-.492-.22-.492-.492V84.71c0-.27.22-.492.492-.492s.493.22.493.493V96.51c0 .27-.22.492-.493.492M47.76 97c-.27 0-.49-.22-.49-.492V80.915c0-.272.22-.493.49-.493.274 0 .494.22.494.493v15.593c0 .27-.22.492-.493.492M50.634 96.953c-.273 0-.493-.22-.493-.493V77.12c0-.273.22-.494.494-.494.272 0 .492.22.492.493v19.34c0 .272-.22.493-.492.493" fill="#9B9B9B" mask="url(#b)"/><path d="M53.506 96.742c-.272 0-.492-.22-.492-.492V73.323c0-.272.22-.492.492-.492s.492.22.492.493V96.25c0 .27-.22.492-.492.492M56.527 96.33c-.272 0-.492-.22-.492-.49V72.58c0-.272.22-.492.492-.492.273 0 .493.22.493.492V95.84c0 .27-.22.49-.493.49M59.763 95.67c-.272 0-.492-.22-.492-.492v-25.65c0-.272.22-.493.493-.493s.493.22.493.492v25.65c0 .273-.22.494-.493.494" fill="#9B9B9B" mask="url(#b)"/><path d="M62.42 94.948c-.27 0-.49-.22-.49-.492v-66.95c0-.272.22-.492.49-.492.273 0 .493.22.493.492v66.95c0 .272-.22.492-.492.492" fill="#DC3226" mask="url(#b)"/><path d="M35.08 42.427c-.204 0-.394-.127-.465-.33-.09-.257.046-.538.303-.627.167-.058 16.816-5.89 24.28-11.32 2.167-1.58 3.36-3.278 3.546-5.052.225-2.143-1.117-3.663-1.13-3.678-.182-.202-.166-.514.036-.695.202-.183.513-.166.695.036.067.076 1.65 1.867 1.38 4.44-.218 2.064-1.546 3.997-3.95 5.745-7.58 5.517-23.844 11.215-24.533 11.455-.054.02-.108.027-.162.027M36.315 57.256h-1.51v-3.394H33.57v-.01h-.512v.01h-3.367v2.11H26.18v-10.09h-4.803v17.463h-1.664V51.018h-6.498v12.327h-6.9V58.6H2.052c.03.096.062.193.08.293h3.694v4.745h7.884V51.312h5.513v12.326h2.65V46.175h3.818v10.09h4.496v-2.11h4.128v3.394h1.9c.18-.104-.1-.203.103-.294M79.15 53.13h-1.23v-.016h-.513v.016H74.04v2.11h-3.513V45.15h-4.804v17.463H64.06V50.286h-1.386v.293h.894v12.326h2.648V45.442h3.82v10.09h4.495v-2.11h4.128v3.395h1.747v-.293H79.15" fill="#9B9B9B" mask="url(#b)"/><path d="M95.694 47.624v6.238h-2.03v2.11h-2.436v-10.09h-3.333v17.463H86.74V51.018h-4.507v12.327h-1.368v-6.823h-.95v.294h.608v6.822h2.05V51.312H86.4v12.326h1.836V46.175h2.65v10.09h3.12v-2.11h1.89c.232-2.173.32-4.354.416-6.53h-.618z" fill="#9B9B9B" mask="url(#b)"/><path d="M48.5.985C22.3.985.985 22.3.985 48.5S22.3 96.015 48.5 96.015 96.015 74.7 96.015 48.5 74.7.985 48.5.985M48.5 97C21.757 97 0 75.243 0 48.5S21.757 0 48.5 0 97 21.757 97 48.5 75.243 97 48.5 97" fill="#DC3226" mask="url(#b)"/></g></svg>