<svg width="100" height="100" viewBox="0 0 100 100" xmlns="http://www.w3.org/2000/svg" xmlns:xlink="http://www.w3.org/1999/xlink"><title>mumbai</title><defs><path id="a" d="M97 97H0V0h97v97z"/><path id="c" d="M0 97h97V0H0z"/></defs><g transform="translate(2 2)" fill="none" fill-rule="evenodd"><path d="M97 48.5C97 75.286 75.286 97 48.5 97S0 75.286 0 48.5 21.714 0 48.5 0 97 21.714 97 48.5z" fill="#FFF"/><path d="M37.992 56.9c-.275 0-.497-.222-.497-.497v-6.08c0-.273.222-.496.497-.496s.498.223.498.497v6.08c0 .274-.223.496-.498.496M40.643 56.9c-.276 0-.498-.222-.498-.497v-6.08c0-.273.222-.496.498-.496.275 0 .497.223.497.497v6.08c0 .274-.222.496-.497.496M43.293 56.9c-.275 0-.497-.222-.497-.497v-6.08c0-.273.222-.496.497-.496s.497.223.497.497v6.08c0 .274-.222.496-.497.496M45.943 56.9c-.275 0-.497-.222-.497-.497v-6.08c0-.273.222-.496.497-.496s.498.223.498.497v6.08c0 .274-.222.496-.497.496M48.594 56.9c-.275 0-.498-.222-.498-.497v-6.08c0-.273.223-.496.498-.496s.497.223.497.497v6.08c0 .274-.22.496-.496.496M51.244 56.9c-.275 0-.497-.222-.497-.497v-6.08c0-.273.222-.496.497-.496s.498.223.498.497v6.08c0 .274-.223.496-.498.496M53.895 56.9c-.276 0-.498-.222-.498-.497v-6.08c0-.273.222-.496.498-.496.275 0 .497.223.497.497v6.08c0 .274-.222.496-.497.496M56.545 56.9c-.275 0-.497-.222-.497-.497v-6.08c0-.273.222-.496.497-.496.276 0 .498.223.498.497v6.08c0 .274-.222.496-.498.496M59.196 56.9c-.275 0-.498-.222-.498-.497v-6.08c0-.273.223-.496.498-.496s.497.223.497.497v6.08c0 .274-.222.496-.497.496" fill="#9B9B9B"/><path d="M63.267 36.442h-4.55c-.274 0-.496-.223-.496-.497 0-.275.223-.498.498-.498h4.55c.274 0 .497.223.497.498 0 .274-.223.497-.498.497" fill="#DC3226"/><path d="M35.426 10.152h-15.02c-.276 0-.5-.222-.5-.497s.224-.497.5-.497h15.02c.275 0 .498.222.498.497s-.223.497-.498.497M68.842 9.007h-6.428c-.276 0-.498-.223-.498-.497 0-.275.222-.498.498-.498h6.428c.275 0 .498.223.498.498 0 .274-.223.497-.498.497M92.373 30.09H86.41c-.276 0-.5-.222-.5-.496 0-.275.224-.498.5-.498h5.963c.276 0 .498.223.498.498 0 .274-.22.497-.497.497M6.143 33.232H3.48c-.276 0-.5-.222-.5-.497s.224-.497.5-.497h2.663c.275 0 .498.222.498.497s-.222.497-.497.497M41.953 22.83h-3.44c-.276 0-.498-.222-.498-.497s.222-.497.497-.497h3.44c.276 0 .498.222.498.497s-.222.498-.497.498M14.207 28.385h-3.44c-.275 0-.498-.223-.498-.498 0-.274.222-.497.497-.497h3.44c.275 0 .497.223.497.497 0 .275-.222.498-.497.498M17.525 28.385h-.74c-.275 0-.497-.223-.497-.498 0-.274.222-.497.497-.497h.74c.275 0 .497.223.497.497 0 .275-.222.498-.497.498M68.492 16.26h-1.766c-.275 0-.498-.223-.498-.498 0-.274.223-.497.498-.497h1.766c.275 0 .497.223.497.497 0 .275-.223.498-.498.498M53.914 11.905c-1.01 0-1.902.608-2.274 1.547l-.116.293-.314.02c-1.163.077-2.084 1.05-2.095 2.217l-.004.392-.38.088c-.732.168-1.242.808-1.242 1.558 0 .882.717 1.6 1.6 1.6h8.91c1.282 0 2.325-1.044 2.325-2.325 0-1.238-.967-2.257-2.2-2.322l-.632-.033.182-.606c.015-.05.023-.103.023-.155 0-.297-.24-.538-.537-.538-.092 0-.18.023-.26.068l-.498.278-.21-.53c-.37-.943-1.263-1.553-2.276-1.553m4.084 8.71h-8.91c-1.43 0-2.595-1.165-2.595-2.595 0-1.09.663-2.036 1.652-2.417.178-1.415 1.283-2.566 2.694-2.796.58-1.16 1.756-1.896 3.074-1.896 1.265 0 2.4.676 3 1.756.08-.012.162-.02.244-.02.8 0 1.458.617 1.526 1.4 1.512.316 2.634 1.656 2.634 3.25 0 1.83-1.49 3.318-3.32 3.318" fill="#9B9B9B"/><mask id="b" fill="#fff"><use xlink:href="#a"/></mask><path d="M80.39 11.99c-.198.208-.428.362-.68.465C89.808 21.208 96.203 34.12 96.203 48.5c0 26.303-21.4 47.702-47.702 47.702C22.197 96.202.798 74.802.798 48.5.798 22.197 22.198.798 48.5.798c8.214 0 15.95 2.087 22.705 5.758.095-.254.23-.49.403-.69C64.734 2.127 56.86 0 48.5 0 21.757 0 0 21.757 0 48.5S21.757 97 48.5 97 97 75.243 97 48.5c0-14.544-6.437-27.612-16.61-36.51" fill="#FF5252" mask="url(#b)"/><path d="M61.34 94.943c-.276 0-.5-.223-.5-.497V60.153c0-.275.224-.497.5-.497.274 0 .496.222.496.497v34.293c0 .274-.222.497-.497.497M70.31 91.414c-.275 0-.498-.223-.498-.498V60.008c0-.274.223-.497.498-.497s.497.224.497.498v30.908c0 .275-.222.498-.497.498" fill="#9B9B9B"/><path d="M71.652 60.506H25.536c-.275 0-.498-.223-.498-.497 0-.276.223-.5.498-.5h46.116c.275 0 .497.224.497.5 0 .273-.223.496-.498.496M71.652 56.9H25.536c-.275 0-.498-.222-.498-.497s.223-.497.498-.497h46.116c.275 0 .497.222.497.497s-.223.497-.498.497M65.698 87.014c-.275 0-.497-.223-.497-.498V69.264c0-.275.223-.498.498-.498.276 0 .498.223.498.498v17.252c0 .275-.222.498-.498.498" fill="#9B9B9B"/><path d="M60.752 50.528h-24.43c-.276 0-.5-.223-.5-.497s.224-.497.5-.497h24.43c.275 0 .497.223.497.498s-.223.498-.498.498M26.762 50.822H1.04c-.275 0-.497-.223-.497-.498 0-.274.222-.497.497-.497h25.722c.276 0 .498.223.498.497 0 .275-.222.498-.498.498" fill="#DC3226"/><path d="M25.536 59.087H2.263c-.275 0-.497-.223-.497-.497 0-.275.222-.498.497-.498h23.273c.275 0 .497.223.497.498 0 .274-.222.497-.497.497M95.383 59.087h-23.68c-.273 0-.496-.223-.496-.497 0-.275.223-.498.497-.498h23.68c.274 0 .497.223.497.498 0 .274-.222.497-.497.497M69.723 56.9c-.275 0-.497-.222-.497-.497V52.21c0-.274.222-.497.497-.497s.498.223.498.498v4.193c0 .275-.222.497-.497.497" fill="#9B9B9B"/><path d="M96.238 50.822H70.444c-.275 0-.497-.223-.497-.498 0-.274.222-.497.497-.497h25.794c.275 0 .498.223.498.497 0 .275-.223.498-.498.498" fill="#DC3226"/><path d="M70.31 42.647h-43.6c-.275 0-.497-.223-.497-.498s.222-.498.497-.498h43.6c.275 0 .497.223.497.497s-.222.497-.497.497" fill="#9B9B9B"/><path d="M60.907 40.3H36.352c-.275 0-.497-.224-.497-.5 0-.273.222-.496.497-.496h24.555c.275 0 .498.223.498.497 0 .276-.223.5-.498.5" fill="#DC3226"/><path d="M68.382 38.454c-.275 0-.498-.223-.498-.497v-4.612c0-.274.223-.497.498-.497s.497.223.497.497v4.612c0 .274-.223.497-.498.497M63.267 38.454c-.275 0-.497-.223-.497-.497v-4.612c0-.274.222-.497.497-.497s.498.223.498.497v4.612c0 .274-.223.497-.498.497" fill="#9B9B9B"/><mask id="d" fill="#fff"><use xlink:href="#c"/></mask><path d="M62.674 32.848h6.552v-1.773h-6.552v1.773zm-.994.995h8.54V30.08h-8.54v3.763zM64.28 40.95h2.943v-1.646H64.28M64.28 46.46h2.943v-1.646H64.28M64.28 55.034h2.943V53.39H64.28" fill="#9B9B9B" mask="url(#d)"/><path d="M38.24 36.442h-4.236c-.274 0-.497-.223-.497-.497 0-.275.223-.498.497-.498h4.235c.274 0 .496.223.496.498 0 .274-.222.497-.497.497M44.486 36.442h-3.48c-.275 0-.497-.223-.497-.497 0-.275.22-.498.496-.498h3.48c.275 0 .497.223.497.498 0 .274-.222.497-.497.497M50.396 36.442h-3.353c-.275 0-.498-.223-.498-.497 0-.275.223-.498.498-.498h3.353c.276 0 .498.223.498.498 0 .274-.222.497-.498.497M56.434 36.442h-3.312c-.275 0-.498-.223-.498-.497 0-.275.223-.498.498-.498h3.312c.275 0 .497.223.497.498 0 .274-.22.497-.496.497M58.718 38.622c-.275 0-.497-.223-.497-.498v-2.18c0-.274.223-.497.498-.497s.498.223.498.498v2.18c0 .274-.223.497-.498.497" fill="#DC3226" mask="url(#d)"/><path d="M56.434 38.622c-.275 0-.498-.223-.498-.498v-2.18c0-.274.223-.497.498-.497s.497.223.497.498v2.18c0 .274-.22.497-.496.497" fill="#DC3226" mask="url(#d)"/><path d="M58.718 38.622h-2.284c-.275 0-.498-.223-.498-.498 0-.274.223-.497.498-.497h2.284c.275 0 .498.223.498.497 0 .275-.223.498-.498.498M53.122 38.622c-.275 0-.498-.223-.498-.498v-2.18c0-.274.223-.497.498-.497s.497.223.497.498v2.18c0 .274-.223.497-.498.497M50.396 38.622c-.275 0-.497-.223-.497-.498v-2.18c0-.274.22-.497.496-.497s.498.223.498.498v2.18c0 .274-.222.497-.498.497" fill="#DC3226" mask="url(#d)"/><path d="M53.122 38.622h-2.726c-.274 0-.497-.223-.497-.498 0-.274.222-.497.496-.497h2.726c.275 0 .497.223.497.497 0 .275-.223.498-.498.498M47.043 38.79c-.275 0-.498-.223-.498-.498v-2.347c0-.275.223-.498.498-.498s.497.223.497.498v2.347c0 .275-.222.498-.497.498M44.486 38.79c-.276 0-.498-.223-.498-.498v-2.347c0-.275.222-.498.498-.498.275 0 .497.223.497.498v2.347c0 .275-.222.498-.497.498" fill="#DC3226" mask="url(#d)"/><path d="M47.043 38.79h-2.558c-.274 0-.497-.223-.497-.498s.223-.497.497-.497h2.558c.275 0 .497.222.497.497s-.222.498-.497.498M41.006 38.79c-.275 0-.498-.223-.498-.498v-2.347c0-.275.223-.498.498-.498s.497.223.497.498v2.347c0 .275-.222.498-.497.498M38.24 38.622c-.276 0-.498-.223-.498-.498v-2.18c0-.274.222-.497.497-.497.274 0 .496.223.496.498v2.18c0 .274-.222.497-.497.497" fill="#DC3226" mask="url(#d)"/><path d="M41.006 38.79H38.24c-.276 0-.498-.223-.498-.498s.222-.497.497-.497h2.766c.275 0 .497.222.497.497s-.222.498-.497.498" fill="#DC3226" mask="url(#d)"/><path d="M70.31 38.454h-9.317c-.275 0-.497-.223-.497-.497 0-.275.222-.498.497-.498h9.317c.275 0 .497.222.497.497 0 .274-.222.497-.497.497" fill="#9B9B9B" mask="url(#d)"/><path d="M70.31 42.647c-.275 0-.498-.223-.498-.498v-4.193c0-.275.223-.498.498-.498s.497.222.497.497v4.192c0 .274-.222.497-.497.497M60.993 42.647c-.275 0-.498-.223-.498-.498v-4.193c0-.275.223-.498.498-.498s.497.222.497.497v4.192c0 .274-.222.497-.497.497M62.177 48.935c-.275 0-.497-.223-.497-.497v-6.29c0-.274.222-.496.497-.496s.497.222.497.497v6.288c0 .274-.222.497-.497.497" fill="#9B9B9B" mask="url(#d)"/><path d="M61.25 51.713h8.563v-2.778H61.25v2.778zm-.996.995h10.554V47.94H60.254v4.768z" fill="#9B9B9B" mask="url(#d)"/><path d="M62.177 56.9c-.275 0-.497-.222-.497-.497V52.21c0-.274.222-.497.497-.497s.497.223.497.498v4.193c0 .275-.222.497-.497.497M37.044 60.506c-.275 0-.498-.223-.498-.497v-3.607c0-.274.223-.497.498-.497s.497.223.497.497v3.606c0 .273-.22.496-.496.496M60.437 60.506c-.275 0-.497-.223-.497-.497v-3.607c0-.274.222-.497.497-.497s.497.223.497.497v3.606c0 .273-.222.496-.497.496M27.213 91.473c-.275 0-.498-.223-.498-.498v-30.63c0-.276.223-.5.498-.5s.497.224.497.5v30.63c0 .275-.222.498-.497.498M36.017 94.943c-.275 0-.497-.223-.497-.497V60.344c0-.275.222-.498.497-.498s.497.223.497.498v34.102c0 .274-.222.497-.497.497M31.32 87.014c-.274 0-.496-.223-.496-.498V69.264c0-.275.222-.498.497-.498.277 0 .5.223.5.498v17.252c0 .275-.223.498-.5.498M34.927 48.935c-.275 0-.498-.223-.498-.497v-6.29c0-.274.222-.496.497-.496s.497.222.497.497v6.288c0 .274-.222.497-.497.497M27.884 48.935c-.275 0-.498-.223-.498-.497v-6.29c0-.274.223-.496.498-.496s.497.222.497.497v6.288c0 .274-.22.497-.496.497M34.927 56.9c-.275 0-.498-.222-.498-.497V52.21c0-.274.222-.497.497-.497s.497.223.497.498v4.193c0 .275-.222.497-.497.497M28.554 38.454c-.275 0-.497-.223-.497-.497v-4.612c0-.274.222-.497.497-.497.276 0 .498.223.498.497v4.612c0 .274-.222.497-.498.497" fill="#9B9B9B" mask="url(#d)"/><path d="M27.71 32.848h6.72v-1.773h-6.72v1.773zm-.995.995h8.71V30.08h-8.71v3.763zM30.07 40.95h2.943v-1.646H30.07M30.07 46.46h2.943v-1.646H30.07M3.34 55.13h2.943v-1.646H3.34M8.748 55.13h2.944v-1.646H8.748M14.157 55.13H17.1v-1.646h-2.943M19.566 55.13h2.944v-1.646h-2.944M74.39 55.13h2.944v-1.646H74.39M79.8 55.13h2.943v-1.646H79.8M85.207 55.13h2.945v-1.646h-2.945M90.616 55.13h2.945v-1.646h-2.944M30.07 55.034h2.943V53.39H30.07M26.71 42.647c-.275 0-.497-.223-.497-.498v-4.193c0-.275.222-.498.497-.498s.497.222.497.497v4.192c0 .274-.222.497-.497.497M36.352 42.647c-.275 0-.497-.223-.497-.498v-4.193c0-.275.222-.498.497-.498s.498.222.498.497v4.192c0 .274-.223.497-.498.497" fill="#9B9B9B" mask="url(#d)"/><path d="M36.352 38.454H26.71c-.275 0-.498-.223-.498-.497 0-.275.223-.498.498-.498h9.642c.275 0 .498.222.498.497 0 .274-.223.497-.498.497M27.884 56.9c-.275 0-.498-.222-.498-.497V52.21c0-.274.223-.497.498-.497s.497.223.497.498v4.193c0 .275-.22.497-.496.497" fill="#9B9B9B" mask="url(#d)"/><path d="M27.26 51.713h8.563v-2.778H27.26v2.778zm-.995.995h10.553V47.94H26.265v4.768zM33.75 30.866c-.273 0-.496-.22-.497-.495-.013-2.418-.998-4.162-1.91-4.273-.26-.033-.53.07-.798.307-.793.697-1.314 2.255-1.328 3.97-.002.272-.224.492-.497.492h-.004c-.275-.002-.496-.227-.494-.5.016-2.016.654-3.82 1.666-4.71.484-.424 1.028-.614 1.575-.547 1.573.19 2.77 2.45 2.785 5.256 0 .275-.22.5-.495.5h-.003z" fill="#9B9B9B" mask="url(#d)"/><path d="M32.194 26.09c-.273 0-.496-.22-.497-.494-.005-.857-.353-1.308-.458-1.327-.105.017-.46.465-.466 1.328-.002.275-.237.494-.502.493-.274 0-.495-.226-.493-.5.005-.854.29-1.63.74-2.025.25-.22.536-.32.84-.283.764.093 1.325 1.064 1.332 2.31 0 .274-.22.498-.495.5h-.003zM68.468 30.9c-.274 0-.496-.22-.498-.494-.012-2.212-.996-3.808-1.905-3.91-.294-.032-.59.082-.88.34-.747.662-1.238 2.064-1.25 3.57-.003.275-.225.495-.498.495h-.004c-.275-.002-.496-.226-.493-.5.015-1.805.623-3.455 1.585-4.308.504-.447 1.075-.652 1.65-.584 1.576.176 2.775 2.28 2.79 4.892.002.275-.22.5-.494.5h-.002z" fill="#9B9B9B" mask="url(#d)"/><path d="M66.912 26.49c-.274 0-.496-.22-.497-.494-.005-.74-.324-1.173-.454-1.187-.015-.003-.052.014-.096.053-.183.16-.37.575-.373 1.134-.002.273-.224.493-.497.493h-.004c-.276-.002-.497-.226-.494-.5.006-.785.27-1.484.708-1.87.255-.228.564-.336.868-.3.768.087 1.33 1 1.337 2.17 0 .275-.22.5-.495.5h-.003zM34.004 38.454c-.275 0-.497-.223-.497-.497v-4.612c0-.274.222-.497.497-.497.276 0 .498.223.498.497v4.612c0 .274-.222.497-.498.497M69.22 48.935c-.275 0-.497-.223-.497-.497v-6.29c0-.274.222-.496.497-.496s.498.222.498.497v6.288c0 .274-.223.497-.498.497" fill="#9B9B9B" mask="url(#d)"/><path d="M40.69 48.935c-.275 0-.497-.223-.497-.497v-4.832c0-.274.222-.497.497-.497s.498.222.498.496v4.832c0 .274-.223.497-.498.497M44.466 48.935c-.275 0-.497-.223-.497-.497v-4.832c0-.274.22-.497.496-.497.275 0 .498.222.498.496v4.832c0 .274-.223.497-.498.497M48.243 48.935c-.276 0-.498-.223-.498-.497v-4.832c0-.274.222-.497.498-.497.275 0 .497.222.497.496v4.832c0 .274-.222.497-.497.497M52.018 48.935c-.275 0-.497-.223-.497-.497v-4.832c0-.274.223-.497.498-.497.276 0 .498.222.498.496v4.832c0 .274-.222.497-.498.497M55.794 48.935c-.275 0-.497-.223-.497-.497v-4.832c0-.274.222-.497.497-.497.276 0 .498.222.498.496v4.832c0 .274-.222.497-.498.497" fill="#DC3226" mask="url(#d)"/><path d="M25.536 60.506c-.275 0-.498-.223-.498-.497v-3.607c0-.274.223-.497.498-.497s.497.223.497.497v3.606c0 .273-.222.496-.497.496M71.652 60.506c-.275 0-.498-.223-.498-.497v-3.607c0-.274.223-.497.498-.497s.497.223.497.497v3.606c0 .273-.223.496-.498.496" fill="#9B9B9B" mask="url(#d)"/><path d="M39.487 95.84c-.275 0-.498-.22-.498-.496V79.51c0-.276.222-.498.497-.498s.497.222.497.497v15.834c0 .275-.222.497-.497.497M57.998 96.17c-.275 0-.497-.224-.497-.498V79.51c0-.276.223-.5.498-.5s.498.224.498.5V95.67c0 .274-.223.497-.498.497" fill="#DC3226" mask="url(#d)"/><path d="M61.34 64.517H36.12c-.275 0-.498-.222-.498-.497s.223-.497.498-.497H61.34c.274 0 .496.222.496.497s-.222.497-.497.497M38.355 66.02c-.082 0-.15.065-.15.147 0 .083.068.15.15.15.082 0 .15-.067.15-.15 0-.082-.068-.148-.15-.148m0 1.29c-.63 0-1.144-.512-1.144-1.143 0-.63.514-1.143 1.145-1.143.63 0 1.144.513 1.144 1.143s-.514 1.144-1.145 1.144M58.94 66.02c-.082 0-.15.065-.15.147 0 .083.068.15.15.15.082 0 .15-.067.15-.15 0-.082-.068-.148-.15-.148m0 1.29c-.63 0-1.144-.512-1.144-1.143 0-.63.513-1.143 1.144-1.143.63 0 1.144.513 1.144 1.143s-.513 1.144-1.144 1.144" fill="#9B9B9B" mask="url(#d)"/><path d="M85.01 80.39c-.208-.198-.362-.428-.465-.68C75.792 89.808 62.88 96.203 48.5 96.203 22.197 96.202.798 74.802.798 48.5.798 22.197 22.198.798 48.5.798c26.303 0 47.702 21.4 47.702 47.702 0 8.214-2.087 15.95-5.758 22.705.254.095.49.23.69.403C94.873 64.734 97 56.86 97 48.5 97 21.757 75.243 0 48.5 0S0 21.757 0 48.5 21.757 97 48.5 97c14.544 0 27.612-6.437 36.51-16.61" fill="#DC3226" mask="url(#d)"/><path d="M39.487 80.006c-.275 0-.498-.223-.498-.497 0-5.577 4.29-7.477 9.72-9.882.254-.112.547.002.657.253.112.252-.002.546-.253.658-5.3 2.347-9.13 4.043-9.13 8.97 0 .275-.222.498-.497.498" fill="#DC3226" mask="url(#d)"/><path d="M58.007 80.006c-.275 0-.498-.223-.498-.497 0-4.934-3.697-6.63-8.813-8.975-.25-.115-.36-.41-.245-.66.115-.25.41-.358.66-.245 5.04 2.312 9.392 4.308 9.392 9.88 0 .273-.222.496-.497.496M39.487 95.84c-.275 0-.498-.22-.498-.496V79.51c0-.276.222-.498.497-.498s.497.222.497.497v15.834c0 .275-.222.497-.497.497" fill="#DC3226" mask="url(#d)"/><path d="M57.998 96.17c-.275 0-.497-.224-.497-.498V79.51c0-.276.223-.5.498-.5s.498.224.498.5V95.67c0 .274-.223.497-.498.497M39.487 80.006c-.275 0-.498-.223-.498-.497 0-5.577 4.29-7.477 9.72-9.882.254-.112.547.002.657.253.112.252-.002.546-.253.658-5.3 2.347-9.13 4.043-9.13 8.97 0 .275-.222.498-.497.498" fill="#DC3226" mask="url(#d)"/><path d="M58.007 80.006c-.275 0-.498-.223-.498-.497 0-4.934-3.697-6.63-8.813-8.975-.25-.115-.36-.41-.245-.66.115-.25.41-.358.66-.245 5.04 2.312 9.392 4.308 9.392 9.88 0 .273-.222.496-.497.496M39.487 95.84c-.275 0-.498-.22-.498-.496V79.51c0-.276.222-.498.497-.498s.497.222.497.497v15.834c0 .275-.222.497-.497.497" fill="#DC3226" mask="url(#d)"/><path d="M39.487 80.006c-.275 0-.498-.223-.498-.497 0-5.577 4.29-7.477 9.72-9.882.254-.112.547.002.657.253.112.252-.002.546-.253.658-5.3 2.347-9.13 4.043-9.13 8.97 0 .275-.222.498-.497.498" fill="#DC3226" mask="url(#d)"/><path d="M58.007 80.006c-.275 0-.498-.223-.498-.497 0-4.934-3.697-6.63-8.813-8.975-.25-.115-.36-.41-.245-.66.115-.25.41-.358.66-.245 5.04 2.312 9.392 4.308 9.392 9.88 0 .273-.222.496-.497.496M39.487 95.84c-.275 0-.498-.22-.498-.496V79.51c0-.276.222-.498.497-.498s.497.222.497.497v15.834c0 .275-.222.497-.497.497" fill="#DC3226" mask="url(#d)"/><path d="M39.487 80.006c-.275 0-.498-.223-.498-.497 0-5.577 4.29-7.477 9.72-9.882.254-.112.547.002.657.253.112.252-.002.546-.253.658-5.3 2.347-9.13 4.043-9.13 8.97 0 .275-.222.498-.497.498" fill="#DC3226" mask="url(#d)"/><path d="M58.007 80.006c-.275 0-.498-.223-.498-.497 0-4.934-3.697-6.63-8.813-8.975-.25-.115-.36-.41-.245-.66.115-.25.41-.358.66-.245 5.04 2.312 9.392 4.308 9.392 9.88 0 .273-.222.496-.497.496M7.344 73.833c-.275 0-.497-.223-.497-.497v-2.233c0-.275.222-.497.497-.497s.497.222.497.497v2.233c0 .274-.22.497-.496.497M20.45 88.088c-.275 0-.498-.223-.498-.498V71.103c0-.275.223-.498.498-.498s.497.223.497.498V87.59c0 .275-.222.498-.497.498" fill="#DC3226" mask="url(#d)"/><path d="M7.344 71.6c-.275 0-.497-.222-.497-.497 0-4.98 3.21-6.77 6.928-8.845.24-.135.544-.05.677.192.134.24.048.542-.192.676-3.726 2.08-6.42 3.583-6.42 7.977 0 .275-.22.497-.496.497" fill="#DC3226" mask="url(#d)"/><path d="M20.456 71.6c-.275 0-.498-.222-.498-.497 0-4.4-2.6-5.902-6.195-7.98-.24-.138-.32-.443-.182-.68.138-.238.442-.32.68-.182 3.592 2.077 6.693 3.87 6.693 8.843 0 .275-.222.497-.497.497" fill="#DC3226" mask="url(#d)"/><path d="M7.344 71.6c-.275 0-.497-.222-.497-.497 0-4.98 3.21-6.77 6.928-8.845.24-.135.544-.05.677.192.134.24.048.542-.192.676-3.726 2.08-6.42 3.583-6.42 7.977 0 .275-.22.497-.496.497M77.76 87.014c-.274 0-.496-.223-.496-.498V71.103c0-.275.222-.498.497-.498.276 0 .5.223.5.498v15.413c0 .275-.224.498-.5.498M90.867 71.6c-.275 0-.497-.222-.497-.497 0-4.394-2.692-5.897-6.42-7.977-.24-.134-.325-.437-.19-.676.133-.24.435-.327.676-.192 3.718 2.074 6.928 3.867 6.928 8.845 0 .275-.222.497-.497.497" fill="#DC3226" mask="url(#d)"/><path d="M77.755 71.6c-.275 0-.497-.222-.497-.497 0-4.973 3.1-6.766 6.693-8.842.238-.137.542-.055.68.183.138.237.056.542-.182.68-3.597 2.078-6.195 3.58-6.195 7.98 0 .275-.222.497-.498.497" fill="#DC3226" mask="url(#d)"/><path d="M90.867 71.6c-.275 0-.497-.222-.497-.497 0-4.394-2.692-5.897-6.42-7.977-.24-.134-.325-.437-.19-.676.133-.24.435-.327.676-.192 3.718 2.074 6.928 3.867 6.928 8.845 0 .275-.222.497-.497.497" fill="#DC3226" mask="url(#d)"/></g></svg>