<svg width="100" height="100" viewBox="0 0 100 100" xmlns="http://www.w3.org/2000/svg" xmlns:xlink="http://www.w3.org/1999/xlink"><title>delhi</title><defs><path id="a" d="M0 97h97V0H0z"/></defs><g transform="translate(2 2)" fill="none" fill-rule="evenodd"><path d="M97 48.5C97 75.286 75.286 97 48.5 97S0 75.286 0 48.5 21.714 0 48.5 0 97 21.714 97 48.5z" fill="#FFF"/><path d="M40.974 74.86H38.29c-.274 0-.497-.224-.497-.498 0-.275.223-.498.497-.498h2.684c.275 0 .497.223.497.498 0 .274-.22.497-.496.497M60.598 74.86h-2.252c-.275 0-.497-.224-.497-.498 0-.275.22-.498.496-.498h2.252c.275 0 .498.223.498.498 0 .274-.223.497-.498.497" fill="#DC3226"/><mask id="b" fill="#fff"><use xlink:href="#a"/></mask><path d="M25.82 51.04h.63v-1.805h-.63v1.806zm-.995.996h2.62V48.24h-2.62v3.796zM29.094 51.04h.63v-1.805h-.63v1.806zm-.995.996h2.618V48.24h-2.62v3.796zM32.368 51.04h.63v-1.805h-.63v1.806zm-.995.996h2.62V48.24h-2.62v3.796zM35.642 51.04h.63v-1.805h-.63v1.806zm-.995.996h2.62V48.24h-2.62v3.796zM38.916 51.04h.63v-1.805h-.63v1.806zm-.995.996h2.62V48.24h-2.62v3.796zM42.19 51.04h.63v-1.805h-.63v1.806zm-.995.996h2.62V48.24h-2.62v3.796zM45.464 51.04h.63v-1.805h-.63v1.806zm-.995.996h2.62V48.24h-2.62v3.796zM48.738 51.04h.63v-1.805h-.63v1.806zm-.995.996h2.62V48.24h-2.62v3.796zM52.013 51.04h.63v-1.805h-.63v1.806zm-.995.996h2.62V48.24h-2.62v3.796zM55.287 51.04h.63v-1.805h-.63v1.806zm-.995.996h2.62V48.24h-2.62v3.796zM58.56 51.04h.63v-1.805h-.63v1.806zm-.994.996h2.62V48.24h-2.62v3.796zM61.835 51.04h.63v-1.805h-.63v1.806zm-.995.996h2.62V48.24h-2.62v3.796zM65.11 51.04h.63v-1.805h-.63v1.806zm-.995.996h2.62V48.24h-2.62v3.796zM68.384 51.04h.63v-1.805h-.63v1.806zm-.995.996h2.618V48.24h-2.62v3.796zM71.658 51.04h.63v-1.805h-.63v1.806zm-.995.996h2.62V48.24h-2.62v3.796zM45.552 22.353c-.275 0-.498-.223-.498-.498v-1.95c0-.276.223-.5.498-.5s.497.224.497.5v1.95c0 .275-.223.498-.498.498M52.53 22.353c-.275 0-.497-.223-.497-.498v-1.95c0-.276.222-.5.497-.5.276 0 .498.224.498.5v1.95c0 .275-.222.498-.498.498" fill="#9B9B9B" mask="url(#b)"/><path d="M52.53 20.42h-6.978c-.275 0-.497-.223-.497-.498s.222-.497.497-.497h6.978c.276 0 .498.222.498.497s-.222.497-.498.497M76.793 70.025h-16.08c-.277 0-.5-.222-.5-.497s.223-.497.5-.497h16.08c.275 0 .498.223.498.498s-.222.497-.497.497M76.793 67.024h-16.08c-.277 0-.5-.223-.5-.498 0-.274.223-.497.5-.497h16.08c.275 0 .498.222.498.496 0 .275-.222.498-.497.498M38.29 70.025H21.298c-.276 0-.498-.222-.498-.497s.222-.497.498-.497H38.29c.276 0 .498.223.498.498s-.222.497-.498.497M38.29 67.024H21.298c-.276 0-.498-.223-.498-.498 0-.274.222-.497.498-.497H38.29c.276 0 .498.222.498.496 0 .275-.222.498-.498.498M18.917 23.597H7.684c-.276 0-.498-.223-.498-.498s.222-.498.498-.498h11.233c.275 0 .497.223.497.497s-.222.497-.497.497M21.937 23.597H20.88c-.275 0-.497-.223-.497-.498s.222-.498.497-.498h1.057c.275 0 .497.223.497.497s-.222.497-.497.497M75.303 23.597h-1.056c-.275 0-.497-.223-.497-.498s.222-.498.497-.498h1.056c.275 0 .498.223.498.497s-.222.497-.497.497M58.432 16.312h-.364c-.275 0-.497-.223-.497-.498 0-.274.223-.497.498-.497h.364c.275 0 .498.223.498.497 0 .275-.223.498-.498.498M89.77 35.366h-.364c-.276 0-.498-.223-.498-.498 0-.274.222-.497.498-.497h.364c.275 0 .497.224.497.498 0 .275-.222.498-.497.498M17.46 57.514H6.225c-.275 0-.497-.223-.497-.498 0-.274.22-.497.496-.497H17.46c.274 0 .497.222.497.496 0 .275-.223.498-.498.498M88.582 23.597H77.35c-.276 0-.5-.223-.5-.498s.224-.498.5-.498H88.58c.275 0 .497.223.497.497s-.223.497-.498.497M73.096 14.134h-4.713c-.275 0-.498-.222-.498-.497s.223-.497.498-.497h4.713c.275 0 .497.222.497.497s-.222.497-.497.497M47.344 9.36H42.63c-.274 0-.497-.222-.497-.497 0-.274.223-.497.498-.497h4.714c.275 0 .497.223.497.497 0 .275-.22.498-.496.498" fill="#9B9B9B" mask="url(#b)"/><path d="M88.778 23.1c.23-.16.498-.28.81-.34-2.462-3.913-5.467-7.453-8.91-10.51-.375.13-.814.148-1.303.007 3.65 3.115 6.825 6.772 9.403 10.842M94.09 31.97c-.34.025-.674-.042-.98-.175 1.955 5.2 3.03 10.83 3.03 16.705 0 26.268-21.37 47.64-47.64 47.64S.86 74.768.86 48.5C.86 22.23 22.23.86 48.5.86c6.307 0 12.33 1.237 17.845 3.474.103-.274.255-.527.455-.742C61.15 1.28 54.972 0 48.5 0 21.757 0 0 21.757 0 48.5S21.757 97 48.5 97 97 75.243 97 48.5c0-5.803-1.03-11.368-2.91-16.53" fill="#FF5252" mask="url(#b)"/><path d="M21.297 88.632c-.275 0-.497-.223-.497-.498v-36.44c0-.274.222-.497.497-.497.276 0 .498.223.498.498v36.44c0 .274-.222.497-.498.497M76.793 87.86c-.275 0-.497-.224-.497-.5V51.696c0-.275.222-.498.497-.498s.498.223.498.498V87.36c0 .276-.222.5-.497.5M38.29 95.98c-.275 0-.497-.224-.497-.498V58.15c0-.276.222-.498.497-.498.276 0 .498.222.498.497V95.48c0 .274-.222.497-.498.497M60.71 95.5c-.274 0-.496-.222-.496-.496V58.15c0-.276.222-.5.497-.5.277 0 .5.224.5.5v36.854c0 .274-.223.497-.5.497" fill="#DC3226" mask="url(#b)"/><path d="M76.793 79.194h-16.08c-.277 0-.5-.223-.5-.497 0-.275.223-.498.5-.498h16.08c.275 0 .498.222.498.497 0 .274-.222.497-.497.497M38.29 79.194H21.298c-.276 0-.498-.223-.498-.497 0-.275.222-.498.498-.498H38.29c.276 0 .498.222.498.497 0 .274-.222.497-.498.497M60.71 58.646H38.29c-.275 0-.497-.222-.497-.497 0-.276.222-.498.498-.498h22.42c.277 0 .5.222.5.497 0 .274-.223.496-.5.496M78.628 52.192H19.454c-.275 0-.497-.223-.497-.497 0-.275.222-.498.497-.498h59.174c.275 0 .497.223.497.498 0 .274-.222.497-.497.497" fill="#DC3226" mask="url(#b)"/><path d="M78.628 52.192c-.275 0-.498-.223-.498-.497v-4.38c0-.274.223-.497.498-.497s.497.223.497.497v4.38c0 .274-.222.497-.497.497" fill="#DC3226" mask="url(#b)"/><path d="M78.628 47.813h-3.853c-.275 0-.497-.223-.497-.498 0-.274.222-.497.497-.497h3.853c.275 0 .497.223.497.497 0 .275-.222.498-.497.498" fill="#DC3226" mask="url(#b)"/><path d="M75.26 47.813c-.275 0-.497-.223-.497-.498v-5.333c0-.275.222-.498.497-.498s.497.223.497.498v5.333c0 .275-.222.498-.497.498" fill="#DC3226" mask="url(#b)"/><path d="M75.26 42.48h-1.68c-.274 0-.497-.224-.497-.498 0-.275.223-.498.498-.498h1.68c.275 0 .497.223.497.498 0 .274-.222.497-.497.497M68.753 37.327c-.276 0-.498-.223-.498-.498v-9.57c0-.273.222-.496.498-.496.275 0 .497.223.497.497v9.57c0 .274-.222.497-.497.497" fill="#DC3226" mask="url(#b)"/><path d="M68.753 27.76H61.24c-.273 0-.496-.224-.496-.498 0-.275.223-.498.497-.498h7.513c.275 0 .497.223.497.498 0 .274-.222.497-.497.497M36.94 27.76h-7.903c-.275 0-.498-.224-.498-.498 0-.275.222-.498.497-.498h7.903c.275 0 .497.223.497.498 0 .274-.222.497-.497.497" fill="#DC3226" mask="url(#b)"/><path d="M29.037 37.327c-.275 0-.498-.223-.498-.498v-9.57c0-.273.222-.496.497-.496s.497.223.497.497v9.57c0 .274-.222.497-.497.497" fill="#DC3226" mask="url(#b)"/><path d="M29.037 37.327H23.37c-.275 0-.497-.223-.497-.498s.222-.498.497-.498h5.667c.275 0 .497.223.497.497s-.222.497-.497.497M22.422 47.68c-.276 0-.498-.223-.498-.498v-5.2c0-.275.222-.498.498-.498.275 0 .497.223.497.497v5.202c0 .275-.223.497-.498.497" fill="#DC3226" mask="url(#b)"/><path d="M24.582 42.48h-2.16c-.275 0-.498-.224-.498-.498 0-.275.223-.498.497-.498h2.162c.275 0 .498.223.498.498 0 .274-.223.497-.498.497M19.454 52.192c-.275 0-.497-.223-.497-.497v-4.38c0-.274.222-.497.497-.497.276 0 .498.223.498.497v4.38c0 .274-.222.497-.498.497" fill="#DC3226" mask="url(#b)"/><path d="M22.418 47.813h-2.964c-.275 0-.497-.223-.497-.498 0-.274.222-.497.497-.497h2.964c.275 0 .498.223.498.497 0 .275-.223.498-.498.498M73.58 42.48h-48.9c-.273 0-.496-.224-.496-.498 0-.275.223-.498.497-.498h48.9c.276 0 .498.223.498.498 0 .274-.222.497-.497.497" fill="#DC3226" mask="url(#b)"/><path d="M74.775 47.813H22.517c-.275 0-.498-.223-.498-.498 0-.274.222-.497.497-.497h52.258c.275 0 .498.223.498.497 0 .275-.223.498-.498.498M40.974 96.208c-.275 0-.498-.222-.498-.497V70.828c0-.275.223-.498.498-.498s.497.222.497.497V95.71c0 .276-.22.498-.496.498M58.21 95.642c-.276 0-.498-.223-.498-.497V70.827c0-.275.222-.498.497-.498.274 0 .497.222.497.497v24.318c0 .274-.223.497-.498.497" fill="#DC3226" mask="url(#b)"/><path d="M29.794 58.08c-1.263 0-2.29 1.026-2.29 2.29 0 1.26 1.027 2.29 2.29 2.29 1.262 0 2.29-1.03 2.29-2.29 0-1.264-1.028-2.29-2.29-2.29m0 5.574c-1.81 0-3.285-1.474-3.285-3.285 0-1.812 1.473-3.286 3.284-3.286 1.81 0 3.284 1.474 3.284 3.285 0 1.81-1.473 3.284-3.284 3.284M67.952 57.428c-1.262 0-2.29 1.027-2.29 2.29 0 1.262 1.028 2.29 2.29 2.29 1.263 0 2.29-1.028 2.29-2.29 0-1.263-1.027-2.29-2.29-2.29m0 5.574c-1.81 0-3.284-1.473-3.284-3.284 0-1.81 1.473-3.285 3.284-3.285 1.812 0 3.285 1.474 3.285 3.285 0 1.81-1.473 3.284-3.285 3.284M63.423 30.78c-.774 0-1.403.63-1.403 1.404 0 .774.63 1.403 1.403 1.403s1.402-.63 1.402-1.403-.63-1.403-1.402-1.403m0 3.802c-1.322 0-2.398-1.076-2.398-2.398s1.076-2.397 2.398-2.397 2.397 1.075 2.397 2.397c0 1.322-1.075 2.398-2.397 2.398M34.685 30.78c-.774 0-1.403.63-1.403 1.404 0 .774.63 1.403 1.403 1.403s1.402-.63 1.402-1.403-.63-1.403-1.402-1.403m0 3.802c-1.323 0-2.398-1.076-2.398-2.398s1.075-2.397 2.398-2.397c1.32 0 2.397 1.075 2.397 2.397 0 1.322-1.076 2.398-2.397 2.398M38.47 33.17h21.14V31.2H38.47v1.97zm-.994.993h23.13v-3.958h-23.13v3.958z" fill="#9B9B9B" mask="url(#b)"/><path d="M36.94 27.76c-.112 0-.224-.038-.317-.115-.212-.176-.24-.49-.066-.7.798-.964 5.14-5.778 12.228-5.91 7.42-.125 12 4.897 12.84 5.91.175.21.145.524-.066.7-.213.175-.526.145-.7-.066-.79-.95-5.055-5.69-12.056-5.55-6.654.124-10.73 4.644-11.48 5.55-.1.117-.24.18-.385.18" fill="#DC3226" mask="url(#b)"/><path d="M29.794 76.673c-.275 0-.498-.223-.498-.497v-3.628c0-.275.223-.498.498-.498s.497.223.497.498v3.628c0 .274-.22.497-.496.497M29.794 88.23c-.275 0-.498-.222-.498-.496v-3.81c0-.274.223-.497.498-.497s.497.223.497.498v3.81c0 .273-.22.496-.496.496M68.753 76.673c-.276 0-.498-.223-.498-.497v-3.628c0-.275.222-.498.498-.498.275 0 .497.223.497.498v3.628c0 .274-.222.497-.497.497M68.753 88.23c-.276 0-.498-.222-.498-.496v-3.81c0-.274.222-.497.498-.497.275 0 .497.223.497.498v3.81c0 .273-.222.496-.497.496" fill="#9B9B9B" mask="url(#b)"/><path d="M37.994 94.92c-.05.275-.156.55-.334.812 4.51 1.028 9.14 1.408 13.738 1.14.173-.36.472-.683.916-.93-4.786.38-9.618.035-14.32-1.02M27.96 92.402c.224-.258.506-.446.817-.57-5.063-2.295-9.805-5.515-13.963-9.67-18.59-18.575-18.6-48.788-.025-67.348 18.573-18.56 48.808-18.55 67.396.025 18.59 18.573 18.6 48.786.025 67.346-4.46 4.457-9.593 7.838-15.076 10.153.122.266.194.552.205.845 5.63-2.358 10.904-5.817 15.48-10.39 18.91-18.896 18.9-49.654-.025-68.564C63.87-4.68 33.09-4.69 14.18 14.206-4.73 33.1-4.72 63.86 14.206 82.77c4.106 4.103 8.772 7.31 13.753 9.632" fill="#FF5252" mask="url(#b)"/><path d="M40.988 71.324c-.262 0-.48-.204-.496-.47-.146-2.563.8-5.104 2.6-6.972 1.768-1.837 4.204-2.86 6.68-2.82 2.415.047 4.77 1.118 6.458 2.94 1.742 1.88 2.622 4.314 2.476 6.853-.016.274-.25.48-.525.468-.273-.015-.483-.25-.467-.525.13-2.266-.656-4.44-2.213-6.12-1.506-1.624-3.6-2.58-5.747-2.62h-.143c-2.15 0-4.26.91-5.802 2.514-1.606 1.67-2.453 3.938-2.323 6.226.015.275-.194.51-.468.525h-.03M23.37 42.36c-.275 0-.497-.222-.497-.496V36.83c0-.276.222-.498.497-.498s.498.222.498.497v5.034c0 .274-.223.497-.498.497M74.42 42.48c-.274 0-.497-.224-.497-.498V36.83c0-.275.223-.498.498-.498.276 0 .498.223.498.497v5.152c0 .274-.222.497-.497.497" fill="#DC3226" mask="url(#b)"/><path d="M74.42 37.327H29.038c-.275 0-.497-.223-.497-.498s.222-.498.497-.498H74.42c.276 0 .498.223.498.497s-.222.497-.497.497M61.24 27.76h-24.3c-.275 0-.498-.224-.498-.498 0-.275.223-.498.498-.498h24.3c.277 0 .5.223.5.498 0 .274-.223.497-.5.497" fill="#DC3226" mask="url(#b)"/><path d="M37.994 94.92c-.05.275-.156.55-.334.812 4.51 1.028 9.14 1.408 13.738 1.14.173-.36.472-.683.916-.93-4.786.38-9.618.035-14.32-1.02" fill="#FF5252" mask="url(#b)"/><path d="M27.96 92.402c.224-.258.506-.446.817-.57-5.063-2.295-9.805-5.515-13.963-9.67-18.59-18.575-18.6-48.788-.025-67.348 18.573-18.56 48.808-18.55 67.396.025 18.59 18.573 18.6 48.786.025 67.346-4.46 4.457-9.593 7.838-15.076 10.153.122.266.194.552.205.845 5.63-2.358 10.904-5.817 15.48-10.39 18.91-18.896 18.9-49.654-.025-68.564C63.87-4.68 33.09-4.69 14.18 14.206-4.73 33.1-4.72 63.86 14.206 82.77c4.106 4.103 8.772 7.31 13.753 9.632" fill="#DC3226" mask="url(#b)"/></g></svg>