<svg width="100" height="100" viewBox="0 0 100 100" xmlns="http://www.w3.org/2000/svg" xmlns:xlink="http://www.w3.org/1999/xlink"><title>noida</title><defs><path id="a" d="M0 97h97V0H0z"/></defs><g transform="translate(2 2)" fill="none" fill-rule="evenodd"><path d="M96.327 48.5c0 26.514-21.494 48.008-48.008 48.008C21.804 96.508.31 75.014.31 48.5.31 21.986 21.806.492 48.32.492c26.513 0 48.007 21.494 48.007 48.008z" fill="#FFF"/><path d="M88.674 57.667c-.272 0-.492-.22-.492-.493V51.43c0-.272.22-.493.492-.493s.493.22.493.493v5.744c0 .272-.22.493-.493.493M74.164 57.667c-.273 0-.493-.22-.493-.493V51.43c0-.272.22-.493.494-.493.272 0 .492.22.492.493v5.744c0 .272-.22.493-.492.493M32.872 86.632c-.272 0-.492-.22-.492-.493V57.173c0-.27.22-.492.492-.492s.492.22.492.492V86.14c0 .27-.22.492-.492.492" fill="#DC3226"/><path d="M49.244 57.667H32.872c-.272 0-.492-.22-.492-.493 0-.27.22-.492.492-.492h16.372c.272 0 .492.22.492.492s-.22.493-.492.493M35.97 86.632c-.272 0-.492-.22-.492-.493V64.436c0-.272.22-.492.492-.492s.492.22.492.492V86.14c0 .27-.22.492-.492.492" fill="#DC3226"/><path d="M41.735 64.93c-.272 0-.492-.22-.492-.493v-7.263c0-.27.22-.492.492-.492s.492.22.492.492v7.263c0 .272-.22.493-.492.493M34.103 57.667c-.126 0-.252-.048-.348-.144-.193-.193-.193-.504 0-.697l3.385-3.385c.193-.19.504-.19.696 0 .193.194.193.505 0 .697l-3.385 3.386c-.095.096-.22.144-.347.144" fill="#DC3226"/><path d="M40.442 57.667c-.136 0-.273-.057-.37-.17l-2.955-3.384c-.178-.205-.157-.516.048-.694.204-.18.515-.16.694.045l2.954 3.385c.178.206.157.516-.048.695-.093.082-.21.122-.324.122" fill="#DC3226"/><path d="M43.274 86.632c-.273 0-.493-.22-.493-.493V64.436c0-.272.22-.492.494-.492.272 0 .492.22.492.492V86.14c0 .27-.22.492-.492.492M40.196 86.784c-.272 0-.492-.22-.492-.493V64.438c0-.272.22-.492.492-.492.273 0 .493.22.493.492V86.29c0 .273-.22.494-.494.494" fill="#9B9B9B"/><path d="M37.488 54.282c-.272 0-.492-.22-.492-.493v-2.71c0-.27.22-.49.492-.49s.493.22.493.49v2.71c0 .27-.22.492-.492.492" fill="#DC3226"/><path d="M47.887 51.266h-12.43c-.272 0-.492-.22-.492-.493 0-.27.22-.492.492-.492h12.43c.272 0 .492.222.492.493 0 .272-.22.493-.493.493" fill="#9B9B9B"/><path d="M35.458 51.266c-.168 0-.332-.086-.423-.24-.14-.234-.063-.536.17-.676l3.508-2.092c.235-.14.536-.063.675.17.14.234.063.536-.17.676l-3.508 2.092c-.08.048-.167.07-.252.07" fill="#9B9B9B"/><path d="M49.244 39.325H45.92c-.272 0-.492-.22-.492-.492s.22-.492.492-.492h3.324c.272 0 .492.22.492.493 0 .272-.22.492-.492.492" fill="#DC3226"/><path d="M30.205 62.18c-.272 0-.493-.22-.493-.492V46.506c0-.272.22-.492.493-.492.272 0 .492.22.492.492v15.182c0 .272-.22.493-.492.493" fill="#9B9B9B"/><path d="M27.58 47c-.273 0-.494-.222-.494-.494v-2.4c0-.272.22-.493.493-.493.27 0 .49.22.49.492v2.4c0 .273-.22.494-.49.494" fill="#DC3226"/><path d="M26.758 62.18c-.272 0-.492-.22-.492-.492V46.506c0-.272.22-.492.492-.492s.493.22.493.492v15.182c0 .272-.22.493-.492.493M35.125 42.452c-.14 0-.28-.06-.38-.178-.173-.21-.144-.52.065-.693l3.76-3.126c.21-.174.52-.145.693.065.175.207.146.518-.063.692l-3.76 3.126c-.093.076-.204.114-.315.114" fill="#9B9B9B"/><path d="M38.885 39.325c-.272 0-.492-.22-.492-.492v-2.257c0-.27.22-.492.492-.492s.492.22.492.492v2.257c0 .272-.22.492-.492.492" fill="#DC3226"/><path d="M27.58 44.598c-.122 0-.243-.045-.338-.134-.198-.186-.208-.498-.022-.696l4.955-5.272c.185-.198.5-.208.696-.022.198.187.208.498.022.697l-4.954 5.273c-.097.103-.228.155-.36.155" fill="#9B9B9B"/><path d="M36.873 44.598c-.142 0-.283-.06-.38-.18l-4.34-5.272c-.173-.21-.142-.52.068-.693.21-.173.52-.143.694.067l4.34 5.273c.172.21.142.52-.068.692-.092.076-.203.113-.313.113" fill="#9B9B9B"/><path d="M24.46 64.93c-.116 0-.233-.04-.326-.125-.204-.18-.222-.49-.042-.695l4.186-4.718c.18-.205.492-.222.694-.042.204.18.222.492.042.696l-4.185 4.718c-.098.11-.234.166-.37.166" fill="#DC3226"/><path d="M32.534 64.93c-.142 0-.283-.062-.38-.18l-3.888-4.718c-.173-.21-.143-.52.067-.694.21-.172.52-.143.693.067l3.888 4.72c.172.21.143.52-.067.692-.092.076-.203.113-.313.113" fill="#DC3226"/><path d="M54.98 86.318c-.27 0-.492-.22-.492-.492v-21.39c0-.27.22-.49.493-.49s.493.22.493.49v21.39c0 .27-.22.492-.492.492M57.938 86.108c-.272 0-.492-.22-.492-.493V64.437c0-.272.22-.492.492-.492.273 0 .493.22.493.492v21.178c0 .272-.22.493-.492.493M24.132 64.93c-.272 0-.492-.22-.492-.493v-7.263c0-.27.22-.492.492-.492s.493.22.493.492v7.263c0 .272-.22.493-.493.493M7.063 64.93c-.273 0-.493-.22-.493-.493v-7.263c0-.27.22-.492.493-.492.272 0 .492.22.492.492v7.263c0 .272-.22.493-.492.493" fill="#9B9B9B"/><path d="M8.212 57.667c-.272 0-.493-.22-.493-.493V51.43c0-.272.22-.493.492-.493s.492.22.492.493v5.744c0 .272-.22.493-.492.493M23.31 57.667c-.27 0-.49-.22-.49-.493V51.43c0-.272.22-.493.49-.493.274 0 .494.22.494.493v5.744c0 .272-.22.493-.493.493" fill="#DC3226"/><path d="M23.31 51.922c-.23 0-.436-.163-.482-.398-.703-3.63-4.04-6.265-7.605-6.004-3.224.237-5.908 2.705-6.528 6-.05.268-.307.444-.574.394-.267-.05-.442-.308-.392-.575.702-3.735 3.754-6.532 7.423-6.802 4.123-.313 7.835 2.62 8.644 6.798.053.267-.122.525-.39.578-.03.005-.063.008-.093.008M77.678 86.784H18.89c-.272 0-.492-.22-.492-.493 0-.27.22-.49.492-.49h58.788c.272 0 .492.22.492.49 0 .273-.22.494-.492.494M75.36 88.96H21.716c-.273 0-.493-.222-.493-.494s.22-.492.493-.492H75.36c.272 0 .492.22.492.492s-.22.493-.492.493M71.514 91.133H25.486c-.272 0-.492-.22-.492-.492 0-.27.22-.492.492-.492h46.028c.272 0 .492.22.492.493s-.22.493-.492.493M67.17 93.308H29.827c-.272 0-.492-.22-.492-.493 0-.27.22-.492.492-.492H67.17c.272 0 .492.22.492.492s-.22.493-.492.493M32.872 66.92H3.955c-.273 0-.493-.22-.493-.492s.22-.493.493-.493h28.917c.272 0 .492.22.492.493 0 .272-.22.492-.492.492" fill="#DC3226"/><path d="M64.977 86.632c-.273 0-.493-.22-.493-.493V57.173c0-.27.22-.492.493-.492.272 0 .492.22.492.492V86.14c0 .27-.22.492-.493.492" fill="#DC3226"/><path d="M64.977 57.667H49.244c-.272 0-.492-.22-.492-.493 0-.27.22-.492.492-.492h15.733c.272 0 .492.22.492.492s-.22.493-.493.493M62 86.784c-.273 0-.493-.22-.493-.493V64.438c0-.272.22-.492.493-.492.272 0 .492.22.492.492V86.29c0 .273-.22.494-.492.494" fill="#DC3226"/><path d="M56.46 64.93c-.273 0-.493-.22-.493-.493v-7.263c0-.27.22-.492.492-.492s.492.22.492.492v7.263c0 .272-.22.493-.493.493M63.794 57.667c-.13 0-.258-.05-.355-.15l-3.254-3.386c-.19-.196-.182-.507.013-.696.196-.188.507-.18.696.014l3.253 3.385c.187.197.18.508-.015.696-.096.09-.22.137-.34.137" fill="#DC3226"/><path d="M57.7 57.667c-.11 0-.222-.038-.315-.115-.207-.175-.235-.485-.06-.694l2.838-3.385c.176-.208.486-.236.694-.06.208.174.236.484.06.693L58.08 57.49c-.098.117-.238.177-.38.177" fill="#DC3226"/><path d="M60.54 54.282c-.27 0-.492-.22-.492-.493v-2.71c0-.27.22-.49.493-.49s.493.22.493.49v2.71c0 .27-.22.492-.492.492" fill="#DC3226"/><path d="M62.493 51.266H50.548c-.272 0-.493-.22-.493-.493 0-.27.22-.492.493-.492h11.945c.272 0 .492.222.492.493 0 .272-.22.493-.492.493" fill="#9B9B9B"/><path d="M62.492 51.266c-.09 0-.178-.024-.26-.074l-3.37-2.093c-.232-.144-.302-.448-.16-.68.145-.23.448-.3.68-.158l3.37 2.093c.232.143.302.447.16.678-.094.15-.255.233-.42.233" fill="#9B9B9B"/><path d="M52.438 39.325h-3.194c-.272 0-.492-.22-.492-.492s.22-.492.492-.492h3.194c.272 0 .492.22.492.493 0 .272-.22.492-.492.492" fill="#DC3226"/><path d="M67.54 62.18c-.273 0-.493-.22-.493-.492V46.506c0-.272.22-.492.493-.492.272 0 .492.22.492.492v15.182c0 .272-.22.493-.492.493" fill="#9B9B9B"/><path d="M70.063 47c-.272 0-.492-.222-.492-.494v-2.4c0-.272.22-.493.493-.493.272 0 .492.22.492.492v2.4c0 .273-.22.494-.492.494" fill="#DC3226"/><path d="M70.852 62.18c-.273 0-.493-.22-.493-.492V46.506c0-.272.22-.492.492-.492s.492.22.492.492v15.182c0 .272-.22.493-.492.493M62.812 42.452c-.114 0-.23-.04-.322-.12l-3.614-3.127c-.206-.177-.228-.49-.05-.694.178-.205.488-.227.694-.05l3.614 3.127c.206.178.228.49.05.694-.097.114-.234.172-.372.172" fill="#9B9B9B"/><path d="M59.198 39.325c-.272 0-.492-.22-.492-.492v-2.257c0-.27.22-.492.492-.492.273 0 .493.22.493.492v2.257c0 .272-.22.492-.492.492" fill="#DC3226"/><path d="M70.063 44.598c-.134 0-.268-.055-.365-.163l-4.762-5.272c-.182-.202-.166-.513.036-.696.2-.18.513-.165.695.036l4.76 5.272c.184.202.168.513-.034.696-.094.086-.212.128-.33.128" fill="#9B9B9B"/><path d="M61.132 44.598c-.107 0-.215-.035-.305-.107-.214-.167-.25-.477-.08-.69l4.17-5.272c.167-.213.476-.25.69-.08.213.168.25.477.08.69l-4.17 5.273c-.096.124-.24.188-.385.188M73.06 64.93c-.14 0-.278-.06-.375-.173l-4.022-4.72c-.176-.206-.152-.517.056-.693.206-.176.516-.152.693.055l4.02 4.718c.178.206.153.518-.054.694-.094.08-.208.118-.32.118" fill="#9B9B9B"/><path d="M65.3 64.93c-.106 0-.214-.035-.304-.107-.213-.17-.25-.478-.08-.692l3.736-4.717c.168-.213.48-.25.692-.08.213.168.25.478.08.69l-3.736 4.72c-.097.123-.242.187-.387.187M73.375 64.93c-.272 0-.492-.22-.492-.493v-7.263c0-.27.22-.492.492-.492s.492.22.492.492v7.263c0 .272-.22.493-.492.493M89.778 64.93c-.272 0-.492-.22-.492-.493v-7.263c0-.27.22-.492.492-.492s.493.22.493.492v7.263c0 .272-.22.493-.492.493" fill="#9B9B9B"/><path d="M89.778 57.667H73.375c-.272 0-.492-.22-.492-.493 0-.27.22-.492.492-.492h16.403c.272 0 .493.22.493.492s-.22.493-.492.493" fill="#9B9B9B"/><path d="M88.675 57.667c-.155 0-.31-.074-.404-.21l-3.31-4.74c-.157-.223-.103-.53.12-.686.224-.154.53-.1.686.123l3.31 4.74c.158.222.103.53-.12.685-.086.06-.184.09-.28.09" fill="#9B9B9B"/><path d="M81.576 57.667c-.107 0-.215-.035-.306-.108-.213-.17-.248-.48-.078-.693l3.785-4.74c.17-.21.48-.246.693-.076.212.17.246.48.077.692l-3.786 4.74c-.096.12-.24.185-.384.185M74.163 57.667c-.096 0-.193-.028-.278-.087-.225-.153-.28-.46-.127-.684l3.493-5.088c.154-.224.46-.28.685-.127.224.155.28.46.127.685l-3.493 5.088c-.096.14-.25.214-.407.214" fill="#9B9B9B"/><path d="M81.577 57.667c-.147 0-.293-.066-.39-.192l-3.92-5.088c-.166-.215-.127-.524.09-.69.214-.166.523-.126.69.09l3.92 5.087c.166.215.126.524-.09.69-.09.07-.195.103-.3.103" fill="#9B9B9B"/><path d="M74.164 51.922c-.03 0-.06-.002-.09-.008-.268-.05-.444-.307-.394-.574.78-4.182 4.36-7.105 8.33-6.802 3.533.27 6.474 3.07 7.15 6.804.047.268-.13.524-.4.573-.265.05-.522-.13-.57-.397-.596-3.295-3.168-5.76-6.256-5.998-3.404-.26-6.61 2.374-7.286 6-.044.237-.25.402-.484.402M49.244 27.37h-.002c-.272-.002-.492-.223-.49-.495l.006-1.76c0-.27.22-.49.492-.49h.002c.272 0 .492.222.49.495l-.006 1.758c0 .272-.22.49-.492.49M59.198 37.07c-.235 0-.442-.17-.484-.408-.822-4.642-4.808-8.077-9.48-8.17-4.8-.1-9.022 3.42-9.865 8.17-.048.268-.3.446-.57.4-.27-.048-.447-.304-.4-.57.914-5.156 5.472-8.986 10.65-8.986.067 0 .135 0 .204.002 5.14.1 9.526 3.878 10.43 8.983.047.27-.132.524-.4.57-.03.006-.058.01-.086.01M59.198 49.118c-.235 0-.442-.168-.484-.407-.822-4.64-4.808-8.076-9.48-8.168-4.8-.1-9.022 3.42-9.865 8.17-.048.267-.3.444-.57.4-.27-.05-.447-.305-.4-.572.914-5.155 5.472-8.985 10.65-8.985.067 0 .135 0 .204.002 5.14.1 9.526 3.878 10.43 8.983.047.268-.132.523-.4.57-.03.005-.058.008-.086.008" fill="#DC3226"/><path d="M59.12 49.173H38.966c-.272 0-.492-.22-.492-.492 0-.27.22-.492.492-.492H59.12c.274 0 .494.22.494.493s-.22.493-.493.493M59.198 39.325H38.885c-.272 0-.492-.22-.492-.492s.22-.492.492-.492h20.313c.273 0 .493.22.493.493 0 .272-.22.492-.492.492" fill="#9B9B9B"/><path d="M50.662 28.49c-.223 0-.425-.152-.48-.378-.1-.43-.496-.743-.938-.743-.443 0-.837.312-.94.742-.062.265-.33.427-.592.366-.265-.063-.428-.328-.365-.593.208-.882.988-1.5 1.895-1.5h.002c.908 0 1.688.616 1.897 1.5.064.265-.1.53-.364.593-.038.01-.077.013-.114.013M49.23 22.503c-.134.21-.228.39-.238.472 0 .12.106.225.237.225.127 0 .232-.102.236-.23-.014-.083-.106-.262-.237-.467m0 1.682c-.674 0-1.222-.548-1.222-1.222 0-.52.586-1.3.84-1.613l.38-.473.384.473c.252.312.84 1.093.84 1.613 0 .674-.55 1.222-1.223 1.222" fill="#DC3226"/><path d="M49.25 24.364c-.072 0-.13.058-.13.13 0 .145.26.145.26 0 0-.072-.058-.13-.13-.13m0 1.246c-.615 0-1.116-.5-1.116-1.115 0-.616.5-1.116 1.116-1.116.615 0 1.116.5 1.116 1.115s-.5 1.115-1.116 1.115M49.244 49.82h-.002c-.272 0-.492-.22-.49-.492l.006-1.76c0-.27.22-.49.492-.49h.002c.272 0 .492.22.49.494l-.006 1.758c0 .272-.22.49-.492.49M49.23 44.955c-.134.21-.228.39-.238.472 0 .12.106.225.237.225.127 0 .232-.102.236-.23-.014-.083-.106-.26-.237-.467m0 1.682c-.674 0-1.222-.548-1.222-1.22 0-.522.586-1.303.84-1.615l.38-.473.384.472c.252.312.84 1.093.84 1.614 0 .673-.55 1.22-1.223 1.22" fill="#DC3226"/><path d="M49.25 46.816c-.072 0-.13.058-.13.13 0 .145.26.145.26 0 0-.072-.058-.13-.13-.13m0 1.246c-.615 0-1.116-.5-1.116-1.115 0-.616.5-1.116 1.116-1.116.615 0 1.116.5 1.116 1.117 0 .615-.5 1.115-1.116 1.115M49.244 39.405h-.002c-.272 0-.492-.222-.49-.494l.006-1.758c0-.272.22-.49.492-.49h.002c.272 0 .492.22.49.493l-.006 1.76c0 .27-.22.49-.492.49" fill="#DC3226"/><path d="M47.826 40.527c-.038 0-.076-.005-.114-.013-.265-.063-.43-.328-.366-.593.21-.882.99-1.5 1.896-1.5h.002c.908 0 1.688.617 1.897 1.5.064.266-.1.53-.364.594-.264.06-.53-.1-.593-.366-.102-.43-.497-.743-.94-.743-.442 0-.837.313-.94.743-.052.226-.254.38-.477.38M49.23 34.54c-.134.208-.228.39-.238.47 0 .12.106.226.237.226.127 0 .232-.103.236-.23-.014-.084-.106-.262-.237-.467m0 1.68c-.674 0-1.222-.547-1.222-1.22 0-.522.586-1.303.84-1.615l.38-.472.384.472c.252.312.84 1.093.84 1.614 0 .673-.55 1.22-1.223 1.22" fill="#DC3226"/><path d="M49.25 36.4c-.072 0-.13.058-.13.13 0 .145.26.145.26 0 0-.072-.058-.13-.13-.13m0 1.246c-.615 0-1.116-.5-1.116-1.116 0-.615.5-1.115 1.116-1.115.615 0 1.116.5 1.116 1.115s-.5 1.116-1.116 1.116M65.41 39.117c-.273 0-.493-.223-.492-.494l.006-1.76c0-.27.22-.49.492-.49h.002c.272 0 .492.222.49.493l-.005 1.76c0 .27-.22.49-.493.49M65.396 34.25c-.133.21-.227.39-.237.472 0 .12.105.226.236.226.128 0 .233-.103.236-.23-.013-.084-.106-.262-.236-.468m0 1.682c-.674 0-1.222-.548-1.222-1.22 0-.522.587-1.303.84-1.615l.382-.473.383.473c.25.312.837 1.093.837 1.614 0 .674-.547 1.222-1.22 1.222" fill="#DC3226"/><path d="M65.416 36.11c-.072 0-.13.06-.13.132 0 .144.26.144.26 0 0-.073-.058-.13-.13-.13m0 1.245c-.615 0-1.116-.5-1.116-1.115 0-.616.5-1.116 1.116-1.116.615 0 1.116.5 1.116 1.116 0 .615-.5 1.115-1.116 1.115M81.42 44.42h-.002c-.273-.002-.492-.223-.49-.495l.005-1.76c0-.27.22-.49.492-.49h.002c.27 0 .49.222.49.494l-.005 1.758c0 .27-.222.49-.493.49" fill="#DC3226"/><path d="M80 45.54c-.036 0-.075-.003-.113-.012-.265-.063-.428-.328-.365-.593.21-.882.988-1.5 1.895-1.5h.002c.907 0 1.687.616 1.896 1.5.063.264-.1.53-.364.593-.268.06-.53-.1-.593-.366-.104-.43-.5-.743-.94-.743h-.002c-.442 0-.836.312-.938.742-.054.226-.256.38-.48.38M81.405 39.553c-.134.21-.227.39-.238.472 0 .12.107.225.237.225s.234-.103.237-.23c-.012-.084-.105-.262-.235-.467m0 1.682c-.674 0-1.222-.548-1.222-1.22 0-.523.587-1.303.84-1.615l.38-.473.384.472c.252.31.84 1.092.84 1.614 0 .673-.55 1.22-1.223 1.22" fill="#DC3226"/><path d="M81.425 41.414c-.072 0-.13.058-.13.13 0 .145.26.145.26 0 0-.072-.058-.13-.13-.13m0 1.246c-.615 0-1.116-.5-1.116-1.115 0-.616.5-1.116 1.115-1.116s1.116.5 1.116 1.115c0 .614-.5 1.115-1.115 1.115M15.762 44.268h-.002c-.272 0-.492-.222-.49-.494l.006-1.76c0-.27.22-.49.492-.49h.002c.27 0 .49.222.49.494l-.006 1.76c0 .27-.22.49-.492.49" fill="#DC3226"/><path d="M14.344 45.39c-.038 0-.076-.005-.114-.013-.265-.063-.43-.328-.366-.593.21-.883.99-1.5 1.896-1.5h.003c.908 0 1.687.616 1.896 1.5.062.265-.102.53-.366.593-.265.06-.53-.1-.593-.366-.1-.43-.496-.742-.938-.742-.443 0-.837.313-.94.743-.053.227-.256.38-.478.38M15.747 39.402c-.133.21-.227.39-.237.472 0 .12.106.225.237.225.128 0 .233-.103.237-.23-.014-.084-.106-.263-.237-.468m0 1.682c-.673 0-1.22-.548-1.22-1.222 0-.52.585-1.302.838-1.614l.382-.472.383.473c.252.31.838 1.09.838 1.612 0 .674-.547 1.222-1.22 1.222" fill="#DC3226"/><path d="M15.768 41.262c-.072 0-.13.06-.13.13 0 .146.26.146.26 0 0-.07-.058-.13-.13-.13m0 1.247c-.615 0-1.116-.502-1.116-1.117s.5-1.115 1.116-1.115c.615 0 1.116.5 1.116 1.115s-.5 1.116-1.116 1.116M32.534 39.117h-.002c-.272 0-.492-.223-.49-.494l.006-1.76c0-.27.22-.49.492-.49h.002c.27 0 .49.222.49.493l-.006 1.76c0 .27-.22.49-.492.49M32.52 34.25c-.134.21-.228.39-.238.472 0 .12.106.226.237.226.127 0 .232-.103.235-.23-.013-.084-.105-.262-.236-.468m0 1.682c-.675 0-1.223-.548-1.223-1.22 0-.522.587-1.303.84-1.615l.382-.473.382.473c.252.312.838 1.093.838 1.614 0 .674-.547 1.222-1.22 1.222" fill="#DC3226"/><path d="M32.54 36.11c-.072 0-.13.06-.13.132 0 .144.26.144.26 0 0-.073-.058-.13-.13-.13m0 1.245c-.615 0-1.116-.5-1.116-1.115 0-.616.5-1.116 1.116-1.116.615 0 1.116.5 1.116 1.116 0 .615-.5 1.115-1.116 1.115M12.867 61.298H9.935c-.272 0-.492-.22-.492-.492s.22-.493.492-.493h2.932c.273 0 .493.22.493.493 0 .272-.22.492-.493.492M38.954 61.298h-2.932c-.272 0-.492-.22-.492-.492s.22-.493.492-.493h2.932c.273 0 .493.22.493.493 0 .272-.22.492-.493.492M50.574 61.298h-2.932c-.272 0-.492-.22-.492-.492s.22-.493.492-.493h2.932c.272 0 .492.22.492.493 0 .272-.22.492-.492.492M78.29 61.298h-2.93c-.273 0-.493-.22-.493-.492s.22-.493.493-.493h2.93c.274 0 .494.22.494.493 0 .272-.22.492-.493.492M87 61.298h-2.93c-.273 0-.493-.22-.493-.492s.22-.493.492-.493H87c.274 0 .494.22.494.493 0 .272-.22.492-.493.492M62.82 61.298h-2.933c-.272 0-.492-.22-.492-.492s.22-.493.492-.493h2.932c.27 0 .49.22.49.493 0 .272-.22.492-.49.492M20.998 61.298h-2.932c-.272 0-.493-.22-.493-.492s.22-.493.493-.493h2.932c.272 0 .492.22.492.493 0 .272-.22.492-.492.492M25.7 83.39h-2.93c-.273 0-.493-.222-.493-.493 0-.272.22-.493.492-.493h2.93c.273 0 .493.22.493.493 0 .27-.22.492-.492.492M74.84 83.39h-2.93c-.273 0-.493-.222-.493-.493 0-.272.22-.493.492-.493h2.93c.274 0 .494.22.494.493 0 .27-.22.492-.493.492M70.852 44.598H57.206c-.273 0-.493-.22-.493-.493 0-.27.22-.492.493-.492h13.646c.272 0 .492.22.492.492s-.22.493-.492.493M71.483 47H58.585c-.272 0-.492-.222-.492-.494s.22-.492.492-.492h12.898c.272 0 .492.22.492.492s-.22.493-.492.493M40.883 44.598H26.758c-.272 0-.493-.22-.493-.493 0-.27.22-.492.493-.492h14.125c.272 0 .492.22.492.492s-.22.493-.492.493M39.5 47H26.102c-.273 0-.493-.222-.493-.494s.22-.492.492-.492H39.5c.272 0 .492.22.492.492s-.22.493-.492.493" fill="#DC3226"/><path d="M24.132 57.667H7.062c-.272 0-.492-.22-.492-.493 0-.27.22-.492.493-.492h17.07c.27 0 .492.22.492.492s-.22.493-.493.493" fill="#9B9B9B"/><path d="M32.534 64.93H3.204c-.272 0-.492-.22-.492-.493 0-.272.22-.492.493-.492h29.33c.27 0 .49.22.49.492s-.22.493-.49.493M93.798 64.93H65.302c-.273 0-.493-.22-.493-.493 0-.272.22-.492.492-.492h28.496c.272 0 .492.22.492.492s-.22.493-.492.493M93.046 66.92h-28.07c-.272 0-.492-.22-.492-.492s.22-.493.493-.493h28.07c.27 0 .49.22.49.493 0 .272-.22.492-.49.492M49.244 64.93H35.97c-.272 0-.492-.22-.492-.493 0-.272.22-.492.492-.492h13.274c.272 0 .492.22.492.492s-.22.493-.492.493" fill="#DC3226"/><path d="M62 64.93H49.244c-.272 0-.492-.22-.492-.493 0-.272.22-.492.492-.492H62c.272 0 .492.22.492.492s-.22.493-.492.493" fill="#DC3226"/><path d="M15.598 79.332c-.273 0-.493-.22-.493-.493V57.173c0-.27.22-.492.493-.492.272 0 .492.22.492.492V78.84c0 .27-.22.492-.492.492M81.577 79.332c-.272 0-.492-.22-.492-.493V57.173c0-.27.22-.492.492-.492s.492.22.492.492V78.84c0 .27-.22.492-.493.492" fill="#9B9B9B"/><path d="M48.5.985C22.3.985.985 22.3.985 48.5S22.3 96.015 48.5 96.015 96.015 74.7 96.015 48.5 74.7.985 48.5.985M48.5 97C21.757 97 0 75.243 0 48.5S21.757 0 48.5 0 97 21.757 97 48.5 75.243 97 48.5 97" fill="#DC3226"/><path d="M41.735 57.667c-.123 0-.246-.046-.34-.138-.197-.19-.204-.5-.015-.697l7.51-7.816c.187-.196.5-.202.695-.014.196.188.202.5.014.696l-7.51 7.816c-.097.1-.226.15-.355.15" fill="#DC3226"/><path d="M56.46 57.667c-.134 0-.265-.053-.362-.16l-7.216-7.815c-.185-.2-.172-.51.028-.696.2-.184.512-.172.695.028l7.216 7.817c.185.2.173.512-.026.696-.095.088-.215.13-.335.13" fill="#DC3226"/><path d="M82.515 18.695H68.567c-.273 0-.493-.22-.493-.493 0-.272.22-.492.493-.492h13.948c.272 0 .492.22.492.492s-.22.493-.492.493M43.97 12.49H33.8c-.27 0-.49-.222-.49-.493 0-.272.22-.493.49-.493h10.17c.27 0 .49.22.49.493 0 .27-.22.492-.49.492M33.628 25.814H27.55c-.27 0-.49-.22-.49-.493 0-.27.22-.49.49-.49h6.078c.272 0 .492.22.492.49 0 .273-.22.494-.492.494M51.824 11.91H50.26c-.273 0-.494-.22-.494-.492s.22-.492.493-.492h1.564c.272 0 .492.22.492.492s-.22.492-.492.492M82.345 32.17H80.78c-.27 0-.49-.22-.49-.49 0-.273.22-.494.49-.494h1.565c.273 0 .493.22.493.493 0 .27-.22.49-.493.49" fill="#9B9B9B"/><path d="M92.137 29.718h-9.622c-.273 0-.493-.22-.493-.492s.22-.493.493-.493h9.622c.272 0 .492.22.492.493 0 .272-.22.492-.493.492" fill="#DC3226"/><path d="M70.168 25.814h-5.192c-.272 0-.492-.22-.492-.493 0-.27.22-.49.492-.49h5.192c.273 0 .493.22.493.49 0 .273-.22.494-.492.494" fill="#9B9B9B"/><path d="M28.126 17.467h-13.57c-.27 0-.49-.22-.49-.492s.22-.492.49-.492h13.57c.272 0 .492.22.492.492s-.22.492-.492.492M10.344 24.402H7.43c-.272 0-.492-.22-.492-.492s.22-.493.492-.493h2.914c.273 0 .493.22.493.493 0 .27-.22.492-.493.492" fill="#DC3226"/><mask id="b" fill="#fff"><use xlink:href="#a"/></mask><path fill="#9B9B9B" mask="url(#b)" d="M11.012 29.344h5.82v-.985h-5.82"/><path d="M60.54 9.588c-1.532 0-2.78 1.247-2.78 2.78 0 1.532 1.248 2.78 2.78 2.78 1.534 0 2.78-1.248 2.78-2.78 0-1.533-1.246-2.78-2.78-2.78m0 6.544c-2.076 0-3.765-1.69-3.765-3.764 0-2.076 1.69-3.765 3.766-3.765 2.077 0 3.766 1.69 3.766 3.765s-1.69 3.764-3.765 3.764" fill="#DC3226" mask="url(#b)"/><path d="M8.21 57.667c-.1 0-.2-.03-.288-.094-.22-.16-.268-.468-.108-.688l3.446-4.74c.16-.22.468-.27.688-.108.22.16.27.468.11.688l-3.448 4.74c-.096.13-.246.202-.4.202" fill="#9B9B9B" mask="url(#b)"/><path d="M15.598 57.667c-.14 0-.282-.06-.38-.178l-3.938-4.74c-.174-.21-.145-.52.063-.693.21-.175.52-.145.694.064l3.94 4.74c.173.21.144.52-.064.693-.093.076-.204.114-.315.114M23.312 57.667c-.154 0-.305-.072-.4-.206l-3.635-5.087c-.16-.22-.107-.53.114-.687.222-.158.53-.107.688.115l3.634 5.088c.158.22.107.53-.115.687-.086.062-.186.092-.285.092" fill="#9B9B9B" mask="url(#b)"/><path d="M15.597 57.667c-.108 0-.216-.036-.308-.108-.213-.17-.247-.482-.076-.693l4.08-5.088c.17-.213.48-.248.69-.077.214.17.248.48.077.69l-4.078 5.09c-.097.12-.24.184-.385.184" fill="#9B9B9B" mask="url(#b)"/><path d="M85.706 79.332h-20.73c-.27 0-.492-.22-.492-.493 0-.272.22-.493.492-.493h20.73c.272 0 .492.22.492.492 0 .27-.22.492-.492.492M60.34 95.483H36.3c-.274 0-.494-.22-.494-.493 0-.27.22-.492.493-.492h24.04c.27 0 .49.22.49.492s-.22.493-.49.493M23.033 74.348h2.198V72.15h-2.197v2.198zm-.985.985h4.168v-4.168h-4.168v4.168zM72.276 74.348h2.2V72.15h-2.2v2.198zm-.985.985h4.17v-4.168h-4.17v4.168zM32.872 79.332h-21.47c-.273 0-.493-.22-.493-.493 0-.272.22-.493.492-.493h21.47c.272 0 .492.22.492.492 0 .27-.22.492-.492.492" fill="#DC3226" mask="url(#b)"/></g></svg>