<svg width="100" height="100" viewBox="0 0 100 100" xmlns="http://www.w3.org/2000/svg" xmlns:xlink="http://www.w3.org/1999/xlink"><title>pune</title><defs><path id="a" d="M0 97h97V0H0z"/></defs><g transform="translate(2 2)" fill="none" fill-rule="evenodd"><path d="M96.508 48.5c0 26.514-21.494 48.008-48.008 48.008C21.986 96.508.492 75.014.492 48.5.492 21.986 21.986.492 48.5.492c26.514 0 48.008 21.494 48.008 48.008z" fill="#FFF"/><path d="M54.25 96.305c-.272 0-.492-.22-.492-.492V78.5c0-.27.22-.49.492-.49s.492.22.492.49v17.313c0 .27-.22.492-.492.492M41.794 95.954c-.273 0-.493-.22-.493-.492v-16.96c0-.272.22-.493.494-.493.272 0 .492.22.492.49v16.962c0 .27-.22.492-.492.492" fill="#9B9B9B"/><path d="M41.794 78.994c-.273 0-.493-.22-.493-.493 0-5.878 3.037-8.02 6.553-10.497.222-.157.53-.104.686.12.156.22.102.528-.12.685-3.56 2.51-6.134 4.324-6.134 9.693 0 .273-.22.494-.492.494" fill="#9B9B9B"/><path d="M54.256 78.994c-.273 0-.493-.22-.493-.493 0-5.373-2.484-7.186-5.922-9.697-.22-.16-.267-.468-.106-.688.16-.22.468-.267.687-.107 3.396 2.478 6.328 4.62 6.328 10.493 0 .273-.22.494-.492.494M52.68 96.966c-.273 0-.493-.22-.493-.493v-16.38c0-.27.22-.492.493-.492.272 0 .492.222.492.494v16.38c0 .27-.22.492-.492.492M43.366 96.634c-.272 0-.492-.22-.492-.493V80.095c0-.272.22-.492.492-.492s.492.22.492.492V96.14c0 .273-.22.494-.492.494" fill="#9B9B9B"/><path d="M43.366 80.586c-.272 0-.492-.22-.492-.492 0-5.543 2.273-7.57 4.907-9.92.204-.18.515-.164.696.04.18.203.163.514-.04.694-2.658 2.37-4.578 4.084-4.578 9.186 0 .272-.22.492-.492.492" fill="#9B9B9B"/><path d="M52.683 80.586c-.272 0-.492-.22-.492-.492 0-5.107-1.853-6.82-4.42-9.19-.2-.186-.212-.497-.027-.697.184-.2.496-.212.696-.027 2.54 2.348 4.736 4.376 4.736 9.914 0 .272-.22.492-.493.492M52.623 82.007h-9.197c-.272 0-.492-.22-.492-.492s.22-.493.492-.493h9.197c.273 0 .493.22.493.493 0 .27-.22.492-.493.492M52.623 83.527h-9.197c-.272 0-.492-.22-.492-.492s.22-.493.492-.493h9.197c.273 0 .493.22.493.493 0 .27-.22.492-.493.492M52.623 85.047h-9.197c-.272 0-.492-.22-.492-.493 0-.272.22-.492.492-.492h9.197c.273 0 .493.22.493.492s-.22.493-.493.493M52.623 86.567h-9.197c-.272 0-.492-.22-.492-.493 0-.272.22-.492.492-.492h9.197c.273 0 .493.22.493.492s-.22.493-.493.493M52.623 88.087h-9.197c-.272 0-.492-.22-.492-.493 0-.272.22-.492.492-.492h9.197c.273 0 .493.22.493.492s-.22.493-.493.493" fill="#9B9B9B"/><path d="M48.146 97c-.272 0-.492-.22-.493-.492l-.037-25.887c0-.27.22-.49.492-.492.272 0 .493.22.493.49l.038 25.89c0 .27-.22.492-.492.492z" fill="#9B9B9B"/><path d="M71.733 36.34H25.016c-.272 0-.492-.22-.492-.49 0-.273.22-.494.492-.494h46.717c.272 0 .492.22.492.493 0 .27-.22.49-.492.49M33.61 54.378c-.274 0-.494-.22-.494-.493V37.517c0-.272.22-.493.493-.493.27 0 .49.22.49.493v16.368c0 .272-.22.493-.49.493" fill="#DC3226"/><path d="M36.326 45.084h2.633v-2.26h-.76l.527-.77c.003-.004.448-.685.24-1.42-.148-.524-.597-.98-1.336-1.353-.272.107-.838.386-1.123.943-.26.51-.24 1.16.056 1.933l.256.668h-.494v2.26zm3.618.985h-4.602v-4.23h.095c-.18-.778-.112-1.474.2-2.076.59-1.144 1.853-1.477 1.907-1.49l.17-.044.158.073c1.12.52 1.81 1.218 2.047 2.08.15.55.085 1.062-.032 1.456h.056v4.23zM41.717 45.084h2.632v-2.26h-.758l.526-.77c.003-.004.448-.685.24-1.42-.148-.524-.597-.98-1.336-1.353-.273.107-.84.386-1.125.943-.26.51-.24 1.16.056 1.933l.257.668h-.493v2.26zm3.617.985h-4.602v-4.23h.095c-.178-.778-.112-1.474.2-2.076.592-1.144 1.854-1.477 1.907-1.49l.17-.044.16.073c1.12.52 1.808 1.218 2.046 2.08.152.55.086 1.062-.03 1.456h.054v4.23zM47.108 45.084h2.632v-2.26h-.758l.527-.77c0-.004.446-.685.24-1.42-.15-.524-.6-.98-1.338-1.353-.273.107-.838.385-1.124.943-.26.51-.24 1.16.056 1.933l.256.668h-.492v2.26zm3.617.985h-4.602v-4.23h.095c-.18-.778-.112-1.474.2-2.076.59-1.144 1.853-1.477 1.907-1.49l.17-.044.158.073c1.12.52 1.81 1.218 2.048 2.08.152.55.087 1.062-.03 1.456h.055v4.23zM52.498 45.084h2.633v-2.26h-.757l.526-.77c.002-.004.447-.685.24-1.42-.15-.524-.598-.98-1.337-1.353-.273.107-.84.386-1.125.943-.26.51-.24 1.16.057 1.933l.256.668H52.5v2.26zm3.617.985h-4.602v-4.23h.096c-.18-.778-.113-1.474.198-2.076.592-1.144 1.854-1.477 1.907-1.49l.17-.044.16.073c1.12.52 1.808 1.218 2.046 2.08.153.55.087 1.062-.03 1.456h.055v4.23zM57.89 45.084h2.63v-2.26h-.756l.526-.77c.003-.004.447-.685.24-1.42-.15-.524-.598-.98-1.336-1.353-.273.107-.84.386-1.125.943-.26.51-.242 1.16.055 1.933l.256.668h-.49v2.26zm3.616.985h-4.602v-4.23H57c-.18-.778-.113-1.474.2-2.076.59-1.144 1.853-1.477 1.906-1.49l.17-.044.16.073c1.12.52 1.808 1.218 2.046 2.08.152.55.086 1.062-.03 1.456h.054v4.23zM61.23 48.688l-25.785.032.032.205 25.753-.032v-.205zm.032 1.19H35.445c-.526 0-.953-.428-.953-.953v-.237c0-.525.427-.952.953-.952h25.817c.526 0 .953.427.953.952v.237c0 .525-.427.953-.953.953z" fill="#9B9B9B"/><mask id="b" fill="#fff"><use xlink:href="#a"/></mask><path fill="#9B9B9B" mask="url(#b)" d="M33.61 54.378h29.78v-.985H33.61"/><path d="M38.64 53.946l-.978-.12c.045-.37-.057-.733-.28-1-.148-.174-.337-.288-.495-.296-.17-.007-.383.098-.553.278-.252.266-.373.64-.332 1.026l-.98.102c-.07-.673.147-1.33.597-1.806.373-.394.858-.607 1.316-.584.435.022.872.258 1.2.647.398.475.582 1.114.503 1.753M43.138 53.946l-.977-.12c.047-.37-.056-.733-.28-1-.146-.174-.336-.288-.494-.296-.17-.007-.382.098-.553.278-.25.266-.372.64-.332 1.026l-.978.102c-.07-.673.147-1.33.596-1.806.375-.394.86-.607 1.317-.584.436.022.872.258 1.2.647.4.475.582 1.114.503 1.753M47.637 53.946l-.977-.12c.046-.37-.056-.733-.28-1-.147-.174-.336-.288-.495-.296-.17-.007-.382.098-.553.278-.25.266-.372.64-.332 1.026l-.98.103c-.07-.673.148-1.332.598-1.806.374-.394.86-.607 1.317-.584.435.022.872.258 1.2.648.398.474.582 1.113.502 1.752M52.137 53.946l-.977-.12c.045-.37-.057-.733-.28-1-.148-.174-.337-.288-.495-.296-.175-.007-.383.098-.553.278-.252.266-.373.64-.333 1.026l-.98.103c-.07-.673.147-1.332.597-1.806.374-.394.86-.607 1.317-.584.436.022.872.258 1.2.648.4.474.582 1.113.503 1.752M56.636 53.946l-.977-.12c.044-.37-.058-.733-.28-1-.148-.174-.337-.288-.496-.296-.173-.007-.382.098-.552.278-.252.266-.373.64-.333 1.026l-.98.102c-.07-.673.147-1.33.597-1.806.374-.394.86-.607 1.316-.584.436.022.873.258 1.2.648.4.474.582 1.113.503 1.752M61.135 53.946l-.977-.12c.046-.37-.056-.733-.28-1-.147-.174-.336-.288-.494-.296-.17-.007-.383.098-.553.278-.25.266-.372.64-.332 1.026l-.98.103c-.07-.673.148-1.332.598-1.806.374-.394.86-.607 1.317-.584.435.022.872.258 1.2.648.398.474.58 1.113.502 1.752M73.2 51.44h-3.634c-.272 0-.492-.22-.492-.492s.22-.492.492-.492H73.2c.272 0 .492.22.492.492s-.22.493-.492.493" fill="#9B9B9B" mask="url(#b)"/><path d="M70.05 50.948l-.002-.03v-2.535c0-.735.598-1.333 1.334-1.333.735 0 1.333.598 1.333 1.333v2.534l-.003.03h.485l.003-.03v-2.534c0-1.002-.816-1.818-1.818-1.818-1.003 0-1.82.816-1.82 1.818v2.534c0 .01.004.02.004.03h.485zM76.694 50.948l-.003-.03v-2.535c0-.735.6-1.333 1.334-1.333.736 0 1.334.598 1.334 1.333v2.534l-.003.03h.485l.003-.03v-2.534c0-1.002-.816-1.818-1.82-1.818-1 0-1.817.816-1.817 1.818v2.534l.003.03h.484z" fill="#9B9B9B" mask="url(#b)"/><path d="M79.843 51.44H76.21c-.273 0-.493-.22-.493-.492s.22-.492.492-.492h3.633c.272 0 .492.22.492.492s-.22.493-.492.493M4.533 50.948l-.003-.03v-2.535c0-.735.597-1.333 1.333-1.333s1.333.598 1.333 1.333v2.534l-.003.03h.485l.003-.03v-2.534c0-1.002-.815-1.818-1.817-1.818-1.003 0-1.818.816-1.818 1.818v2.534l.003.03h.485z" fill="#9B9B9B" mask="url(#b)"/><path d="M7.682 51.44H4.048c-.273 0-.493-.22-.493-.492s.22-.492.493-.492h3.634c.272 0 .492.22.492.492s-.22.493-.492.493M17.964 50.948l-.003-.03v-2.535c0-.735.6-1.333 1.335-1.333s1.333.598 1.333 1.333v2.534l-.003.03h.485l.003-.03v-2.534c0-1.002-.816-1.818-1.818-1.818-1.003 0-1.82.816-1.82 1.818v2.534c0 .01.004.02.004.03h.484z" fill="#9B9B9B" mask="url(#b)"/><path d="M21.113 51.44H17.48c-.273 0-.493-.22-.493-.492s.22-.492.492-.492h3.633c.272 0 .492.22.492.492s-.22.493-.492.493M24.607 50.948l-.003-.03v-2.535c0-.735.598-1.333 1.333-1.333.736 0 1.334.598 1.334 1.333v2.534l-.002.03h.485l.003-.03v-2.534c0-1.002-.816-1.818-1.82-1.818-1 0-1.817.816-1.817 1.818v2.534l.002.03h.485z" fill="#9B9B9B" mask="url(#b)"/><path d="M27.756 51.44h-3.634c-.272 0-.492-.22-.492-.492s.22-.492.492-.492h3.634c.272 0 .492.22.492.492s-.22.493-.492.493" fill="#9B9B9B" mask="url(#b)"/><path d="M65.06 33.005H31.69c-.272 0-.492-.22-.492-.492s.22-.492.492-.492h33.37c.272 0 .492.22.492.493 0 .272-.22.492-.493.492" fill="#DC3226" mask="url(#b)"/><path d="M71.733 36.34c-.074 0-.15-.016-.22-.05l-6.674-3.336c-.244-.122-.343-.418-.22-.66.12-.244.417-.343.66-.22l6.673 3.334c.243.122.342.418.22.66-.085.173-.26.273-.44.273M25.017 36.34c-.18 0-.355-.1-.44-.27-.123-.244-.024-.54.22-.662l6.673-3.335c.243-.122.54-.023.66.22.122.243.024.54-.22.66l-6.673 3.336c-.07.034-.146.05-.22.05" fill="#DC3226" mask="url(#b)"/><path d="M26.51 37.024h43.73v-.683H26.51v.684zm-.986.985h45.7v-2.654h-45.7v2.653z" fill="#DC3226" mask="url(#b)"/><path d="M28.353 44.68c-.272 0-.492-.22-.492-.492v-6.672c0-.27.22-.492.493-.492.272 0 .492.22.492.492v6.672c0 .272-.22.492-.492.492M68.396 44.79c-.272 0-.492-.22-.492-.492v-6.78c0-.274.22-.494.492-.494s.492.22.492.493v6.78c0 .273-.22.494-.492.494M63.39 54.378c-.27 0-.492-.22-.492-.493V37.517c0-.272.22-.493.493-.493s.493.22.493.493v16.368c0 .272-.22.493-.492.493" fill="#DC3226" mask="url(#b)"/><path d="M33.36 45.894c-.04 0-.078-.005-.117-.014l-5.002-1.214c-.264-.064-.426-.33-.362-.594.065-.265.33-.428.595-.363l5 1.213c.266.064.428.33.364.594-.055.225-.256.377-.478.377" fill="#DC3226" mask="url(#b)"/><path d="M28.357 44.68H.62c-.272 0-.493-.22-.493-.492s.22-.493.493-.493h27.737c.272 0 .492.22.492.493 0 .272-.22.492-.493.492M63.39 46.33c-.21 0-.404-.135-.47-.347-.08-.26.066-.535.326-.615l5.005-1.54c.262-.08.536.066.617.326.08.26-.066.535-.326.615l-5.004 1.54c-.05.014-.097.02-.145.02" fill="#DC3226" mask="url(#b)"/><path d="M96.313 44.68H68.396c-.272 0-.492-.22-.492-.492s.22-.493.492-.493h27.917c.272 0 .492.22.492.493 0 .272-.22.492-.492.492M63.883 53.393H95.82v-.35H63.883v.35zm-.985.985h33.907v-2.32H62.898v2.32zM1.055 53.393h31.937v-.35H1.055v.35zm-.985.985h33.907v-2.32H.07v2.32z" fill="#DC3226" mask="url(#b)"/><path d="M11.67 79.49c-.274 0-.494-.22-.494-.49V44.187c0-.272.22-.493.493-.493.27 0 .49.22.49.493v34.81c0 .273-.22.493-.49.493M33.61 94.207c-.274 0-.494-.22-.494-.492v-39.83c0-.27.22-.492.493-.492.27 0 .49.22.49.493v39.83c0 .27-.22.49-.49.49M63.39 94.55c-.27 0-.492-.22-.492-.492v-40.78c0-.273.22-.494.493-.494s.493.22.493.493v40.78c0 .273-.22.494-.492.494M85.08 80.153c-.27 0-.492-.22-.492-.492V44.3c0-.274.22-.494.493-.494s.493.22.493.493v35.36c0 .273-.22.493-.492.493" fill="#DC3226" mask="url(#b)"/><path d="M15.13 62.802c-.272 0-.492-.22-.492-.493V56.97c0-.272.22-.492.492-.492.273 0 .493.22.493.492v5.337c0 .27-.22.492-.493.492M6.523 63.04c-.273 0-.493-.22-.493-.49V57.21c0-.273.22-.493.493-.493.272 0 .492.22.492.492v5.337c0 .27-.22.49-.492.49M20.136 62.802c-.272 0-.493-.22-.493-.493V56.97c0-.272.22-.492.493-.492.272 0 .492.22.492.492v5.337c0 .27-.22.492-.492.492M25.14 62.802c-.27 0-.49-.22-.49-.493V56.97c0-.272.22-.492.49-.492.274 0 .494.22.494.492v5.337c0 .27-.22.492-.493.492M30.147 62.802c-.272 0-.492-.22-.492-.493V56.97c0-.272.22-.492.492-.492s.492.22.492.492v5.337c0 .27-.22.492-.493.492M66.727 62.802c-.272 0-.492-.22-.492-.493V56.97c0-.272.22-.492.492-.492s.492.22.492.492v5.337c0 .27-.22.492-.493.492M71.733 62.802c-.272 0-.492-.22-.492-.493V56.97c0-.272.22-.492.493-.492.272 0 .492.22.492.492v5.337c0 .27-.22.492-.492.492M76.74 62.802c-.274 0-.494-.22-.494-.493V56.97c0-.272.22-.492.493-.492.27 0 .49.22.49.492v5.337c0 .27-.22.492-.49.492M81.744 62.802c-.272 0-.492-.22-.492-.493V56.97c0-.272.22-.492.492-.492.273 0 .493.22.493.492v5.337c0 .27-.22.492-.493.492M37.212 63.56c-.273 0-.493-.22-.493-.493v-6.374c0-.27.22-.492.492-.492s.492.222.492.493v6.374c0 .272-.22.492-.492.492M43.05 63.56c-.27 0-.49-.22-.49-.493v-6.374c0-.27.22-.492.49-.492.273 0 .493.222.493.493v6.374c0 .272-.22.492-.492.492M48.89 63.56c-.27 0-.49-.22-.49-.493v-6.374c0-.27.22-.492.49-.492.273 0 .493.222.493.493v6.374c0 .272-.22.492-.492.492M54.73 63.56c-.272 0-.492-.22-.492-.493v-6.374c0-.27.22-.492.492-.492.273 0 .493.222.493.493v6.374c0 .272-.22.492-.493.492M60.57 63.56c-.273 0-.493-.22-.493-.493v-6.374c0-.27.22-.492.493-.492.272 0 .492.222.492.493v6.374c0 .272-.22.492-.492.492" fill="#9B9B9B" mask="url(#b)"/><path d="M74.322 74.524c-.828 0-1.5.673-1.5 1.5 0 .828.672 1.5 1.5 1.5s1.5-.672 1.5-1.5c0-.827-.672-1.5-1.5-1.5m0 3.393c-1.044 0-1.893-.85-1.893-1.893 0-1.043.848-1.892 1.892-1.892s1.893.85 1.893 1.892c0 1.044-.85 1.893-1.893 1.893" fill="#FF5252" mask="url(#b)"/><path d="M74.322 74.77c-.692 0-1.255.563-1.255 1.254 0 .692.563 1.255 1.255 1.255s1.255-.564 1.255-1.256c0-.69-.563-1.254-1.255-1.254m0 3.393c-1.18 0-2.14-.96-2.14-2.14 0-1.178.96-2.137 2.14-2.137 1.18 0 2.14.96 2.14 2.138 0 1.18-.96 2.14-2.14 2.14" fill="#DC3226" mask="url(#b)"/><path d="M22.64 74.524c-.83 0-1.503.673-1.503 1.5 0 .828.674 1.5 1.502 1.5.826 0 1.5-.672 1.5-1.5 0-.827-.674-1.5-1.5-1.5m0 3.393c-1.045 0-1.894-.85-1.894-1.893 0-1.043.85-1.892 1.893-1.892 1.043 0 1.89.85 1.89 1.892 0 1.044-.847 1.893-1.89 1.893" fill="#FF5252" mask="url(#b)"/><path d="M22.64 74.77c-.693 0-1.256.563-1.256 1.254 0 .692.563 1.255 1.255 1.255.69 0 1.254-.564 1.254-1.256 0-.69-.564-1.254-1.255-1.254m0 3.393c-1.18 0-2.14-.96-2.14-2.14 0-1.178.96-2.137 2.14-2.137 1.178 0 2.138.96 2.138 2.138 0 1.18-.96 2.14-2.14 2.14" fill="#DC3226" mask="url(#b)"/><path d="M82.695 18.695H68.747c-.272 0-.492-.22-.492-.493 0-.272.22-.492.492-.492h13.948c.273 0 .493.22.493.492s-.22.493-.493.493M52.247 18.695H42.08c-.272 0-.492-.22-.492-.493 0-.272.22-.492.492-.492h10.167c.273 0 .493.22.493.492s-.22.493-.493.493M52.787 15.407h-1.565c-.27 0-.492-.22-.492-.492s.22-.493.492-.493h1.565c.272 0 .492.22.492.493 0 .272-.22.492-.493.492M82.527 31.943h-1.565c-.136 0-.246-.114-.246-.255 0-.14.11-.255.246-.255h1.565c.135 0 .246.114.246.255 0 .14-.11.255-.246.255" fill="#9B9B9B" mask="url(#b)"/><path d="M92.318 29.49h-9.623c-.136 0-.246-.114-.246-.255 0-.14.11-.255.245-.255h9.623c.136 0 .246.114.246.255 0 .14-.11.255-.246.255" fill="#DC3226" mask="url(#b)"/><path d="M70.35 25.814h-5.193c-.272 0-.492-.22-.492-.493 0-.27.22-.49.492-.49h5.192c.27 0 .492.22.492.49 0 .273-.22.494-.493.494" fill="#9B9B9B" mask="url(#b)"/><path d="M28.307 17.467h-13.57c-.27 0-.49-.22-.49-.492s.22-.492.49-.492h13.57c.272 0 .492.22.492.492s-.22.492-.493.492M10.526 24.402H7.61c-.27 0-.49-.22-.49-.492s.22-.493.49-.493h2.916c.272 0 .492.22.492.493 0 .27-.22.492-.492.492" fill="#DC3226" mask="url(#b)"/><path fill="#9B9B9B" mask="url(#b)" d="M11.192 29.344h5.82v-.985h-5.82"/><path d="M57.998 14.196c-1.533 0-2.78 1.246-2.78 2.78 0 1.532 1.247 2.78 2.78 2.78 1.533 0 2.78-1.248 2.78-2.78 0-1.534-1.247-2.78-2.78-2.78m0 6.543c-2.077 0-3.766-1.69-3.766-3.765s1.69-3.764 3.766-3.764c2.077 0 3.765 1.69 3.765 3.765s-1.688 3.764-3.765 3.764" fill="#DC3226" mask="url(#b)"/><path d="M48.5.985C22.3.985.985 22.3.985 48.5S22.3 96.015 48.5 96.015 96.015 74.7 96.015 48.5 74.7.985 48.5.985M48.5 97C21.757 97 0 75.243 0 48.5S21.757 0 48.5 0 97 21.757 97 48.5 75.243 97 48.5 97" fill="#DC3226" mask="url(#b)"/><path d="M89.523 50.948l-.003-.03v-2.535c0-.735.597-1.333 1.333-1.333s1.333.598 1.333 1.333v2.534l-.003.03h.485l.003-.03v-2.534c0-1.002-.814-1.818-1.817-1.818-1.002 0-1.818.816-1.818 1.818v2.534l.003.03h.485z" fill="#9B9B9B" mask="url(#b)"/><path d="M92.67 51.44H89.04c-.273 0-.493-.22-.493-.492s.22-.492.493-.492h3.633c.274 0 .494.22.494.492s-.22.493-.493.493M90.225 62.795c-.14 0-.255-.11-.255-.246V57.21c0-.137.114-.247.255-.247.14 0 .256.11.256.247v5.337c0 .135-.114.245-.255.245" fill="#9B9B9B" mask="url(#b)"/></g></svg>